G04*
G04 #@! TF.GenerationSoftware,Altium Limited,Altium Designer,25.5.2 (35)*
G04*
G04 Layer_Color=255*
%FSLAX25Y25*%
%MOIN*%
G70*
G04*
G04 #@! TF.SameCoordinates,74914265-353A-42BA-94C5-A8DABEA31AB8*
G04*
G04*
G04 #@! TF.FilePolarity,Positive*
G04*
G01*
G75*
%ADD160C,0.05512*%
%ADD161R,0.05512X0.05512*%
%ADD165R,0.06102X0.06102*%
%ADD179C,0.06102*%
%ADD183C,0.08268*%
%ADD184R,0.08268X0.08268*%
%ADD185C,0.05071*%
%ADD186C,0.07087*%
%ADD187R,0.07795X0.07795*%
%ADD188R,0.07087X0.07087*%
%ADD189R,0.06000X0.06000*%
%ADD190O,0.04724X0.09449*%
%ADD191O,0.04559X0.09118*%
%ADD192R,0.08268X0.08268*%
%ADD193R,0.05071X0.05071*%
%ADD194C,0.07795*%
%ADD195C,0.06000*%
%ADD196C,0.02362*%
%ADD197C,0.02480*%
%ADD198C,0.07618*%
%ADD199R,0.07087X0.07087*%
D160*
X231693Y96457D02*
D03*
X244685Y116142D02*
D03*
X231693D02*
D03*
Y106299D02*
D03*
X244685D02*
D03*
X341339D02*
D03*
X220472D02*
D03*
Y116142D02*
D03*
X207480D02*
D03*
X291929Y106299D02*
D03*
Y116142D02*
D03*
X278937D02*
D03*
Y106299D02*
D03*
Y96457D02*
D03*
X267717Y106299D02*
D03*
X354331Y116142D02*
D03*
X207480Y96457D02*
D03*
Y106299D02*
D03*
X254724Y96457D02*
D03*
Y106299D02*
D03*
Y116142D02*
D03*
X267717D02*
D03*
X316929Y96457D02*
D03*
Y106299D02*
D03*
Y116142D02*
D03*
X329921D02*
D03*
Y106299D02*
D03*
X341339Y96457D02*
D03*
Y116142D02*
D03*
X354331Y106299D02*
D03*
X519685Y317992D02*
D03*
X559055D02*
D03*
D161*
X244685Y96457D02*
D03*
X291929D02*
D03*
X220472D02*
D03*
X267717D02*
D03*
X329921D02*
D03*
X354331D02*
D03*
D165*
X155169Y53031D02*
D03*
X447402Y338500D02*
D03*
D179*
X437402D02*
D03*
X427402D02*
D03*
X165169Y53031D02*
D03*
X175169D02*
D03*
D183*
X233780Y74803D02*
D03*
X218779D02*
D03*
X263779D02*
D03*
X248780D02*
D03*
X622047Y74803D02*
D03*
X607047D02*
D03*
X74803D02*
D03*
X59803D02*
D03*
X320394Y74803D02*
D03*
X335394D02*
D03*
X477126Y74803D02*
D03*
X492126D02*
D03*
X462126D02*
D03*
X447126D02*
D03*
X547992D02*
D03*
X562992D02*
D03*
X681102D02*
D03*
X666102D02*
D03*
X74803Y333898D02*
D03*
D184*
X577992Y74803D02*
D03*
X507126D02*
D03*
X350394Y74803D02*
D03*
X278780D02*
D03*
X89803Y74803D02*
D03*
X637047D02*
D03*
X696102D02*
D03*
D185*
X66929Y204409D02*
D03*
Y224410D02*
D03*
Y184409D02*
D03*
D186*
X132047Y62992D02*
D03*
Y72992D02*
D03*
X654449Y336811D02*
D03*
X664449D02*
D03*
X674449D02*
D03*
X122047Y62992D02*
D03*
X132047Y52992D02*
D03*
X122047D02*
D03*
D187*
X637795Y153937D02*
D03*
X704724D02*
D03*
D188*
X644449Y336811D02*
D03*
D189*
X627924Y283465D02*
D03*
D190*
X496929Y348425D02*
D03*
X462913D02*
D03*
D191*
X496929Y333366D02*
D03*
X462913D02*
D03*
D192*
X74803Y318898D02*
D03*
D193*
X66929Y234409D02*
D03*
D194*
X590551Y153937D02*
D03*
Y105905D02*
D03*
X637795D02*
D03*
X704724D02*
D03*
X657480D02*
D03*
Y153937D02*
D03*
D195*
X704724Y283465D02*
D03*
D196*
X468110Y336221D02*
D03*
D197*
D03*
X491732D02*
D03*
D198*
X614173Y161811D02*
D03*
X681102D02*
D03*
D199*
X122047Y72992D02*
D03*
M02*
