G04*
G04 #@! TF.GenerationSoftware,Altium Limited,Altium Designer,25.5.2 (35)*
G04*
G04 Layer_Color=16711935*
%FSLAX25Y25*%
%MOIN*%
G70*
G04*
G04 #@! TF.SameCoordinates,74914265-353A-42BA-94C5-A8DABEA31AB8*
G04*
G04*
G04 #@! TF.FilePolarity,Negative*
G04*
G01*
G75*
%ADD159R,0.00800X0.00800*%
%ADD160C,0.05512*%
%ADD161R,0.05512X0.05512*%
%ADD162C,0.09068*%
%ADD163R,0.09068X0.09068*%
%ADD164C,0.05871*%
%ADD165R,0.06102X0.06102*%
%ADD166C,0.07887*%
%ADD167R,0.08595X0.08595*%
%ADD168R,0.07887X0.07887*%
%ADD169R,0.06800X0.06800*%
%ADD170O,0.05524X0.10249*%
%ADD171O,0.05359X0.09918*%
%ADD172R,0.09068X0.09068*%
%ADD173R,0.05871X0.05871*%
%ADD174C,0.08595*%
%ADD175C,0.06800*%
%ADD176C,0.03162*%
%ADD177C,0.03280*%
%ADD178C,0.08418*%
%ADD179C,0.06102*%
%ADD180R,0.07887X0.07887*%
%ADD181C,0.06312*%
D159*
X561024Y102362D02*
D03*
X133858D02*
D03*
X702756Y334646D02*
D03*
X616142D02*
D03*
X702756Y248031D02*
D03*
X616142D02*
D03*
X401575Y334646D02*
D03*
X401575Y59055D02*
D03*
X590551Y318898D02*
D03*
X728346Y334646D02*
D03*
Y59055D02*
D03*
X163386Y318898D02*
D03*
X59055Y287402D02*
D03*
Y102362D02*
D03*
D160*
X231693Y96457D02*
D03*
X244685Y116142D02*
D03*
X231693D02*
D03*
Y106299D02*
D03*
X244685D02*
D03*
X341339D02*
D03*
X220472D02*
D03*
Y116142D02*
D03*
X207480D02*
D03*
X291929Y106299D02*
D03*
Y116142D02*
D03*
X278937D02*
D03*
Y106299D02*
D03*
Y96457D02*
D03*
X267717Y106299D02*
D03*
X354331Y116142D02*
D03*
X207480Y96457D02*
D03*
Y106299D02*
D03*
X254724Y96457D02*
D03*
Y106299D02*
D03*
Y116142D02*
D03*
X267717D02*
D03*
X316929Y96457D02*
D03*
Y106299D02*
D03*
Y116142D02*
D03*
X329921D02*
D03*
Y106299D02*
D03*
X341339Y96457D02*
D03*
Y116142D02*
D03*
X354331Y106299D02*
D03*
D161*
X244685Y96457D02*
D03*
X291929D02*
D03*
X220472D02*
D03*
X267717D02*
D03*
X329921D02*
D03*
X354331D02*
D03*
D162*
X233780Y74803D02*
D03*
X218779D02*
D03*
X263779D02*
D03*
X248780D02*
D03*
X622047Y74803D02*
D03*
X607047D02*
D03*
X74803D02*
D03*
X59803D02*
D03*
X320394Y74803D02*
D03*
X335394D02*
D03*
X477126Y74803D02*
D03*
X492126D02*
D03*
X462126D02*
D03*
X447126D02*
D03*
X547992D02*
D03*
X562992D02*
D03*
X681102D02*
D03*
X666102D02*
D03*
X74803Y333898D02*
D03*
D163*
X577992Y74803D02*
D03*
X507126D02*
D03*
X350394Y74803D02*
D03*
X278780D02*
D03*
X89803Y74803D02*
D03*
X637047D02*
D03*
X696102D02*
D03*
D164*
X66929Y204409D02*
D03*
Y224410D02*
D03*
Y184409D02*
D03*
D165*
X155169Y53031D02*
D03*
X447402Y338500D02*
D03*
D166*
X132047Y62992D02*
D03*
Y72992D02*
D03*
X654449Y336811D02*
D03*
X664449D02*
D03*
X674449D02*
D03*
X122047Y62992D02*
D03*
X132047Y52992D02*
D03*
X122047D02*
D03*
D167*
X637795Y153937D02*
D03*
X704724D02*
D03*
D168*
X644449Y336811D02*
D03*
D169*
X627924Y283465D02*
D03*
D170*
X496929Y348425D02*
D03*
X462913D02*
D03*
D171*
X496929Y333366D02*
D03*
X462913D02*
D03*
D172*
X74803Y318898D02*
D03*
D173*
X66929Y234409D02*
D03*
D174*
X590551Y153937D02*
D03*
Y105905D02*
D03*
X637795D02*
D03*
X704724D02*
D03*
X657480D02*
D03*
Y153937D02*
D03*
D175*
X704724Y283465D02*
D03*
D176*
X468110Y336221D02*
D03*
X460630Y59055D02*
D03*
X496063D02*
D03*
X566929D02*
D03*
X655512Y47244D02*
D03*
X620079D02*
D03*
X738189Y94488D02*
D03*
X342520Y59055D02*
D03*
X596456Y47244D02*
D03*
X295275Y59055D02*
D03*
X561023Y47244D02*
D03*
X720472Y82677D02*
D03*
X513779Y47244D02*
D03*
X383858D02*
D03*
X230315Y165354D02*
D03*
X47244Y129921D02*
D03*
X732283Y82677D02*
D03*
X336614Y47244D02*
D03*
X141732Y59055D02*
D03*
X47244Y200787D02*
D03*
X324803Y47244D02*
D03*
X377953Y59055D02*
D03*
X171260Y94488D02*
D03*
X271654Y177165D02*
D03*
X312992Y47244D02*
D03*
X584646Y141732D02*
D03*
X318898Y59055D02*
D03*
X70866D02*
D03*
X265748Y47244D02*
D03*
X59055Y59055D02*
D03*
X330709D02*
D03*
X47244Y177165D02*
D03*
X549212Y47244D02*
D03*
X472441Y59055D02*
D03*
X100394Y47244D02*
D03*
X47244Y59055D02*
D03*
X277559Y47244D02*
D03*
X643701D02*
D03*
X348425D02*
D03*
X289370D02*
D03*
X259842Y59055D02*
D03*
X307086D02*
D03*
X690945Y47244D02*
D03*
X76772D02*
D03*
X702756Y141732D02*
D03*
X301181Y47244D02*
D03*
X88583D02*
D03*
X679134D02*
D03*
X366142Y59055D02*
D03*
X94488D02*
D03*
X643701Y188976D02*
D03*
X519685Y59055D02*
D03*
X578740Y153543D02*
D03*
X649606Y59055D02*
D03*
X289370Y70866D02*
D03*
X608267Y47244D02*
D03*
X525590Y70866D02*
D03*
X702756Y47244D02*
D03*
X271654Y59055D02*
D03*
X631890Y47244D02*
D03*
X253937D02*
D03*
X531496Y59055D02*
D03*
X484252D02*
D03*
X183071Y47244D02*
D03*
X643701Y165354D02*
D03*
X501968Y47244D02*
D03*
X572834D02*
D03*
X454724D02*
D03*
X47244Y82677D02*
D03*
X53150Y165354D02*
D03*
X637795Y129921D02*
D03*
X590551D02*
D03*
X490157Y47244D02*
D03*
X655512Y165354D02*
D03*
X354331Y59055D02*
D03*
X466535Y47244D02*
D03*
X372047D02*
D03*
X82677Y59055D02*
D03*
X141732Y82677D02*
D03*
X183071Y94488D02*
D03*
X655512Y141732D02*
D03*
X478346Y47244D02*
D03*
X702756Y165354D02*
D03*
X194882D02*
D03*
X507874Y59055D02*
D03*
X667323Y47244D02*
D03*
X584646D02*
D03*
X578740Y59055D02*
D03*
X537401Y47244D02*
D03*
X525590D02*
D03*
X53150D02*
D03*
X129921Y82677D02*
D03*
X64961Y47244D02*
D03*
X649606Y129921D02*
D03*
X643701Y141732D02*
D03*
X726378Y94488D02*
D03*
X283465Y59055D02*
D03*
X448819D02*
D03*
X590551D02*
D03*
X360236Y47244D02*
D03*
X326772Y157480D02*
D03*
X411417Y139764D02*
D03*
X324803Y141732D02*
D03*
X384081Y98866D02*
D03*
X127953Y198819D02*
D03*
X130654Y148371D02*
D03*
X86614Y98425D02*
D03*
X181102Y82677D02*
D03*
X149606D02*
D03*
X171260D02*
D03*
X157480D02*
D03*
X70157Y157324D02*
D03*
X149349Y200094D02*
D03*
X84608Y106457D02*
D03*
X70866Y137795D02*
D03*
X62992D02*
D03*
X66929Y141732D02*
D03*
X72954Y142968D02*
D03*
X76772Y137795D02*
D03*
X175197Y181102D02*
D03*
X212598Y183071D02*
D03*
X287479Y180693D02*
D03*
X250000Y181102D02*
D03*
X127280Y189575D02*
D03*
X133858Y188976D02*
D03*
X94488Y198819D02*
D03*
X122354Y201573D02*
D03*
X144426Y183952D02*
D03*
X155512Y196850D02*
D03*
X200787D02*
D03*
X250000D02*
D03*
X340765Y164614D02*
D03*
X341195Y174746D02*
D03*
X403830Y179599D02*
D03*
X546217Y149742D02*
D03*
X570866Y149606D02*
D03*
X427165Y153543D02*
D03*
X683071Y179134D02*
D03*
X618110Y181102D02*
D03*
X675197D02*
D03*
X429055Y190317D02*
D03*
X594488Y185039D02*
D03*
X297244Y196850D02*
D03*
X385827Y192913D02*
D03*
X611066Y182008D02*
D03*
X653543Y185039D02*
D03*
X690945Y342520D02*
D03*
X685039Y330709D02*
D03*
X679134Y318898D02*
D03*
X643701D02*
D03*
X655512D02*
D03*
X714567D02*
D03*
X726378Y295275D02*
D03*
X702756Y318898D02*
D03*
X690945D02*
D03*
X708661Y307086D02*
D03*
X631890Y342520D02*
D03*
X608267D02*
D03*
X631890Y318898D02*
D03*
X555118Y330709D02*
D03*
X549212Y318898D02*
D03*
X614173Y307086D02*
D03*
X592520Y295276D02*
D03*
X566929Y307086D02*
D03*
X673228Y283465D02*
D03*
X661417D02*
D03*
X685039D02*
D03*
X614173D02*
D03*
X566929Y291339D02*
D03*
Y283465D02*
D03*
X543307Y330709D02*
D03*
X531496D02*
D03*
X537401Y318898D02*
D03*
X524343Y293073D02*
D03*
X496063Y307086D02*
D03*
X483815Y316056D02*
D03*
X488091Y293275D02*
D03*
X547244Y277559D02*
D03*
X488189Y285433D02*
D03*
X462598D02*
D03*
X456693Y279528D02*
D03*
X702756Y271654D02*
D03*
X679134D02*
D03*
X696850Y259842D02*
D03*
X655512Y271654D02*
D03*
X643701D02*
D03*
X667323D02*
D03*
X690945Y248031D02*
D03*
X679134D02*
D03*
X708661Y236220D02*
D03*
X655512Y248031D02*
D03*
X643701D02*
D03*
X667323D02*
D03*
X631890D02*
D03*
X549212D02*
D03*
X543307Y259842D02*
D03*
X561023Y248031D02*
D03*
X566929Y236220D02*
D03*
X555118D02*
D03*
X578740D02*
D03*
X740158Y200787D02*
D03*
Y173228D02*
D03*
X714567Y224409D02*
D03*
X667323D02*
D03*
X655512D02*
D03*
X561023Y200787D02*
D03*
X507874Y259842D02*
D03*
X496063Y255906D02*
D03*
X498032Y244094D02*
D03*
X496901Y250600D02*
D03*
X481867Y275061D02*
D03*
X462598Y273622D02*
D03*
X484252Y212598D02*
D03*
X464567Y240158D02*
D03*
X454875Y230862D02*
D03*
X460630Y188976D02*
D03*
X250000Y326772D02*
D03*
Y318898D02*
D03*
X289370Y295275D02*
D03*
X312992D02*
D03*
X250000Y336614D02*
D03*
Y344488D02*
D03*
X240158Y326772D02*
D03*
Y344488D02*
D03*
X230315D02*
D03*
X240158Y336614D02*
D03*
Y318898D02*
D03*
X230315D02*
D03*
X236220Y307086D02*
D03*
X450787Y285433D02*
D03*
Y273622D02*
D03*
X416185Y275656D02*
D03*
X277559Y295275D02*
D03*
X265748D02*
D03*
X301181D02*
D03*
X413298Y289798D02*
D03*
X336614Y271654D02*
D03*
X318898Y283465D02*
D03*
X330709D02*
D03*
X206693Y342520D02*
D03*
X194882D02*
D03*
X218504D02*
D03*
X171260D02*
D03*
X159449D02*
D03*
X183071D02*
D03*
X230315Y326772D02*
D03*
Y336614D02*
D03*
X224409Y307086D02*
D03*
X112205Y295275D02*
D03*
X118110Y283465D02*
D03*
X59055Y330709D02*
D03*
X53150Y318898D02*
D03*
Y342520D02*
D03*
X47244Y330709D02*
D03*
Y307086D02*
D03*
X88583Y295275D02*
D03*
X100394D02*
D03*
X70866Y307086D02*
D03*
X82677D02*
D03*
X165354Y278559D02*
D03*
X194882Y271654D02*
D03*
X183071D02*
D03*
X106299Y283465D02*
D03*
X94488D02*
D03*
X129921D02*
D03*
X82677D02*
D03*
X76772Y271654D02*
D03*
X88583D02*
D03*
X135827D02*
D03*
X124016D02*
D03*
X147638D02*
D03*
X100394D02*
D03*
X112205D02*
D03*
X429262Y257865D02*
D03*
X324803Y271654D02*
D03*
X312992Y248031D02*
D03*
X301181D02*
D03*
X277559D02*
D03*
X289370D02*
D03*
X364380Y244350D02*
D03*
X177165Y261811D02*
D03*
X129921Y259842D02*
D03*
X118110D02*
D03*
X106299D02*
D03*
X94488D02*
D03*
X153543Y251969D02*
D03*
X230315Y248031D02*
D03*
X218504D02*
D03*
X242126D02*
D03*
X194882D02*
D03*
X183071D02*
D03*
X206693D02*
D03*
X265748D02*
D03*
X253937D02*
D03*
X112205D02*
D03*
X100394D02*
D03*
X171260D02*
D03*
X88583D02*
D03*
X47244Y236220D02*
D03*
X736221Y314961D02*
D03*
X601342Y291136D02*
D03*
X576772Y291339D02*
D03*
X549044Y288479D02*
D03*
X541166Y311656D02*
D03*
X724529Y245330D02*
D03*
X602362Y259842D02*
D03*
X572835Y253937D02*
D03*
X728346Y163386D02*
D03*
X555118Y279528D02*
D03*
X518543Y282677D02*
D03*
X512385Y282932D02*
D03*
X542043Y278429D02*
D03*
X530712Y278565D02*
D03*
X531496Y240158D02*
D03*
X523622Y194882D02*
D03*
X497275Y283642D02*
D03*
X496967Y275429D02*
D03*
X496063Y295276D02*
D03*
X474409Y289370D02*
D03*
X496063Y265748D02*
D03*
X465574Y262651D02*
D03*
X399606Y309055D02*
D03*
Y314961D02*
D03*
Y303150D02*
D03*
X442913Y293307D02*
D03*
X399606D02*
D03*
X391732Y309055D02*
D03*
Y314961D02*
D03*
Y303150D02*
D03*
X330709Y246063D02*
D03*
X459584Y230531D02*
D03*
X431045Y227994D02*
D03*
X297244Y228346D02*
D03*
X250000Y230315D02*
D03*
X498032Y202756D02*
D03*
X478346D02*
D03*
X458661D02*
D03*
X383858Y226378D02*
D03*
X202756Y230315D02*
D03*
X155512Y232283D02*
D03*
X149123Y236833D02*
D03*
X129556Y237493D02*
D03*
X122047Y228346D02*
D03*
X94488Y230315D02*
D03*
X147638Y228346D02*
D03*
X248031Y299213D02*
D03*
X332677Y342520D02*
D03*
X362205Y265748D02*
D03*
Y271654D02*
D03*
X74803Y251969D02*
D03*
Y240158D02*
D03*
X76984Y246497D02*
D03*
X70866Y255906D02*
D03*
Y246063D02*
D03*
X62992D02*
D03*
X356299Y275590D02*
D03*
Y269685D02*
D03*
Y263779D02*
D03*
X350394Y271654D02*
D03*
Y265748D02*
D03*
Y277559D02*
D03*
X324803Y163386D02*
D03*
X370079Y334646D02*
D03*
X375984D02*
D03*
X381890D02*
D03*
X379921Y340551D02*
D03*
X372047D02*
D03*
X381890Y346457D02*
D03*
X375984D02*
D03*
X370079D02*
D03*
X141732Y320866D02*
D03*
X129921D02*
D03*
X143612Y287313D02*
D03*
X143581Y296009D02*
D03*
X141732Y326772D02*
D03*
X129921D02*
D03*
X390000Y170000D02*
D03*
X395000Y160000D02*
D03*
X390000Y150000D02*
D03*
X380000Y170000D02*
D03*
X385000Y160000D02*
D03*
Y140000D02*
D03*
X380000Y130000D02*
D03*
X370000Y170000D02*
D03*
X375000Y160000D02*
D03*
X370000Y150000D02*
D03*
X375000Y140000D02*
D03*
X370000Y130000D02*
D03*
X365000Y160000D02*
D03*
Y140000D02*
D03*
X435000Y100000D02*
D03*
X430000Y90000D02*
D03*
X435000Y80000D02*
D03*
X430000Y70000D02*
D03*
X435000Y60000D02*
D03*
X430000Y50000D02*
D03*
X425000Y100000D02*
D03*
Y80000D02*
D03*
X420000Y70000D02*
D03*
X425000Y60000D02*
D03*
X420000Y50000D02*
D03*
X415000Y100000D02*
D03*
Y80000D02*
D03*
X405000Y100000D02*
D03*
X400000Y90000D02*
D03*
X405000Y80000D02*
D03*
X476016Y280197D02*
D03*
X473577Y282512D02*
D03*
X470836Y297248D02*
D03*
X460686Y297300D02*
D03*
X454724Y297244D02*
D03*
X509842Y287402D02*
D03*
X473500Y268269D02*
D03*
X515212Y304006D02*
D03*
X460604Y303552D02*
D03*
X470842Y304456D02*
D03*
X580709Y216535D02*
D03*
X437008Y279528D02*
D03*
X411433Y267717D02*
D03*
X405512Y257874D02*
D03*
X397638Y265748D02*
D03*
X411417Y314961D02*
D03*
X433071Y285433D02*
D03*
X724409Y261811D02*
D03*
X421260Y306913D02*
D03*
X411417D02*
D03*
X417323Y314961D02*
D03*
X421266Y327468D02*
D03*
X419548Y322763D02*
D03*
X433258Y297937D02*
D03*
X726623Y252998D02*
D03*
X613692Y275462D02*
D03*
X605889Y276822D02*
D03*
X731622Y210341D02*
D03*
X425338Y306913D02*
D03*
X436990Y271666D02*
D03*
X437008Y275590D02*
D03*
X439347Y297665D02*
D03*
X445528Y304177D02*
D03*
X438450Y303773D02*
D03*
X450271Y303466D02*
D03*
X453015Y306730D02*
D03*
X465753Y304701D02*
D03*
X462598Y314961D02*
D03*
X474334Y325756D02*
D03*
X736649Y162226D02*
D03*
X521654Y289370D02*
D03*
X488189Y228346D02*
D03*
X492338Y225350D02*
D03*
X450803Y220472D02*
D03*
X540436Y288899D02*
D03*
X467898Y220472D02*
D03*
X476785Y265129D02*
D03*
X473149Y263057D02*
D03*
X493248Y209805D02*
D03*
X503937Y208661D02*
D03*
X480315Y267717D02*
D03*
X476359Y276836D02*
D03*
X84646Y230315D02*
D03*
X114787Y231309D02*
D03*
X109449Y231523D02*
D03*
X173622Y230017D02*
D03*
X220970Y230090D02*
D03*
X268029Y230213D02*
D03*
X315127Y229742D02*
D03*
X440945Y251969D02*
D03*
X437008Y267717D02*
D03*
X141732Y196850D02*
D03*
X145669Y190945D02*
D03*
X84646Y196850D02*
D03*
X112205Y122047D02*
D03*
X405512Y147638D02*
D03*
X346457Y187008D02*
D03*
X326772Y153543D02*
D03*
D177*
X468110Y336221D02*
D03*
X491732D02*
D03*
D178*
X614173Y161811D02*
D03*
X681102D02*
D03*
D179*
X437402Y338500D02*
D03*
X427402D02*
D03*
X165169Y53031D02*
D03*
X175169D02*
D03*
D180*
X122047Y72992D02*
D03*
D181*
X519685Y317992D02*
D03*
X559055D02*
D03*
M02*
