G04*
G04 #@! TF.GenerationSoftware,Altium Limited,Altium Designer,25.5.2 (35)*
G04*
G04 Layer_Color=8388736*
%FSLAX25Y25*%
%MOIN*%
G70*
G04*
G04 #@! TF.SameCoordinates,74914265-353A-42BA-94C5-A8DABEA31AB8*
G04*
G04*
G04 #@! TF.FilePolarity,Negative*
G04*
G01*
G75*
%ADD30R,0.03150X0.03543*%
G04:AMPARAMS|DCode=31|XSize=64.5mil|YSize=24.33mil|CornerRadius=12.17mil|HoleSize=0mil|Usage=FLASHONLY|Rotation=90.000|XOffset=0mil|YOffset=0mil|HoleType=Round|Shape=RoundedRectangle|*
%AMROUNDEDRECTD31*
21,1,0.06450,0.00000,0,0,90.0*
21,1,0.04017,0.02433,0,0,90.0*
1,1,0.02433,0.00000,0.02009*
1,1,0.02433,0.00000,-0.02009*
1,1,0.02433,0.00000,-0.02009*
1,1,0.02433,0.00000,0.02009*
%
%ADD31ROUNDEDRECTD31*%
G04:AMPARAMS|DCode=33|XSize=61.02mil|YSize=23.62mil|CornerRadius=2.01mil|HoleSize=0mil|Usage=FLASHONLY|Rotation=270.000|XOffset=0mil|YOffset=0mil|HoleType=Round|Shape=RoundedRectangle|*
%AMROUNDEDRECTD33*
21,1,0.06102,0.01961,0,0,270.0*
21,1,0.05701,0.02362,0,0,270.0*
1,1,0.00402,-0.00980,-0.02850*
1,1,0.00402,-0.00980,0.02850*
1,1,0.00402,0.00980,0.02850*
1,1,0.00402,0.00980,-0.02850*
%
%ADD33ROUNDEDRECTD33*%
G04:AMPARAMS|DCode=34|XSize=65.3mil|YSize=24.68mil|CornerRadius=12.34mil|HoleSize=0mil|Usage=FLASHONLY|Rotation=0.000|XOffset=0mil|YOffset=0mil|HoleType=Round|Shape=RoundedRectangle|*
%AMROUNDEDRECTD34*
21,1,0.06530,0.00000,0,0,0.0*
21,1,0.04063,0.02468,0,0,0.0*
1,1,0.02468,0.02031,0.00000*
1,1,0.02468,-0.02031,0.00000*
1,1,0.02468,-0.02031,0.00000*
1,1,0.02468,0.02031,0.00000*
%
%ADD34ROUNDEDRECTD34*%
%ADD35R,0.03150X0.03937*%
%ADD36R,0.03150X0.03150*%
%ADD37R,0.08583X0.06754*%
%ADD38R,0.06754X0.08583*%
G04:AMPARAMS|DCode=40|XSize=64.5mil|YSize=24.33mil|CornerRadius=12.17mil|HoleSize=0mil|Usage=FLASHONLY|Rotation=0.000|XOffset=0mil|YOffset=0mil|HoleType=Round|Shape=RoundedRectangle|*
%AMROUNDEDRECTD40*
21,1,0.06450,0.00000,0,0,0.0*
21,1,0.04017,0.02433,0,0,0.0*
1,1,0.02433,0.02009,0.00000*
1,1,0.02433,-0.02009,0.00000*
1,1,0.02433,-0.02009,0.00000*
1,1,0.02433,0.02009,0.00000*
%
%ADD40ROUNDEDRECTD40*%
%ADD45R,0.09843X0.06299*%
G04:AMPARAMS|DCode=47|XSize=65.3mil|YSize=24.68mil|CornerRadius=12.34mil|HoleSize=0mil|Usage=FLASHONLY|Rotation=90.000|XOffset=0mil|YOffset=0mil|HoleType=Round|Shape=RoundedRectangle|*
%AMROUNDEDRECTD47*
21,1,0.06530,0.00000,0,0,90.0*
21,1,0.04063,0.02468,0,0,90.0*
1,1,0.02468,0.00000,0.02031*
1,1,0.02468,0.00000,-0.02031*
1,1,0.02468,0.00000,-0.02031*
1,1,0.02468,0.00000,0.02031*
%
%ADD47ROUNDEDRECTD47*%
%ADD50R,0.04758X0.03985*%
%ADD51R,0.03765X0.04749*%
%ADD52R,0.09843X0.03937*%
%ADD54R,0.08268X0.07874*%
%ADD59R,0.06102X0.02362*%
%ADD63R,0.02756X0.02756*%
%ADD64R,0.04749X0.03765*%
%ADD68R,0.04453X0.03591*%
%ADD69R,0.06299X0.03937*%
%ADD70R,0.07874X0.15748*%
%ADD71R,0.03954X0.03434*%
%ADD74R,0.02953X0.03543*%
%ADD78R,0.07693X0.07505*%
%ADD81R,0.02559X0.02756*%
G04:AMPARAMS|DCode=83|XSize=39.54mil|YSize=125.28mil|CornerRadius=17.2mil|HoleSize=0mil|Usage=FLASHONLY|Rotation=0.000|XOffset=0mil|YOffset=0mil|HoleType=Round|Shape=RoundedRectangle|*
%AMROUNDEDRECTD83*
21,1,0.03954,0.09088,0,0,0.0*
21,1,0.00514,0.12528,0,0,0.0*
1,1,0.03440,0.00257,-0.04544*
1,1,0.03440,-0.00257,-0.04544*
1,1,0.03440,-0.00257,0.04544*
1,1,0.03440,0.00257,0.04544*
%
%ADD83ROUNDEDRECTD83*%
G04:AMPARAMS|DCode=84|XSize=39.54mil|YSize=34.34mil|CornerRadius=17.17mil|HoleSize=0mil|Usage=FLASHONLY|Rotation=0.000|XOffset=0mil|YOffset=0mil|HoleType=Round|Shape=RoundedRectangle|*
%AMROUNDEDRECTD84*
21,1,0.03954,0.00000,0,0,0.0*
21,1,0.00520,0.03434,0,0,0.0*
1,1,0.03434,0.00260,0.00000*
1,1,0.03434,-0.00260,0.00000*
1,1,0.03434,-0.00260,0.00000*
1,1,0.03434,0.00260,0.00000*
%
%ADD84ROUNDEDRECTD84*%
%ADD87R,0.02433X0.06450*%
%ADD90R,0.02468X0.06530*%
%ADD91R,0.07087X0.03937*%
%ADD97R,0.06450X0.02433*%
%ADD102R,0.03937X0.09843*%
%ADD104R,0.05922X0.13602*%
%ADD105R,0.06530X0.02468*%
%ADD108R,0.04540X0.04540*%
%ADD109R,0.04934X0.04343*%
%ADD110R,0.05131X0.07493*%
%ADD111R,0.02362X0.02362*%
%ADD112O,0.05524X0.10642*%
%ADD113R,0.03556X0.04147*%
%ADD114R,0.07296X0.05131*%
%ADD115R,0.05131X0.07296*%
%ADD116R,0.02362X0.02362*%
%ADD117O,0.03162X0.06509*%
%ADD118R,0.06312X0.07099*%
%ADD119R,0.04147X0.03753*%
%ADD120R,0.08600X0.02900*%
%ADD121R,0.04107X0.04107*%
%ADD122R,0.03950X0.04737*%
%ADD123R,0.04147X0.03556*%
%ADD124R,0.05524X0.10642*%
%ADD125R,0.03556X0.05524*%
%ADD126R,0.06706X0.10013*%
%ADD127R,0.03162X0.06706*%
%ADD128R,0.04737X0.08674*%
%ADD129R,0.02847X0.04737*%
%ADD130R,0.03162X0.05131*%
%ADD131R,0.03359X0.05524*%
%ADD132O,0.03162X0.09855*%
%ADD133R,0.03753X0.04147*%
G04:AMPARAMS|DCode=134|XSize=45.4mil|YSize=159.58mil|CornerRadius=6.06mil|HoleSize=0mil|Usage=FLASHONLY|Rotation=180.000|XOffset=0mil|YOffset=0mil|HoleType=Round|Shape=RoundedRectangle|*
%AMROUNDEDRECTD134*
21,1,0.04540,0.14746,0,0,180.0*
21,1,0.03329,0.15958,0,0,180.0*
1,1,0.01211,-0.01664,0.07373*
1,1,0.01211,0.01664,0.07373*
1,1,0.01211,0.01664,-0.07373*
1,1,0.01211,-0.01664,-0.07373*
%
%ADD134ROUNDEDRECTD134*%
G04:AMPARAMS|DCode=135|XSize=259.97mil|YSize=319.02mil|CornerRadius=6.52mil|HoleSize=0mil|Usage=FLASHONLY|Rotation=180.000|XOffset=0mil|YOffset=0mil|HoleType=Round|Shape=RoundedRectangle|*
%AMROUNDEDRECTD135*
21,1,0.25997,0.30598,0,0,180.0*
21,1,0.24693,0.31902,0,0,180.0*
1,1,0.01304,-0.12347,0.15299*
1,1,0.01304,0.12347,0.15299*
1,1,0.01304,0.12347,-0.15299*
1,1,0.01304,-0.12347,-0.15299*
%
%ADD135ROUNDEDRECTD135*%
%ADD136R,0.06469X0.06627*%
G04:AMPARAMS|DCode=137|XSize=17.84mil|YSize=53.28mil|CornerRadius=5.97mil|HoleSize=0mil|Usage=FLASHONLY|Rotation=180.000|XOffset=0mil|YOffset=0mil|HoleType=Round|Shape=RoundedRectangle|*
%AMROUNDEDRECTD137*
21,1,0.01784,0.04134,0,0,180.0*
21,1,0.00591,0.05328,0,0,180.0*
1,1,0.01194,-0.00295,0.02067*
1,1,0.01194,0.00295,0.02067*
1,1,0.01194,0.00295,-0.02067*
1,1,0.01194,-0.00295,-0.02067*
%
%ADD137ROUNDEDRECTD137*%
%ADD138R,0.22441X0.22441*%
%ADD139R,0.06312X0.05524*%
%ADD140R,0.05328X0.04934*%
%ADD141R,0.03780X0.01457*%
%ADD142R,0.01457X0.03780*%
%ADD143R,0.22060X0.15958*%
%ADD144R,0.01863X0.04737*%
%ADD145R,0.04540X0.04540*%
%ADD146R,0.04737X0.05131*%
%ADD147R,0.05131X0.04737*%
%ADD148R,0.06706X0.08674*%
%ADD149R,0.15761X0.08674*%
%ADD150R,0.04934X0.05328*%
%ADD151R,0.04343X0.04107*%
%ADD152R,0.08674X0.06706*%
%ADD153R,0.08674X0.15761*%
%ADD154R,0.03084X0.05524*%
%ADD155R,0.04737X0.03162*%
%ADD156R,0.18123X0.15761*%
%ADD157R,0.03950X0.03162*%
%ADD158R,0.08280X0.06706*%
%ADD159R,0.00800X0.00800*%
%ADD160C,0.05512*%
%ADD161R,0.05512X0.05512*%
%ADD162C,0.09068*%
%ADD163R,0.09068X0.09068*%
%ADD164C,0.05871*%
%ADD165R,0.06102X0.06102*%
%ADD166C,0.07887*%
%ADD167R,0.08595X0.08595*%
%ADD168R,0.07887X0.07887*%
%ADD169R,0.06800X0.06800*%
%ADD170O,0.05524X0.10249*%
%ADD171O,0.05359X0.09918*%
%ADD172R,0.09068X0.09068*%
%ADD173R,0.05871X0.05871*%
%ADD174C,0.08595*%
%ADD175C,0.06800*%
%ADD176C,0.03162*%
%ADD177C,0.03280*%
%ADD178C,0.08418*%
%ADD179C,0.06102*%
%ADD180R,0.07887X0.07887*%
%ADD181C,0.06312*%
D30*
X221457Y157480D02*
D03*
X292323D02*
D03*
X252953D02*
D03*
X215551D02*
D03*
X178150D02*
D03*
X85630Y137795D02*
D03*
X79724D02*
D03*
X87598Y238189D02*
D03*
X493595Y258780D02*
D03*
X93504Y238189D02*
D03*
X298228Y157480D02*
D03*
X184055D02*
D03*
X258858D02*
D03*
X487689Y258780D02*
D03*
D31*
X222244Y169291D02*
D03*
X411417Y168637D02*
D03*
X218504Y169291D02*
D03*
X293307Y168637D02*
D03*
X255906D02*
D03*
X181335Y169291D02*
D03*
X252165Y177820D02*
D03*
X289567D02*
D03*
X177595Y178474D02*
D03*
X214764Y178474D02*
D03*
X407677Y177820D02*
D03*
X259646D02*
D03*
X185075Y178474D02*
D03*
Y169291D02*
D03*
X415158Y168637D02*
D03*
Y177820D02*
D03*
X297047D02*
D03*
Y168637D02*
D03*
X259646D02*
D03*
X222244Y178474D02*
D03*
D33*
X130295Y203937D02*
D03*
X145295D02*
D03*
X140295D02*
D03*
X135295D02*
D03*
X140295Y225197D02*
D03*
X135295D02*
D03*
X145295D02*
D03*
X130295D02*
D03*
D34*
X695691Y177500D02*
D03*
X631982Y177500D02*
D03*
X639672Y181102D02*
D03*
X703382Y181102D02*
D03*
D35*
X552087Y158465D02*
D03*
X532402Y158465D02*
D03*
X518780Y158465D02*
D03*
X479410D02*
D03*
X459724D02*
D03*
X499094D02*
D03*
X679646Y223425D02*
D03*
X626890Y223425D02*
D03*
X552087Y184055D02*
D03*
X532402Y184055D02*
D03*
X499094Y184055D02*
D03*
X518780D02*
D03*
X479410D02*
D03*
X459724D02*
D03*
X689646Y223425D02*
D03*
Y197835D02*
D03*
X679646D02*
D03*
X449724Y158465D02*
D03*
Y184055D02*
D03*
X489094D02*
D03*
Y158465D02*
D03*
X469410D02*
D03*
Y184055D02*
D03*
X508779D02*
D03*
Y158465D02*
D03*
X542402Y184055D02*
D03*
Y158465D02*
D03*
X562087Y184055D02*
D03*
Y158465D02*
D03*
X636890Y223425D02*
D03*
Y197835D02*
D03*
X626890D02*
D03*
D36*
X569095Y130709D02*
D03*
X549409D02*
D03*
X553150Y121260D02*
D03*
X556890Y130709D02*
D03*
X572835Y121260D02*
D03*
X576575Y130709D02*
D03*
D37*
X532146Y106052D02*
D03*
X375984Y102609D02*
D03*
X507874Y90798D02*
D03*
X448819D02*
D03*
X488189D02*
D03*
X468504D02*
D03*
X375984Y75050D02*
D03*
X94488Y305365D02*
D03*
X375984Y117863D02*
D03*
X375984Y90304D02*
D03*
X94488Y320619D02*
D03*
X488189Y106052D02*
D03*
X507874D02*
D03*
X468504D02*
D03*
X448819D02*
D03*
X532146Y90798D02*
D03*
D38*
X523869Y122048D02*
D03*
X539123D02*
D03*
D40*
X332023Y174016D02*
D03*
X414700Y151575D02*
D03*
X332023Y156299D02*
D03*
X341206Y160039D02*
D03*
X341206Y177756D02*
D03*
X423883Y155315D02*
D03*
X469226Y231703D02*
D03*
X344488Y250000D02*
D03*
X335305Y246260D02*
D03*
X460043Y227963D02*
D03*
X344488Y253740D02*
D03*
X423883Y147835D02*
D03*
X414700D02*
D03*
X332023Y152559D02*
D03*
X341206D02*
D03*
X341206Y170276D02*
D03*
X332023D02*
D03*
X460043Y235444D02*
D03*
X469226D02*
D03*
X335305Y253740D02*
D03*
D45*
X51181Y151575D02*
D03*
X64961D02*
D03*
X369094Y314961D02*
D03*
X382874D02*
D03*
D47*
X185257Y122139D02*
D03*
X166988D02*
D03*
X163386Y129830D02*
D03*
X181655D02*
D03*
D50*
X68118Y122047D02*
D03*
X61804D02*
D03*
D51*
X68996Y129921D02*
D03*
X60925D02*
D03*
X588681Y295276D02*
D03*
X563091Y283465D02*
D03*
X485307Y290776D02*
D03*
Y282902D02*
D03*
X736319Y173228D02*
D03*
X485307Y275028D02*
D03*
X494677Y243032D02*
D03*
X580610Y295276D02*
D03*
X555020Y283465D02*
D03*
X493378Y290776D02*
D03*
Y282902D02*
D03*
Y275028D02*
D03*
X728248Y173228D02*
D03*
X486606Y243032D02*
D03*
D52*
X82677Y153543D02*
D03*
Y165354D02*
D03*
D54*
X592717Y179527D02*
D03*
X654261Y179528D02*
D03*
X665678D02*
D03*
X604134Y179527D02*
D03*
D59*
X601181Y282028D02*
D03*
X579921Y272028D02*
D03*
Y287028D02*
D03*
X601181D02*
D03*
X579921Y282028D02*
D03*
Y277028D02*
D03*
X601181D02*
D03*
Y272028D02*
D03*
D63*
X547245Y280709D02*
D03*
X415676Y287845D02*
D03*
Y292176D02*
D03*
X547245Y286221D02*
D03*
X415676Y297688D02*
D03*
Y282333D02*
D03*
D64*
X598425Y251870D02*
D03*
X173228Y261713D02*
D03*
X598425Y259941D02*
D03*
X173228Y269783D02*
D03*
D68*
X493163Y250906D02*
D03*
X488120D02*
D03*
D69*
X269685Y340551D02*
D03*
X399606Y277559D02*
D03*
X210630Y271654D02*
D03*
X399606Y289370D02*
D03*
X269685Y328740D02*
D03*
X210630Y283465D02*
D03*
D70*
X332677Y299016D02*
D03*
X198819Y295276D02*
D03*
X332677Y326969D02*
D03*
X198819Y323228D02*
D03*
D71*
X363012Y298386D02*
D03*
D74*
X420760Y276756D02*
D03*
X425484Y255102D02*
D03*
X420760Y255102D02*
D03*
X425484Y276756D02*
D03*
D78*
X381008Y267717D02*
D03*
X54031Y253937D02*
D03*
X64079D02*
D03*
X370960Y267717D02*
D03*
D81*
X493299Y266654D02*
D03*
X106890Y311024D02*
D03*
X112205D02*
D03*
X487984Y266654D02*
D03*
D83*
X388957Y289370D02*
D03*
D84*
X363012D02*
D03*
Y280354D02*
D03*
D87*
X252165Y168637D02*
D03*
X407677D02*
D03*
X177595Y169291D02*
D03*
X289567Y168637D02*
D03*
X214764Y169291D02*
D03*
D90*
X159783Y122139D02*
D03*
X178053D02*
D03*
D91*
X425097Y295058D02*
D03*
Y285215D02*
D03*
D97*
X414700Y155315D02*
D03*
X332023Y160039D02*
D03*
X332023Y177756D02*
D03*
X469226Y227963D02*
D03*
X344488Y246260D02*
D03*
D102*
X100394Y342520D02*
D03*
X88583D02*
D03*
D104*
X150193Y291339D02*
D03*
X172642D02*
D03*
D105*
X695691Y184705D02*
D03*
X631982Y184705D02*
D03*
D108*
X204724Y158465D02*
D03*
Y152559D02*
D03*
X129921Y186024D02*
D03*
X135827D02*
D03*
Y180118D02*
D03*
X423228Y132874D02*
D03*
Y126969D02*
D03*
X129921Y180118D02*
D03*
X167323Y158465D02*
D03*
Y152559D02*
D03*
X242126D02*
D03*
Y158465D02*
D03*
X279528Y157480D02*
D03*
Y151575D02*
D03*
D109*
X204724Y166437D02*
D03*
X555118Y146555D02*
D03*
X529528D02*
D03*
X279528Y172146D02*
D03*
X242126D02*
D03*
X204724D02*
D03*
X167323D02*
D03*
Y166437D02*
D03*
X242126D02*
D03*
X279528D02*
D03*
X529528Y140847D02*
D03*
X555118D02*
D03*
X537402Y140945D02*
D03*
Y146457D02*
D03*
X562992Y140945D02*
D03*
Y146457D02*
D03*
D110*
X223622Y147638D02*
D03*
X290158D02*
D03*
X250787D02*
D03*
X213386D02*
D03*
X107480Y169291D02*
D03*
X175984Y147638D02*
D03*
X107480Y159449D02*
D03*
Y149606D02*
D03*
Y139764D02*
D03*
X97244Y149606D02*
D03*
Y159449D02*
D03*
Y169291D02*
D03*
Y139764D02*
D03*
X186221Y147638D02*
D03*
X300394D02*
D03*
X261024D02*
D03*
D111*
X199213Y72835D02*
D03*
X86614Y145669D02*
D03*
X190551Y84646D02*
D03*
X190551Y72835D02*
D03*
X151181Y68898D02*
D03*
X190551Y61024D02*
D03*
X179134Y68898D02*
D03*
X190551Y49213D02*
D03*
X77953Y145669D02*
D03*
X535512Y294587D02*
D03*
X526851D02*
D03*
X567402D02*
D03*
X551260D02*
D03*
X511102D02*
D03*
X433858Y322835D02*
D03*
X449606D02*
D03*
X170472Y68898D02*
D03*
X159843D02*
D03*
X519764Y294587D02*
D03*
X558740D02*
D03*
X199213Y84646D02*
D03*
X199213Y49213D02*
D03*
Y61024D02*
D03*
X440945Y322835D02*
D03*
X425197D02*
D03*
X542598Y294587D02*
D03*
D112*
X397165Y196850D02*
D03*
X321181Y196850D02*
D03*
X331181D02*
D03*
X283937D02*
D03*
X273937D02*
D03*
X236693D02*
D03*
X226693D02*
D03*
X189449Y196850D02*
D03*
X179449D02*
D03*
X349921D02*
D03*
X379921D02*
D03*
X427165D02*
D03*
X417165Y233228D02*
D03*
X407165Y196850D02*
D03*
X417165D02*
D03*
X397165Y233228D02*
D03*
X407165D02*
D03*
X321181Y233228D02*
D03*
X331181D02*
D03*
X301181D02*
D03*
X311181Y196850D02*
D03*
Y233228D02*
D03*
X253937D02*
D03*
X273937D02*
D03*
X283937D02*
D03*
X263937Y196850D02*
D03*
Y233228D02*
D03*
X216693D02*
D03*
Y196850D02*
D03*
X206693Y233228D02*
D03*
X226693D02*
D03*
X236693D02*
D03*
X169449Y233228D02*
D03*
Y196850D02*
D03*
X159449Y233228D02*
D03*
X189449D02*
D03*
X179449D02*
D03*
X349921D02*
D03*
X359921D02*
D03*
X369921Y196850D02*
D03*
Y233228D02*
D03*
X359921Y196850D02*
D03*
D113*
X426181Y163386D02*
D03*
X318406Y169291D02*
D03*
X528051Y240158D02*
D03*
X528051Y224410D02*
D03*
X523130D02*
D03*
X421260Y163386D02*
D03*
X323327Y169291D02*
D03*
X523130Y240158D02*
D03*
D114*
X405512Y135531D02*
D03*
Y124311D02*
D03*
D115*
X331004Y141732D02*
D03*
X342224D02*
D03*
D116*
X389764Y100000D02*
D03*
Y74410D02*
D03*
Y108661D02*
D03*
Y83071D02*
D03*
D117*
X104705Y203839D02*
D03*
X79114D02*
D03*
X89114D02*
D03*
X119705D02*
D03*
X94114D02*
D03*
X104705Y225295D02*
D03*
X79114D02*
D03*
X119705D02*
D03*
X94114D02*
D03*
X109705D02*
D03*
X84114D02*
D03*
X109705Y203839D02*
D03*
X84114D02*
D03*
X114705D02*
D03*
Y225295D02*
D03*
X89114D02*
D03*
D118*
X131890Y155512D02*
D03*
X523622Y232284D02*
D03*
X535433D02*
D03*
X666072Y192913D02*
D03*
X654261D02*
D03*
X615899Y192913D02*
D03*
X604088D02*
D03*
X535433Y248032D02*
D03*
X131890Y141732D02*
D03*
X143701Y131890D02*
D03*
X131890D02*
D03*
X143701Y141732D02*
D03*
X143701Y155512D02*
D03*
X523622Y248032D02*
D03*
D119*
X185592Y109646D02*
D03*
X167323Y109646D02*
D03*
X545276Y146260D02*
D03*
X570866D02*
D03*
X728346Y215158D02*
D03*
X533190Y280906D02*
D03*
X521339D02*
D03*
X539370Y280906D02*
D03*
X515748Y280906D02*
D03*
X519685Y197441D02*
D03*
X500000Y199409D02*
D03*
X479816Y199714D02*
D03*
X460630Y199409D02*
D03*
Y194291D02*
D03*
X450705Y200787D02*
D03*
X521339Y286024D02*
D03*
X728346Y210039D02*
D03*
X515748Y286024D02*
D03*
X500000Y194291D02*
D03*
X539370Y286024D02*
D03*
X519685Y192323D02*
D03*
X159449Y109646D02*
D03*
Y114764D02*
D03*
X167323Y114764D02*
D03*
X720472Y263189D02*
D03*
X479816Y194596D02*
D03*
X177718Y114764D02*
D03*
Y109646D02*
D03*
X185592Y114764D02*
D03*
X320866Y160827D02*
D03*
Y155709D02*
D03*
X533190Y286024D02*
D03*
X450705Y195669D02*
D03*
X545276Y141142D02*
D03*
X570866D02*
D03*
X720472Y268307D02*
D03*
D120*
X84788Y125610D02*
D03*
Y110610D02*
D03*
Y115610D02*
D03*
X104188Y110610D02*
D03*
Y125610D02*
D03*
Y120610D02*
D03*
Y115610D02*
D03*
X84788Y120610D02*
D03*
D121*
X82677Y98425D02*
D03*
X78976Y90551D02*
D03*
D122*
X158465Y76772D02*
D03*
X152559D02*
D03*
X178150D02*
D03*
X172244D02*
D03*
X146653Y234252D02*
D03*
X128937D02*
D03*
X134843D02*
D03*
X140748D02*
D03*
D123*
X141732Y185531D02*
D03*
X614173Y180610D02*
D03*
X622047D02*
D03*
X685757Y180610D02*
D03*
X677883D02*
D03*
X423228Y179134D02*
D03*
Y174213D02*
D03*
X614173Y185531D02*
D03*
X677883Y185531D02*
D03*
X141732Y180610D02*
D03*
X352362Y180118D02*
D03*
Y175197D02*
D03*
X685757Y185531D02*
D03*
X622047Y185531D02*
D03*
D124*
X159449Y196850D02*
D03*
X206693Y196850D02*
D03*
X253937D02*
D03*
X301181D02*
D03*
X427165Y233228D02*
D03*
X379921D02*
D03*
D125*
X728346Y309842D02*
D03*
X737205D02*
D03*
Y276772D02*
D03*
X719488D02*
D03*
Y309842D02*
D03*
D126*
X567598Y337087D02*
D03*
X511142D02*
D03*
D127*
X549606Y306378D02*
D03*
X540945D02*
D03*
X536614D02*
D03*
X532283D02*
D03*
X518701D02*
D03*
X553937D02*
D03*
X545276D02*
D03*
X523622D02*
D03*
X527953D02*
D03*
X558268D02*
D03*
D128*
X485433Y348425D02*
D03*
X474409D02*
D03*
D129*
X492126Y331890D02*
D03*
X467717D02*
D03*
X489173D02*
D03*
X470669D02*
D03*
D130*
X484252Y319882D02*
D03*
X480512Y310039D02*
D03*
X484252D02*
D03*
X487992D02*
D03*
X480512Y319882D02*
D03*
X487992D02*
D03*
D131*
X736516Y201378D02*
D03*
Y184449D02*
D03*
X728051Y244685D02*
D03*
Y227756D02*
D03*
Y141142D02*
D03*
Y158071D02*
D03*
Y184449D02*
D03*
Y201378D02*
D03*
X736516Y158071D02*
D03*
Y141142D02*
D03*
Y244685D02*
D03*
Y227756D02*
D03*
D132*
X573366Y224213D02*
D03*
X583366Y260039D02*
D03*
X573366D02*
D03*
X578366Y224213D02*
D03*
X553366D02*
D03*
X558366D02*
D03*
X563366D02*
D03*
X568366D02*
D03*
X553366Y260039D02*
D03*
X558366D02*
D03*
X563366D02*
D03*
X568366D02*
D03*
X578366D02*
D03*
X588366D02*
D03*
X583366Y224213D02*
D03*
X588366D02*
D03*
D133*
X731010Y131300D02*
D03*
X736128D02*
D03*
X492717Y200787D02*
D03*
X512402D02*
D03*
X473032D02*
D03*
X108858Y90551D02*
D03*
X103740D02*
D03*
X108858Y96457D02*
D03*
X103740D02*
D03*
X418701Y187008D02*
D03*
X423819D02*
D03*
X368701D02*
D03*
X363583D02*
D03*
X406890D02*
D03*
X412008D02*
D03*
X729724Y252896D02*
D03*
X487598Y200787D02*
D03*
X507283D02*
D03*
X467913D02*
D03*
X734842Y252896D02*
D03*
D134*
X253543Y290551D02*
D03*
X240158D02*
D03*
X246850D02*
D03*
X226772D02*
D03*
X233465D02*
D03*
D135*
X240158Y331299D02*
D03*
D136*
X223760Y273622D02*
D03*
X240807D02*
D03*
D137*
X163386Y274114D02*
D03*
X159449Y257382D02*
D03*
X157480D02*
D03*
X165354Y274114D02*
D03*
Y257382D02*
D03*
X163386D02*
D03*
X157480Y274114D02*
D03*
X161417D02*
D03*
X159449D02*
D03*
X161417Y257382D02*
D03*
D138*
X456693Y279528D02*
D03*
D139*
X427920Y262681D02*
D03*
X419259Y269374D02*
D03*
Y262681D02*
D03*
X427920Y269374D02*
D03*
D140*
X361417Y248031D02*
D03*
X448296Y227766D02*
D03*
X368110Y248031D02*
D03*
X441603Y227766D02*
D03*
D141*
X470217Y288386D02*
D03*
Y286417D02*
D03*
Y268701D02*
D03*
Y282480D02*
D03*
Y278543D02*
D03*
Y280512D02*
D03*
X443169Y268701D02*
D03*
X470217Y276575D02*
D03*
X443169Y284449D02*
D03*
Y286417D02*
D03*
Y282480D02*
D03*
Y280512D02*
D03*
Y276575D02*
D03*
Y274606D02*
D03*
Y288386D02*
D03*
Y272638D02*
D03*
Y270669D02*
D03*
X470217D02*
D03*
Y272638D02*
D03*
X443169Y278543D02*
D03*
X470217Y284449D02*
D03*
Y290354D02*
D03*
Y274606D02*
D03*
X443169Y290354D02*
D03*
D142*
X465551Y266004D02*
D03*
X445866Y293051D02*
D03*
Y266004D02*
D03*
X461614D02*
D03*
X459646D02*
D03*
X447835Y293051D02*
D03*
X451772Y266004D02*
D03*
X453740D02*
D03*
X467520Y293051D02*
D03*
X455709Y266004D02*
D03*
X457677D02*
D03*
X459646Y293051D02*
D03*
X457677D02*
D03*
X455709D02*
D03*
X453740D02*
D03*
X449803D02*
D03*
X463583Y266004D02*
D03*
Y293051D02*
D03*
X449803Y266004D02*
D03*
X447835D02*
D03*
X461614Y293051D02*
D03*
X467520Y266004D02*
D03*
X451772Y293051D02*
D03*
X465551D02*
D03*
D143*
X287402Y316732D02*
D03*
Y277756D02*
D03*
D144*
X476968Y331890D02*
D03*
X480905D02*
D03*
X486811D02*
D03*
X473032D02*
D03*
X484842D02*
D03*
X482874D02*
D03*
X478937D02*
D03*
X475000D02*
D03*
D145*
X382874Y248031D02*
D03*
X447902Y235641D02*
D03*
X376969Y248031D02*
D03*
X353346Y169291D02*
D03*
X359252D02*
D03*
X441997Y235641D02*
D03*
D146*
X534646Y190945D02*
D03*
X609449Y224410D02*
D03*
X614961D02*
D03*
X554331Y190945D02*
D03*
X540158D02*
D03*
X559842D02*
D03*
D147*
X698819Y229134D02*
D03*
Y223622D02*
D03*
D148*
X413386Y114764D02*
D03*
X422441D02*
D03*
X404331D02*
D03*
D149*
X413386Y89961D02*
D03*
D150*
X110236Y53150D02*
D03*
Y59842D02*
D03*
D151*
X86378Y90551D02*
D03*
D152*
X355709Y140551D02*
D03*
Y149606D02*
D03*
Y158661D02*
D03*
D153*
X380512Y149606D02*
D03*
D154*
X138187Y336074D02*
D03*
X143186D02*
D03*
X133186D02*
D03*
X128187D02*
D03*
X143186Y314421D02*
D03*
X128187D02*
D03*
X133186D02*
D03*
X138187D02*
D03*
D155*
X111287Y324476D02*
D03*
Y316996D02*
D03*
X120736D02*
D03*
X111287Y320736D02*
D03*
X120736Y324476D02*
D03*
Y320736D02*
D03*
D156*
X135696Y322704D02*
D03*
D157*
X527284Y280906D02*
D03*
Y286024D02*
D03*
D158*
X448819Y137795D02*
D03*
Y149606D02*
D03*
X468504Y127954D02*
D03*
Y116142D02*
D03*
X448819Y127954D02*
D03*
Y116142D02*
D03*
X468504Y137795D02*
D03*
Y149606D02*
D03*
X488189Y137795D02*
D03*
Y149606D02*
D03*
X507874Y137795D02*
D03*
Y149606D02*
D03*
X488189Y127954D02*
D03*
Y116142D02*
D03*
X507874Y116142D02*
D03*
Y127954D02*
D03*
D159*
X561024Y102362D02*
D03*
X133858D02*
D03*
X702756Y334646D02*
D03*
X616142D02*
D03*
X702756Y248031D02*
D03*
X616142D02*
D03*
X401575Y334646D02*
D03*
X401575Y59055D02*
D03*
X590551Y318898D02*
D03*
X728346Y334646D02*
D03*
Y59055D02*
D03*
X163386Y318898D02*
D03*
X59055Y287402D02*
D03*
Y102362D02*
D03*
D160*
X231693Y96457D02*
D03*
X244685Y116142D02*
D03*
X231693D02*
D03*
Y106299D02*
D03*
X244685D02*
D03*
X341339D02*
D03*
X220472D02*
D03*
Y116142D02*
D03*
X207480D02*
D03*
X291929Y106299D02*
D03*
Y116142D02*
D03*
X278937D02*
D03*
Y106299D02*
D03*
Y96457D02*
D03*
X267717Y106299D02*
D03*
X354331Y116142D02*
D03*
X207480Y96457D02*
D03*
Y106299D02*
D03*
X254724Y96457D02*
D03*
Y106299D02*
D03*
Y116142D02*
D03*
X267717D02*
D03*
X316929Y96457D02*
D03*
Y106299D02*
D03*
Y116142D02*
D03*
X329921D02*
D03*
Y106299D02*
D03*
X341339Y96457D02*
D03*
Y116142D02*
D03*
X354331Y106299D02*
D03*
D161*
X244685Y96457D02*
D03*
X291929D02*
D03*
X220472D02*
D03*
X267717D02*
D03*
X329921D02*
D03*
X354331D02*
D03*
D162*
X233780Y74803D02*
D03*
X218779D02*
D03*
X263779D02*
D03*
X248780D02*
D03*
X622047Y74803D02*
D03*
X607047D02*
D03*
X74803D02*
D03*
X59803D02*
D03*
X320394Y74803D02*
D03*
X335394D02*
D03*
X477126Y74803D02*
D03*
X492126D02*
D03*
X462126D02*
D03*
X447126D02*
D03*
X547992D02*
D03*
X562992D02*
D03*
X681102D02*
D03*
X666102D02*
D03*
X74803Y333898D02*
D03*
D163*
X577992Y74803D02*
D03*
X507126D02*
D03*
X350394Y74803D02*
D03*
X278780D02*
D03*
X89803Y74803D02*
D03*
X637047D02*
D03*
X696102D02*
D03*
D164*
X66929Y204409D02*
D03*
Y224410D02*
D03*
Y184409D02*
D03*
D165*
X155169Y53031D02*
D03*
X447402Y338500D02*
D03*
D166*
X132047Y62992D02*
D03*
Y72992D02*
D03*
X654449Y336811D02*
D03*
X664449D02*
D03*
X674449D02*
D03*
X122047Y62992D02*
D03*
X132047Y52992D02*
D03*
X122047D02*
D03*
D167*
X637795Y153937D02*
D03*
X704724D02*
D03*
D168*
X644449Y336811D02*
D03*
D169*
X627924Y283465D02*
D03*
D170*
X496929Y348425D02*
D03*
X462913D02*
D03*
D171*
X496929Y333366D02*
D03*
X462913D02*
D03*
D172*
X74803Y318898D02*
D03*
D173*
X66929Y234409D02*
D03*
D174*
X590551Y153937D02*
D03*
Y105905D02*
D03*
X637795D02*
D03*
X704724D02*
D03*
X657480D02*
D03*
Y153937D02*
D03*
D175*
X704724Y283465D02*
D03*
D176*
X468110Y336221D02*
D03*
X460630Y59055D02*
D03*
X496063D02*
D03*
X566929D02*
D03*
X655512Y47244D02*
D03*
X620079D02*
D03*
X738189Y94488D02*
D03*
X342520Y59055D02*
D03*
X596456Y47244D02*
D03*
X295275Y59055D02*
D03*
X561023Y47244D02*
D03*
X720472Y82677D02*
D03*
X513779Y47244D02*
D03*
X383858D02*
D03*
X230315Y165354D02*
D03*
X47244Y129921D02*
D03*
X732283Y82677D02*
D03*
X336614Y47244D02*
D03*
X141732Y59055D02*
D03*
X47244Y200787D02*
D03*
X324803Y47244D02*
D03*
X377953Y59055D02*
D03*
X171260Y94488D02*
D03*
X271654Y177165D02*
D03*
X312992Y47244D02*
D03*
X584646Y141732D02*
D03*
X318898Y59055D02*
D03*
X70866D02*
D03*
X265748Y47244D02*
D03*
X59055Y59055D02*
D03*
X330709D02*
D03*
X47244Y177165D02*
D03*
X549212Y47244D02*
D03*
X472441Y59055D02*
D03*
X100394Y47244D02*
D03*
X47244Y59055D02*
D03*
X277559Y47244D02*
D03*
X643701D02*
D03*
X348425D02*
D03*
X289370D02*
D03*
X259842Y59055D02*
D03*
X307086D02*
D03*
X690945Y47244D02*
D03*
X76772D02*
D03*
X702756Y141732D02*
D03*
X301181Y47244D02*
D03*
X88583D02*
D03*
X679134D02*
D03*
X366142Y59055D02*
D03*
X94488D02*
D03*
X643701Y188976D02*
D03*
X519685Y59055D02*
D03*
X578740Y153543D02*
D03*
X649606Y59055D02*
D03*
X289370Y70866D02*
D03*
X608267Y47244D02*
D03*
X525590Y70866D02*
D03*
X702756Y47244D02*
D03*
X271654Y59055D02*
D03*
X631890Y47244D02*
D03*
X253937D02*
D03*
X531496Y59055D02*
D03*
X484252D02*
D03*
X183071Y47244D02*
D03*
X643701Y165354D02*
D03*
X501968Y47244D02*
D03*
X572834D02*
D03*
X454724D02*
D03*
X47244Y82677D02*
D03*
X53150Y165354D02*
D03*
X637795Y129921D02*
D03*
X590551D02*
D03*
X490157Y47244D02*
D03*
X655512Y165354D02*
D03*
X354331Y59055D02*
D03*
X466535Y47244D02*
D03*
X372047D02*
D03*
X82677Y59055D02*
D03*
X141732Y82677D02*
D03*
X183071Y94488D02*
D03*
X655512Y141732D02*
D03*
X478346Y47244D02*
D03*
X702756Y165354D02*
D03*
X194882D02*
D03*
X507874Y59055D02*
D03*
X667323Y47244D02*
D03*
X584646D02*
D03*
X578740Y59055D02*
D03*
X537401Y47244D02*
D03*
X525590D02*
D03*
X53150D02*
D03*
X129921Y82677D02*
D03*
X64961Y47244D02*
D03*
X649606Y129921D02*
D03*
X643701Y141732D02*
D03*
X726378Y94488D02*
D03*
X283465Y59055D02*
D03*
X448819D02*
D03*
X590551D02*
D03*
X360236Y47244D02*
D03*
X326772Y157480D02*
D03*
X411417Y139764D02*
D03*
X324803Y141732D02*
D03*
X384081Y98866D02*
D03*
X127953Y198819D02*
D03*
X130654Y148371D02*
D03*
X86614Y98425D02*
D03*
X181102Y82677D02*
D03*
X149606D02*
D03*
X171260D02*
D03*
X157480D02*
D03*
X70157Y157324D02*
D03*
X149349Y200094D02*
D03*
X84608Y106457D02*
D03*
X70866Y137795D02*
D03*
X62992D02*
D03*
X66929Y141732D02*
D03*
X72954Y142968D02*
D03*
X76772Y137795D02*
D03*
X175197Y181102D02*
D03*
X212598Y183071D02*
D03*
X287479Y180693D02*
D03*
X250000Y181102D02*
D03*
X127280Y189575D02*
D03*
X133858Y188976D02*
D03*
X94488Y198819D02*
D03*
X122354Y201573D02*
D03*
X144426Y183952D02*
D03*
X155512Y196850D02*
D03*
X200787D02*
D03*
X250000D02*
D03*
X340765Y164614D02*
D03*
X341195Y174746D02*
D03*
X403830Y179599D02*
D03*
X546217Y149742D02*
D03*
X570866Y149606D02*
D03*
X427165Y153543D02*
D03*
X683071Y179134D02*
D03*
X618110Y181102D02*
D03*
X675197D02*
D03*
X429055Y190317D02*
D03*
X594488Y185039D02*
D03*
X297244Y196850D02*
D03*
X385827Y192913D02*
D03*
X611066Y182008D02*
D03*
X653543Y185039D02*
D03*
X690945Y342520D02*
D03*
X685039Y330709D02*
D03*
X679134Y318898D02*
D03*
X643701D02*
D03*
X655512D02*
D03*
X714567D02*
D03*
X726378Y295275D02*
D03*
X702756Y318898D02*
D03*
X690945D02*
D03*
X708661Y307086D02*
D03*
X631890Y342520D02*
D03*
X608267D02*
D03*
X631890Y318898D02*
D03*
X555118Y330709D02*
D03*
X549212Y318898D02*
D03*
X614173Y307086D02*
D03*
X592520Y295276D02*
D03*
X566929Y307086D02*
D03*
X673228Y283465D02*
D03*
X661417D02*
D03*
X685039D02*
D03*
X614173D02*
D03*
X566929Y291339D02*
D03*
Y283465D02*
D03*
X543307Y330709D02*
D03*
X531496D02*
D03*
X537401Y318898D02*
D03*
X524343Y293073D02*
D03*
X496063Y307086D02*
D03*
X483815Y316056D02*
D03*
X488091Y293275D02*
D03*
X547244Y277559D02*
D03*
X488189Y285433D02*
D03*
X462598D02*
D03*
X456693Y279528D02*
D03*
X702756Y271654D02*
D03*
X679134D02*
D03*
X696850Y259842D02*
D03*
X655512Y271654D02*
D03*
X643701D02*
D03*
X667323D02*
D03*
X690945Y248031D02*
D03*
X679134D02*
D03*
X708661Y236220D02*
D03*
X655512Y248031D02*
D03*
X643701D02*
D03*
X667323D02*
D03*
X631890D02*
D03*
X549212D02*
D03*
X543307Y259842D02*
D03*
X561023Y248031D02*
D03*
X566929Y236220D02*
D03*
X555118D02*
D03*
X578740D02*
D03*
X740158Y200787D02*
D03*
Y173228D02*
D03*
X714567Y224409D02*
D03*
X667323D02*
D03*
X655512D02*
D03*
X561023Y200787D02*
D03*
X507874Y259842D02*
D03*
X496063Y255906D02*
D03*
X498032Y244094D02*
D03*
X496901Y250600D02*
D03*
X481867Y275061D02*
D03*
X462598Y273622D02*
D03*
X484252Y212598D02*
D03*
X464567Y240158D02*
D03*
X454875Y230862D02*
D03*
X460630Y188976D02*
D03*
X250000Y326772D02*
D03*
Y318898D02*
D03*
X289370Y295275D02*
D03*
X312992D02*
D03*
X250000Y336614D02*
D03*
Y344488D02*
D03*
X240158Y326772D02*
D03*
Y344488D02*
D03*
X230315D02*
D03*
X240158Y336614D02*
D03*
Y318898D02*
D03*
X230315D02*
D03*
X236220Y307086D02*
D03*
X450787Y285433D02*
D03*
Y273622D02*
D03*
X416185Y275656D02*
D03*
X277559Y295275D02*
D03*
X265748D02*
D03*
X301181D02*
D03*
X413298Y289798D02*
D03*
X336614Y271654D02*
D03*
X318898Y283465D02*
D03*
X330709D02*
D03*
X206693Y342520D02*
D03*
X194882D02*
D03*
X218504D02*
D03*
X171260D02*
D03*
X159449D02*
D03*
X183071D02*
D03*
X230315Y326772D02*
D03*
Y336614D02*
D03*
X224409Y307086D02*
D03*
X112205Y295275D02*
D03*
X118110Y283465D02*
D03*
X59055Y330709D02*
D03*
X53150Y318898D02*
D03*
Y342520D02*
D03*
X47244Y330709D02*
D03*
Y307086D02*
D03*
X88583Y295275D02*
D03*
X100394D02*
D03*
X70866Y307086D02*
D03*
X82677D02*
D03*
X165354Y278559D02*
D03*
X194882Y271654D02*
D03*
X183071D02*
D03*
X106299Y283465D02*
D03*
X94488D02*
D03*
X129921D02*
D03*
X82677D02*
D03*
X76772Y271654D02*
D03*
X88583D02*
D03*
X135827D02*
D03*
X124016D02*
D03*
X147638D02*
D03*
X100394D02*
D03*
X112205D02*
D03*
X429262Y257865D02*
D03*
X324803Y271654D02*
D03*
X312992Y248031D02*
D03*
X301181D02*
D03*
X277559D02*
D03*
X289370D02*
D03*
X364380Y244350D02*
D03*
X177165Y261811D02*
D03*
X129921Y259842D02*
D03*
X118110D02*
D03*
X106299D02*
D03*
X94488D02*
D03*
X153543Y251969D02*
D03*
X230315Y248031D02*
D03*
X218504D02*
D03*
X242126D02*
D03*
X194882D02*
D03*
X183071D02*
D03*
X206693D02*
D03*
X265748D02*
D03*
X253937D02*
D03*
X112205D02*
D03*
X100394D02*
D03*
X171260D02*
D03*
X88583D02*
D03*
X47244Y236220D02*
D03*
X736221Y314961D02*
D03*
X601342Y291136D02*
D03*
X576772Y291339D02*
D03*
X549044Y288479D02*
D03*
X541166Y311656D02*
D03*
X724529Y245330D02*
D03*
X602362Y259842D02*
D03*
X572835Y253937D02*
D03*
X728346Y163386D02*
D03*
X555118Y279528D02*
D03*
X518543Y282677D02*
D03*
X512385Y282932D02*
D03*
X542043Y278429D02*
D03*
X530712Y278565D02*
D03*
X531496Y240158D02*
D03*
X523622Y194882D02*
D03*
X497275Y283642D02*
D03*
X496967Y275429D02*
D03*
X496063Y295276D02*
D03*
X474409Y289370D02*
D03*
X496063Y265748D02*
D03*
X465574Y262651D02*
D03*
X399606Y309055D02*
D03*
Y314961D02*
D03*
Y303150D02*
D03*
X442913Y293307D02*
D03*
X399606D02*
D03*
X391732Y309055D02*
D03*
Y314961D02*
D03*
Y303150D02*
D03*
X330709Y246063D02*
D03*
X459584Y230531D02*
D03*
X431045Y227994D02*
D03*
X297244Y228346D02*
D03*
X250000Y230315D02*
D03*
X498032Y202756D02*
D03*
X478346D02*
D03*
X458661D02*
D03*
X383858Y226378D02*
D03*
X202756Y230315D02*
D03*
X155512Y232283D02*
D03*
X149123Y236833D02*
D03*
X129556Y237493D02*
D03*
X122047Y228346D02*
D03*
X94488Y230315D02*
D03*
X147638Y228346D02*
D03*
X248031Y299213D02*
D03*
X332677Y342520D02*
D03*
X362205Y265748D02*
D03*
Y271654D02*
D03*
X74803Y251969D02*
D03*
Y240158D02*
D03*
X76984Y246497D02*
D03*
X70866Y255906D02*
D03*
Y246063D02*
D03*
X62992D02*
D03*
X356299Y275590D02*
D03*
Y269685D02*
D03*
Y263779D02*
D03*
X350394Y271654D02*
D03*
Y265748D02*
D03*
Y277559D02*
D03*
X324803Y163386D02*
D03*
X370079Y334646D02*
D03*
X375984D02*
D03*
X381890D02*
D03*
X379921Y340551D02*
D03*
X372047D02*
D03*
X381890Y346457D02*
D03*
X375984D02*
D03*
X370079D02*
D03*
X141732Y320866D02*
D03*
X129921D02*
D03*
X143612Y287313D02*
D03*
X143581Y296009D02*
D03*
X141732Y326772D02*
D03*
X129921D02*
D03*
X390000Y170000D02*
D03*
X395000Y160000D02*
D03*
X390000Y150000D02*
D03*
X380000Y170000D02*
D03*
X385000Y160000D02*
D03*
Y140000D02*
D03*
X380000Y130000D02*
D03*
X370000Y170000D02*
D03*
X375000Y160000D02*
D03*
X370000Y150000D02*
D03*
X375000Y140000D02*
D03*
X370000Y130000D02*
D03*
X365000Y160000D02*
D03*
Y140000D02*
D03*
X435000Y100000D02*
D03*
X430000Y90000D02*
D03*
X435000Y80000D02*
D03*
X430000Y70000D02*
D03*
X435000Y60000D02*
D03*
X430000Y50000D02*
D03*
X425000Y100000D02*
D03*
Y80000D02*
D03*
X420000Y70000D02*
D03*
X425000Y60000D02*
D03*
X420000Y50000D02*
D03*
X415000Y100000D02*
D03*
Y80000D02*
D03*
X405000Y100000D02*
D03*
X400000Y90000D02*
D03*
X405000Y80000D02*
D03*
X476016Y280197D02*
D03*
X473577Y282512D02*
D03*
X470836Y297248D02*
D03*
X460686Y297300D02*
D03*
X454724Y297244D02*
D03*
X509842Y287402D02*
D03*
X473500Y268269D02*
D03*
X515212Y304006D02*
D03*
X460604Y303552D02*
D03*
X470842Y304456D02*
D03*
X580709Y216535D02*
D03*
X437008Y279528D02*
D03*
X411433Y267717D02*
D03*
X405512Y257874D02*
D03*
X397638Y265748D02*
D03*
X411417Y314961D02*
D03*
X433071Y285433D02*
D03*
X724409Y261811D02*
D03*
X421260Y306913D02*
D03*
X411417D02*
D03*
X417323Y314961D02*
D03*
X421266Y327468D02*
D03*
X419548Y322763D02*
D03*
X433258Y297937D02*
D03*
X726623Y252998D02*
D03*
X613692Y275462D02*
D03*
X605889Y276822D02*
D03*
X731622Y210341D02*
D03*
X425338Y306913D02*
D03*
X436990Y271666D02*
D03*
X437008Y275590D02*
D03*
X439347Y297665D02*
D03*
X445528Y304177D02*
D03*
X438450Y303773D02*
D03*
X450271Y303466D02*
D03*
X453015Y306730D02*
D03*
X465753Y304701D02*
D03*
X462598Y314961D02*
D03*
X474334Y325756D02*
D03*
X736649Y162226D02*
D03*
X521654Y289370D02*
D03*
X488189Y228346D02*
D03*
X492338Y225350D02*
D03*
X450803Y220472D02*
D03*
X540436Y288899D02*
D03*
X467898Y220472D02*
D03*
X476785Y265129D02*
D03*
X473149Y263057D02*
D03*
X493248Y209805D02*
D03*
X503937Y208661D02*
D03*
X480315Y267717D02*
D03*
X476359Y276836D02*
D03*
X84646Y230315D02*
D03*
X114787Y231309D02*
D03*
X109449Y231523D02*
D03*
X173622Y230017D02*
D03*
X220970Y230090D02*
D03*
X268029Y230213D02*
D03*
X315127Y229742D02*
D03*
X440945Y251969D02*
D03*
X437008Y267717D02*
D03*
X141732Y196850D02*
D03*
X145669Y190945D02*
D03*
X84646Y196850D02*
D03*
X112205Y122047D02*
D03*
X405512Y147638D02*
D03*
X346457Y187008D02*
D03*
X326772Y153543D02*
D03*
D177*
X468110Y336221D02*
D03*
X491732D02*
D03*
D178*
X614173Y161811D02*
D03*
X681102D02*
D03*
D179*
X437402Y338500D02*
D03*
X427402D02*
D03*
X165169Y53031D02*
D03*
X175169D02*
D03*
D180*
X122047Y72992D02*
D03*
D181*
X519685Y317992D02*
D03*
X559055D02*
D03*
M02*
