G04*
G04 #@! TF.GenerationSoftware,Altium Limited,Altium Designer,25.5.2 (35)*
G04*
G04 Layer_Color=32896*
%FSLAX25Y25*%
%MOIN*%
G70*
G04*
G04 #@! TF.SameCoordinates,74914265-353A-42BA-94C5-A8DABEA31AB8*
G04*
G04*
G04 #@! TF.FilePolarity,Positive*
G04*
G01*
G75*
%ADD10C,0.01575*%
%ADD12C,0.00984*%
%ADD14C,0.02362*%
G36*
X448191Y297035D02*
X448262D01*
Y285256D01*
X447486D01*
Y285327D01*
X447415D01*
Y286103D01*
X446640D01*
Y286173D01*
X446569D01*
Y286949D01*
X445793D01*
Y287019D01*
X445723D01*
Y287795D01*
X444947D01*
Y287725D01*
X444876D01*
Y286949D01*
X444101D01*
Y286878D01*
X444030D01*
Y285256D01*
X443254D01*
Y285186D01*
X443184D01*
Y283563D01*
X441561D01*
Y283634D01*
X441491D01*
Y285186D01*
X441561D01*
Y285256D01*
X442337D01*
Y286878D01*
X442408D01*
Y286949D01*
X443184D01*
Y288642D01*
X440010D01*
Y289488D01*
X440644D01*
Y290264D01*
X440715D01*
Y290334D01*
X441491D01*
Y291110D01*
X441561D01*
Y291181D01*
X442337D01*
Y291957D01*
X442408D01*
Y292027D01*
X443184D01*
Y292803D01*
X443254D01*
Y292874D01*
X444030D01*
Y293650D01*
X444101D01*
Y293720D01*
X444876D01*
Y294496D01*
X444947D01*
Y294566D01*
X445723D01*
Y295342D01*
X445793D01*
Y295413D01*
X446569D01*
Y296189D01*
X446640D01*
Y296259D01*
X447415D01*
Y297035D01*
X447486D01*
Y297106D01*
X448191D01*
Y297035D01*
D02*
G37*
G36*
X412527Y265748D02*
X412570D01*
Y265727D01*
X412591D01*
Y265684D01*
X412613D01*
Y265620D01*
X412634D01*
Y265513D01*
X412655D01*
Y265406D01*
X412677D01*
Y265278D01*
X412698D01*
Y265171D01*
X412720D01*
Y265043D01*
X412741D01*
Y264936D01*
X412762D01*
Y264829D01*
X412784D01*
Y264701D01*
X412805D01*
Y264594D01*
X412826D01*
Y264487D01*
X412848D01*
Y264358D01*
X412869D01*
Y264252D01*
X412891D01*
Y264123D01*
X412912D01*
Y264016D01*
X412933D01*
Y263910D01*
X412955D01*
Y263781D01*
X412976D01*
Y263674D01*
X412997D01*
Y263567D01*
X413019D01*
Y263439D01*
X413040D01*
Y263332D01*
X413062D01*
Y263204D01*
X413083D01*
Y263097D01*
X413104D01*
Y262990D01*
X413126D01*
Y262862D01*
X413147D01*
Y262755D01*
X413168D01*
Y262670D01*
X413190D01*
Y262627D01*
X413211D01*
Y262584D01*
X413233D01*
Y262563D01*
X413254D01*
Y262541D01*
X413297D01*
Y262520D01*
X413340D01*
Y262499D01*
X413404D01*
Y262477D01*
X413446D01*
Y262456D01*
X413511D01*
Y262435D01*
X413553D01*
Y262413D01*
X413617D01*
Y262392D01*
X413660D01*
Y262370D01*
X413703D01*
Y262349D01*
X413767D01*
Y262328D01*
X413810D01*
Y262306D01*
X413874D01*
Y262285D01*
X413917D01*
Y262263D01*
X413981D01*
Y262242D01*
X414024D01*
Y262221D01*
X414088D01*
Y262199D01*
X414130D01*
Y262178D01*
X414173D01*
Y262157D01*
X414237D01*
Y262135D01*
X414280D01*
Y262114D01*
X414344D01*
Y262092D01*
X414387D01*
Y262071D01*
X414451D01*
Y262050D01*
X414494D01*
Y262028D01*
X414558D01*
Y262007D01*
X414601D01*
Y261986D01*
X414643D01*
Y261964D01*
X414708D01*
Y261943D01*
X414750D01*
Y261922D01*
X414815D01*
Y261900D01*
X414857D01*
Y261879D01*
X414921D01*
Y261857D01*
X414964D01*
Y261836D01*
X415028D01*
Y261815D01*
X415071D01*
Y261793D01*
X415114D01*
Y261772D01*
X415178D01*
Y261751D01*
X415221D01*
Y261729D01*
X415285D01*
Y261708D01*
X415328D01*
Y261686D01*
X415456D01*
Y261708D01*
X415520D01*
Y261729D01*
X415541D01*
Y261751D01*
X415584D01*
Y261772D01*
X415605D01*
Y261793D01*
X415648D01*
Y261815D01*
X415670D01*
Y261836D01*
X415691D01*
Y261857D01*
X415734D01*
Y261879D01*
X415755D01*
Y261900D01*
X415798D01*
Y261922D01*
X415819D01*
Y261943D01*
X415862D01*
Y261964D01*
X415883D01*
Y261986D01*
X415926D01*
Y262007D01*
X415948D01*
Y262028D01*
X415990D01*
Y262050D01*
X416012D01*
Y262071D01*
X416054D01*
Y262092D01*
X416076D01*
Y262114D01*
X416097D01*
Y262135D01*
X416140D01*
Y262157D01*
X416161D01*
Y262178D01*
X416204D01*
Y262199D01*
X416225D01*
Y262221D01*
X416268D01*
Y262242D01*
X416290D01*
Y262263D01*
X416332D01*
Y262285D01*
X416354D01*
Y262306D01*
X416397D01*
Y262328D01*
X416418D01*
Y262349D01*
X416439D01*
Y262370D01*
X416482D01*
Y262392D01*
X416503D01*
Y262413D01*
X416546D01*
Y262435D01*
X416568D01*
Y262456D01*
X416610D01*
Y262477D01*
X416632D01*
Y262499D01*
X416674D01*
Y262520D01*
X416696D01*
Y262541D01*
X416739D01*
Y262563D01*
X416760D01*
Y262584D01*
X416781D01*
Y262606D01*
X416824D01*
Y262627D01*
X416845D01*
Y262648D01*
X416888D01*
Y262670D01*
X416910D01*
Y262691D01*
X416952D01*
Y262712D01*
X416974D01*
Y262734D01*
X417016D01*
Y262755D01*
X417038D01*
Y262777D01*
X417081D01*
Y262798D01*
X417102D01*
Y262819D01*
X417145D01*
Y262841D01*
X417166D01*
Y262862D01*
X417187D01*
Y262883D01*
X417230D01*
Y262905D01*
X417252D01*
Y262926D01*
X417294D01*
Y262948D01*
X417316D01*
Y262969D01*
X417358D01*
Y262990D01*
X417380D01*
Y263012D01*
X417423D01*
Y263033D01*
X417444D01*
Y263054D01*
X417487D01*
Y263076D01*
X417508D01*
Y263097D01*
X417529D01*
Y263119D01*
X417572D01*
Y263140D01*
X417594D01*
Y263161D01*
X417636D01*
Y263183D01*
X417658D01*
Y263204D01*
X417700D01*
Y263226D01*
X417722D01*
Y263247D01*
X417765D01*
Y263268D01*
X417786D01*
Y263290D01*
X417829D01*
Y263311D01*
X417850D01*
Y263332D01*
X417872D01*
Y263354D01*
X417914D01*
Y263375D01*
X417936D01*
Y263397D01*
X417978D01*
Y263418D01*
X418000D01*
Y263439D01*
X418149D01*
Y263418D01*
X418171D01*
Y263397D01*
X418192D01*
Y263375D01*
X418214D01*
Y263354D01*
X418235D01*
Y263332D01*
X418256D01*
Y263311D01*
X418278D01*
Y263290D01*
X418299D01*
Y263268D01*
X418320D01*
Y263247D01*
X418342D01*
Y263226D01*
X418363D01*
Y263204D01*
X418385D01*
Y263183D01*
X418406D01*
Y263161D01*
X418427D01*
Y263140D01*
X418449D01*
Y263119D01*
X418470D01*
Y263097D01*
X418492D01*
Y263076D01*
X418513D01*
Y263054D01*
X418534D01*
Y263033D01*
X418556D01*
Y263012D01*
X418577D01*
Y262990D01*
X418598D01*
Y262969D01*
X418620D01*
Y262948D01*
X418641D01*
Y262926D01*
X418663D01*
Y262905D01*
X418684D01*
Y262883D01*
X418705D01*
Y262862D01*
X418727D01*
Y262841D01*
X418748D01*
Y262819D01*
X418769D01*
Y262798D01*
X418791D01*
Y262777D01*
X418812D01*
Y262755D01*
X418833D01*
Y262734D01*
X418855D01*
Y262712D01*
X418876D01*
Y262691D01*
X418898D01*
Y262670D01*
X418919D01*
Y262648D01*
X418940D01*
Y262627D01*
X418962D01*
Y262606D01*
X418983D01*
Y262584D01*
X419004D01*
Y262563D01*
X419026D01*
Y262541D01*
X419047D01*
Y262520D01*
X419069D01*
Y262499D01*
X419090D01*
Y262477D01*
X419111D01*
Y262456D01*
X419133D01*
Y262435D01*
X419154D01*
Y262413D01*
X419176D01*
Y262392D01*
X419197D01*
Y262370D01*
X419218D01*
Y262349D01*
X419240D01*
Y262328D01*
X419261D01*
Y262306D01*
X419282D01*
Y262285D01*
X419304D01*
Y262263D01*
X419325D01*
Y262242D01*
X419347D01*
Y262221D01*
X419368D01*
Y262199D01*
X419389D01*
Y262178D01*
X419411D01*
Y262157D01*
X419432D01*
Y262135D01*
X419453D01*
Y262114D01*
X419475D01*
Y262092D01*
X419496D01*
Y262071D01*
X419518D01*
Y262050D01*
X419539D01*
Y262028D01*
X419560D01*
Y262007D01*
X419582D01*
Y261986D01*
X419603D01*
Y261964D01*
X419625D01*
Y261943D01*
X419646D01*
Y261922D01*
X419667D01*
Y261900D01*
X419689D01*
Y261879D01*
X419710D01*
Y261857D01*
X419731D01*
Y261836D01*
X419753D01*
Y261815D01*
X419774D01*
Y261793D01*
X419796D01*
Y261772D01*
X419817D01*
Y261751D01*
X419838D01*
Y261729D01*
X419860D01*
Y261708D01*
X419881D01*
Y261686D01*
X419902D01*
Y261665D01*
X419924D01*
Y261644D01*
X419945D01*
Y261622D01*
X419967D01*
Y261601D01*
X419988D01*
Y261579D01*
X420009D01*
Y261558D01*
X420031D01*
Y261537D01*
X420052D01*
Y261515D01*
X420073D01*
Y261494D01*
X420095D01*
Y261473D01*
X420116D01*
Y261451D01*
X420138D01*
Y261430D01*
X420159D01*
Y261408D01*
X420180D01*
Y261387D01*
X420202D01*
Y261366D01*
X420223D01*
Y261344D01*
X420244D01*
Y261323D01*
X420266D01*
Y261301D01*
X420287D01*
Y261259D01*
X420309D01*
Y261173D01*
X420287D01*
Y261130D01*
X420266D01*
Y261088D01*
X420244D01*
Y261066D01*
X420223D01*
Y261024D01*
X420202D01*
Y261002D01*
X420180D01*
Y260960D01*
X420159D01*
Y260938D01*
X420138D01*
Y260917D01*
X420116D01*
Y260874D01*
X420095D01*
Y260853D01*
X420073D01*
Y260810D01*
X420052D01*
Y260788D01*
X420031D01*
Y260746D01*
X420009D01*
Y260724D01*
X419988D01*
Y260682D01*
X419967D01*
Y260660D01*
X419945D01*
Y260617D01*
X419924D01*
Y260596D01*
X419902D01*
Y260553D01*
X419881D01*
Y260532D01*
X419860D01*
Y260511D01*
X419838D01*
Y260468D01*
X419817D01*
Y260446D01*
X419796D01*
Y260404D01*
X419774D01*
Y260382D01*
X419753D01*
Y260339D01*
X419731D01*
Y260318D01*
X419710D01*
Y260275D01*
X419689D01*
Y260254D01*
X419667D01*
Y260211D01*
X419646D01*
Y260190D01*
X419625D01*
Y260169D01*
X419603D01*
Y260126D01*
X419582D01*
Y260104D01*
X419560D01*
Y260062D01*
X419539D01*
Y260040D01*
X419518D01*
Y259998D01*
X419496D01*
Y259976D01*
X419475D01*
Y259933D01*
X419453D01*
Y259912D01*
X419432D01*
Y259869D01*
X419411D01*
Y259848D01*
X419389D01*
Y259826D01*
X419368D01*
Y259784D01*
X419347D01*
Y259762D01*
X419325D01*
Y259720D01*
X419304D01*
Y259698D01*
X419282D01*
Y259655D01*
X419261D01*
Y259634D01*
X419240D01*
Y259591D01*
X419218D01*
Y259570D01*
X419197D01*
Y259527D01*
X419176D01*
Y259506D01*
X419154D01*
Y259463D01*
X419133D01*
Y259442D01*
X419111D01*
Y259420D01*
X419090D01*
Y259378D01*
X419069D01*
Y259356D01*
X419047D01*
Y259313D01*
X419026D01*
Y259292D01*
X419004D01*
Y259249D01*
X418983D01*
Y259228D01*
X418962D01*
Y259185D01*
X418940D01*
Y259164D01*
X418919D01*
Y259121D01*
X418898D01*
Y259100D01*
X418876D01*
Y259078D01*
X418855D01*
Y259035D01*
X418833D01*
Y259014D01*
X418812D01*
Y258971D01*
X418791D01*
Y258950D01*
X418769D01*
Y258907D01*
X418748D01*
Y258886D01*
X418727D01*
Y258843D01*
X418705D01*
Y258822D01*
X418684D01*
Y258779D01*
X418663D01*
Y258758D01*
X418641D01*
Y258715D01*
X418620D01*
Y258694D01*
X418598D01*
Y258629D01*
X418577D01*
Y258523D01*
X418598D01*
Y258458D01*
X418620D01*
Y258416D01*
X418641D01*
Y258373D01*
X418663D01*
Y258309D01*
X418684D01*
Y258266D01*
X418705D01*
Y258223D01*
X418727D01*
Y258159D01*
X418748D01*
Y258116D01*
X418769D01*
Y258073D01*
X418791D01*
Y258009D01*
X418812D01*
Y257967D01*
X418833D01*
Y257924D01*
X418855D01*
Y257860D01*
X418876D01*
Y257817D01*
X418898D01*
Y257774D01*
X418919D01*
Y257710D01*
X418940D01*
Y257667D01*
X418962D01*
Y257625D01*
X418983D01*
Y257560D01*
X419004D01*
Y257518D01*
X419026D01*
Y257475D01*
X419047D01*
Y257411D01*
X419069D01*
Y257368D01*
X419090D01*
Y257325D01*
X419111D01*
Y257261D01*
X419133D01*
Y257218D01*
X419154D01*
Y257176D01*
X419176D01*
Y257112D01*
X419197D01*
Y257069D01*
X419218D01*
Y257026D01*
X419240D01*
Y256962D01*
X419261D01*
Y256919D01*
X419282D01*
Y256876D01*
X419304D01*
Y256812D01*
X419325D01*
Y256769D01*
X419347D01*
Y256727D01*
X419368D01*
Y256663D01*
X419389D01*
Y256620D01*
X419411D01*
Y256577D01*
X419432D01*
Y256513D01*
X419453D01*
Y256470D01*
X419475D01*
Y256428D01*
X419496D01*
Y256385D01*
X419518D01*
Y256363D01*
X419539D01*
Y256342D01*
X419560D01*
Y256321D01*
X419603D01*
Y256299D01*
X419646D01*
Y256278D01*
X419774D01*
Y256256D01*
X419881D01*
Y256235D01*
X420009D01*
Y256214D01*
X420116D01*
Y256192D01*
X420223D01*
Y256171D01*
X420351D01*
Y256150D01*
X420458D01*
Y256128D01*
X420565D01*
Y256107D01*
X420693D01*
Y256085D01*
X420800D01*
Y256064D01*
X420928D01*
Y256043D01*
X421035D01*
Y256021D01*
X421142D01*
Y256000D01*
X421271D01*
Y255978D01*
X421377D01*
Y255957D01*
X421506D01*
Y255936D01*
X421613D01*
Y255914D01*
X421720D01*
Y255893D01*
X421848D01*
Y255872D01*
X421955D01*
Y255850D01*
X422061D01*
Y255829D01*
X422190D01*
Y255807D01*
X422297D01*
Y255786D01*
X422425D01*
Y255765D01*
X422532D01*
Y255743D01*
X422575D01*
Y255722D01*
X422596D01*
Y255679D01*
X422617D01*
Y255615D01*
X422639D01*
Y252665D01*
X422617D01*
Y252601D01*
X422596D01*
Y252558D01*
X422575D01*
Y252537D01*
X422532D01*
Y252515D01*
X422425D01*
Y252494D01*
X422297D01*
Y252473D01*
X422190D01*
Y252451D01*
X422061D01*
Y252430D01*
X421955D01*
Y252409D01*
X421848D01*
Y252387D01*
X421720D01*
Y252366D01*
X421613D01*
Y252344D01*
X421506D01*
Y252323D01*
X421377D01*
Y252302D01*
X421271D01*
Y252280D01*
X421142D01*
Y252259D01*
X421035D01*
Y252238D01*
X420928D01*
Y252216D01*
X420800D01*
Y252195D01*
X420693D01*
Y252173D01*
X420586D01*
Y252152D01*
X420458D01*
Y252131D01*
X420351D01*
Y252109D01*
X420223D01*
Y252088D01*
X420116D01*
Y252066D01*
X420009D01*
Y252045D01*
X419881D01*
Y252024D01*
X419774D01*
Y252002D01*
X419689D01*
Y251981D01*
X419646D01*
Y251960D01*
X419625D01*
Y251938D01*
X419603D01*
Y251917D01*
X419582D01*
Y251895D01*
X419560D01*
Y251853D01*
X419539D01*
Y251789D01*
X419518D01*
Y251746D01*
X419496D01*
Y251682D01*
X419475D01*
Y251639D01*
X419453D01*
Y251575D01*
X419432D01*
Y251532D01*
X419411D01*
Y251468D01*
X419389D01*
Y251425D01*
X419368D01*
Y251361D01*
X419347D01*
Y251318D01*
X419325D01*
Y251254D01*
X419304D01*
Y251211D01*
X419282D01*
Y251147D01*
X419261D01*
Y251104D01*
X419240D01*
Y251040D01*
X419218D01*
Y250998D01*
X419197D01*
Y250934D01*
X419176D01*
Y250891D01*
X419154D01*
Y250827D01*
X419133D01*
Y250784D01*
X419111D01*
Y250720D01*
X419090D01*
Y250677D01*
X419069D01*
Y250613D01*
X419047D01*
Y250570D01*
X419026D01*
Y250506D01*
X419004D01*
Y250463D01*
X418983D01*
Y250399D01*
X418962D01*
Y250356D01*
X418940D01*
Y250292D01*
X418919D01*
Y250249D01*
X418898D01*
Y250185D01*
X418876D01*
Y250143D01*
X418855D01*
Y250078D01*
X418833D01*
Y250036D01*
X418812D01*
Y249972D01*
X418791D01*
Y249929D01*
X418769D01*
Y249865D01*
X418748D01*
Y249822D01*
X418727D01*
Y249758D01*
X418705D01*
Y249715D01*
X418684D01*
Y249651D01*
X418663D01*
Y249501D01*
X418684D01*
Y249458D01*
X418705D01*
Y249437D01*
X418727D01*
Y249394D01*
X418748D01*
Y249373D01*
X418769D01*
Y249330D01*
X418791D01*
Y249309D01*
X418812D01*
Y249266D01*
X418833D01*
Y249245D01*
X418855D01*
Y249202D01*
X418876D01*
Y249181D01*
X418898D01*
Y249159D01*
X418919D01*
Y249116D01*
X418940D01*
Y249095D01*
X418962D01*
Y249052D01*
X418983D01*
Y249031D01*
X419004D01*
Y248988D01*
X419026D01*
Y248967D01*
X419047D01*
Y248924D01*
X419069D01*
Y248903D01*
X419090D01*
Y248860D01*
X419111D01*
Y248838D01*
X419133D01*
Y248796D01*
X419154D01*
Y248774D01*
X419176D01*
Y248753D01*
X419197D01*
Y248710D01*
X419218D01*
Y248689D01*
X419240D01*
Y248646D01*
X419261D01*
Y248625D01*
X419282D01*
Y248582D01*
X419304D01*
Y248561D01*
X419325D01*
Y248518D01*
X419347D01*
Y248497D01*
X419368D01*
Y248454D01*
X419389D01*
Y248432D01*
X419411D01*
Y248411D01*
X419432D01*
Y248368D01*
X419453D01*
Y248347D01*
X419475D01*
Y248304D01*
X419496D01*
Y248283D01*
X419518D01*
Y248240D01*
X419539D01*
Y248218D01*
X419560D01*
Y248176D01*
X419582D01*
Y248154D01*
X419603D01*
Y248112D01*
X419625D01*
Y248090D01*
X419646D01*
Y248069D01*
X419667D01*
Y248026D01*
X419689D01*
Y248005D01*
X419710D01*
Y247962D01*
X419731D01*
Y247941D01*
X419753D01*
Y247898D01*
X419774D01*
Y247877D01*
X419796D01*
Y247834D01*
X419817D01*
Y247812D01*
X419838D01*
Y247770D01*
X419860D01*
Y247748D01*
X419881D01*
Y247706D01*
X419902D01*
Y247684D01*
X419924D01*
Y247663D01*
X419945D01*
Y247620D01*
X419967D01*
Y247599D01*
X419988D01*
Y247556D01*
X420009D01*
Y247534D01*
X420031D01*
Y247492D01*
X420052D01*
Y247470D01*
X420073D01*
Y247428D01*
X420095D01*
Y247406D01*
X420116D01*
Y247363D01*
X420138D01*
Y247342D01*
X420159D01*
Y247321D01*
X420180D01*
Y247278D01*
X420202D01*
Y247257D01*
X420223D01*
Y247214D01*
X420244D01*
Y247192D01*
X420266D01*
Y247150D01*
X420287D01*
Y247107D01*
X420309D01*
Y247021D01*
X420287D01*
Y246979D01*
X420266D01*
Y246957D01*
X420244D01*
Y246936D01*
X420223D01*
Y246915D01*
X420202D01*
Y246893D01*
X420180D01*
Y246872D01*
X420159D01*
Y246850D01*
X420138D01*
Y246829D01*
X420116D01*
Y246808D01*
X420095D01*
Y246786D01*
X420073D01*
Y246765D01*
X420052D01*
Y246743D01*
X420031D01*
Y246722D01*
X420009D01*
Y246701D01*
X419988D01*
Y246679D01*
X419967D01*
Y246658D01*
X419945D01*
Y246637D01*
X419924D01*
Y246615D01*
X419902D01*
Y246594D01*
X419881D01*
Y246572D01*
X419860D01*
Y246551D01*
X419838D01*
Y246530D01*
X419817D01*
Y246508D01*
X419796D01*
Y246487D01*
X419774D01*
Y246466D01*
X419753D01*
Y246444D01*
X419731D01*
Y246423D01*
X419710D01*
Y246402D01*
X419689D01*
Y246380D01*
X419667D01*
Y246359D01*
X419646D01*
Y246337D01*
X419625D01*
Y246316D01*
X419603D01*
Y246295D01*
X419582D01*
Y246273D01*
X419560D01*
Y246252D01*
X419539D01*
Y246230D01*
X419518D01*
Y246209D01*
X419496D01*
Y246188D01*
X419475D01*
Y246166D01*
X419453D01*
Y246145D01*
X419432D01*
Y246124D01*
X419411D01*
Y246102D01*
X419389D01*
Y246081D01*
X419368D01*
Y246059D01*
X419347D01*
Y246038D01*
X419325D01*
Y246017D01*
X419304D01*
Y245995D01*
X419282D01*
Y245974D01*
X419261D01*
Y245953D01*
X419240D01*
Y245931D01*
X419218D01*
Y245910D01*
X419197D01*
Y245888D01*
X419176D01*
Y245867D01*
X419154D01*
Y245846D01*
X419133D01*
Y245824D01*
X419111D01*
Y245803D01*
X419090D01*
Y245781D01*
X419069D01*
Y245760D01*
X419047D01*
Y245739D01*
X419026D01*
Y245717D01*
X419004D01*
Y245696D01*
X418983D01*
Y245675D01*
X418962D01*
Y245653D01*
X418940D01*
Y245632D01*
X418919D01*
Y245610D01*
X418898D01*
Y245589D01*
X418876D01*
Y245568D01*
X418855D01*
Y245546D01*
X418833D01*
Y245525D01*
X418812D01*
Y245504D01*
X418791D01*
Y245482D01*
X418769D01*
Y245461D01*
X418748D01*
Y245440D01*
X418727D01*
Y245418D01*
X418705D01*
Y245397D01*
X418684D01*
Y245375D01*
X418663D01*
Y245354D01*
X418641D01*
Y245333D01*
X418620D01*
Y245311D01*
X418598D01*
Y245290D01*
X418577D01*
Y245269D01*
X418556D01*
Y245247D01*
X418534D01*
Y245226D01*
X418513D01*
Y245204D01*
X418492D01*
Y245183D01*
X418470D01*
Y245162D01*
X418449D01*
Y245140D01*
X418427D01*
Y245119D01*
X418406D01*
Y245097D01*
X418385D01*
Y245076D01*
X418363D01*
Y245055D01*
X418342D01*
Y245033D01*
X418320D01*
Y245012D01*
X418299D01*
Y244990D01*
X418278D01*
Y244969D01*
X418256D01*
Y244948D01*
X418235D01*
Y244926D01*
X418214D01*
Y244905D01*
X418192D01*
Y244884D01*
X418171D01*
Y244862D01*
X418149D01*
Y244841D01*
X418000D01*
Y244862D01*
X417978D01*
Y244884D01*
X417936D01*
Y244905D01*
X417914D01*
Y244926D01*
X417872D01*
Y244948D01*
X417850D01*
Y244969D01*
X417829D01*
Y244990D01*
X417786D01*
Y245012D01*
X417765D01*
Y245033D01*
X417722D01*
Y245055D01*
X417700D01*
Y245076D01*
X417658D01*
Y245097D01*
X417636D01*
Y245119D01*
X417594D01*
Y245140D01*
X417572D01*
Y245162D01*
X417529D01*
Y245183D01*
X417508D01*
Y245204D01*
X417465D01*
Y245226D01*
X417444D01*
Y245247D01*
X417423D01*
Y245269D01*
X417380D01*
Y245290D01*
X417358D01*
Y245311D01*
X417316D01*
Y245333D01*
X417294D01*
Y245354D01*
X417252D01*
Y245375D01*
X417230D01*
Y245397D01*
X417187D01*
Y245418D01*
X417166D01*
Y245440D01*
X417123D01*
Y245461D01*
X417102D01*
Y245482D01*
X417081D01*
Y245504D01*
X417038D01*
Y245525D01*
X417016D01*
Y245546D01*
X416974D01*
Y245568D01*
X416952D01*
Y245589D01*
X416910D01*
Y245610D01*
X416888D01*
Y245632D01*
X416845D01*
Y245653D01*
X416824D01*
Y245675D01*
X416781D01*
Y245696D01*
X416760D01*
Y245717D01*
X416739D01*
Y245739D01*
X416696D01*
Y245760D01*
X416674D01*
Y245781D01*
X416632D01*
Y245803D01*
X416610D01*
Y245824D01*
X416568D01*
Y245846D01*
X416546D01*
Y245867D01*
X416503D01*
Y245888D01*
X416482D01*
Y245910D01*
X416439D01*
Y245931D01*
X416418D01*
Y245953D01*
X416375D01*
Y245974D01*
X416354D01*
Y245995D01*
X416332D01*
Y246017D01*
X416290D01*
Y246038D01*
X416268D01*
Y246059D01*
X416225D01*
Y246081D01*
X416204D01*
Y246102D01*
X416161D01*
Y246124D01*
X416140D01*
Y246145D01*
X416097D01*
Y246166D01*
X416076D01*
Y246188D01*
X416033D01*
Y246209D01*
X416012D01*
Y246230D01*
X415990D01*
Y246252D01*
X415948D01*
Y246273D01*
X415926D01*
Y246295D01*
X415883D01*
Y246316D01*
X415862D01*
Y246337D01*
X415819D01*
Y246359D01*
X415798D01*
Y246380D01*
X415755D01*
Y246402D01*
X415734D01*
Y246423D01*
X415691D01*
Y246444D01*
X415520D01*
Y246423D01*
X415477D01*
Y246402D01*
X415435D01*
Y246380D01*
X415413D01*
Y246359D01*
X415370D01*
Y246337D01*
X415328D01*
Y246316D01*
X415285D01*
Y246295D01*
X415242D01*
Y246273D01*
X415199D01*
Y246252D01*
X415157D01*
Y246230D01*
X415114D01*
Y246209D01*
X415093D01*
Y246188D01*
X415050D01*
Y246166D01*
X415007D01*
Y246145D01*
X414964D01*
Y246124D01*
X414921D01*
Y246102D01*
X414879D01*
Y246081D01*
X414836D01*
Y246059D01*
X414793D01*
Y246038D01*
X414772D01*
Y246017D01*
X414729D01*
Y245995D01*
X414686D01*
Y245974D01*
X414643D01*
Y245953D01*
X414601D01*
Y245931D01*
X414558D01*
Y245910D01*
X414515D01*
Y245888D01*
X414472D01*
Y245867D01*
X414451D01*
Y245888D01*
X414387D01*
Y245910D01*
X414366D01*
Y245931D01*
X414344D01*
Y245974D01*
X414323D01*
Y246038D01*
X414301D01*
Y246081D01*
X414280D01*
Y246145D01*
X414259D01*
Y246188D01*
X414237D01*
Y246230D01*
X414216D01*
Y246295D01*
X414195D01*
Y246337D01*
X414173D01*
Y246402D01*
X414152D01*
Y246444D01*
X414130D01*
Y246487D01*
X414109D01*
Y246551D01*
X414088D01*
Y246594D01*
X414066D01*
Y246658D01*
X414045D01*
Y246701D01*
X414024D01*
Y246765D01*
X414002D01*
Y246808D01*
X413981D01*
Y246850D01*
X413960D01*
Y246915D01*
X413938D01*
Y246957D01*
X413917D01*
Y247021D01*
X413895D01*
Y247064D01*
X413874D01*
Y247107D01*
X413853D01*
Y247171D01*
X413831D01*
Y247214D01*
X413810D01*
Y247278D01*
X413788D01*
Y247321D01*
X413767D01*
Y247385D01*
X413746D01*
Y247428D01*
X413724D01*
Y247470D01*
X413703D01*
Y247534D01*
X413682D01*
Y247577D01*
X413660D01*
Y247641D01*
X413639D01*
Y247684D01*
X413617D01*
Y247727D01*
X413596D01*
Y247791D01*
X413575D01*
Y247834D01*
X413553D01*
Y247898D01*
X413532D01*
Y247941D01*
X413511D01*
Y247983D01*
X413489D01*
Y248047D01*
X413468D01*
Y248090D01*
X413446D01*
Y248154D01*
X413425D01*
Y248197D01*
X413404D01*
Y248261D01*
X413382D01*
Y248304D01*
X413361D01*
Y248347D01*
X413340D01*
Y248411D01*
X413318D01*
Y248454D01*
X413297D01*
Y248518D01*
X413275D01*
Y248561D01*
X413254D01*
Y248603D01*
X413233D01*
Y248668D01*
X413211D01*
Y248710D01*
X413190D01*
Y248774D01*
X413168D01*
Y248817D01*
X413147D01*
Y248881D01*
X413126D01*
Y248924D01*
X413104D01*
Y248967D01*
X413083D01*
Y249031D01*
X413062D01*
Y249074D01*
X413040D01*
Y249138D01*
X413019D01*
Y249181D01*
X412997D01*
Y249223D01*
X412976D01*
Y249287D01*
X412955D01*
Y249330D01*
X412933D01*
Y249394D01*
X412912D01*
Y249437D01*
X412891D01*
Y249501D01*
X412869D01*
Y249544D01*
X412848D01*
Y249587D01*
X412826D01*
Y249651D01*
X412805D01*
Y249694D01*
X412784D01*
Y249758D01*
X412762D01*
Y249800D01*
X412741D01*
Y249843D01*
X412720D01*
Y249907D01*
X412698D01*
Y249950D01*
X412677D01*
Y250014D01*
X412655D01*
Y250057D01*
X412634D01*
Y250121D01*
X412613D01*
Y250164D01*
X412591D01*
Y250207D01*
X412570D01*
Y250271D01*
X412548D01*
Y250313D01*
X412527D01*
Y250378D01*
X412506D01*
Y250420D01*
X412484D01*
Y250463D01*
X412463D01*
Y250527D01*
X412442D01*
Y250570D01*
X412420D01*
Y250634D01*
X412399D01*
Y250677D01*
X412378D01*
Y250741D01*
X412356D01*
Y250784D01*
X412335D01*
Y250827D01*
X412313D01*
Y250891D01*
X412292D01*
Y250955D01*
X412271D01*
Y251019D01*
X412292D01*
Y251062D01*
X412313D01*
Y251083D01*
X412335D01*
Y251104D01*
X412356D01*
Y251126D01*
X412399D01*
Y251147D01*
X412420D01*
Y251169D01*
X412463D01*
Y251190D01*
X412506D01*
Y251211D01*
X412527D01*
Y251233D01*
X412570D01*
Y251254D01*
X412613D01*
Y251275D01*
X412634D01*
Y251297D01*
X412655D01*
Y251318D01*
X412698D01*
Y251340D01*
X412720D01*
Y251361D01*
X412741D01*
Y251382D01*
X412784D01*
Y251404D01*
X412805D01*
Y251425D01*
X412848D01*
Y251447D01*
X412869D01*
Y251468D01*
X412891D01*
Y251489D01*
X412933D01*
Y251511D01*
X412955D01*
Y251532D01*
X412976D01*
Y251553D01*
X413019D01*
Y251575D01*
X413040D01*
Y251596D01*
X413062D01*
Y251618D01*
X413083D01*
Y251639D01*
X413126D01*
Y251660D01*
X413147D01*
Y251682D01*
X413168D01*
Y251703D01*
X413190D01*
Y251724D01*
X413211D01*
Y251746D01*
X413233D01*
Y251767D01*
X413254D01*
Y251789D01*
X413275D01*
Y251810D01*
X413297D01*
Y251831D01*
X413318D01*
Y251853D01*
X413340D01*
Y251874D01*
X413361D01*
Y251895D01*
X413382D01*
Y251917D01*
X413404D01*
Y251938D01*
X413425D01*
Y251960D01*
X413446D01*
Y251981D01*
X413468D01*
Y252002D01*
X413489D01*
Y252045D01*
X413511D01*
Y252066D01*
X413532D01*
Y252088D01*
X413553D01*
Y252109D01*
X413575D01*
Y252152D01*
X413596D01*
Y252173D01*
X413617D01*
Y252195D01*
X413639D01*
Y252238D01*
X413660D01*
Y252259D01*
X413682D01*
Y252302D01*
X413703D01*
Y252323D01*
X413724D01*
Y252366D01*
X413746D01*
Y252387D01*
X413767D01*
Y252430D01*
X413788D01*
Y252451D01*
X413810D01*
Y252494D01*
X413831D01*
Y252537D01*
X413853D01*
Y252579D01*
X413874D01*
Y252601D01*
X413895D01*
Y252644D01*
X413917D01*
Y252686D01*
X413938D01*
Y252751D01*
X413960D01*
Y252793D01*
X413981D01*
Y252836D01*
X414002D01*
Y252879D01*
X414024D01*
Y252943D01*
X414045D01*
Y253007D01*
X414066D01*
Y253050D01*
X414088D01*
Y253114D01*
X414109D01*
Y253178D01*
X414130D01*
Y253264D01*
X414152D01*
Y253349D01*
X414173D01*
Y253435D01*
X414195D01*
Y253541D01*
X414216D01*
Y253670D01*
X414237D01*
Y253884D01*
X414259D01*
Y254375D01*
X414237D01*
Y254568D01*
X414216D01*
Y254696D01*
X414195D01*
Y254803D01*
X414173D01*
Y254910D01*
X414152D01*
Y254974D01*
X414130D01*
Y255059D01*
X414109D01*
Y255123D01*
X414088D01*
Y255188D01*
X414066D01*
Y255252D01*
X414045D01*
Y255294D01*
X414024D01*
Y255359D01*
X414002D01*
Y255401D01*
X413981D01*
Y255466D01*
X413960D01*
Y255508D01*
X413938D01*
Y255551D01*
X413917D01*
Y255594D01*
X413895D01*
Y255637D01*
X413874D01*
Y255679D01*
X413853D01*
Y255722D01*
X413831D01*
Y255743D01*
X413810D01*
Y255786D01*
X413788D01*
Y255829D01*
X413767D01*
Y255850D01*
X413746D01*
Y255893D01*
X413724D01*
Y255914D01*
X413703D01*
Y255957D01*
X413682D01*
Y255978D01*
X413660D01*
Y256021D01*
X413639D01*
Y256043D01*
X413617D01*
Y256085D01*
X413596D01*
Y256107D01*
X413575D01*
Y256128D01*
X413553D01*
Y256150D01*
X413532D01*
Y256192D01*
X413511D01*
Y256214D01*
X413489D01*
Y256235D01*
X413468D01*
Y256256D01*
X413446D01*
Y256278D01*
X413425D01*
Y256299D01*
X413404D01*
Y256342D01*
X413382D01*
Y256363D01*
X413361D01*
Y256385D01*
X413340D01*
Y256406D01*
X413318D01*
Y256428D01*
X413297D01*
Y256449D01*
X413275D01*
Y256470D01*
X413254D01*
Y256492D01*
X413233D01*
Y256513D01*
X413190D01*
Y256534D01*
X413168D01*
Y256556D01*
X413147D01*
Y256577D01*
X413126D01*
Y256598D01*
X413104D01*
Y256620D01*
X413083D01*
Y256641D01*
X413062D01*
Y256663D01*
X413019D01*
Y256684D01*
X412997D01*
Y256705D01*
X412976D01*
Y256727D01*
X412933D01*
Y256748D01*
X412912D01*
Y256769D01*
X412891D01*
Y256791D01*
X412848D01*
Y256812D01*
X412826D01*
Y256834D01*
X412784D01*
Y256855D01*
X412762D01*
Y256876D01*
X412720D01*
Y256898D01*
X412698D01*
Y256919D01*
X412655D01*
Y256941D01*
X412613D01*
Y256962D01*
X412570D01*
Y256983D01*
X412548D01*
Y257005D01*
X412506D01*
Y257026D01*
X412463D01*
Y257047D01*
X412420D01*
Y257069D01*
X412356D01*
Y257090D01*
X412313D01*
Y257112D01*
X412271D01*
Y257133D01*
X412207D01*
Y257154D01*
X412164D01*
Y257176D01*
X412100D01*
Y257197D01*
X412036D01*
Y257218D01*
X411971D01*
Y257240D01*
X411907D01*
Y257261D01*
X411822D01*
Y257283D01*
X411736D01*
Y257304D01*
X411651D01*
Y257325D01*
X411522D01*
Y257347D01*
X411373D01*
Y257368D01*
X411073D01*
Y257389D01*
X410924D01*
Y257368D01*
X410625D01*
Y257347D01*
X410475D01*
Y257325D01*
X410347D01*
Y257304D01*
X410261D01*
Y257283D01*
X410176D01*
Y257261D01*
X410090D01*
Y257240D01*
X410026D01*
Y257218D01*
X409962D01*
Y257197D01*
X409898D01*
Y257176D01*
X409834D01*
Y257154D01*
X409791D01*
Y257133D01*
X409727D01*
Y257112D01*
X409684D01*
Y257090D01*
X409641D01*
Y257069D01*
X409598D01*
Y257047D01*
X409556D01*
Y257026D01*
X409513D01*
Y257005D01*
X409470D01*
Y256983D01*
X409427D01*
Y256962D01*
X409385D01*
Y256941D01*
X409342D01*
Y256919D01*
X409321D01*
Y256898D01*
X409278D01*
Y256876D01*
X409256D01*
Y256855D01*
X409214D01*
Y256834D01*
X409171D01*
Y256812D01*
X409150D01*
Y256791D01*
X409128D01*
Y256769D01*
X409085D01*
Y256748D01*
X409064D01*
Y256727D01*
X409043D01*
Y256705D01*
X409000D01*
Y256684D01*
X408979D01*
Y256663D01*
X408957D01*
Y256641D01*
X408936D01*
Y256620D01*
X408893D01*
Y256598D01*
X408872D01*
Y256577D01*
X408850D01*
Y256556D01*
X408829D01*
Y256534D01*
X408808D01*
Y256513D01*
X408786D01*
Y256492D01*
X408765D01*
Y256470D01*
X408743D01*
Y256449D01*
X408722D01*
Y256428D01*
X408701D01*
Y256406D01*
X408679D01*
Y256385D01*
X408658D01*
Y256363D01*
X408637D01*
Y256342D01*
X408615D01*
Y256321D01*
X408594D01*
Y256299D01*
X408572D01*
Y256278D01*
X408551D01*
Y256256D01*
X408530D01*
Y256235D01*
X408508D01*
Y256214D01*
X408487D01*
Y256171D01*
X408465D01*
Y256150D01*
X408444D01*
Y256128D01*
X408423D01*
Y256107D01*
X408401D01*
Y256064D01*
X408380D01*
Y256043D01*
X408359D01*
Y256000D01*
X408337D01*
Y255978D01*
X408316D01*
Y255957D01*
X408294D01*
Y255914D01*
X408273D01*
Y255893D01*
X408252D01*
Y255850D01*
X408230D01*
Y255807D01*
X408209D01*
Y255786D01*
X408188D01*
Y255743D01*
X408166D01*
Y255701D01*
X408145D01*
Y255658D01*
X408123D01*
Y255637D01*
X408102D01*
Y255594D01*
X408081D01*
Y255551D01*
X408059D01*
Y255487D01*
X408038D01*
Y255444D01*
X408016D01*
Y255401D01*
X407995D01*
Y255337D01*
X407974D01*
Y255294D01*
X407952D01*
Y255230D01*
X407931D01*
Y255166D01*
X407910D01*
Y255102D01*
X407888D01*
Y255038D01*
X407867D01*
Y254974D01*
X407845D01*
Y254888D01*
X407824D01*
Y254781D01*
X407803D01*
Y254675D01*
X407781D01*
Y254525D01*
X407760D01*
Y254290D01*
X407739D01*
Y253948D01*
X407760D01*
Y253713D01*
X407781D01*
Y253563D01*
X407803D01*
Y253456D01*
X407824D01*
Y253370D01*
X407845D01*
Y253285D01*
X407867D01*
Y253200D01*
X407888D01*
Y253135D01*
X407910D01*
Y253071D01*
X407931D01*
Y253007D01*
X407952D01*
Y252964D01*
X407974D01*
Y252900D01*
X407995D01*
Y252857D01*
X408016D01*
Y252793D01*
X408038D01*
Y252751D01*
X408059D01*
Y252708D01*
X408081D01*
Y252665D01*
X408102D01*
Y252622D01*
X408123D01*
Y252579D01*
X408145D01*
Y252537D01*
X408166D01*
Y252494D01*
X408188D01*
Y252473D01*
X408209D01*
Y252430D01*
X408230D01*
Y252387D01*
X408252D01*
Y252366D01*
X408273D01*
Y252323D01*
X408294D01*
Y252302D01*
X408316D01*
Y252259D01*
X408337D01*
Y252238D01*
X408359D01*
Y252216D01*
X408380D01*
Y252173D01*
X408401D01*
Y252152D01*
X408423D01*
Y252131D01*
X408444D01*
Y252088D01*
X408465D01*
Y252066D01*
X408487D01*
Y252045D01*
X408508D01*
Y252024D01*
X408530D01*
Y252002D01*
X408551D01*
Y251960D01*
X408572D01*
Y251938D01*
X408594D01*
Y251917D01*
X408615D01*
Y251895D01*
X408637D01*
Y251874D01*
X408658D01*
Y251853D01*
X408679D01*
Y251831D01*
X408701D01*
Y251810D01*
X408722D01*
Y251789D01*
X408743D01*
Y251767D01*
X408765D01*
Y251746D01*
X408786D01*
Y251724D01*
X408808D01*
Y251703D01*
X408829D01*
Y251682D01*
X408872D01*
Y251660D01*
X408893D01*
Y251639D01*
X408914D01*
Y251618D01*
X408936D01*
Y251596D01*
X408957D01*
Y251575D01*
X409000D01*
Y251553D01*
X409021D01*
Y251532D01*
X409043D01*
Y251511D01*
X409085D01*
Y251489D01*
X409107D01*
Y251468D01*
X409128D01*
Y251447D01*
X409171D01*
Y251425D01*
X409192D01*
Y251404D01*
X409235D01*
Y251382D01*
X409256D01*
Y251361D01*
X409278D01*
Y251340D01*
X409299D01*
Y251318D01*
X409342D01*
Y251297D01*
X409363D01*
Y251275D01*
X409406D01*
Y251254D01*
X409427D01*
Y251233D01*
X409470D01*
Y251211D01*
X409513D01*
Y251190D01*
X409534D01*
Y251169D01*
X409577D01*
Y251147D01*
X409598D01*
Y251126D01*
X409641D01*
Y251104D01*
X409684D01*
Y251062D01*
X409705D01*
Y251040D01*
X409727D01*
Y250934D01*
X409705D01*
Y250869D01*
X409684D01*
Y250827D01*
X409663D01*
Y250762D01*
X409641D01*
Y250720D01*
X409620D01*
Y250677D01*
X409598D01*
Y250613D01*
X409577D01*
Y250570D01*
X409556D01*
Y250506D01*
X409534D01*
Y250463D01*
X409513D01*
Y250399D01*
X409492D01*
Y250356D01*
X409470D01*
Y250313D01*
X409449D01*
Y250249D01*
X409427D01*
Y250207D01*
X409406D01*
Y250143D01*
X409385D01*
Y250100D01*
X409363D01*
Y250057D01*
X409342D01*
Y249993D01*
X409321D01*
Y249950D01*
X409299D01*
Y249886D01*
X409278D01*
Y249843D01*
X409256D01*
Y249779D01*
X409235D01*
Y249736D01*
X409214D01*
Y249694D01*
X409192D01*
Y249629D01*
X409171D01*
Y249587D01*
X409150D01*
Y249523D01*
X409128D01*
Y249480D01*
X409107D01*
Y249437D01*
X409085D01*
Y249373D01*
X409064D01*
Y249330D01*
X409043D01*
Y249266D01*
X409021D01*
Y249223D01*
X409000D01*
Y249159D01*
X408979D01*
Y249116D01*
X408957D01*
Y249074D01*
X408936D01*
Y249009D01*
X408914D01*
Y248967D01*
X408893D01*
Y248903D01*
X408872D01*
Y248860D01*
X408850D01*
Y248817D01*
X408829D01*
Y248753D01*
X408808D01*
Y248710D01*
X408786D01*
Y248646D01*
X408765D01*
Y248603D01*
X408743D01*
Y248539D01*
X408722D01*
Y248497D01*
X408701D01*
Y248454D01*
X408679D01*
Y248390D01*
X408658D01*
Y248347D01*
X408637D01*
Y248283D01*
X408615D01*
Y248240D01*
X408594D01*
Y248197D01*
X408572D01*
Y248133D01*
X408551D01*
Y248090D01*
X408530D01*
Y248026D01*
X408508D01*
Y247983D01*
X408487D01*
Y247919D01*
X408465D01*
Y247877D01*
X408444D01*
Y247834D01*
X408423D01*
Y247770D01*
X408401D01*
Y247727D01*
X408380D01*
Y247663D01*
X408359D01*
Y247620D01*
X408337D01*
Y247577D01*
X408316D01*
Y247513D01*
X408294D01*
Y247470D01*
X408273D01*
Y247406D01*
X408252D01*
Y247363D01*
X408230D01*
Y247299D01*
X408209D01*
Y247257D01*
X408188D01*
Y247214D01*
X408166D01*
Y247150D01*
X408145D01*
Y247107D01*
X408123D01*
Y247043D01*
X408102D01*
Y247000D01*
X408081D01*
Y246957D01*
X408059D01*
Y246893D01*
X408038D01*
Y246850D01*
X408016D01*
Y246786D01*
X407995D01*
Y246743D01*
X407974D01*
Y246679D01*
X407952D01*
Y246637D01*
X407931D01*
Y246594D01*
X407910D01*
Y246530D01*
X407888D01*
Y246487D01*
X407867D01*
Y246423D01*
X407845D01*
Y246380D01*
X407824D01*
Y246337D01*
X407803D01*
Y246273D01*
X407781D01*
Y246230D01*
X407760D01*
Y246166D01*
X407739D01*
Y246124D01*
X407717D01*
Y246059D01*
X407696D01*
Y246017D01*
X407675D01*
Y245974D01*
X407653D01*
Y245931D01*
X407632D01*
Y245910D01*
X407610D01*
Y245888D01*
X407482D01*
Y245910D01*
X407439D01*
Y245931D01*
X407397D01*
Y245953D01*
X407354D01*
Y245974D01*
X407311D01*
Y245995D01*
X407290D01*
Y246017D01*
X407247D01*
Y246038D01*
X407204D01*
Y246059D01*
X407161D01*
Y246081D01*
X407119D01*
Y246102D01*
X407076D01*
Y246124D01*
X407033D01*
Y246145D01*
X406990D01*
Y246166D01*
X406969D01*
Y246188D01*
X406926D01*
Y246209D01*
X406883D01*
Y246230D01*
X406841D01*
Y246252D01*
X406798D01*
Y246273D01*
X406755D01*
Y246295D01*
X406712D01*
Y246316D01*
X406670D01*
Y246337D01*
X406648D01*
Y246359D01*
X406606D01*
Y246380D01*
X406563D01*
Y246402D01*
X406520D01*
Y246423D01*
X406477D01*
Y246444D01*
X406306D01*
Y246423D01*
X406264D01*
Y246402D01*
X406242D01*
Y246380D01*
X406199D01*
Y246359D01*
X406178D01*
Y246337D01*
X406157D01*
Y246316D01*
X406114D01*
Y246295D01*
X406093D01*
Y246273D01*
X406050D01*
Y246252D01*
X406028D01*
Y246230D01*
X405986D01*
Y246209D01*
X405964D01*
Y246188D01*
X405922D01*
Y246166D01*
X405900D01*
Y246145D01*
X405857D01*
Y246124D01*
X405836D01*
Y246102D01*
X405793D01*
Y246081D01*
X405772D01*
Y246059D01*
X405751D01*
Y246038D01*
X405708D01*
Y246017D01*
X405686D01*
Y245995D01*
X405644D01*
Y245974D01*
X405622D01*
Y245953D01*
X405580D01*
Y245931D01*
X405558D01*
Y245910D01*
X405515D01*
Y245888D01*
X405494D01*
Y245867D01*
X405451D01*
Y245846D01*
X405430D01*
Y245824D01*
X405408D01*
Y245803D01*
X405366D01*
Y245781D01*
X405344D01*
Y245760D01*
X405302D01*
Y245739D01*
X405280D01*
Y245717D01*
X405237D01*
Y245696D01*
X405216D01*
Y245675D01*
X405173D01*
Y245653D01*
X405152D01*
Y245632D01*
X405109D01*
Y245610D01*
X405088D01*
Y245589D01*
X405066D01*
Y245568D01*
X405024D01*
Y245546D01*
X405002D01*
Y245525D01*
X404960D01*
Y245504D01*
X404938D01*
Y245482D01*
X404895D01*
Y245461D01*
X404874D01*
Y245440D01*
X404831D01*
Y245418D01*
X404810D01*
Y245397D01*
X404767D01*
Y245375D01*
X404746D01*
Y245354D01*
X404724D01*
Y245333D01*
X404682D01*
Y245311D01*
X404660D01*
Y245290D01*
X404618D01*
Y245269D01*
X404596D01*
Y245247D01*
X404553D01*
Y245226D01*
X404532D01*
Y245204D01*
X404489D01*
Y245183D01*
X404468D01*
Y245162D01*
X404425D01*
Y245140D01*
X404404D01*
Y245119D01*
X404361D01*
Y245097D01*
X404340D01*
Y245076D01*
X404318D01*
Y245055D01*
X404276D01*
Y245033D01*
X404254D01*
Y245012D01*
X404211D01*
Y244990D01*
X404190D01*
Y244969D01*
X404147D01*
Y244948D01*
X404126D01*
Y244926D01*
X404083D01*
Y244905D01*
X404062D01*
Y244884D01*
X404019D01*
Y244862D01*
X403998D01*
Y244841D01*
X403848D01*
Y244862D01*
X403827D01*
Y244884D01*
X403805D01*
Y244905D01*
X403784D01*
Y244926D01*
X403762D01*
Y244948D01*
X403741D01*
Y244969D01*
X403720D01*
Y244990D01*
X403698D01*
Y245012D01*
X403677D01*
Y245033D01*
X403655D01*
Y245055D01*
X403634D01*
Y245076D01*
X403613D01*
Y245097D01*
X403591D01*
Y245119D01*
X403570D01*
Y245140D01*
X403549D01*
Y245162D01*
X403527D01*
Y245183D01*
X403506D01*
Y245204D01*
X403484D01*
Y245226D01*
X403463D01*
Y245247D01*
X403442D01*
Y245269D01*
X403420D01*
Y245290D01*
X403399D01*
Y245311D01*
X403378D01*
Y245333D01*
X403356D01*
Y245354D01*
X403335D01*
Y245375D01*
X403313D01*
Y245397D01*
X403292D01*
Y245418D01*
X403271D01*
Y245440D01*
X403249D01*
Y245461D01*
X403228D01*
Y245482D01*
X403207D01*
Y245504D01*
X403185D01*
Y245525D01*
X403164D01*
Y245546D01*
X403142D01*
Y245568D01*
X403121D01*
Y245589D01*
X403100D01*
Y245610D01*
X403078D01*
Y245632D01*
X403057D01*
Y245653D01*
X403036D01*
Y245675D01*
X403014D01*
Y245696D01*
X402993D01*
Y245717D01*
X402972D01*
Y245739D01*
X402950D01*
Y245760D01*
X402929D01*
Y245781D01*
X402907D01*
Y245803D01*
X402886D01*
Y245824D01*
X402865D01*
Y245846D01*
X402843D01*
Y245867D01*
X402822D01*
Y245888D01*
X402800D01*
Y245910D01*
X402779D01*
Y245931D01*
X402758D01*
Y245953D01*
X402736D01*
Y245974D01*
X402715D01*
Y245995D01*
X402694D01*
Y246017D01*
X402672D01*
Y246038D01*
X402651D01*
Y246059D01*
X402629D01*
Y246081D01*
X402608D01*
Y246102D01*
X402587D01*
Y246124D01*
X402565D01*
Y246145D01*
X402544D01*
Y246166D01*
X402523D01*
Y246188D01*
X402501D01*
Y246209D01*
X402480D01*
Y246230D01*
X402458D01*
Y246252D01*
X402437D01*
Y246273D01*
X402416D01*
Y246295D01*
X402394D01*
Y246316D01*
X402373D01*
Y246337D01*
X402352D01*
Y246359D01*
X402330D01*
Y246380D01*
X402309D01*
Y246402D01*
X402287D01*
Y246423D01*
X402266D01*
Y246444D01*
X402245D01*
Y246466D01*
X402223D01*
Y246487D01*
X402202D01*
Y246508D01*
X402180D01*
Y246530D01*
X402159D01*
Y246551D01*
X402138D01*
Y246572D01*
X402116D01*
Y246594D01*
X402095D01*
Y246615D01*
X402074D01*
Y246637D01*
X402052D01*
Y246658D01*
X402031D01*
Y246679D01*
X402009D01*
Y246701D01*
X401988D01*
Y246722D01*
X401967D01*
Y246743D01*
X401945D01*
Y246765D01*
X401924D01*
Y246786D01*
X401903D01*
Y246808D01*
X401881D01*
Y246829D01*
X401860D01*
Y246850D01*
X401838D01*
Y246872D01*
X401817D01*
Y246893D01*
X401796D01*
Y246915D01*
X401774D01*
Y246936D01*
X401753D01*
Y246957D01*
X401732D01*
Y246979D01*
X401710D01*
Y247043D01*
X401689D01*
Y247085D01*
X401710D01*
Y247150D01*
X401732D01*
Y247171D01*
X401753D01*
Y247214D01*
X401774D01*
Y247235D01*
X401796D01*
Y247278D01*
X401817D01*
Y247299D01*
X401838D01*
Y247342D01*
X401860D01*
Y247363D01*
X401881D01*
Y247406D01*
X401903D01*
Y247428D01*
X401924D01*
Y247449D01*
X401945D01*
Y247492D01*
X401967D01*
Y247513D01*
X401988D01*
Y247556D01*
X402009D01*
Y247577D01*
X402031D01*
Y247620D01*
X402052D01*
Y247641D01*
X402074D01*
Y247684D01*
X402095D01*
Y247706D01*
X402116D01*
Y247748D01*
X402138D01*
Y247770D01*
X402159D01*
Y247791D01*
X402180D01*
Y247834D01*
X402202D01*
Y247855D01*
X402223D01*
Y247898D01*
X402245D01*
Y247919D01*
X402266D01*
Y247962D01*
X402287D01*
Y247983D01*
X402309D01*
Y248026D01*
X402330D01*
Y248047D01*
X402352D01*
Y248090D01*
X402373D01*
Y248112D01*
X402394D01*
Y248154D01*
X402416D01*
Y248176D01*
X402437D01*
Y248197D01*
X402458D01*
Y248240D01*
X402480D01*
Y248261D01*
X402501D01*
Y248304D01*
X402523D01*
Y248325D01*
X402544D01*
Y248368D01*
X402565D01*
Y248390D01*
X402587D01*
Y248432D01*
X402608D01*
Y248454D01*
X402629D01*
Y248497D01*
X402651D01*
Y248518D01*
X402672D01*
Y248539D01*
X402694D01*
Y248582D01*
X402715D01*
Y248603D01*
X402736D01*
Y248646D01*
X402758D01*
Y248668D01*
X402779D01*
Y248710D01*
X402800D01*
Y248732D01*
X402822D01*
Y248774D01*
X402843D01*
Y248796D01*
X402865D01*
Y248838D01*
X402886D01*
Y248860D01*
X402907D01*
Y248881D01*
X402929D01*
Y248924D01*
X402950D01*
Y248945D01*
X402972D01*
Y248988D01*
X402993D01*
Y249009D01*
X403014D01*
Y249052D01*
X403036D01*
Y249074D01*
X403057D01*
Y249116D01*
X403078D01*
Y249138D01*
X403100D01*
Y249181D01*
X403121D01*
Y249202D01*
X403142D01*
Y249245D01*
X403164D01*
Y249266D01*
X403185D01*
Y249287D01*
X403207D01*
Y249330D01*
X403228D01*
Y249352D01*
X403249D01*
Y249394D01*
X403271D01*
Y249416D01*
X403292D01*
Y249458D01*
X403313D01*
Y249501D01*
X403335D01*
Y249672D01*
X403313D01*
Y249715D01*
X403292D01*
Y249779D01*
X403271D01*
Y249822D01*
X403249D01*
Y249886D01*
X403228D01*
Y249929D01*
X403207D01*
Y249993D01*
X403185D01*
Y250036D01*
X403164D01*
Y250100D01*
X403142D01*
Y250143D01*
X403121D01*
Y250207D01*
X403100D01*
Y250249D01*
X403078D01*
Y250313D01*
X403057D01*
Y250356D01*
X403036D01*
Y250420D01*
X403014D01*
Y250463D01*
X402993D01*
Y250527D01*
X402972D01*
Y250570D01*
X402950D01*
Y250634D01*
X402929D01*
Y250677D01*
X402907D01*
Y250741D01*
X402886D01*
Y250784D01*
X402865D01*
Y250848D01*
X402843D01*
Y250891D01*
X402822D01*
Y250955D01*
X402800D01*
Y250998D01*
X402779D01*
Y251062D01*
X402758D01*
Y251104D01*
X402736D01*
Y251169D01*
X402715D01*
Y251211D01*
X402694D01*
Y251275D01*
X402672D01*
Y251318D01*
X402651D01*
Y251382D01*
X402629D01*
Y251425D01*
X402608D01*
Y251489D01*
X402587D01*
Y251532D01*
X402565D01*
Y251596D01*
X402544D01*
Y251639D01*
X402523D01*
Y251703D01*
X402501D01*
Y251746D01*
X402480D01*
Y251810D01*
X402458D01*
Y251853D01*
X402437D01*
Y251895D01*
X402416D01*
Y251938D01*
X402394D01*
Y251960D01*
X402352D01*
Y251981D01*
X402309D01*
Y252002D01*
X402223D01*
Y252024D01*
X402116D01*
Y252045D01*
X402009D01*
Y252066D01*
X401881D01*
Y252088D01*
X401774D01*
Y252109D01*
X401646D01*
Y252131D01*
X401539D01*
Y252152D01*
X401432D01*
Y252173D01*
X401304D01*
Y252195D01*
X401197D01*
Y252216D01*
X401090D01*
Y252238D01*
X400962D01*
Y252259D01*
X400855D01*
Y252280D01*
X400727D01*
Y252302D01*
X400620D01*
Y252323D01*
X400513D01*
Y252344D01*
X400385D01*
Y252366D01*
X400278D01*
Y252387D01*
X400171D01*
Y252409D01*
X400043D01*
Y252430D01*
X399936D01*
Y252451D01*
X399829D01*
Y252473D01*
X399701D01*
Y252494D01*
X399594D01*
Y252515D01*
X399487D01*
Y252537D01*
X399444D01*
Y252558D01*
X399423D01*
Y252579D01*
X399401D01*
Y252601D01*
X399380D01*
Y255679D01*
X399401D01*
Y255701D01*
X399423D01*
Y255722D01*
X399444D01*
Y255743D01*
X399487D01*
Y255765D01*
X399594D01*
Y255786D01*
X399701D01*
Y255807D01*
X399808D01*
Y255829D01*
X399936D01*
Y255850D01*
X400043D01*
Y255872D01*
X400171D01*
Y255893D01*
X400278D01*
Y255914D01*
X400385D01*
Y255936D01*
X400513D01*
Y255957D01*
X400620D01*
Y255978D01*
X400748D01*
Y256000D01*
X400855D01*
Y256021D01*
X400962D01*
Y256043D01*
X401090D01*
Y256064D01*
X401197D01*
Y256085D01*
X401304D01*
Y256107D01*
X401432D01*
Y256128D01*
X401539D01*
Y256150D01*
X401667D01*
Y256171D01*
X401774D01*
Y256192D01*
X401881D01*
Y256214D01*
X402009D01*
Y256235D01*
X402116D01*
Y256256D01*
X402223D01*
Y256278D01*
X402352D01*
Y256299D01*
X402416D01*
Y256321D01*
X402437D01*
Y256342D01*
X402458D01*
Y256363D01*
X402480D01*
Y256385D01*
X402501D01*
Y256406D01*
X402523D01*
Y256449D01*
X402544D01*
Y256513D01*
X402565D01*
Y256556D01*
X402587D01*
Y256598D01*
X402608D01*
Y256663D01*
X402629D01*
Y256705D01*
X402651D01*
Y256748D01*
X402672D01*
Y256812D01*
X402694D01*
Y256855D01*
X402715D01*
Y256898D01*
X402736D01*
Y256962D01*
X402758D01*
Y257005D01*
X402779D01*
Y257047D01*
X402800D01*
Y257112D01*
X402822D01*
Y257154D01*
X402843D01*
Y257197D01*
X402865D01*
Y257261D01*
X402886D01*
Y257304D01*
X402907D01*
Y257347D01*
X402929D01*
Y257411D01*
X402950D01*
Y257454D01*
X402972D01*
Y257496D01*
X402993D01*
Y257560D01*
X403014D01*
Y257603D01*
X403036D01*
Y257646D01*
X403057D01*
Y257710D01*
X403078D01*
Y257753D01*
X403100D01*
Y257796D01*
X403121D01*
Y257860D01*
X403142D01*
Y257903D01*
X403164D01*
Y257945D01*
X403185D01*
Y258009D01*
X403207D01*
Y258052D01*
X403228D01*
Y258095D01*
X403249D01*
Y258159D01*
X403271D01*
Y258202D01*
X403292D01*
Y258244D01*
X403313D01*
Y258309D01*
X403335D01*
Y258351D01*
X403356D01*
Y258394D01*
X403378D01*
Y258458D01*
X403399D01*
Y258501D01*
X403420D01*
Y258651D01*
X403399D01*
Y258694D01*
X403378D01*
Y258736D01*
X403356D01*
Y258758D01*
X403335D01*
Y258800D01*
X403313D01*
Y258822D01*
X403292D01*
Y258864D01*
X403271D01*
Y258886D01*
X403249D01*
Y258929D01*
X403228D01*
Y258950D01*
X403207D01*
Y258993D01*
X403185D01*
Y259014D01*
X403164D01*
Y259035D01*
X403142D01*
Y259078D01*
X403121D01*
Y259100D01*
X403100D01*
Y259142D01*
X403078D01*
Y259164D01*
X403057D01*
Y259207D01*
X403036D01*
Y259228D01*
X403014D01*
Y259271D01*
X402993D01*
Y259292D01*
X402972D01*
Y259335D01*
X402950D01*
Y259356D01*
X402929D01*
Y259399D01*
X402907D01*
Y259420D01*
X402886D01*
Y259442D01*
X402865D01*
Y259484D01*
X402843D01*
Y259506D01*
X402822D01*
Y259549D01*
X402800D01*
Y259570D01*
X402779D01*
Y259613D01*
X402758D01*
Y259634D01*
X402736D01*
Y259677D01*
X402715D01*
Y259698D01*
X402694D01*
Y259741D01*
X402672D01*
Y259762D01*
X402651D01*
Y259784D01*
X402629D01*
Y259826D01*
X402608D01*
Y259848D01*
X402587D01*
Y259891D01*
X402565D01*
Y259912D01*
X402544D01*
Y259955D01*
X402523D01*
Y259976D01*
X402501D01*
Y260019D01*
X402480D01*
Y260040D01*
X402458D01*
Y260083D01*
X402437D01*
Y260104D01*
X402416D01*
Y260126D01*
X402394D01*
Y260169D01*
X402373D01*
Y260190D01*
X402352D01*
Y260233D01*
X402330D01*
Y260254D01*
X402309D01*
Y260297D01*
X402287D01*
Y260318D01*
X402266D01*
Y260361D01*
X402245D01*
Y260382D01*
X402223D01*
Y260425D01*
X402202D01*
Y260446D01*
X402180D01*
Y260489D01*
X402159D01*
Y260511D01*
X402138D01*
Y260532D01*
X402116D01*
Y260575D01*
X402095D01*
Y260596D01*
X402074D01*
Y260639D01*
X402052D01*
Y260660D01*
X402031D01*
Y260703D01*
X402009D01*
Y260724D01*
X401988D01*
Y260767D01*
X401967D01*
Y260788D01*
X401945D01*
Y260831D01*
X401924D01*
Y260853D01*
X401903D01*
Y260874D01*
X401881D01*
Y260917D01*
X401860D01*
Y260938D01*
X401838D01*
Y260981D01*
X401817D01*
Y261002D01*
X401796D01*
Y261045D01*
X401774D01*
Y261066D01*
X401753D01*
Y261109D01*
X401732D01*
Y261130D01*
X401710D01*
Y261195D01*
X401689D01*
Y261237D01*
X401710D01*
Y261301D01*
X401732D01*
Y261323D01*
X401753D01*
Y261344D01*
X401774D01*
Y261366D01*
X401796D01*
Y261387D01*
X401817D01*
Y261408D01*
X401838D01*
Y261430D01*
X401860D01*
Y261451D01*
X401881D01*
Y261473D01*
X401903D01*
Y261494D01*
X401924D01*
Y261515D01*
X401945D01*
Y261537D01*
X401967D01*
Y261558D01*
X401988D01*
Y261579D01*
X402009D01*
Y261601D01*
X402031D01*
Y261622D01*
X402052D01*
Y261644D01*
X402074D01*
Y261665D01*
X402095D01*
Y261686D01*
X402116D01*
Y261708D01*
X402138D01*
Y261729D01*
X402159D01*
Y261751D01*
X402180D01*
Y261772D01*
X402202D01*
Y261793D01*
X402223D01*
Y261815D01*
X402245D01*
Y261836D01*
X402266D01*
Y261857D01*
X402287D01*
Y261879D01*
X402309D01*
Y261900D01*
X402330D01*
Y261922D01*
X402352D01*
Y261943D01*
X402373D01*
Y261964D01*
X402394D01*
Y261986D01*
X402416D01*
Y262007D01*
X402437D01*
Y262028D01*
X402458D01*
Y262050D01*
X402480D01*
Y262071D01*
X402501D01*
Y262092D01*
X402523D01*
Y262114D01*
X402544D01*
Y262135D01*
X402565D01*
Y262157D01*
X402587D01*
Y262178D01*
X402608D01*
Y262199D01*
X402629D01*
Y262221D01*
X402651D01*
Y262242D01*
X402672D01*
Y262263D01*
X402694D01*
Y262285D01*
X402715D01*
Y262306D01*
X402736D01*
Y262328D01*
X402758D01*
Y262349D01*
X402779D01*
Y262370D01*
X402800D01*
Y262392D01*
X402822D01*
Y262413D01*
X402843D01*
Y262435D01*
X402865D01*
Y262456D01*
X402886D01*
Y262477D01*
X402907D01*
Y262499D01*
X402929D01*
Y262520D01*
X402950D01*
Y262541D01*
X402972D01*
Y262563D01*
X402993D01*
Y262584D01*
X403014D01*
Y262606D01*
X403036D01*
Y262627D01*
X403057D01*
Y262648D01*
X403078D01*
Y262670D01*
X403100D01*
Y262691D01*
X403121D01*
Y262712D01*
X403142D01*
Y262734D01*
X403164D01*
Y262755D01*
X403185D01*
Y262777D01*
X403207D01*
Y262798D01*
X403228D01*
Y262819D01*
X403249D01*
Y262841D01*
X403271D01*
Y262862D01*
X403292D01*
Y262883D01*
X403313D01*
Y262905D01*
X403335D01*
Y262926D01*
X403356D01*
Y262948D01*
X403378D01*
Y262969D01*
X403399D01*
Y262990D01*
X403420D01*
Y263012D01*
X403442D01*
Y263033D01*
X403463D01*
Y263054D01*
X403484D01*
Y263076D01*
X403506D01*
Y263097D01*
X403527D01*
Y263119D01*
X403549D01*
Y263140D01*
X403570D01*
Y263161D01*
X403591D01*
Y263183D01*
X403613D01*
Y263204D01*
X403634D01*
Y263226D01*
X403655D01*
Y263247D01*
X403677D01*
Y263268D01*
X403698D01*
Y263290D01*
X403720D01*
Y263311D01*
X403741D01*
Y263332D01*
X403762D01*
Y263354D01*
X403784D01*
Y263375D01*
X403805D01*
Y263397D01*
X403827D01*
Y263418D01*
X403848D01*
Y263439D01*
X403998D01*
Y263418D01*
X404019D01*
Y263397D01*
X404062D01*
Y263375D01*
X404083D01*
Y263354D01*
X404126D01*
Y263332D01*
X404147D01*
Y263311D01*
X404190D01*
Y263290D01*
X404211D01*
Y263268D01*
X404254D01*
Y263247D01*
X404276D01*
Y263226D01*
X404318D01*
Y263204D01*
X404340D01*
Y263183D01*
X404361D01*
Y263161D01*
X404404D01*
Y263140D01*
X404425D01*
Y263119D01*
X404468D01*
Y263097D01*
X404489D01*
Y263076D01*
X404532D01*
Y263054D01*
X404553D01*
Y263033D01*
X404596D01*
Y263012D01*
X404618D01*
Y262990D01*
X404660D01*
Y262969D01*
X404682D01*
Y262948D01*
X404703D01*
Y262926D01*
X404746D01*
Y262905D01*
X404767D01*
Y262883D01*
X404810D01*
Y262862D01*
X404831D01*
Y262841D01*
X404874D01*
Y262819D01*
X404895D01*
Y262798D01*
X404938D01*
Y262777D01*
X404960D01*
Y262755D01*
X405002D01*
Y262734D01*
X405024D01*
Y262712D01*
X405066D01*
Y262691D01*
X405088D01*
Y262670D01*
X405109D01*
Y262648D01*
X405152D01*
Y262627D01*
X405173D01*
Y262606D01*
X405216D01*
Y262584D01*
X405237D01*
Y262563D01*
X405280D01*
Y262541D01*
X405302D01*
Y262520D01*
X405344D01*
Y262499D01*
X405366D01*
Y262477D01*
X405408D01*
Y262456D01*
X405430D01*
Y262435D01*
X405451D01*
Y262413D01*
X405494D01*
Y262392D01*
X405515D01*
Y262370D01*
X405558D01*
Y262349D01*
X405580D01*
Y262328D01*
X405622D01*
Y262306D01*
X405644D01*
Y262285D01*
X405686D01*
Y262263D01*
X405708D01*
Y262242D01*
X405751D01*
Y262221D01*
X405772D01*
Y262199D01*
X405793D01*
Y262178D01*
X405836D01*
Y262157D01*
X405857D01*
Y262135D01*
X405900D01*
Y262114D01*
X405922D01*
Y262092D01*
X405964D01*
Y262071D01*
X405986D01*
Y262050D01*
X406028D01*
Y262028D01*
X406050D01*
Y262007D01*
X406093D01*
Y261986D01*
X406114D01*
Y261964D01*
X406157D01*
Y261943D01*
X406178D01*
Y261922D01*
X406199D01*
Y261900D01*
X406242D01*
Y261879D01*
X406264D01*
Y261857D01*
X406306D01*
Y261836D01*
X406328D01*
Y261815D01*
X406370D01*
Y261793D01*
X406392D01*
Y261772D01*
X406435D01*
Y261751D01*
X406456D01*
Y261729D01*
X406499D01*
Y261708D01*
X406541D01*
Y261686D01*
X406670D01*
Y261708D01*
X406734D01*
Y261729D01*
X406777D01*
Y261751D01*
X406819D01*
Y261772D01*
X406883D01*
Y261793D01*
X406926D01*
Y261815D01*
X406990D01*
Y261836D01*
X407033D01*
Y261857D01*
X407097D01*
Y261879D01*
X407140D01*
Y261900D01*
X407204D01*
Y261922D01*
X407247D01*
Y261943D01*
X407290D01*
Y261964D01*
X407354D01*
Y261986D01*
X407397D01*
Y262007D01*
X407461D01*
Y262028D01*
X407504D01*
Y262050D01*
X407568D01*
Y262071D01*
X407610D01*
Y262092D01*
X407675D01*
Y262114D01*
X407717D01*
Y262135D01*
X407760D01*
Y262157D01*
X407824D01*
Y262178D01*
X407867D01*
Y262199D01*
X407931D01*
Y262221D01*
X407974D01*
Y262242D01*
X408038D01*
Y262263D01*
X408081D01*
Y262285D01*
X408145D01*
Y262306D01*
X408188D01*
Y262328D01*
X408230D01*
Y262349D01*
X408294D01*
Y262370D01*
X408337D01*
Y262392D01*
X408401D01*
Y262413D01*
X408444D01*
Y262435D01*
X408508D01*
Y262456D01*
X408551D01*
Y262477D01*
X408615D01*
Y262499D01*
X408658D01*
Y262520D01*
X408701D01*
Y262541D01*
X408743D01*
Y262563D01*
X408765D01*
Y262584D01*
X408786D01*
Y262606D01*
X408808D01*
Y262648D01*
X408829D01*
Y262712D01*
X408850D01*
Y262841D01*
X408872D01*
Y262948D01*
X408893D01*
Y263076D01*
X408914D01*
Y263183D01*
X408936D01*
Y263290D01*
X408957D01*
Y263418D01*
X408979D01*
Y263525D01*
X409000D01*
Y263632D01*
X409021D01*
Y263760D01*
X409043D01*
Y263867D01*
X409064D01*
Y263995D01*
X409085D01*
Y264102D01*
X409107D01*
Y264209D01*
X409128D01*
Y264337D01*
X409150D01*
Y264444D01*
X409171D01*
Y264551D01*
X409192D01*
Y264679D01*
X409214D01*
Y264786D01*
X409235D01*
Y264914D01*
X409256D01*
Y265021D01*
X409278D01*
Y265128D01*
X409299D01*
Y265256D01*
X409321D01*
Y265363D01*
X409342D01*
Y265470D01*
X409363D01*
Y265598D01*
X409385D01*
Y265684D01*
X409406D01*
Y265705D01*
X409427D01*
Y265727D01*
X409449D01*
Y265748D01*
X409492D01*
Y265769D01*
X412527D01*
Y265748D01*
D02*
G37*
G36*
X377822Y265360D02*
X377833D01*
Y265349D01*
X377843D01*
Y265327D01*
X377854D01*
Y265316D01*
X377865D01*
Y265294D01*
X377876D01*
Y265283D01*
X377887D01*
Y265262D01*
X377898D01*
Y265229D01*
X377909D01*
Y265218D01*
X377920D01*
Y265196D01*
X377931D01*
Y265174D01*
X377941D01*
Y265153D01*
X377952D01*
Y265142D01*
X377963D01*
Y265120D01*
X377974D01*
Y265098D01*
X377985D01*
Y265087D01*
X377996D01*
Y265065D01*
X378007D01*
Y265043D01*
X378018D01*
Y265022D01*
X378029D01*
Y265011D01*
X378040D01*
Y265000D01*
X378050D01*
Y264967D01*
X378061D01*
Y264956D01*
X378072D01*
Y264934D01*
X378083D01*
Y264913D01*
X378094D01*
Y264902D01*
X378105D01*
Y264869D01*
X378116D01*
Y264858D01*
X378127D01*
Y264836D01*
X378138D01*
Y264826D01*
X378149D01*
Y264804D01*
X378159D01*
Y264782D01*
X378170D01*
Y264771D01*
X378181D01*
Y264738D01*
X378192D01*
Y264727D01*
X378203D01*
Y264705D01*
X378214D01*
Y264684D01*
X378225D01*
Y264662D01*
X378236D01*
Y264640D01*
X378247D01*
Y264629D01*
X378258D01*
Y264607D01*
X378269D01*
Y264597D01*
X378279D01*
Y264575D01*
X378290D01*
Y264553D01*
X378301D01*
Y264542D01*
X378312D01*
Y264509D01*
X378323D01*
Y264498D01*
X378334D01*
Y264477D01*
X378345D01*
Y264455D01*
X378356D01*
Y264444D01*
X378367D01*
Y264422D01*
X378378D01*
Y264411D01*
X378389D01*
Y264378D01*
X378399D01*
Y264368D01*
X378410D01*
Y264346D01*
X378421D01*
Y264324D01*
X378432D01*
Y264313D01*
X378443D01*
Y264291D01*
X378454D01*
Y264280D01*
X378465D01*
Y264248D01*
X378476D01*
Y264237D01*
X378487D01*
Y264226D01*
X378498D01*
Y264193D01*
X378508D01*
Y264182D01*
X378519D01*
Y264150D01*
X378530D01*
Y264139D01*
X378541D01*
Y264128D01*
X378552D01*
Y264106D01*
X378563D01*
Y264095D01*
X378574D01*
Y264062D01*
X378585D01*
Y264052D01*
X378596D01*
Y264030D01*
X378607D01*
Y264008D01*
X378617D01*
Y263986D01*
X378628D01*
Y263964D01*
X378639D01*
Y263953D01*
X378650D01*
Y263932D01*
X378661D01*
Y263921D01*
X378672D01*
Y263899D01*
X378683D01*
Y263877D01*
X378694D01*
Y263855D01*
X378705D01*
Y263833D01*
X378715D01*
Y263812D01*
X378726D01*
Y263790D01*
X378737D01*
Y263779D01*
X378748D01*
Y263768D01*
X378759D01*
Y263746D01*
X378770D01*
Y263735D01*
X378781D01*
Y263703D01*
X378792D01*
Y263681D01*
X378803D01*
Y263670D01*
X378814D01*
Y263648D01*
X378824D01*
Y263637D01*
X378835D01*
Y263615D01*
X378846D01*
Y263594D01*
X378857D01*
Y263572D01*
X378868D01*
Y263561D01*
X378879D01*
Y263539D01*
X378890D01*
Y263517D01*
X378901D01*
Y263496D01*
X378912D01*
Y263474D01*
X378923D01*
Y263463D01*
X378934D01*
Y263441D01*
X378944D01*
Y263419D01*
X378955D01*
Y263408D01*
X378966D01*
Y263376D01*
X378977D01*
Y263365D01*
X378988D01*
Y263343D01*
X378999D01*
Y263321D01*
X379010D01*
Y263310D01*
X379021D01*
Y263288D01*
X379032D01*
Y263278D01*
X379043D01*
Y263256D01*
X379053D01*
Y263234D01*
X379064D01*
Y263223D01*
X379075D01*
Y263190D01*
X379086D01*
Y263179D01*
X379097D01*
Y263158D01*
X379108D01*
Y263136D01*
X379119D01*
Y263114D01*
X379130D01*
Y263103D01*
X379141D01*
Y263081D01*
X379152D01*
Y263059D01*
X379162D01*
Y263049D01*
X379173D01*
Y263016D01*
X379184D01*
Y263005D01*
X379195D01*
Y262983D01*
X379206D01*
Y262961D01*
X379217D01*
Y262950D01*
X379228D01*
Y262929D01*
X379239D01*
Y262918D01*
X379250D01*
Y262896D01*
X379260D01*
Y262874D01*
X379271D01*
Y262863D01*
X379282D01*
Y262831D01*
X379293D01*
Y262820D01*
X379304D01*
Y262798D01*
X379315D01*
Y262776D01*
X379326D01*
Y262765D01*
X379337D01*
Y262743D01*
X379348D01*
Y262733D01*
X379359D01*
Y262700D01*
X379369D01*
Y262689D01*
X379380D01*
Y262667D01*
X379391D01*
Y262645D01*
X379402D01*
Y262624D01*
X379413D01*
Y262602D01*
X379424D01*
Y262591D01*
X379435D01*
Y262569D01*
X379446D01*
Y262558D01*
X379457D01*
Y262536D01*
X379468D01*
Y262514D01*
X379479D01*
Y262504D01*
X379489D01*
Y262471D01*
X379500D01*
Y262460D01*
X379511D01*
Y262438D01*
X379522D01*
Y262416D01*
X379533D01*
Y262405D01*
X379544D01*
Y262384D01*
X379555D01*
Y262373D01*
X379566D01*
Y262340D01*
X379577D01*
Y262329D01*
X379588D01*
Y262307D01*
X379598D01*
Y262286D01*
X379609D01*
Y262275D01*
X379620D01*
Y262253D01*
X379631D01*
Y262242D01*
X379642D01*
Y262209D01*
X379653D01*
Y262198D01*
X379664D01*
Y262177D01*
X379675D01*
Y262155D01*
X379686D01*
Y262133D01*
X379697D01*
Y262111D01*
X379708D01*
Y262100D01*
X379718D01*
Y262078D01*
X379729D01*
Y262068D01*
X379740D01*
Y262057D01*
X379751D01*
Y262024D01*
X379762D01*
Y262013D01*
X379773D01*
Y261980D01*
X379784D01*
Y261969D01*
X379795D01*
Y261948D01*
X379806D01*
Y261926D01*
X379817D01*
Y261915D01*
X379827D01*
Y261893D01*
X379838D01*
Y261882D01*
X379849D01*
Y261860D01*
X379860D01*
Y261828D01*
X379871D01*
Y261817D01*
X379882D01*
Y261795D01*
X379893D01*
Y261773D01*
X379904D01*
Y261751D01*
X379915D01*
Y261740D01*
X379925D01*
Y261730D01*
X379936D01*
Y261708D01*
X379947D01*
Y261697D01*
X379958D01*
Y261664D01*
X379969D01*
Y261642D01*
X379980D01*
Y261621D01*
X379991D01*
Y261610D01*
X380002D01*
Y261599D01*
X380013D01*
Y261577D01*
X380024D01*
Y261555D01*
X380034D01*
Y261533D01*
X380045D01*
Y261512D01*
X380056D01*
Y261501D01*
X380067D01*
Y261468D01*
X380078D01*
Y261457D01*
X380089D01*
Y261435D01*
X380100D01*
Y261424D01*
X380111D01*
Y261403D01*
X380122D01*
Y261381D01*
X380133D01*
Y261370D01*
X380143D01*
Y261337D01*
X380154D01*
Y261326D01*
X380165D01*
Y261304D01*
X380176D01*
Y261283D01*
X380187D01*
Y261261D01*
X380198D01*
Y261250D01*
X380209D01*
Y261228D01*
X380220D01*
Y261206D01*
X380231D01*
Y261195D01*
X380242D01*
Y261185D01*
X380253D01*
Y261152D01*
X380263D01*
Y261141D01*
X380274D01*
Y261108D01*
X380285D01*
Y261097D01*
X380296D01*
Y261076D01*
X380307D01*
Y261065D01*
X380318D01*
Y261043D01*
X380329D01*
Y261021D01*
X380340D01*
Y261010D01*
X380351D01*
Y260978D01*
X380362D01*
Y260967D01*
X380372D01*
Y260945D01*
X380383D01*
Y260923D01*
X380394D01*
Y260912D01*
X380405D01*
Y260890D01*
X380416D01*
Y260879D01*
X380427D01*
Y260847D01*
X380438D01*
Y260836D01*
X380449D01*
Y260825D01*
X380460D01*
Y260792D01*
X380470D01*
Y260781D01*
X380481D01*
Y260749D01*
X380492D01*
Y260738D01*
X380503D01*
Y260727D01*
X380514D01*
Y260705D01*
X380525D01*
Y260694D01*
X380536D01*
Y260661D01*
X380547D01*
Y260650D01*
X380558D01*
Y260629D01*
X380569D01*
Y260607D01*
X380579D01*
Y260585D01*
X380590D01*
Y260563D01*
X380601D01*
Y260552D01*
X380612D01*
Y260530D01*
X380623D01*
Y260520D01*
X380634D01*
Y260498D01*
X380645D01*
Y260476D01*
X380656D01*
Y260465D01*
X380667D01*
Y260432D01*
X380678D01*
Y260421D01*
X380689D01*
Y260389D01*
X380699D01*
Y260378D01*
X380710D01*
Y260367D01*
X380721D01*
Y260345D01*
X380732D01*
Y260334D01*
X380743D01*
Y260302D01*
X380754D01*
Y260291D01*
X380765D01*
Y260269D01*
X380776D01*
Y260247D01*
X380787D01*
Y260236D01*
X380798D01*
Y260214D01*
X380808D01*
Y260204D01*
X380819D01*
Y260171D01*
X380830D01*
Y260160D01*
X380841D01*
Y260138D01*
X380852D01*
Y260116D01*
X380863D01*
Y260094D01*
X380874D01*
Y260073D01*
X380885D01*
Y260062D01*
X380896D01*
Y260040D01*
X380907D01*
Y260029D01*
X380918D01*
Y260018D01*
X380928D01*
Y259985D01*
X380939D01*
Y259964D01*
X380950D01*
Y259942D01*
X380961D01*
Y259920D01*
X380972D01*
Y259909D01*
X380983D01*
Y259887D01*
X380994D01*
Y259876D01*
X381005D01*
Y259855D01*
X381016D01*
Y259844D01*
X381027D01*
Y259822D01*
X381037D01*
Y259789D01*
X381048D01*
Y259778D01*
X381059D01*
Y259757D01*
X381070D01*
Y259735D01*
X381081D01*
Y259713D01*
X381092D01*
Y259702D01*
X381103D01*
Y259680D01*
X381114D01*
Y259659D01*
X381125D01*
Y259648D01*
X381136D01*
Y259615D01*
X381146D01*
Y259604D01*
X381157D01*
Y259582D01*
X381168D01*
Y259571D01*
X381179D01*
Y259549D01*
X381190D01*
Y259528D01*
X381201D01*
Y259517D01*
X381212D01*
Y259495D01*
X381223D01*
Y259473D01*
X381234D01*
Y259462D01*
X381244D01*
Y259430D01*
X381255D01*
Y259419D01*
X381266D01*
Y259397D01*
X381277D01*
Y259386D01*
X381288D01*
Y259364D01*
X381299D01*
Y259342D01*
X381310D01*
Y259331D01*
X381321D01*
Y259299D01*
X381332D01*
Y259288D01*
X381343D01*
Y259266D01*
X381353D01*
Y259244D01*
X381364D01*
Y259222D01*
X381375D01*
Y259211D01*
X381386D01*
Y259190D01*
X381397D01*
Y259168D01*
X381408D01*
Y259157D01*
X381419D01*
Y259135D01*
X381430D01*
Y259113D01*
X381441D01*
Y259103D01*
X381452D01*
Y259070D01*
X381463D01*
Y259059D01*
X381473D01*
Y259037D01*
X381484D01*
Y259026D01*
X381495D01*
Y259004D01*
X381506D01*
Y258983D01*
X381517D01*
Y258972D01*
X381528D01*
Y258939D01*
X381539D01*
Y258928D01*
X381550D01*
Y258906D01*
X381561D01*
Y258885D01*
X381572D01*
Y258874D01*
X381582D01*
Y258852D01*
X381593D01*
Y258841D01*
X381604D01*
Y258808D01*
X381615D01*
Y258797D01*
X381626D01*
Y258786D01*
X381637D01*
Y258754D01*
X381648D01*
Y258743D01*
X381659D01*
Y258710D01*
X381670D01*
Y258699D01*
X381680D01*
Y258688D01*
X381691D01*
Y258666D01*
X381702D01*
Y258656D01*
X381713D01*
Y258623D01*
X381724D01*
Y258612D01*
X381735D01*
Y258579D01*
X381746D01*
Y258568D01*
X381757D01*
Y258547D01*
X381768D01*
Y258525D01*
X381779D01*
Y258514D01*
X381789D01*
Y258492D01*
X381800D01*
Y258481D01*
X381811D01*
Y258459D01*
X381822D01*
Y258438D01*
X381833D01*
Y258416D01*
X381844D01*
Y258394D01*
X381855D01*
Y258372D01*
X381866D01*
Y258350D01*
X381877D01*
Y258340D01*
X381888D01*
Y258329D01*
X381898D01*
Y258307D01*
X381909D01*
Y258296D01*
X381920D01*
Y258263D01*
X381931D01*
Y258241D01*
X381942D01*
Y258230D01*
X381953D01*
Y258209D01*
X381964D01*
Y258198D01*
X381975D01*
Y258176D01*
X381986D01*
Y258165D01*
X381997D01*
Y258132D01*
X382008D01*
Y258111D01*
X382018D01*
Y258100D01*
X382029D01*
Y258067D01*
X382040D01*
Y258056D01*
X382051D01*
Y258034D01*
X382062D01*
Y258023D01*
X382073D01*
Y258001D01*
X382084D01*
Y257991D01*
X382095D01*
Y257969D01*
X382106D01*
Y257936D01*
X382117D01*
Y257925D01*
X382127D01*
Y257903D01*
X382138D01*
Y257882D01*
X382149D01*
Y257860D01*
X382160D01*
Y257849D01*
X382171D01*
Y257838D01*
X382182D01*
Y257816D01*
X382193D01*
Y257794D01*
X382204D01*
Y257784D01*
X382215D01*
Y257751D01*
X382226D01*
Y257740D01*
X382237D01*
Y257718D01*
X382247D01*
Y257696D01*
X382258D01*
Y257675D01*
X382269D01*
Y257664D01*
X382280D01*
Y257642D01*
X382291D01*
Y257620D01*
X382302D01*
Y257609D01*
X382313D01*
Y257576D01*
X382324D01*
Y257565D01*
X382334D01*
Y257544D01*
X382346D01*
Y257522D01*
X382356D01*
Y257511D01*
X382367D01*
Y257489D01*
X382378D01*
Y257478D01*
X382389D01*
Y257456D01*
X382400D01*
Y257435D01*
X382411D01*
Y257424D01*
X382422D01*
Y257391D01*
X382433D01*
Y257380D01*
X382444D01*
Y257358D01*
X382454D01*
Y257337D01*
X382465D01*
Y257326D01*
X382476D01*
Y257304D01*
X382487D01*
Y257293D01*
X382498D01*
Y257260D01*
X382509D01*
Y257249D01*
X382520D01*
Y257228D01*
X382531D01*
Y257206D01*
X382542D01*
Y257184D01*
X382553D01*
Y257173D01*
X382563D01*
Y257151D01*
X382574D01*
Y257130D01*
X382585D01*
Y257119D01*
X382596D01*
Y257097D01*
X382607D01*
Y257075D01*
X382618D01*
Y257064D01*
X382629D01*
Y257031D01*
X382640D01*
Y257020D01*
X382651D01*
Y256999D01*
X382662D01*
Y256988D01*
X382673D01*
Y256966D01*
X382683D01*
Y256944D01*
X382694D01*
Y256933D01*
X382705D01*
Y256901D01*
X382716D01*
Y256890D01*
X382727D01*
Y256868D01*
X382738D01*
Y256846D01*
X382749D01*
Y256835D01*
X382760D01*
Y256813D01*
X382771D01*
Y256803D01*
X382782D01*
Y256770D01*
X382792D01*
Y256759D01*
X382803D01*
Y256737D01*
X382814D01*
Y256715D01*
X382825D01*
Y256693D01*
X382836D01*
Y256672D01*
X382847D01*
Y256661D01*
X382858D01*
Y256639D01*
X382869D01*
Y256628D01*
X382880D01*
Y256617D01*
X382891D01*
Y256585D01*
X382880D01*
Y256574D01*
X382858D01*
Y256563D01*
X382847D01*
Y256552D01*
X382825D01*
Y256541D01*
X382814D01*
Y256530D01*
X382792D01*
Y256519D01*
X382760D01*
Y256508D01*
X382749D01*
Y256497D01*
X382727D01*
Y256486D01*
X382716D01*
Y256475D01*
X382694D01*
Y256465D01*
X382673D01*
Y256454D01*
X382662D01*
Y256443D01*
X382629D01*
Y256432D01*
X382618D01*
Y256421D01*
X382596D01*
Y256410D01*
X382574D01*
Y256399D01*
X382553D01*
Y256388D01*
X382542D01*
Y256377D01*
X382531D01*
Y256366D01*
X382498D01*
Y256356D01*
X382487D01*
Y256345D01*
X382465D01*
Y256334D01*
X382444D01*
Y256323D01*
X382433D01*
Y256312D01*
X382400D01*
Y256301D01*
X382389D01*
Y256290D01*
X382367D01*
Y256279D01*
X382356D01*
Y256268D01*
X382334D01*
Y256257D01*
X382313D01*
Y256246D01*
X382302D01*
Y256236D01*
X382269D01*
Y256225D01*
X382258D01*
Y256214D01*
X382237D01*
Y256203D01*
X382215D01*
Y256192D01*
X382204D01*
Y256181D01*
X382182D01*
Y256170D01*
X382171D01*
Y256159D01*
X382138D01*
Y256148D01*
X382127D01*
Y256137D01*
X382106D01*
Y256127D01*
X382084D01*
Y256116D01*
X382073D01*
Y256105D01*
X382040D01*
Y256094D01*
X382029D01*
Y256083D01*
X382018D01*
Y256072D01*
X381997D01*
Y256061D01*
X381975D01*
Y256050D01*
X381953D01*
Y256039D01*
X381942D01*
Y256029D01*
X381909D01*
Y256018D01*
X381898D01*
Y256007D01*
X381877D01*
Y255996D01*
X381855D01*
Y255985D01*
X381844D01*
Y255974D01*
X381822D01*
Y255963D01*
X381811D01*
Y255952D01*
X381789D01*
Y255941D01*
X381768D01*
Y255930D01*
X381746D01*
Y255920D01*
X381724D01*
Y255909D01*
X381702D01*
Y255898D01*
X381680D01*
Y255887D01*
X381670D01*
Y255876D01*
X381659D01*
Y255865D01*
X381637D01*
Y255854D01*
X381626D01*
Y255843D01*
X381604D01*
Y255854D01*
X381593D01*
Y255865D01*
X381582D01*
Y255887D01*
X381572D01*
Y255898D01*
X381561D01*
Y255909D01*
X381550D01*
Y255920D01*
X381539D01*
Y255941D01*
X381528D01*
Y255963D01*
X381517D01*
Y255974D01*
X381506D01*
Y255996D01*
X381495D01*
Y256007D01*
X381484D01*
Y256029D01*
X381473D01*
Y256039D01*
X381463D01*
Y256050D01*
X381452D01*
Y256072D01*
X381441D01*
Y256083D01*
X381430D01*
Y256105D01*
X381419D01*
Y256116D01*
X381408D01*
Y256137D01*
X381397D01*
Y256148D01*
X381386D01*
Y256159D01*
X381375D01*
Y256170D01*
X381364D01*
Y256181D01*
X381353D01*
Y256192D01*
X381343D01*
Y256214D01*
X381332D01*
Y256225D01*
X381321D01*
Y256236D01*
X381310D01*
Y256246D01*
X381299D01*
Y256268D01*
X381288D01*
Y256279D01*
X381277D01*
Y256290D01*
X381266D01*
Y256301D01*
X381255D01*
Y256312D01*
X381244D01*
Y256323D01*
X381234D01*
Y256334D01*
X381223D01*
Y256345D01*
X381212D01*
Y256356D01*
X381201D01*
Y256366D01*
X381190D01*
Y256377D01*
X381179D01*
Y256388D01*
X381168D01*
Y256399D01*
X381157D01*
Y256410D01*
X381146D01*
Y256421D01*
X381125D01*
Y256432D01*
X381114D01*
Y256443D01*
X381103D01*
Y256454D01*
X381092D01*
Y256465D01*
X381081D01*
Y256475D01*
X381070D01*
Y256486D01*
X381059D01*
Y256497D01*
X381037D01*
Y256508D01*
X381027D01*
Y256519D01*
X381005D01*
Y256530D01*
X380994D01*
Y256541D01*
X380972D01*
Y256552D01*
X380961D01*
Y256563D01*
X380950D01*
Y256574D01*
X380928D01*
Y256585D01*
X380907D01*
Y256595D01*
X380896D01*
Y256606D01*
X380874D01*
Y256617D01*
X380863D01*
Y256628D01*
X380830D01*
Y256639D01*
X380819D01*
Y256650D01*
X380798D01*
Y256661D01*
X380776D01*
Y256672D01*
X380754D01*
Y256682D01*
X380732D01*
Y256693D01*
X380710D01*
Y256704D01*
X380689D01*
Y256715D01*
X380667D01*
Y256726D01*
X380645D01*
Y256737D01*
X380612D01*
Y256748D01*
X380590D01*
Y256759D01*
X380558D01*
Y256770D01*
X380547D01*
Y256781D01*
X380514D01*
Y256792D01*
X380481D01*
Y256803D01*
X380470D01*
Y256813D01*
X380427D01*
Y256824D01*
X380405D01*
Y256835D01*
X380372D01*
Y256846D01*
X380340D01*
Y256857D01*
X380318D01*
Y256868D01*
X380274D01*
Y256879D01*
X380242D01*
Y256890D01*
X380198D01*
Y256901D01*
X380165D01*
Y256911D01*
X380122D01*
Y256922D01*
X380078D01*
Y256933D01*
X380034D01*
Y256944D01*
X379991D01*
Y256955D01*
X379947D01*
Y256966D01*
X379904D01*
Y256977D01*
X379860D01*
Y256988D01*
X379817D01*
Y256999D01*
X379762D01*
Y257010D01*
X379729D01*
Y257020D01*
X379653D01*
Y257031D01*
X379620D01*
Y257042D01*
X379577D01*
Y257053D01*
X379489D01*
Y257064D01*
X379457D01*
Y257075D01*
X379369D01*
Y257086D01*
X379326D01*
Y257097D01*
X379271D01*
Y257108D01*
X379195D01*
Y257119D01*
X379141D01*
Y257130D01*
X379032D01*
Y257140D01*
X378977D01*
Y257151D01*
X378868D01*
Y257162D01*
X378824D01*
Y257173D01*
X378759D01*
Y257184D01*
X378650D01*
Y257195D01*
X378574D01*
Y257206D01*
X378465D01*
Y257217D01*
X378410D01*
Y257228D01*
X378356D01*
Y257239D01*
X378236D01*
Y257249D01*
X378170D01*
Y257260D01*
X378061D01*
Y257271D01*
X378007D01*
Y257282D01*
X377887D01*
Y257293D01*
X377843D01*
Y257304D01*
X377767D01*
Y257315D01*
X377680D01*
Y257326D01*
X377625D01*
Y257337D01*
X377527D01*
Y257347D01*
X377484D01*
Y257358D01*
X377418D01*
Y257369D01*
X377342D01*
Y257380D01*
X377277D01*
Y257391D01*
X377189D01*
Y257402D01*
X377146D01*
Y257413D01*
X377059D01*
Y257424D01*
X377026D01*
Y257435D01*
X376982D01*
Y257446D01*
X376906D01*
Y257456D01*
X376862D01*
Y257467D01*
X376775D01*
Y257478D01*
X376742D01*
Y257489D01*
X376688D01*
Y257500D01*
X376623D01*
Y257511D01*
X376590D01*
Y257522D01*
X376524D01*
Y257533D01*
X376503D01*
Y257544D01*
X376426D01*
Y257555D01*
X376394D01*
Y257565D01*
X376350D01*
Y257576D01*
X376295D01*
Y257587D01*
X376263D01*
Y257598D01*
X376197D01*
Y257609D01*
X376176D01*
Y257620D01*
X376132D01*
Y257631D01*
X376078D01*
Y257642D01*
X376045D01*
Y257653D01*
X375990D01*
Y257664D01*
X375969D01*
Y257675D01*
X375914D01*
Y257685D01*
X375892D01*
Y257696D01*
X375849D01*
Y257707D01*
X375805D01*
Y257718D01*
X375772D01*
Y257729D01*
X375729D01*
Y257740D01*
X375707D01*
Y257751D01*
X375663D01*
Y257762D01*
X375641D01*
Y257773D01*
X375609D01*
Y257784D01*
X375565D01*
Y257794D01*
X375543D01*
Y257805D01*
X375500D01*
Y257816D01*
X375489D01*
Y257827D01*
X375456D01*
Y257838D01*
X375423D01*
Y257849D01*
X375402D01*
Y257860D01*
X375358D01*
Y257871D01*
X375336D01*
Y257882D01*
X375293D01*
Y257892D01*
X375282D01*
Y257903D01*
X375260D01*
Y257914D01*
X375216D01*
Y257925D01*
X375195D01*
Y257936D01*
X375162D01*
Y257947D01*
X375140D01*
Y257958D01*
X375118D01*
Y257969D01*
X375085D01*
Y257980D01*
X375064D01*
Y257991D01*
X375020D01*
Y258001D01*
X375009D01*
Y258012D01*
X374976D01*
Y258023D01*
X374955D01*
Y258034D01*
X374922D01*
Y258045D01*
X374900D01*
Y258056D01*
X374878D01*
Y258067D01*
X374846D01*
Y258078D01*
X374835D01*
Y258089D01*
X374802D01*
Y258100D01*
X374780D01*
Y258111D01*
X374759D01*
Y258121D01*
X374726D01*
Y258132D01*
X374704D01*
Y258143D01*
X374682D01*
Y258154D01*
X374671D01*
Y258165D01*
X374650D01*
Y258176D01*
X374628D01*
Y258187D01*
X374606D01*
Y258198D01*
X374584D01*
Y258209D01*
X374573D01*
Y258220D01*
X374540D01*
Y258230D01*
X374519D01*
Y258241D01*
X374508D01*
Y258252D01*
X374475D01*
Y258263D01*
X374464D01*
Y258274D01*
X374442D01*
Y258285D01*
X374421D01*
Y258296D01*
X374399D01*
Y258307D01*
X374388D01*
Y258318D01*
X374377D01*
Y258329D01*
X374344D01*
Y258340D01*
X374333D01*
Y258350D01*
X374301D01*
Y258361D01*
X374290D01*
Y258372D01*
X374268D01*
Y258383D01*
X374246D01*
Y258394D01*
X374235D01*
Y258405D01*
X374214D01*
Y258416D01*
X374192D01*
Y258427D01*
X374181D01*
Y258438D01*
X374159D01*
Y258449D01*
X374148D01*
Y258459D01*
X374115D01*
Y258470D01*
X374104D01*
Y258481D01*
X374083D01*
Y258492D01*
X374072D01*
Y258503D01*
X374061D01*
Y258514D01*
X374039D01*
Y258525D01*
X374017D01*
Y258536D01*
X374006D01*
Y258547D01*
X373995D01*
Y258558D01*
X373974D01*
Y258568D01*
X373952D01*
Y258579D01*
X373941D01*
Y258590D01*
X373919D01*
Y258601D01*
X373908D01*
Y258612D01*
X373919D01*
Y258645D01*
X373930D01*
Y258656D01*
X373941D01*
Y258666D01*
X373952D01*
Y258688D01*
X373963D01*
Y258710D01*
X373974D01*
Y258732D01*
X373985D01*
Y258743D01*
X373995D01*
Y258775D01*
X374006D01*
Y258786D01*
X374017D01*
Y258808D01*
X374028D01*
Y258830D01*
X374039D01*
Y258841D01*
X374050D01*
Y258863D01*
X374061D01*
Y258874D01*
X374072D01*
Y258906D01*
X374083D01*
Y258928D01*
X374094D01*
Y258939D01*
X374104D01*
Y258961D01*
X374115D01*
Y258972D01*
X374126D01*
Y259004D01*
X374137D01*
Y259015D01*
X374148D01*
Y259026D01*
X374159D01*
Y259059D01*
X374170D01*
Y259070D01*
X374181D01*
Y259092D01*
X374192D01*
Y259113D01*
X374203D01*
Y259124D01*
X374214D01*
Y259146D01*
X374224D01*
Y259157D01*
X374235D01*
Y259179D01*
X374246D01*
Y259201D01*
X374257D01*
Y259222D01*
X374268D01*
Y259244D01*
X374279D01*
Y259255D01*
X374290D01*
Y259288D01*
X374301D01*
Y259299D01*
X374312D01*
Y259321D01*
X374323D01*
Y259331D01*
X374333D01*
Y259353D01*
X374344D01*
Y259375D01*
X374355D01*
Y259386D01*
X374366D01*
Y259419D01*
X374377D01*
Y259430D01*
X374388D01*
Y259451D01*
X374399D01*
Y259473D01*
X374410D01*
Y259484D01*
X374421D01*
Y259506D01*
X374431D01*
Y259517D01*
X374442D01*
Y259549D01*
X374453D01*
Y259560D01*
X374464D01*
Y259582D01*
X374475D01*
Y259604D01*
X374486D01*
Y259615D01*
X374497D01*
Y259648D01*
X374508D01*
Y259659D01*
X374519D01*
Y259680D01*
X374530D01*
Y259691D01*
X374540D01*
Y259713D01*
X374551D01*
Y259735D01*
X374562D01*
Y259746D01*
X374573D01*
Y259778D01*
X374584D01*
Y259789D01*
X374595D01*
Y259811D01*
X374606D01*
Y259822D01*
X374617D01*
Y259844D01*
X374628D01*
Y259866D01*
X374639D01*
Y259876D01*
X374650D01*
Y259909D01*
X374660D01*
Y259920D01*
X374671D01*
Y259942D01*
X374682D01*
Y259964D01*
X374693D01*
Y259975D01*
X374704D01*
Y259996D01*
X374715D01*
Y260007D01*
X374726D01*
Y260029D01*
X374737D01*
Y260051D01*
X374748D01*
Y260073D01*
X374759D01*
Y260094D01*
X374769D01*
Y260105D01*
X374780D01*
Y260138D01*
X374791D01*
Y260149D01*
X374802D01*
Y260171D01*
X374813D01*
Y260193D01*
X374824D01*
Y260204D01*
X374835D01*
Y260225D01*
X374846D01*
Y260236D01*
X374857D01*
Y260269D01*
X374868D01*
Y260280D01*
X374878D01*
Y260302D01*
X374889D01*
Y260323D01*
X374900D01*
Y260334D01*
X374911D01*
Y260356D01*
X374922D01*
Y260378D01*
X374933D01*
Y260389D01*
X374944D01*
Y260411D01*
X374955D01*
Y260432D01*
X374966D01*
Y260454D01*
X374976D01*
Y260476D01*
X374987D01*
Y260487D01*
X374998D01*
Y260509D01*
X375009D01*
Y260530D01*
X375020D01*
Y260552D01*
X375031D01*
Y260563D01*
X375042D01*
Y260585D01*
X375053D01*
Y260607D01*
X375064D01*
Y260618D01*
X375075D01*
Y260650D01*
X375085D01*
Y260661D01*
X375096D01*
Y260683D01*
X375107D01*
Y260694D01*
X375118D01*
Y260716D01*
X375129D01*
Y260738D01*
X375140D01*
Y260749D01*
X375151D01*
Y260781D01*
X375162D01*
Y260792D01*
X375173D01*
Y260814D01*
X375184D01*
Y260836D01*
X375195D01*
Y260847D01*
X375205D01*
Y260869D01*
X375216D01*
Y260879D01*
X375227D01*
Y260901D01*
X375238D01*
Y260923D01*
X375249D01*
Y260945D01*
X375260D01*
Y260967D01*
X375271D01*
Y260978D01*
X375282D01*
Y261010D01*
X375293D01*
Y261021D01*
X375304D01*
Y261043D01*
X375314D01*
Y261054D01*
X375325D01*
Y261076D01*
X375336D01*
Y261097D01*
X375347D01*
Y261108D01*
X375358D01*
Y261141D01*
X375369D01*
Y261152D01*
X375380D01*
Y261174D01*
X375391D01*
Y261195D01*
X375402D01*
Y261206D01*
X375413D01*
Y261228D01*
X375423D01*
Y261239D01*
X375434D01*
Y261261D01*
X375445D01*
Y261283D01*
X375456D01*
Y261304D01*
X375467D01*
Y261326D01*
X375478D01*
Y261337D01*
X375489D01*
Y261359D01*
X375500D01*
Y261370D01*
X375511D01*
Y261392D01*
X375521D01*
Y261414D01*
X375533D01*
Y261435D01*
X375543D01*
Y261457D01*
X375554D01*
Y261468D01*
X375565D01*
Y261501D01*
X375576D01*
Y261512D01*
X375587D01*
Y261533D01*
X375598D01*
Y261544D01*
X375609D01*
Y261566D01*
X375620D01*
Y261588D01*
X375631D01*
Y261599D01*
X375641D01*
Y261621D01*
X375652D01*
Y261642D01*
X375663D01*
Y261653D01*
X375674D01*
Y261686D01*
X375685D01*
Y261697D01*
X375696D01*
Y261719D01*
X375707D01*
Y261740D01*
X375718D01*
Y261751D01*
X375729D01*
Y261773D01*
X375740D01*
Y261784D01*
X375750D01*
Y261817D01*
X375761D01*
Y261828D01*
X375772D01*
Y261849D01*
X375783D01*
Y261871D01*
X375794D01*
Y261893D01*
X375805D01*
Y261915D01*
X375816D01*
Y261926D01*
X375827D01*
Y261948D01*
X375838D01*
Y261959D01*
X375849D01*
Y261980D01*
X375859D01*
Y262013D01*
X375870D01*
Y262024D01*
X375881D01*
Y262046D01*
X375892D01*
Y262057D01*
X375903D01*
Y262068D01*
X375914D01*
Y262089D01*
X375925D01*
Y262111D01*
X375936D01*
Y262133D01*
X375947D01*
Y262144D01*
X375958D01*
Y262177D01*
X375969D01*
Y262198D01*
X375979D01*
Y262209D01*
X375990D01*
Y262231D01*
X376001D01*
Y262242D01*
X376012D01*
Y262264D01*
X376023D01*
Y262286D01*
X376034D01*
Y262307D01*
X376045D01*
Y262329D01*
X376056D01*
Y262340D01*
X376067D01*
Y262362D01*
X376078D01*
Y262384D01*
X376088D01*
Y262405D01*
X376099D01*
Y262416D01*
X376110D01*
Y262427D01*
X376121D01*
Y262460D01*
X376132D01*
Y262471D01*
X376143D01*
Y262504D01*
X376154D01*
Y262514D01*
X376165D01*
Y262536D01*
X376176D01*
Y262558D01*
X376186D01*
Y262569D01*
X376197D01*
Y262591D01*
X376208D01*
Y262602D01*
X376219D01*
Y262624D01*
X376230D01*
Y262645D01*
X376241D01*
Y262667D01*
X376252D01*
Y262689D01*
X376263D01*
Y262700D01*
X376274D01*
Y262722D01*
X376285D01*
Y262743D01*
X376295D01*
Y262765D01*
X376306D01*
Y262776D01*
X376317D01*
Y262787D01*
X376328D01*
Y262820D01*
X376339D01*
Y262831D01*
X376350D01*
Y262863D01*
X376361D01*
Y262874D01*
X376372D01*
Y262885D01*
X376383D01*
Y262907D01*
X376394D01*
Y262918D01*
X376405D01*
Y262950D01*
X376415D01*
Y262961D01*
X376426D01*
Y262983D01*
X376437D01*
Y263005D01*
X376448D01*
Y263016D01*
X376459D01*
Y263049D01*
X376470D01*
Y263059D01*
X376481D01*
Y263081D01*
X376492D01*
Y263092D01*
X376503D01*
Y263114D01*
X376514D01*
Y263136D01*
X376524D01*
Y263147D01*
X376535D01*
Y263179D01*
X376546D01*
Y263190D01*
X376557D01*
Y263212D01*
X376568D01*
Y263234D01*
X376579D01*
Y263245D01*
X376590D01*
Y263267D01*
X376601D01*
Y263288D01*
X376612D01*
Y263310D01*
X376623D01*
Y263321D01*
X376633D01*
Y263343D01*
X376644D01*
Y263365D01*
X376655D01*
Y263376D01*
X376666D01*
Y263408D01*
X376677D01*
Y263419D01*
X376688D01*
Y263441D01*
X376699D01*
Y263463D01*
X376710D01*
Y263474D01*
X376721D01*
Y263496D01*
X376731D01*
Y263507D01*
X376742D01*
Y263539D01*
X376753D01*
Y263550D01*
X376764D01*
Y263572D01*
X376775D01*
Y263594D01*
X376786D01*
Y263605D01*
X376797D01*
Y263626D01*
X376808D01*
Y263637D01*
X376819D01*
Y263670D01*
X376830D01*
Y263681D01*
X376840D01*
Y263703D01*
X376852D01*
Y263724D01*
X376862D01*
Y263746D01*
X376873D01*
Y263768D01*
X376884D01*
Y263779D01*
X376895D01*
Y263790D01*
X376906D01*
Y263812D01*
X376917D01*
Y263833D01*
X376928D01*
Y263855D01*
X376939D01*
Y263877D01*
X376950D01*
Y263899D01*
X376960D01*
Y263921D01*
X376971D01*
Y263932D01*
X376982D01*
Y263953D01*
X376993D01*
Y263964D01*
X377004D01*
Y263986D01*
X377015D01*
Y264008D01*
X377026D01*
Y264019D01*
X377037D01*
Y264052D01*
X377048D01*
Y264062D01*
X377059D01*
Y264084D01*
X377069D01*
Y264106D01*
X377080D01*
Y264128D01*
X377091D01*
Y264139D01*
X377102D01*
Y264150D01*
X377113D01*
Y264182D01*
X377124D01*
Y264193D01*
X377135D01*
Y264226D01*
X377146D01*
Y264237D01*
X377157D01*
Y264248D01*
X377168D01*
Y264280D01*
X377179D01*
Y264291D01*
X377189D01*
Y264313D01*
X377200D01*
Y264324D01*
X377211D01*
Y264346D01*
X377222D01*
Y264368D01*
X377233D01*
Y264378D01*
X377244D01*
Y264411D01*
X377255D01*
Y264422D01*
X377266D01*
Y264444D01*
X377277D01*
Y264455D01*
X377288D01*
Y264477D01*
X377298D01*
Y264498D01*
X377309D01*
Y264509D01*
X377320D01*
Y264542D01*
X377331D01*
Y264553D01*
X377342D01*
Y264575D01*
X377353D01*
Y264597D01*
X377364D01*
Y264607D01*
X377375D01*
Y264629D01*
X377386D01*
Y264640D01*
X377396D01*
Y264662D01*
X377407D01*
Y264684D01*
X377418D01*
Y264705D01*
X377429D01*
Y264727D01*
X377440D01*
Y264738D01*
X377451D01*
Y264771D01*
X377462D01*
Y264782D01*
X377473D01*
Y264804D01*
X377484D01*
Y264815D01*
X377495D01*
Y264836D01*
X377505D01*
Y264858D01*
X377516D01*
Y264869D01*
X377527D01*
Y264902D01*
X377538D01*
Y264913D01*
X377549D01*
Y264934D01*
X377560D01*
Y264956D01*
X377571D01*
Y264967D01*
X377582D01*
Y265000D01*
X377593D01*
Y265011D01*
X377604D01*
Y265022D01*
X377614D01*
Y265043D01*
X377625D01*
Y265065D01*
X377636D01*
Y265087D01*
X377647D01*
Y265098D01*
X377658D01*
Y265120D01*
X377669D01*
Y265142D01*
X377680D01*
Y265153D01*
X377691D01*
Y265174D01*
X377702D01*
Y265196D01*
X377713D01*
Y265218D01*
X377724D01*
Y265229D01*
X377734D01*
Y265262D01*
X377745D01*
Y265283D01*
X377756D01*
Y265294D01*
X377767D01*
Y265316D01*
X377778D01*
Y265327D01*
X377789D01*
Y265349D01*
X377800D01*
Y265360D01*
X377811D01*
Y265370D01*
X377822D01*
Y265360D01*
D02*
G37*
G36*
X383926Y254786D02*
X383937D01*
Y254775D01*
X383948D01*
Y254764D01*
X383959D01*
Y254731D01*
X383970D01*
Y254720D01*
X383981D01*
Y254699D01*
X383992D01*
Y254677D01*
X384002D01*
Y254655D01*
X384013D01*
Y254633D01*
X384024D01*
Y254622D01*
X384035D01*
Y254601D01*
X384046D01*
Y254590D01*
X384057D01*
Y254579D01*
X384068D01*
Y254535D01*
X384079D01*
Y254524D01*
X384090D01*
Y254502D01*
X384101D01*
Y254481D01*
X384111D01*
Y254470D01*
X384122D01*
Y254448D01*
X384133D01*
Y254437D01*
X384144D01*
Y254415D01*
X384155D01*
Y254393D01*
X384166D01*
Y254382D01*
X384177D01*
Y254350D01*
X384188D01*
Y254339D01*
X384199D01*
Y254317D01*
X384209D01*
Y254295D01*
X384220D01*
Y254274D01*
X384231D01*
Y254263D01*
X384242D01*
Y254252D01*
X384253D01*
Y254219D01*
X384264D01*
Y254208D01*
X384275D01*
Y254186D01*
X384286D01*
Y254165D01*
X384297D01*
Y254143D01*
X384308D01*
Y254132D01*
X384318D01*
Y254110D01*
X384329D01*
Y254088D01*
X384340D01*
Y254077D01*
X384351D01*
Y254056D01*
X384362D01*
Y254034D01*
X384373D01*
Y254023D01*
X384384D01*
Y253990D01*
X384395D01*
Y253979D01*
X384406D01*
Y253957D01*
X384417D01*
Y253946D01*
X384427D01*
Y253925D01*
X384438D01*
Y253903D01*
X384449D01*
Y253892D01*
X384460D01*
Y253859D01*
X384471D01*
Y253848D01*
X384482D01*
Y253826D01*
X384493D01*
Y253805D01*
X384504D01*
Y253783D01*
X384515D01*
Y253772D01*
X384526D01*
Y253761D01*
X384537D01*
Y253728D01*
X384547D01*
Y253717D01*
X384558D01*
Y253696D01*
X384569D01*
Y253674D01*
X384580D01*
Y253663D01*
X384591D01*
Y253630D01*
X384602D01*
Y253619D01*
X384613D01*
Y253598D01*
X384624D01*
Y253587D01*
X384635D01*
Y253565D01*
X384646D01*
Y253543D01*
X384656D01*
Y253532D01*
X384667D01*
Y253500D01*
X384678D01*
Y253489D01*
X384689D01*
Y253467D01*
X384700D01*
Y253445D01*
X384711D01*
Y253434D01*
X384722D01*
Y253412D01*
X384733D01*
Y253401D01*
X384744D01*
Y253369D01*
X384754D01*
Y253358D01*
X384765D01*
Y253336D01*
X384776D01*
Y253314D01*
X384787D01*
Y253292D01*
X384798D01*
Y253271D01*
X384809D01*
Y253260D01*
X384820D01*
Y253238D01*
X384831D01*
Y253227D01*
X384842D01*
Y253216D01*
X384853D01*
Y253183D01*
X384863D01*
Y253172D01*
X384874D01*
Y253151D01*
X384885D01*
Y253129D01*
X384896D01*
Y253107D01*
X384907D01*
Y253085D01*
X384918D01*
Y253074D01*
X384929D01*
Y253053D01*
X384940D01*
Y253042D01*
X384951D01*
Y253020D01*
X384962D01*
Y252998D01*
X384973D01*
Y252976D01*
X384983D01*
Y252955D01*
X384994D01*
Y252944D01*
X385005D01*
Y252911D01*
X385016D01*
Y252900D01*
X385027D01*
Y252889D01*
X385038D01*
Y252867D01*
X385049D01*
Y252856D01*
X385060D01*
Y252824D01*
X385071D01*
Y252802D01*
X385082D01*
Y252780D01*
X385092D01*
Y252769D01*
X385103D01*
Y252758D01*
X385114D01*
Y252736D01*
X385125D01*
Y252726D01*
X385136D01*
Y252693D01*
X385147D01*
Y252671D01*
X385158D01*
Y252660D01*
X385169D01*
Y252638D01*
X385180D01*
Y252617D01*
X385191D01*
Y252595D01*
X385202D01*
Y252584D01*
X385212D01*
Y252562D01*
X385223D01*
Y252540D01*
X385234D01*
Y252529D01*
X385245D01*
Y252497D01*
X385256D01*
Y252486D01*
X385267D01*
Y252464D01*
X385278D01*
Y252442D01*
X385289D01*
Y252420D01*
X385300D01*
Y252409D01*
X385311D01*
Y252398D01*
X385321D01*
Y252366D01*
X385332D01*
Y252355D01*
X385343D01*
Y252344D01*
X385354D01*
Y252311D01*
X385365D01*
Y252300D01*
X385376D01*
Y252279D01*
X385387D01*
Y252257D01*
X385398D01*
Y252235D01*
X385409D01*
Y252224D01*
X385420D01*
Y252213D01*
X385430D01*
Y252181D01*
X385441D01*
Y252170D01*
X385452D01*
Y252148D01*
X385463D01*
Y252126D01*
X385474D01*
Y252104D01*
X385485D01*
Y252093D01*
X385496D01*
Y252071D01*
X385507D01*
Y252050D01*
X385518D01*
Y252039D01*
X385528D01*
Y252017D01*
X385539D01*
Y251995D01*
X385550D01*
Y251984D01*
X385561D01*
Y251952D01*
X385572D01*
Y251941D01*
X385583D01*
Y251919D01*
X385594D01*
Y251908D01*
X385605D01*
Y251886D01*
X385616D01*
Y251864D01*
X385627D01*
Y251853D01*
X385637D01*
Y251821D01*
X385648D01*
Y251810D01*
X385659D01*
Y251788D01*
X385670D01*
Y251766D01*
X385681D01*
Y251745D01*
X385692D01*
Y251734D01*
X385703D01*
Y251723D01*
X385714D01*
Y251690D01*
X385725D01*
Y251679D01*
X385736D01*
Y251657D01*
X385747D01*
Y251636D01*
X385757D01*
Y251614D01*
X385768D01*
Y251592D01*
X385779D01*
Y251581D01*
X385790D01*
Y251559D01*
X385801D01*
Y251548D01*
X385812D01*
Y251526D01*
X385823D01*
Y251505D01*
X385834D01*
Y251494D01*
X385845D01*
Y251461D01*
X385856D01*
Y251450D01*
X385866D01*
Y251428D01*
X385877D01*
Y251407D01*
X385888D01*
Y251396D01*
X385899D01*
Y251374D01*
X385910D01*
Y251363D01*
X385921D01*
Y251330D01*
X385932D01*
Y251319D01*
X385943D01*
Y251298D01*
X385954D01*
Y251276D01*
X385964D01*
Y251254D01*
X385975D01*
Y251232D01*
X385986D01*
Y251221D01*
X385997D01*
Y251199D01*
X386008D01*
Y251188D01*
X386019D01*
Y251178D01*
X386030D01*
Y251145D01*
X386041D01*
Y251134D01*
X386052D01*
Y251101D01*
X386063D01*
Y251090D01*
X386073D01*
Y251069D01*
X386084D01*
Y251047D01*
X386095D01*
Y251036D01*
X386106D01*
Y251014D01*
X386117D01*
Y251003D01*
X386128D01*
Y250981D01*
X386139D01*
Y250949D01*
X386150D01*
Y250938D01*
X386161D01*
Y250916D01*
X386172D01*
Y250905D01*
X386182D01*
Y250883D01*
X386193D01*
Y250872D01*
X386204D01*
Y250851D01*
X386215D01*
Y250818D01*
X386226D01*
Y250807D01*
X386237D01*
Y250785D01*
X386248D01*
Y250763D01*
X386259D01*
Y250742D01*
X386270D01*
Y250731D01*
X386281D01*
Y250720D01*
X386292D01*
Y250698D01*
X386302D01*
Y250687D01*
X386313D01*
Y250654D01*
X386324D01*
Y250633D01*
X386335D01*
Y250622D01*
X386346D01*
Y250600D01*
X386357D01*
Y250578D01*
X386368D01*
Y250556D01*
X386379D01*
Y250545D01*
X386390D01*
Y250524D01*
X386401D01*
Y250502D01*
X386411D01*
Y250491D01*
X386422D01*
Y250458D01*
X386433D01*
Y250447D01*
X386444D01*
Y250426D01*
X386455D01*
Y250404D01*
X386466D01*
Y250382D01*
X386477D01*
Y250371D01*
X386488D01*
Y250360D01*
X386499D01*
Y250327D01*
X386510D01*
Y250317D01*
X386521D01*
Y250295D01*
X386531D01*
Y250273D01*
X386542D01*
Y250262D01*
X386553D01*
Y250240D01*
X386564D01*
Y250229D01*
X386575D01*
Y250207D01*
X386586D01*
Y250186D01*
X386597D01*
Y250175D01*
X386608D01*
Y250142D01*
X386619D01*
Y250131D01*
X386630D01*
Y250098D01*
X386640D01*
Y250088D01*
X386651D01*
Y250066D01*
X386662D01*
Y250055D01*
X386673D01*
Y250033D01*
X386684D01*
Y250011D01*
X386695D01*
Y250000D01*
X386706D01*
Y249968D01*
X386717D01*
Y249957D01*
X386728D01*
Y249935D01*
X386738D01*
Y249913D01*
X386749D01*
Y249902D01*
X386760D01*
Y249881D01*
X386771D01*
Y249869D01*
X386782D01*
Y249848D01*
X386793D01*
Y249826D01*
X386804D01*
Y249815D01*
X386815D01*
Y249782D01*
X386826D01*
Y249771D01*
X386837D01*
Y249750D01*
X386847D01*
Y249728D01*
X386858D01*
Y249706D01*
X386869D01*
Y249695D01*
X386880D01*
Y249684D01*
X386891D01*
Y249652D01*
X386902D01*
Y249641D01*
X386913D01*
Y249619D01*
X386924D01*
Y249597D01*
X386935D01*
Y249575D01*
X386946D01*
Y249553D01*
X386957D01*
Y249542D01*
X386967D01*
Y249521D01*
X386978D01*
Y249510D01*
X386989D01*
Y249499D01*
X387000D01*
Y249466D01*
X387011D01*
Y249455D01*
X387022D01*
Y249423D01*
X387033D01*
Y249412D01*
X387044D01*
Y249390D01*
X387055D01*
Y249368D01*
X387066D01*
Y249357D01*
X387076D01*
Y249335D01*
X387087D01*
Y249324D01*
X387098D01*
Y249292D01*
X387109D01*
Y249281D01*
X387120D01*
Y249259D01*
X387131D01*
Y249237D01*
X387142D01*
Y249216D01*
X387153D01*
Y249194D01*
X387164D01*
Y249183D01*
X387175D01*
Y249161D01*
X387185D01*
Y249150D01*
X387196D01*
Y249139D01*
X387207D01*
Y249107D01*
X387218D01*
Y249085D01*
X387229D01*
Y249063D01*
X387240D01*
Y249052D01*
X387251D01*
Y249019D01*
X387262D01*
Y249008D01*
X387273D01*
Y248997D01*
X387283D01*
Y248976D01*
X387294D01*
Y248954D01*
X387305D01*
Y248943D01*
X387316D01*
Y248910D01*
X387327D01*
Y248899D01*
X387338D01*
Y248878D01*
X387349D01*
Y248867D01*
X387360D01*
Y248845D01*
X387371D01*
Y248834D01*
X387382D01*
Y248812D01*
X387392D01*
Y248780D01*
X387403D01*
Y248769D01*
X387414D01*
Y248747D01*
X387425D01*
Y248725D01*
X387436D01*
Y248703D01*
X387447D01*
Y248692D01*
X387458D01*
Y248681D01*
X387469D01*
Y248649D01*
X387480D01*
Y248638D01*
X387491D01*
Y248616D01*
X387502D01*
Y248594D01*
X387512D01*
Y248583D01*
X387523D01*
Y248562D01*
X387534D01*
Y248540D01*
X387545D01*
Y248518D01*
X387556D01*
Y248507D01*
X387567D01*
Y248485D01*
X387578D01*
Y248463D01*
X387589D01*
Y248452D01*
X387600D01*
Y248420D01*
X387611D01*
Y248409D01*
X387621D01*
Y248387D01*
X387632D01*
Y248365D01*
X387643D01*
Y248343D01*
X387654D01*
Y248333D01*
X387665D01*
Y248322D01*
X387676D01*
Y248289D01*
X387687D01*
Y248278D01*
X387698D01*
Y248256D01*
X387709D01*
Y248234D01*
X387719D01*
Y248223D01*
X387731D01*
Y248202D01*
X387741D01*
Y248191D01*
X387752D01*
Y248158D01*
X387763D01*
Y248147D01*
X387774D01*
Y248136D01*
X387785D01*
Y248104D01*
X387796D01*
Y248093D01*
X387807D01*
Y248060D01*
X387818D01*
Y248049D01*
X387829D01*
Y248027D01*
X387840D01*
Y248016D01*
X387850D01*
Y247995D01*
X387861D01*
Y247973D01*
X387872D01*
Y247962D01*
X387883D01*
Y247929D01*
X387894D01*
Y247918D01*
X387905D01*
Y247897D01*
X387916D01*
Y247875D01*
X387927D01*
Y247853D01*
X387938D01*
Y247842D01*
X387948D01*
Y247831D01*
X387959D01*
Y247809D01*
X387970D01*
Y247787D01*
X387981D01*
Y247777D01*
X387992D01*
Y247744D01*
X388003D01*
Y247733D01*
X388014D01*
Y247711D01*
X388025D01*
Y247689D01*
X388036D01*
Y247668D01*
X388047D01*
Y247657D01*
X388057D01*
Y247646D01*
X388068D01*
Y247613D01*
X388079D01*
Y247602D01*
X388090D01*
Y247580D01*
X388101D01*
Y247559D01*
X388112D01*
Y247537D01*
X388123D01*
Y247515D01*
X388134D01*
Y247504D01*
X388145D01*
Y247482D01*
X388156D01*
Y247471D01*
X388166D01*
Y247450D01*
X388177D01*
Y247428D01*
X388188D01*
Y247406D01*
X388199D01*
Y247384D01*
X388210D01*
Y247373D01*
X388221D01*
Y247341D01*
X388232D01*
Y247330D01*
X388243D01*
Y247319D01*
X388254D01*
Y247297D01*
X388265D01*
Y247286D01*
X388276D01*
Y247253D01*
X388286D01*
Y247232D01*
X388297D01*
Y247221D01*
X388308D01*
Y247199D01*
X388319D01*
Y247177D01*
X388330D01*
Y247155D01*
X388341D01*
Y247144D01*
X388352D01*
Y247123D01*
X388363D01*
Y247101D01*
X388374D01*
Y247090D01*
X388385D01*
Y247068D01*
X388395D01*
Y247046D01*
X388406D01*
Y247024D01*
X388417D01*
Y247013D01*
X388428D01*
Y246992D01*
X388439D01*
Y246981D01*
X388450D01*
Y246970D01*
X388461D01*
Y246926D01*
X388472D01*
Y246915D01*
X388483D01*
Y246894D01*
X388493D01*
Y246872D01*
X388504D01*
Y246861D01*
X388515D01*
Y246839D01*
X388526D01*
Y246828D01*
X388537D01*
Y246806D01*
X388548D01*
Y246785D01*
X388559D01*
Y246774D01*
X388570D01*
Y246741D01*
X388581D01*
Y246730D01*
X388592D01*
Y246708D01*
X388602D01*
Y246687D01*
X388613D01*
Y246665D01*
X388624D01*
Y246654D01*
X388635D01*
Y246643D01*
X388646D01*
Y246610D01*
X388657D01*
Y246599D01*
X388668D01*
Y246578D01*
X388679D01*
Y246556D01*
X388690D01*
Y246534D01*
X388701D01*
Y246512D01*
X388712D01*
Y246501D01*
X388722D01*
Y246479D01*
X388733D01*
Y246468D01*
X388744D01*
Y246447D01*
X388755D01*
Y246425D01*
X388766D01*
Y246414D01*
X388777D01*
Y246381D01*
X388788D01*
Y246370D01*
X388799D01*
Y246349D01*
X388810D01*
Y246327D01*
X388821D01*
Y246316D01*
X388831D01*
Y246294D01*
X388842D01*
Y246283D01*
X388853D01*
Y246251D01*
X388864D01*
Y246240D01*
X388875D01*
Y246218D01*
X388886D01*
Y246196D01*
X388897D01*
Y246174D01*
X388908D01*
Y246163D01*
X388919D01*
Y246152D01*
X388930D01*
Y246120D01*
X388940D01*
Y246109D01*
X388951D01*
Y246098D01*
X388962D01*
Y246065D01*
X388973D01*
Y246054D01*
X388984D01*
Y246022D01*
X388995D01*
Y246011D01*
X389006D01*
Y245989D01*
X389017D01*
Y245978D01*
X389028D01*
Y245956D01*
X389038D01*
Y245945D01*
X389028D01*
Y245934D01*
X368589D01*
Y245956D01*
X368632D01*
Y245967D01*
X368643D01*
Y245978D01*
X368665D01*
Y245989D01*
X368676D01*
Y246000D01*
X368698D01*
Y246011D01*
X368720D01*
Y246022D01*
X368730D01*
Y246033D01*
X368752D01*
Y246043D01*
X368774D01*
Y246054D01*
X368796D01*
Y246065D01*
X368817D01*
Y246076D01*
X368829D01*
Y246087D01*
X368850D01*
Y246098D01*
X368861D01*
Y246109D01*
X368883D01*
Y246120D01*
X368905D01*
Y246131D01*
X368916D01*
Y246142D01*
X368948D01*
Y246152D01*
X368959D01*
Y246163D01*
X368981D01*
Y246174D01*
X368992D01*
Y246185D01*
X369014D01*
Y246196D01*
X369036D01*
Y246207D01*
X369046D01*
Y246218D01*
X369079D01*
Y246229D01*
X369090D01*
Y246240D01*
X369112D01*
Y246251D01*
X369134D01*
Y246261D01*
X369156D01*
Y246272D01*
X369177D01*
Y246283D01*
X369188D01*
Y246294D01*
X369210D01*
Y246305D01*
X369221D01*
Y246316D01*
X369243D01*
Y246327D01*
X369265D01*
Y246338D01*
X369275D01*
Y246349D01*
X369308D01*
Y246359D01*
X369319D01*
Y246370D01*
X369341D01*
Y246381D01*
X369363D01*
Y246392D01*
X369373D01*
Y246403D01*
X369395D01*
Y246414D01*
X369406D01*
Y246425D01*
X369439D01*
Y246436D01*
X369450D01*
Y246447D01*
X369472D01*
Y246458D01*
X369493D01*
Y246468D01*
X369515D01*
Y246479D01*
X369537D01*
Y246490D01*
X369548D01*
Y246501D01*
X369570D01*
Y246512D01*
X369581D01*
Y246523D01*
X369602D01*
Y246534D01*
X369624D01*
Y246545D01*
X369635D01*
Y246556D01*
X369668D01*
Y246567D01*
X369679D01*
Y246578D01*
X369690D01*
Y246588D01*
X369711D01*
Y246599D01*
X369733D01*
Y246610D01*
X369755D01*
Y246621D01*
X369766D01*
Y246632D01*
X369799D01*
Y246643D01*
X369810D01*
Y246654D01*
X369831D01*
Y246665D01*
X369853D01*
Y246676D01*
X369864D01*
Y246687D01*
X369886D01*
Y246697D01*
X369897D01*
Y246708D01*
X369929D01*
Y246719D01*
X369940D01*
Y246730D01*
X369962D01*
Y246741D01*
X369984D01*
Y246752D01*
X369995D01*
Y246763D01*
X370027D01*
Y246774D01*
X370038D01*
Y246785D01*
X370049D01*
Y246796D01*
X370071D01*
Y246806D01*
X370082D01*
Y246817D01*
X370115D01*
Y246828D01*
X370126D01*
Y246839D01*
X370147D01*
Y246850D01*
X370169D01*
Y246861D01*
X370191D01*
Y246872D01*
X370213D01*
Y246883D01*
X370224D01*
Y246894D01*
X370246D01*
Y246904D01*
X370256D01*
Y246915D01*
X370278D01*
Y246926D01*
X370300D01*
Y246937D01*
X370322D01*
Y246948D01*
X370344D01*
Y246959D01*
X370355D01*
Y246970D01*
X370376D01*
Y246981D01*
X370398D01*
Y246992D01*
X370409D01*
Y247003D01*
X370431D01*
Y247013D01*
X370442D01*
Y247024D01*
X370475D01*
Y247035D01*
X370496D01*
Y247046D01*
X370507D01*
Y247057D01*
X370529D01*
Y247068D01*
X370540D01*
Y247079D01*
X370562D01*
Y247090D01*
X370584D01*
Y247101D01*
X370605D01*
Y247112D01*
X370627D01*
Y247123D01*
X370638D01*
Y247133D01*
X370671D01*
Y247144D01*
X370682D01*
Y247155D01*
X370703D01*
Y247166D01*
X370714D01*
Y247177D01*
X370736D01*
Y247188D01*
X370758D01*
Y247199D01*
X370769D01*
Y247210D01*
X370801D01*
Y247221D01*
X370812D01*
Y247232D01*
X370834D01*
Y247242D01*
X370845D01*
Y247253D01*
X370867D01*
Y247264D01*
X370889D01*
Y247275D01*
X370900D01*
Y247286D01*
X370921D01*
Y247297D01*
X370943D01*
Y247308D01*
X370954D01*
Y247319D01*
X370987D01*
Y247330D01*
X370998D01*
Y247341D01*
X371020D01*
Y247352D01*
X371041D01*
Y247362D01*
X371052D01*
Y247373D01*
X371074D01*
Y247384D01*
X371085D01*
Y247395D01*
X371118D01*
Y247406D01*
X371129D01*
Y247417D01*
X371150D01*
Y247428D01*
X371172D01*
Y247439D01*
X371194D01*
Y247450D01*
X371216D01*
Y247461D01*
X371227D01*
Y247471D01*
X371248D01*
Y247482D01*
X371259D01*
Y247493D01*
X371281D01*
Y247504D01*
X371303D01*
Y247515D01*
X371314D01*
Y247526D01*
X371346D01*
Y247537D01*
X371357D01*
Y247548D01*
X371379D01*
Y247559D01*
X371401D01*
Y247569D01*
X371412D01*
Y247580D01*
X371434D01*
Y247591D01*
X371445D01*
Y247602D01*
X371477D01*
Y247613D01*
X371488D01*
Y247624D01*
X371510D01*
Y247635D01*
X371532D01*
Y247646D01*
X371543D01*
Y247657D01*
X371565D01*
Y247668D01*
X371575D01*
Y247678D01*
X371608D01*
Y247689D01*
X371619D01*
Y247700D01*
X371641D01*
Y247711D01*
X371663D01*
Y247722D01*
X371685D01*
Y247733D01*
X371706D01*
Y247744D01*
X371717D01*
Y247755D01*
X371739D01*
Y247766D01*
X371750D01*
Y247777D01*
X371772D01*
Y247787D01*
X371794D01*
Y247798D01*
X371804D01*
Y247809D01*
X371837D01*
Y247820D01*
X371848D01*
Y247831D01*
X371870D01*
Y247842D01*
X371892D01*
Y247853D01*
X371902D01*
Y247864D01*
X371924D01*
Y247875D01*
X371935D01*
Y247886D01*
X371968D01*
Y247897D01*
X371979D01*
Y247907D01*
X372001D01*
Y247918D01*
X372022D01*
Y247929D01*
X372044D01*
Y247940D01*
X372066D01*
Y247951D01*
X372077D01*
Y247962D01*
X372099D01*
Y247973D01*
X372110D01*
Y247984D01*
X372120D01*
Y247995D01*
X372153D01*
Y248006D01*
X372175D01*
Y248016D01*
X372197D01*
Y248027D01*
X372208D01*
Y248038D01*
X372219D01*
Y248049D01*
X372240D01*
Y248060D01*
X372262D01*
Y248071D01*
X372284D01*
Y248082D01*
X372295D01*
Y248093D01*
X372317D01*
Y248104D01*
X372349D01*
Y248114D01*
X372360D01*
Y248125D01*
X372382D01*
Y248136D01*
X372393D01*
Y248147D01*
X372415D01*
Y248158D01*
X372437D01*
Y248169D01*
X372447D01*
Y248180D01*
X372480D01*
Y248191D01*
X372491D01*
Y248202D01*
X372513D01*
Y248213D01*
X372535D01*
Y248223D01*
X372556D01*
Y248234D01*
X372567D01*
Y248245D01*
X372578D01*
Y248256D01*
X372611D01*
Y248267D01*
X372622D01*
Y248278D01*
X372644D01*
Y248289D01*
X372666D01*
Y248300D01*
X372676D01*
Y248311D01*
X372698D01*
Y248322D01*
X372709D01*
Y248333D01*
X372731D01*
Y248343D01*
X372753D01*
Y248354D01*
X372775D01*
Y248365D01*
X372796D01*
Y248376D01*
X372807D01*
Y248387D01*
X372840D01*
Y248398D01*
X372851D01*
Y248409D01*
X372873D01*
Y248420D01*
X372895D01*
Y248431D01*
X372905D01*
Y248442D01*
X372927D01*
Y248452D01*
X372938D01*
Y248463D01*
X372971D01*
Y248474D01*
X372982D01*
Y248485D01*
X373004D01*
Y248496D01*
X373025D01*
Y248507D01*
X373036D01*
Y248518D01*
X373069D01*
Y248529D01*
X373080D01*
Y248540D01*
X373091D01*
Y248551D01*
X373113D01*
Y248562D01*
X373123D01*
Y248572D01*
X373156D01*
Y248583D01*
X373167D01*
Y248594D01*
X373200D01*
Y248605D01*
X373211D01*
Y248616D01*
X373232D01*
Y248627D01*
X373254D01*
Y248638D01*
X373265D01*
Y248649D01*
X373287D01*
Y248660D01*
X373298D01*
Y248671D01*
X373320D01*
Y248681D01*
X373341D01*
Y248692D01*
X373363D01*
Y248703D01*
X373385D01*
Y248714D01*
X373396D01*
Y248725D01*
X373418D01*
Y248736D01*
X373429D01*
Y248747D01*
X373450D01*
Y248758D01*
X373472D01*
Y248769D01*
X373483D01*
Y248780D01*
X373516D01*
Y248790D01*
X373527D01*
Y248801D01*
X373559D01*
Y248812D01*
X373570D01*
Y248823D01*
X373581D01*
Y248834D01*
X373603D01*
Y248845D01*
X373614D01*
Y248856D01*
X373647D01*
Y248867D01*
X373657D01*
Y248878D01*
X373679D01*
Y248888D01*
X373701D01*
Y248899D01*
X373723D01*
Y248910D01*
X373745D01*
Y248921D01*
X373756D01*
Y248932D01*
X373777D01*
Y248943D01*
X373788D01*
Y248954D01*
X373810D01*
Y248965D01*
X373832D01*
Y248976D01*
X373843D01*
Y248987D01*
X373875D01*
Y248997D01*
X373886D01*
Y249008D01*
X373919D01*
Y249019D01*
X373930D01*
Y249030D01*
X373941D01*
Y249041D01*
X373963D01*
Y249052D01*
X373974D01*
Y249063D01*
X374006D01*
Y249074D01*
X374028D01*
Y249085D01*
X374039D01*
Y249096D01*
X374061D01*
Y249107D01*
X374072D01*
Y249117D01*
X374094D01*
Y249128D01*
X374115D01*
Y249139D01*
X374137D01*
Y249150D01*
X374148D01*
Y249161D01*
X374170D01*
Y249172D01*
X374192D01*
Y249183D01*
X374214D01*
Y249194D01*
X374235D01*
Y249205D01*
X374246D01*
Y249216D01*
X374268D01*
Y249226D01*
X374290D01*
Y249237D01*
X374301D01*
Y249248D01*
X374323D01*
Y249259D01*
X374344D01*
Y249270D01*
X374355D01*
Y249281D01*
X374388D01*
Y249292D01*
X374399D01*
Y249303D01*
X374421D01*
Y249314D01*
X374431D01*
Y249324D01*
X374453D01*
Y249335D01*
X374475D01*
Y249346D01*
X374486D01*
Y249357D01*
X374519D01*
Y249368D01*
X374530D01*
Y249379D01*
X374551D01*
Y249390D01*
X374562D01*
Y249401D01*
X374584D01*
Y249412D01*
X374606D01*
Y249423D01*
X374617D01*
Y249433D01*
X374650D01*
Y249444D01*
X374660D01*
Y249455D01*
X374682D01*
Y249466D01*
X374704D01*
Y249477D01*
X374715D01*
Y249488D01*
X374748D01*
Y249499D01*
X374759D01*
Y249510D01*
X374780D01*
Y249521D01*
X374791D01*
Y249532D01*
X374813D01*
Y249542D01*
X374835D01*
Y249553D01*
X374846D01*
Y249564D01*
X374878D01*
Y249575D01*
X374889D01*
Y249586D01*
X374911D01*
Y249597D01*
X374933D01*
Y249608D01*
X374944D01*
Y249619D01*
X374966D01*
Y249630D01*
X374976D01*
Y249641D01*
X375009D01*
Y249652D01*
X375020D01*
Y249662D01*
X375042D01*
Y249673D01*
X375064D01*
Y249684D01*
X375085D01*
Y249695D01*
X375107D01*
Y249706D01*
X375118D01*
Y249717D01*
X375140D01*
Y249728D01*
X375151D01*
Y249739D01*
X375162D01*
Y249750D01*
X375195D01*
Y249761D01*
X375205D01*
Y249771D01*
X375238D01*
Y249782D01*
X375249D01*
Y249793D01*
X375260D01*
Y249804D01*
X375282D01*
Y249815D01*
X375304D01*
Y249826D01*
X375325D01*
Y249837D01*
X375336D01*
Y249848D01*
X375369D01*
Y249859D01*
X375380D01*
Y249869D01*
X375402D01*
Y249881D01*
X375423D01*
Y249891D01*
X375434D01*
Y249902D01*
X375456D01*
Y249913D01*
X375467D01*
Y249924D01*
X375489D01*
Y249935D01*
X375511D01*
Y249946D01*
X375521D01*
Y249957D01*
X375554D01*
Y249968D01*
X375565D01*
Y249979D01*
X375598D01*
Y249990D01*
X375609D01*
Y250000D01*
X375620D01*
Y250011D01*
X375641D01*
Y250022D01*
X375652D01*
Y250033D01*
X375685D01*
Y250044D01*
X375696D01*
Y250055D01*
X375718D01*
Y250066D01*
X375740D01*
Y250077D01*
X375761D01*
Y250088D01*
X375783D01*
Y250098D01*
X375794D01*
Y250109D01*
X375816D01*
Y250120D01*
X375827D01*
Y250131D01*
X375849D01*
Y250142D01*
X375870D01*
Y250153D01*
X375892D01*
Y250164D01*
X375914D01*
Y250175D01*
X375925D01*
Y250186D01*
X375947D01*
Y250197D01*
X375969D01*
Y250207D01*
X375979D01*
Y250218D01*
X376001D01*
Y250229D01*
X376012D01*
Y250240D01*
X376045D01*
Y250251D01*
X376067D01*
Y250262D01*
X376078D01*
Y250273D01*
X376099D01*
Y250284D01*
X376110D01*
Y250295D01*
X376132D01*
Y250306D01*
X376154D01*
Y250317D01*
X376176D01*
Y250327D01*
X376197D01*
Y250338D01*
X376208D01*
Y250349D01*
X376230D01*
Y250360D01*
X376252D01*
Y250371D01*
X376274D01*
Y250382D01*
X376285D01*
Y250393D01*
X376306D01*
Y250404D01*
X376328D01*
Y250415D01*
X376339D01*
Y250426D01*
X376372D01*
Y250436D01*
X376383D01*
Y250447D01*
X376405D01*
Y250458D01*
X376426D01*
Y250469D01*
X376437D01*
Y250480D01*
X376459D01*
Y250491D01*
X376470D01*
Y250502D01*
X376492D01*
Y250513D01*
X376514D01*
Y250524D01*
X376524D01*
Y250535D01*
X376557D01*
Y250545D01*
X376579D01*
Y250535D01*
X376601D01*
Y250524D01*
X376612D01*
Y250513D01*
X376623D01*
Y250502D01*
X376633D01*
Y250491D01*
X376644D01*
Y250480D01*
X376666D01*
Y250469D01*
X376677D01*
Y250458D01*
X376688D01*
Y250447D01*
X376699D01*
Y250436D01*
X376721D01*
Y250426D01*
X376731D01*
Y250415D01*
X376742D01*
Y250404D01*
X376764D01*
Y250393D01*
X376775D01*
Y250382D01*
X376786D01*
Y250371D01*
X376797D01*
Y250360D01*
X376808D01*
Y250349D01*
X376819D01*
Y250338D01*
X376830D01*
Y250327D01*
X376840D01*
Y250317D01*
X376852D01*
Y250306D01*
X376862D01*
Y250295D01*
X376884D01*
Y250284D01*
X376895D01*
Y250273D01*
X376906D01*
Y250262D01*
X376917D01*
Y250251D01*
X376928D01*
Y250240D01*
X376939D01*
Y250229D01*
X376950D01*
Y250218D01*
X376960D01*
Y250207D01*
X376971D01*
Y250197D01*
X376982D01*
Y250186D01*
X377004D01*
Y250175D01*
X377015D01*
Y250164D01*
X377026D01*
Y250153D01*
X377037D01*
Y250142D01*
X377048D01*
Y250131D01*
X377059D01*
Y250120D01*
X377069D01*
Y250109D01*
X377080D01*
Y250098D01*
X377091D01*
Y250088D01*
X377102D01*
Y250077D01*
X377113D01*
Y250066D01*
X377135D01*
Y250055D01*
X377146D01*
Y250044D01*
X377157D01*
Y250033D01*
X377168D01*
Y250011D01*
X377189D01*
Y249990D01*
X377211D01*
Y249968D01*
X377222D01*
Y249957D01*
X377244D01*
Y249935D01*
X377255D01*
Y249924D01*
X377266D01*
Y249913D01*
X377277D01*
Y249902D01*
X377288D01*
Y249891D01*
X377298D01*
Y249881D01*
X377309D01*
Y249869D01*
X377320D01*
Y249859D01*
X377331D01*
Y249848D01*
X377342D01*
Y249837D01*
X377353D01*
Y249826D01*
X377364D01*
Y249815D01*
X377375D01*
Y249804D01*
X377386D01*
Y249793D01*
X377396D01*
Y249782D01*
X377407D01*
Y249771D01*
X377418D01*
Y249761D01*
X377429D01*
Y249750D01*
X377440D01*
Y249739D01*
X377451D01*
Y249728D01*
X377462D01*
Y249717D01*
X377473D01*
Y249706D01*
X377484D01*
Y249695D01*
X377495D01*
Y249684D01*
X377505D01*
Y249673D01*
X377516D01*
Y249662D01*
X377527D01*
Y249652D01*
X377538D01*
Y249641D01*
X377549D01*
Y249619D01*
X377560D01*
Y249608D01*
X377571D01*
Y249597D01*
X377582D01*
Y249586D01*
X377593D01*
Y249575D01*
X377604D01*
Y249564D01*
X377614D01*
Y249553D01*
X377625D01*
Y249542D01*
X377636D01*
Y249521D01*
X377647D01*
Y249510D01*
X377658D01*
Y249499D01*
X377669D01*
Y249488D01*
X377680D01*
Y249477D01*
X377691D01*
Y249466D01*
X377702D01*
Y249455D01*
X377713D01*
Y249444D01*
X377724D01*
Y249433D01*
X377734D01*
Y249423D01*
X377745D01*
Y249412D01*
X377756D01*
Y249401D01*
X377767D01*
Y249379D01*
X377778D01*
Y249368D01*
X377789D01*
Y249357D01*
X377800D01*
Y249335D01*
X377811D01*
Y249324D01*
X377822D01*
Y249314D01*
X377833D01*
Y249303D01*
X377843D01*
Y249292D01*
X377854D01*
Y249281D01*
X377865D01*
Y249259D01*
X377876D01*
Y249248D01*
X377887D01*
Y249237D01*
X377898D01*
Y249226D01*
X377909D01*
Y249216D01*
X377920D01*
Y249194D01*
X377931D01*
Y249183D01*
X377941D01*
Y249172D01*
X377952D01*
Y249150D01*
X377963D01*
Y249139D01*
X377974D01*
Y249128D01*
X377985D01*
Y249117D01*
X377996D01*
Y249107D01*
X378007D01*
Y249096D01*
X378018D01*
Y249085D01*
X378029D01*
Y249063D01*
X378040D01*
Y249052D01*
X378050D01*
Y249041D01*
X378061D01*
Y249030D01*
X378072D01*
Y249019D01*
X378083D01*
Y248997D01*
X378094D01*
Y248987D01*
X378105D01*
Y248976D01*
X378116D01*
Y248965D01*
X378127D01*
Y248954D01*
X378138D01*
Y248943D01*
X378149D01*
Y248932D01*
X378159D01*
Y248910D01*
X378170D01*
Y248899D01*
X378181D01*
Y248888D01*
X378192D01*
Y248878D01*
X378203D01*
Y248867D01*
X378214D01*
Y248856D01*
X378225D01*
Y248834D01*
X378236D01*
Y248823D01*
X378247D01*
Y248812D01*
X378258D01*
Y248790D01*
X378269D01*
Y248780D01*
X378279D01*
Y248769D01*
X378290D01*
Y248758D01*
X378301D01*
Y248747D01*
X378312D01*
Y248736D01*
X378323D01*
Y248725D01*
X378334D01*
Y248714D01*
X378345D01*
Y248703D01*
X378356D01*
Y248692D01*
X378367D01*
Y248681D01*
X378378D01*
Y248671D01*
X378389D01*
Y248649D01*
X378399D01*
Y248638D01*
X378410D01*
Y248627D01*
X378421D01*
Y248616D01*
X378432D01*
Y248605D01*
X378443D01*
Y248594D01*
X378465D01*
Y248583D01*
X378476D01*
Y248572D01*
X378487D01*
Y248562D01*
X378498D01*
Y248551D01*
X378508D01*
Y248540D01*
X378585D01*
Y248551D01*
X378596D01*
Y248562D01*
X378607D01*
Y248572D01*
X378617D01*
Y248583D01*
X378628D01*
Y248594D01*
X378639D01*
Y248605D01*
X378650D01*
Y248627D01*
X378661D01*
Y248649D01*
X378672D01*
Y248660D01*
X378683D01*
Y248692D01*
X378694D01*
Y248714D01*
X378705D01*
Y248736D01*
X378715D01*
Y248758D01*
X378726D01*
Y248780D01*
X378737D01*
Y248790D01*
X378748D01*
Y248801D01*
X378759D01*
Y248823D01*
X378770D01*
Y248834D01*
X378781D01*
Y248845D01*
X378792D01*
Y248867D01*
X378803D01*
Y248878D01*
X378814D01*
Y248888D01*
X378824D01*
Y248899D01*
X378835D01*
Y248910D01*
X378857D01*
Y248921D01*
X378868D01*
Y248932D01*
X378890D01*
Y248943D01*
X378901D01*
Y248954D01*
X378923D01*
Y248965D01*
X378944D01*
Y248976D01*
X378955D01*
Y248987D01*
X378988D01*
Y248997D01*
X379021D01*
Y249008D01*
X379075D01*
Y249019D01*
X379108D01*
Y249030D01*
X379141D01*
Y249041D01*
X379239D01*
Y249052D01*
X379391D01*
Y249041D01*
X379457D01*
Y249030D01*
X379489D01*
Y249019D01*
X379511D01*
Y249008D01*
X379555D01*
Y248997D01*
X379577D01*
Y248987D01*
X379609D01*
Y248976D01*
X379620D01*
Y248965D01*
X379642D01*
Y248954D01*
X379653D01*
Y248943D01*
X379675D01*
Y248932D01*
X379697D01*
Y248921D01*
X379708D01*
Y248910D01*
X379729D01*
Y248899D01*
X379740D01*
Y248888D01*
X379762D01*
Y248878D01*
X379773D01*
Y248867D01*
X379784D01*
Y248856D01*
X379806D01*
Y248834D01*
X379827D01*
Y248823D01*
X379838D01*
Y248812D01*
X379849D01*
Y248801D01*
X379860D01*
Y248790D01*
X379871D01*
Y248780D01*
X379882D01*
Y248769D01*
X379893D01*
Y248758D01*
X379904D01*
Y248747D01*
X379915D01*
Y248725D01*
X379925D01*
Y248714D01*
X379936D01*
Y248692D01*
X379947D01*
Y248681D01*
X379958D01*
Y248671D01*
X379969D01*
Y248649D01*
X379980D01*
Y248638D01*
X379991D01*
Y248627D01*
X380002D01*
Y248616D01*
X380013D01*
Y248594D01*
X380024D01*
Y248583D01*
X380034D01*
Y248562D01*
X380045D01*
Y248551D01*
X380056D01*
Y248540D01*
X380067D01*
Y248518D01*
X380078D01*
Y248507D01*
X380089D01*
Y248485D01*
X380100D01*
Y248474D01*
X380111D01*
Y248452D01*
X380122D01*
Y248442D01*
X380133D01*
Y248431D01*
X380143D01*
Y248398D01*
X380154D01*
Y248387D01*
X380165D01*
Y248376D01*
X380176D01*
Y248354D01*
X380187D01*
Y248343D01*
X380198D01*
Y248311D01*
X380209D01*
Y248300D01*
X380220D01*
Y248278D01*
X380231D01*
Y248267D01*
X380242D01*
Y248245D01*
X380253D01*
Y248223D01*
X380263D01*
Y248213D01*
X380274D01*
Y248180D01*
X380285D01*
Y248169D01*
X380296D01*
Y248147D01*
X380307D01*
Y248125D01*
X380318D01*
Y248104D01*
X380329D01*
Y248082D01*
X380340D01*
Y248071D01*
X380351D01*
Y248038D01*
X380362D01*
Y248027D01*
X380372D01*
Y248016D01*
X380383D01*
Y247995D01*
X380394D01*
Y247984D01*
X380405D01*
Y247962D01*
X380416D01*
Y247951D01*
X380427D01*
Y247929D01*
X380438D01*
Y247918D01*
X380449D01*
Y247907D01*
X380470D01*
Y247897D01*
X380503D01*
Y247907D01*
X380514D01*
Y247918D01*
X380536D01*
Y247951D01*
X380547D01*
Y247973D01*
X380558D01*
Y248213D01*
X380547D01*
Y248354D01*
X380536D01*
Y248452D01*
X380525D01*
Y248529D01*
X380514D01*
Y248681D01*
X380503D01*
Y248834D01*
X380492D01*
Y249019D01*
X380481D01*
Y249150D01*
X380470D01*
Y249237D01*
X380460D01*
Y249357D01*
X380449D01*
Y249412D01*
X380438D01*
Y249477D01*
X380427D01*
Y249499D01*
X380416D01*
Y249532D01*
X380405D01*
Y249564D01*
X380394D01*
Y249586D01*
X380383D01*
Y249630D01*
X380372D01*
Y249641D01*
X380362D01*
Y249673D01*
X380351D01*
Y249695D01*
X380340D01*
Y249706D01*
X380329D01*
Y249739D01*
X380318D01*
Y249761D01*
X380307D01*
Y249782D01*
X380296D01*
Y249804D01*
X380285D01*
Y249826D01*
X380274D01*
Y249848D01*
X380263D01*
Y249859D01*
X380253D01*
Y249881D01*
X380242D01*
Y249902D01*
X380231D01*
Y249913D01*
X380220D01*
Y249935D01*
X380209D01*
Y249946D01*
X380198D01*
Y249968D01*
X380187D01*
Y249979D01*
X380176D01*
Y250000D01*
X380165D01*
Y250022D01*
X380154D01*
Y250033D01*
X380143D01*
Y250055D01*
X380133D01*
Y250066D01*
X380122D01*
Y250077D01*
X380111D01*
Y250088D01*
X380100D01*
Y250109D01*
X380089D01*
Y250120D01*
X380078D01*
Y250131D01*
X380067D01*
Y250153D01*
X380056D01*
Y250164D01*
X380045D01*
Y250175D01*
X380034D01*
Y250186D01*
X380024D01*
Y250197D01*
X380013D01*
Y250218D01*
X380002D01*
Y250229D01*
X379991D01*
Y250251D01*
X379980D01*
Y250262D01*
X379969D01*
Y250273D01*
X379958D01*
Y250295D01*
X379936D01*
Y250317D01*
X379925D01*
Y250327D01*
X379915D01*
Y250338D01*
X379904D01*
Y250349D01*
X379893D01*
Y250360D01*
X379882D01*
Y250382D01*
X379871D01*
Y250393D01*
X379860D01*
Y250404D01*
X379849D01*
Y250415D01*
X379838D01*
Y250426D01*
X379827D01*
Y250447D01*
X379817D01*
Y250458D01*
X379806D01*
Y250469D01*
X379795D01*
Y250480D01*
X379784D01*
Y250491D01*
X379773D01*
Y250502D01*
X379762D01*
Y250513D01*
X379751D01*
Y250524D01*
X379740D01*
Y250535D01*
X379729D01*
Y250545D01*
X379718D01*
Y250556D01*
X379708D01*
Y250567D01*
X379697D01*
Y250578D01*
X379686D01*
Y250589D01*
X379675D01*
Y250600D01*
X379664D01*
Y250611D01*
X379653D01*
Y250622D01*
X379642D01*
Y250633D01*
X379631D01*
Y250643D01*
X379620D01*
Y250665D01*
X379609D01*
Y250676D01*
X379598D01*
Y250687D01*
X379588D01*
Y250698D01*
X379577D01*
Y250709D01*
X379566D01*
Y250720D01*
X379555D01*
Y250731D01*
X379544D01*
Y250742D01*
X379533D01*
Y250752D01*
X379522D01*
Y250763D01*
X379511D01*
Y250774D01*
X379500D01*
Y250785D01*
X379489D01*
Y250796D01*
X379479D01*
Y250807D01*
X379468D01*
Y250818D01*
X379457D01*
Y250829D01*
X379446D01*
Y250840D01*
X379435D01*
Y250851D01*
X379424D01*
Y250862D01*
X379413D01*
Y250872D01*
X379402D01*
Y250883D01*
X379391D01*
Y250894D01*
X379380D01*
Y250905D01*
X379369D01*
Y250916D01*
X379359D01*
Y250938D01*
X379348D01*
Y250949D01*
X379337D01*
Y250960D01*
X379326D01*
Y250971D01*
X379315D01*
Y250981D01*
X379304D01*
Y250992D01*
X379293D01*
Y251003D01*
X379282D01*
Y251014D01*
X379271D01*
Y251025D01*
X379260D01*
Y251036D01*
X379250D01*
Y251047D01*
X379239D01*
Y251058D01*
X379228D01*
Y251069D01*
X379217D01*
Y251080D01*
X379206D01*
Y251090D01*
X379195D01*
Y251101D01*
X379184D01*
Y251112D01*
X379173D01*
Y251123D01*
X379162D01*
Y251134D01*
X379152D01*
Y251145D01*
X379141D01*
Y251156D01*
X379130D01*
Y251167D01*
X379119D01*
Y251178D01*
X379108D01*
Y251188D01*
X379097D01*
Y251210D01*
X379075D01*
Y251232D01*
X379064D01*
Y251243D01*
X379053D01*
Y251254D01*
X379043D01*
Y251265D01*
X379032D01*
Y251276D01*
X379021D01*
Y251287D01*
X379010D01*
Y251298D01*
X378999D01*
Y251308D01*
X378988D01*
Y251319D01*
X378977D01*
Y251330D01*
X378966D01*
Y251341D01*
X378955D01*
Y251352D01*
X378944D01*
Y251363D01*
X378934D01*
Y251374D01*
X378923D01*
Y251385D01*
X378912D01*
Y251396D01*
X378901D01*
Y251407D01*
X378890D01*
Y251417D01*
X378879D01*
Y251428D01*
X378868D01*
Y251450D01*
X378857D01*
Y251461D01*
X378846D01*
Y251472D01*
X378835D01*
Y251494D01*
X378824D01*
Y251505D01*
X378814D01*
Y251516D01*
X378803D01*
Y251526D01*
X378792D01*
Y251537D01*
X378781D01*
Y251548D01*
X378770D01*
Y251559D01*
X378759D01*
Y251581D01*
X378748D01*
Y251592D01*
X378737D01*
Y251614D01*
X378726D01*
Y251625D01*
X378715D01*
Y251636D01*
X378705D01*
Y251657D01*
X378694D01*
Y251668D01*
X378683D01*
Y251690D01*
X378672D01*
Y251701D01*
X378661D01*
Y251723D01*
X378650D01*
Y251755D01*
X378661D01*
Y251766D01*
X378683D01*
Y251777D01*
X378694D01*
Y251788D01*
X378726D01*
Y251799D01*
X378737D01*
Y251810D01*
X378759D01*
Y251821D01*
X378781D01*
Y251832D01*
X378803D01*
Y251843D01*
X378824D01*
Y251853D01*
X378835D01*
Y251864D01*
X378857D01*
Y251875D01*
X378868D01*
Y251886D01*
X378890D01*
Y251897D01*
X378912D01*
Y251908D01*
X378934D01*
Y251919D01*
X378955D01*
Y251930D01*
X378966D01*
Y251941D01*
X378988D01*
Y251952D01*
X378999D01*
Y251962D01*
X379021D01*
Y251973D01*
X379043D01*
Y251984D01*
X379053D01*
Y251995D01*
X379086D01*
Y252006D01*
X379097D01*
Y252017D01*
X379119D01*
Y252028D01*
X379141D01*
Y252039D01*
X379152D01*
Y252050D01*
X379173D01*
Y252061D01*
X379184D01*
Y252071D01*
X379217D01*
Y252082D01*
X379228D01*
Y252093D01*
X379250D01*
Y252104D01*
X379271D01*
Y252115D01*
X379293D01*
Y252126D01*
X379315D01*
Y252137D01*
X379326D01*
Y252148D01*
X379348D01*
Y252159D01*
X379359D01*
Y252170D01*
X379380D01*
Y252181D01*
X379391D01*
Y252170D01*
X379402D01*
Y252159D01*
X379391D01*
Y252028D01*
X379402D01*
Y252006D01*
X379413D01*
Y251995D01*
X379424D01*
Y251984D01*
X379435D01*
Y251973D01*
X379446D01*
Y251962D01*
X379457D01*
Y251952D01*
X379479D01*
Y251941D01*
X379489D01*
Y251930D01*
X379500D01*
Y251919D01*
X379511D01*
Y251908D01*
X379522D01*
Y251886D01*
X379533D01*
Y251875D01*
X379544D01*
Y251832D01*
X379555D01*
Y251788D01*
X379566D01*
Y251712D01*
X379555D01*
Y251646D01*
X379544D01*
Y251603D01*
X379533D01*
Y251581D01*
X379522D01*
Y251570D01*
X379511D01*
Y251548D01*
X379500D01*
Y251537D01*
X379489D01*
Y251516D01*
X379479D01*
Y251505D01*
X379468D01*
Y251483D01*
X379457D01*
Y251461D01*
X379446D01*
Y251417D01*
X379435D01*
Y251276D01*
X379446D01*
Y251243D01*
X379457D01*
Y251210D01*
X379468D01*
Y251188D01*
X379479D01*
Y251178D01*
X379489D01*
Y251145D01*
X379500D01*
Y251134D01*
X379511D01*
Y251123D01*
X379522D01*
Y251112D01*
X379533D01*
Y251101D01*
X379544D01*
Y251090D01*
X379555D01*
Y251080D01*
X379588D01*
Y251069D01*
X379598D01*
Y251058D01*
X379620D01*
Y251047D01*
X379664D01*
Y251036D01*
X379718D01*
Y251047D01*
X379740D01*
Y251058D01*
X379762D01*
Y251069D01*
X379773D01*
Y251080D01*
X379784D01*
Y251101D01*
X379795D01*
Y251112D01*
X379806D01*
Y251123D01*
X379817D01*
Y251134D01*
X379827D01*
Y251156D01*
X379838D01*
Y251178D01*
X379849D01*
Y251199D01*
X379860D01*
Y251232D01*
X379871D01*
Y251254D01*
X379882D01*
Y251298D01*
X379893D01*
Y251330D01*
X379904D01*
Y251385D01*
X379915D01*
Y251461D01*
X379925D01*
Y251559D01*
X379936D01*
Y251755D01*
X379925D01*
Y251832D01*
X379915D01*
Y251908D01*
X379904D01*
Y251952D01*
X379893D01*
Y251995D01*
X379882D01*
Y252028D01*
X379871D01*
Y252039D01*
X379860D01*
Y252082D01*
X379849D01*
Y252104D01*
X379838D01*
Y252126D01*
X379827D01*
Y252137D01*
X379817D01*
Y252148D01*
X379806D01*
Y252170D01*
X379795D01*
Y252191D01*
X379784D01*
Y252202D01*
X379773D01*
Y252213D01*
X379762D01*
Y252224D01*
X379751D01*
Y252235D01*
X379740D01*
Y252246D01*
X379729D01*
Y252257D01*
X379718D01*
Y252268D01*
X379697D01*
Y252279D01*
X379675D01*
Y252290D01*
X379653D01*
Y252300D01*
X379642D01*
Y252333D01*
X379664D01*
Y252344D01*
X379686D01*
Y252355D01*
X379697D01*
Y252366D01*
X379729D01*
Y252377D01*
X379740D01*
Y252388D01*
X379762D01*
Y252398D01*
X379784D01*
Y252409D01*
X379806D01*
Y252420D01*
X379817D01*
Y252431D01*
X379827D01*
Y252442D01*
X379860D01*
Y252453D01*
X379871D01*
Y252464D01*
X379893D01*
Y252475D01*
X379915D01*
Y252486D01*
X379925D01*
Y252497D01*
X379958D01*
Y252507D01*
X379969D01*
Y252518D01*
X379991D01*
Y252497D01*
X379980D01*
Y252486D01*
X379969D01*
Y252475D01*
X379958D01*
Y252464D01*
X379947D01*
Y252453D01*
X379936D01*
Y252442D01*
X379925D01*
Y252420D01*
X379915D01*
Y252398D01*
X379904D01*
Y252377D01*
X379893D01*
Y252279D01*
X379904D01*
Y252246D01*
X379915D01*
Y252235D01*
X379925D01*
Y252213D01*
X379936D01*
Y252191D01*
X379947D01*
Y252181D01*
X379958D01*
Y252170D01*
X379969D01*
Y252159D01*
X379980D01*
Y252148D01*
X379991D01*
Y252126D01*
X380013D01*
Y252115D01*
X380024D01*
Y252104D01*
X380034D01*
Y252093D01*
X380045D01*
Y252082D01*
X380056D01*
Y252071D01*
X380067D01*
Y252061D01*
X380078D01*
Y252050D01*
X380089D01*
Y252039D01*
X380100D01*
Y252028D01*
X380111D01*
Y252017D01*
X380133D01*
Y252006D01*
X380143D01*
Y251995D01*
X380165D01*
Y251984D01*
X380176D01*
Y251973D01*
X380187D01*
Y251962D01*
X380198D01*
Y251952D01*
X380209D01*
Y251941D01*
X380220D01*
Y251897D01*
X380231D01*
Y251875D01*
X380242D01*
Y251766D01*
X380231D01*
Y251712D01*
X380220D01*
Y251657D01*
X380209D01*
Y251614D01*
X380198D01*
Y251570D01*
X380187D01*
Y251526D01*
X380176D01*
Y251494D01*
X380165D01*
Y251439D01*
X380154D01*
Y251407D01*
X380143D01*
Y251352D01*
X380133D01*
Y251308D01*
X380122D01*
Y251276D01*
X380111D01*
Y251221D01*
X380100D01*
Y251145D01*
X380089D01*
Y251058D01*
X380078D01*
Y250851D01*
X380089D01*
Y250731D01*
X380100D01*
Y250698D01*
X380111D01*
Y250633D01*
X380122D01*
Y250611D01*
X380133D01*
Y250600D01*
X380143D01*
Y250567D01*
X380154D01*
Y250556D01*
X380165D01*
Y250535D01*
X380176D01*
Y250513D01*
X380187D01*
Y250502D01*
X380198D01*
Y250491D01*
X380209D01*
Y250480D01*
X380231D01*
Y250469D01*
X380253D01*
Y250458D01*
X380318D01*
Y250469D01*
X380340D01*
Y250480D01*
X380362D01*
Y250491D01*
X380372D01*
Y250502D01*
X380383D01*
Y250513D01*
X380394D01*
Y250524D01*
X380405D01*
Y250535D01*
X380416D01*
Y250545D01*
X380427D01*
Y250556D01*
X380438D01*
Y250578D01*
X380449D01*
Y250589D01*
X380460D01*
Y250611D01*
X380470D01*
Y250622D01*
X380481D01*
Y250643D01*
X380492D01*
Y250665D01*
X380503D01*
Y250676D01*
X380514D01*
Y250709D01*
X380525D01*
Y250720D01*
X380536D01*
Y250752D01*
X380547D01*
Y250774D01*
X380558D01*
Y250807D01*
X380569D01*
Y250840D01*
X380579D01*
Y250851D01*
X380590D01*
Y250894D01*
X380601D01*
Y250927D01*
X380612D01*
Y250971D01*
X380623D01*
Y251014D01*
X380634D01*
Y251047D01*
X380645D01*
Y251134D01*
X380656D01*
Y251167D01*
X380667D01*
Y251221D01*
X380678D01*
Y251407D01*
X380689D01*
Y251439D01*
X380678D01*
Y251603D01*
X380667D01*
Y251657D01*
X380656D01*
Y251679D01*
X380645D01*
Y251755D01*
X380634D01*
Y251766D01*
X380623D01*
Y251821D01*
X380612D01*
Y251853D01*
X380601D01*
Y251875D01*
X380590D01*
Y251919D01*
X380579D01*
Y251930D01*
X380569D01*
Y251984D01*
X380558D01*
Y251995D01*
X380547D01*
Y252017D01*
X380536D01*
Y252050D01*
X380525D01*
Y252061D01*
X380514D01*
Y252093D01*
X380503D01*
Y252115D01*
X380492D01*
Y252137D01*
X380481D01*
Y252159D01*
X380470D01*
Y252170D01*
X380460D01*
Y252191D01*
X380449D01*
Y252213D01*
X380438D01*
Y252235D01*
X380427D01*
Y252246D01*
X380416D01*
Y252257D01*
X380405D01*
Y252279D01*
X380394D01*
Y252290D01*
X380383D01*
Y252311D01*
X380372D01*
Y252322D01*
X380362D01*
Y252344D01*
X380351D01*
Y252355D01*
X380340D01*
Y252366D01*
X380329D01*
Y252377D01*
X380318D01*
Y252388D01*
X380307D01*
Y252398D01*
X380296D01*
Y252409D01*
X380285D01*
Y252420D01*
X380274D01*
Y252431D01*
X380263D01*
Y252442D01*
X380253D01*
Y252453D01*
X380242D01*
Y252464D01*
X380231D01*
Y252475D01*
X380209D01*
Y252486D01*
X380198D01*
Y252497D01*
X380176D01*
Y252507D01*
X380165D01*
Y252518D01*
X380122D01*
Y252529D01*
X380013D01*
Y252540D01*
X380034D01*
Y252551D01*
X380045D01*
Y252562D01*
X380056D01*
Y252573D01*
X380089D01*
Y252584D01*
X380100D01*
Y252595D01*
X380122D01*
Y252606D01*
X380143D01*
Y252617D01*
X380154D01*
Y252627D01*
X380176D01*
Y252638D01*
X380187D01*
Y252649D01*
X380220D01*
Y252660D01*
X380231D01*
Y252671D01*
X380253D01*
Y252682D01*
X380274D01*
Y252693D01*
X380285D01*
Y252704D01*
X380318D01*
Y252715D01*
X380329D01*
Y252726D01*
X380351D01*
Y252736D01*
X380362D01*
Y252747D01*
X380383D01*
Y252758D01*
X380405D01*
Y252769D01*
X380416D01*
Y252780D01*
X380427D01*
Y252769D01*
X380438D01*
Y252704D01*
X380449D01*
Y252660D01*
X380460D01*
Y252638D01*
X380470D01*
Y252627D01*
X380481D01*
Y252606D01*
X380492D01*
Y252595D01*
X380503D01*
Y252584D01*
X380514D01*
Y252573D01*
X380525D01*
Y252562D01*
X380536D01*
Y252540D01*
X380547D01*
Y252518D01*
X380558D01*
Y252507D01*
X380569D01*
Y252497D01*
X380579D01*
Y252475D01*
X380590D01*
Y252453D01*
X380601D01*
Y252442D01*
X380612D01*
Y252420D01*
X380623D01*
Y252409D01*
X380634D01*
Y252398D01*
X380645D01*
Y252377D01*
X380656D01*
Y252366D01*
X380667D01*
Y252344D01*
X380678D01*
Y252333D01*
X380689D01*
Y252300D01*
X380699D01*
Y252290D01*
X380710D01*
Y252268D01*
X380721D01*
Y252246D01*
X380732D01*
Y252235D01*
X380743D01*
Y252213D01*
X380754D01*
Y252202D01*
X380765D01*
Y252181D01*
X380776D01*
Y252159D01*
X380787D01*
Y252148D01*
X380798D01*
Y252104D01*
X380808D01*
Y252093D01*
X380819D01*
Y252061D01*
X380830D01*
Y252050D01*
X380841D01*
Y252028D01*
X380852D01*
Y251995D01*
X380863D01*
Y251984D01*
X380874D01*
Y251952D01*
X380885D01*
Y251930D01*
X380896D01*
Y251908D01*
X380907D01*
Y251886D01*
X380918D01*
Y251864D01*
X380928D01*
Y251821D01*
X380939D01*
Y251810D01*
X380950D01*
Y251777D01*
X380961D01*
Y251745D01*
X380972D01*
Y251690D01*
X380983D01*
Y251646D01*
X380994D01*
Y251625D01*
X381005D01*
Y251417D01*
X380994D01*
Y251374D01*
X380983D01*
Y251341D01*
X380972D01*
Y251298D01*
X380961D01*
Y251276D01*
X380950D01*
Y251221D01*
X380939D01*
Y251210D01*
X380928D01*
Y251178D01*
X380918D01*
Y251167D01*
X380907D01*
Y251134D01*
X380896D01*
Y251090D01*
X380885D01*
Y251080D01*
X380874D01*
Y251047D01*
X380863D01*
Y251036D01*
X380852D01*
Y251003D01*
X380841D01*
Y250981D01*
X380830D01*
Y250960D01*
X380819D01*
Y250938D01*
X380808D01*
Y250927D01*
X380798D01*
Y250894D01*
X380787D01*
Y250872D01*
X380776D01*
Y250851D01*
X380765D01*
Y250829D01*
X380754D01*
Y250807D01*
X380743D01*
Y250785D01*
X380732D01*
Y250763D01*
X380721D01*
Y250731D01*
X380710D01*
Y250720D01*
X380699D01*
Y250698D01*
X380689D01*
Y250654D01*
X380678D01*
Y250633D01*
X380667D01*
Y250611D01*
X380656D01*
Y250589D01*
X380645D01*
Y250556D01*
X380634D01*
Y250502D01*
X380623D01*
Y250469D01*
X380612D01*
Y250426D01*
X380601D01*
Y250349D01*
X380590D01*
Y250131D01*
X380601D01*
Y250088D01*
X380612D01*
Y250011D01*
X380623D01*
Y249990D01*
X380634D01*
Y249957D01*
X380645D01*
Y249924D01*
X380656D01*
Y249902D01*
X380667D01*
Y249859D01*
X380678D01*
Y249848D01*
X380689D01*
Y249815D01*
X380699D01*
Y249804D01*
X380710D01*
Y249782D01*
X380721D01*
Y249761D01*
X380732D01*
Y249750D01*
X380743D01*
Y249728D01*
X380754D01*
Y249717D01*
X380765D01*
Y249706D01*
X380776D01*
Y249684D01*
X380787D01*
Y249673D01*
X380798D01*
Y249662D01*
X380808D01*
Y249652D01*
X380819D01*
Y249630D01*
X380830D01*
Y249619D01*
X380841D01*
Y249608D01*
X380852D01*
Y249597D01*
X380863D01*
Y249586D01*
X380874D01*
Y249575D01*
X380885D01*
Y249564D01*
X380907D01*
Y249553D01*
X380918D01*
Y249542D01*
X380928D01*
Y249532D01*
X380939D01*
Y249521D01*
X380950D01*
Y249510D01*
X380961D01*
Y249499D01*
X380972D01*
Y249488D01*
X380994D01*
Y249477D01*
X381005D01*
Y249466D01*
X381027D01*
Y249455D01*
X381048D01*
Y249444D01*
X381059D01*
Y249433D01*
X381092D01*
Y249423D01*
X381114D01*
Y249412D01*
X381136D01*
Y249401D01*
X381244D01*
Y249412D01*
X381266D01*
Y249423D01*
X381277D01*
Y249433D01*
X381288D01*
Y249444D01*
X381299D01*
Y249455D01*
X381310D01*
Y249466D01*
X381321D01*
Y249477D01*
X381332D01*
Y249499D01*
X381343D01*
Y249510D01*
X381353D01*
Y249532D01*
X381364D01*
Y249542D01*
X381375D01*
Y249575D01*
X381386D01*
Y249597D01*
X381397D01*
Y249619D01*
X381408D01*
Y249641D01*
X381419D01*
Y249662D01*
X381430D01*
Y249717D01*
X381441D01*
Y249728D01*
X381452D01*
Y249750D01*
X381463D01*
Y249804D01*
X381473D01*
Y249837D01*
X381484D01*
Y249902D01*
X381495D01*
Y249946D01*
X381506D01*
Y250273D01*
X381495D01*
Y250306D01*
X381484D01*
Y250382D01*
X381473D01*
Y250404D01*
X381463D01*
Y250469D01*
X381452D01*
Y250535D01*
X381441D01*
Y250545D01*
X381430D01*
Y250643D01*
X381419D01*
Y250709D01*
X381408D01*
Y251025D01*
X381419D01*
Y251123D01*
X381430D01*
Y251221D01*
X381441D01*
Y251276D01*
X381452D01*
Y251319D01*
X381463D01*
Y251407D01*
X381473D01*
Y251461D01*
X381484D01*
Y251581D01*
X381495D01*
Y251777D01*
X381484D01*
Y251853D01*
X381473D01*
Y251875D01*
X381463D01*
Y251908D01*
X381452D01*
Y251941D01*
X381441D01*
Y251952D01*
X381430D01*
Y251973D01*
X381419D01*
Y251984D01*
X381408D01*
Y252006D01*
X381397D01*
Y252028D01*
X381386D01*
Y252039D01*
X381375D01*
Y252050D01*
X381364D01*
Y252071D01*
X381353D01*
Y252082D01*
X381343D01*
Y252093D01*
X381332D01*
Y252104D01*
X381321D01*
Y252115D01*
X381310D01*
Y252126D01*
X381299D01*
Y252137D01*
X381288D01*
Y252148D01*
X381277D01*
Y252159D01*
X381266D01*
Y252170D01*
X381255D01*
Y252181D01*
X381244D01*
Y252202D01*
X381234D01*
Y252213D01*
X381223D01*
Y252224D01*
X381212D01*
Y252235D01*
X381201D01*
Y252246D01*
X381190D01*
Y252268D01*
X381179D01*
Y252279D01*
X381168D01*
Y252290D01*
X381157D01*
Y252300D01*
X381146D01*
Y252311D01*
X381136D01*
Y252333D01*
X381125D01*
Y252344D01*
X381114D01*
Y252355D01*
X381103D01*
Y252366D01*
X381092D01*
Y252388D01*
X381081D01*
Y252398D01*
X381070D01*
Y252409D01*
X381059D01*
Y252431D01*
X381048D01*
Y252442D01*
X381037D01*
Y252453D01*
X381027D01*
Y252475D01*
X381016D01*
Y252486D01*
X381005D01*
Y252507D01*
X380994D01*
Y252518D01*
X380983D01*
Y252529D01*
X380972D01*
Y252540D01*
X380961D01*
Y252551D01*
X380950D01*
Y252573D01*
X380928D01*
Y252595D01*
X380918D01*
Y252606D01*
X380907D01*
Y252627D01*
X380885D01*
Y252649D01*
X380874D01*
Y252660D01*
X380863D01*
Y252671D01*
X380852D01*
Y252693D01*
X380841D01*
Y252704D01*
X380830D01*
Y252715D01*
X380819D01*
Y252726D01*
X380808D01*
Y252736D01*
X380798D01*
Y252747D01*
X380787D01*
Y252758D01*
X380776D01*
Y252769D01*
X380765D01*
Y252780D01*
X380754D01*
Y252791D01*
X380743D01*
Y252802D01*
X380732D01*
Y252813D01*
X380721D01*
Y252824D01*
X380710D01*
Y252835D01*
X380689D01*
Y252846D01*
X380678D01*
Y252856D01*
X380667D01*
Y252867D01*
X380634D01*
Y252900D01*
X380645D01*
Y252911D01*
X380678D01*
Y252922D01*
X380689D01*
Y252933D01*
X380699D01*
Y252944D01*
X380721D01*
Y252955D01*
X380732D01*
Y252965D01*
X380765D01*
Y252976D01*
X380776D01*
Y252987D01*
X380808D01*
Y252998D01*
X380819D01*
Y253009D01*
X380830D01*
Y253020D01*
X380852D01*
Y253031D01*
X380874D01*
Y253042D01*
X380896D01*
Y253053D01*
X380907D01*
Y253064D01*
X380928D01*
Y253074D01*
X380950D01*
Y253085D01*
X380972D01*
Y253096D01*
X381016D01*
Y253085D01*
X381027D01*
Y253074D01*
X381037D01*
Y253064D01*
X381048D01*
Y253053D01*
X381059D01*
Y253042D01*
X381070D01*
Y253031D01*
X381081D01*
Y253009D01*
X381092D01*
Y252998D01*
X381103D01*
Y252987D01*
X381114D01*
Y252976D01*
X381125D01*
Y252965D01*
X381136D01*
Y252955D01*
X381146D01*
Y252944D01*
X381157D01*
Y252933D01*
X381168D01*
Y252922D01*
X381179D01*
Y252911D01*
X381190D01*
Y252889D01*
X381201D01*
Y252878D01*
X381212D01*
Y252856D01*
X381223D01*
Y252846D01*
X381234D01*
Y252835D01*
X381244D01*
Y252813D01*
X381255D01*
Y252802D01*
X381266D01*
Y252791D01*
X381277D01*
Y252780D01*
X381288D01*
Y252758D01*
X381299D01*
Y252747D01*
X381310D01*
Y252736D01*
X381321D01*
Y252715D01*
X381332D01*
Y252704D01*
X381343D01*
Y252693D01*
X381353D01*
Y252671D01*
X381364D01*
Y252660D01*
X381375D01*
Y252638D01*
X381386D01*
Y252627D01*
X381397D01*
Y252606D01*
X381419D01*
Y252584D01*
X381430D01*
Y252573D01*
X381441D01*
Y252551D01*
X381452D01*
Y252529D01*
X381463D01*
Y252518D01*
X381473D01*
Y252507D01*
X381484D01*
Y252497D01*
X381495D01*
Y252475D01*
X381506D01*
Y252453D01*
X381517D01*
Y252442D01*
X381528D01*
Y252420D01*
X381539D01*
Y252409D01*
X381550D01*
Y252398D01*
X381561D01*
Y252377D01*
X381572D01*
Y252366D01*
X381582D01*
Y252344D01*
X381593D01*
Y252333D01*
X381604D01*
Y252311D01*
X381615D01*
Y252290D01*
X381626D01*
Y252279D01*
X381637D01*
Y252257D01*
X381648D01*
Y252246D01*
X381659D01*
Y252213D01*
X381670D01*
Y252202D01*
X381680D01*
Y252181D01*
X381691D01*
Y252159D01*
X381702D01*
Y252148D01*
X381713D01*
Y252126D01*
X381724D01*
Y252115D01*
X381735D01*
Y252093D01*
X381746D01*
Y252071D01*
X381757D01*
Y252050D01*
X381768D01*
Y252028D01*
X381779D01*
Y252017D01*
X381789D01*
Y251995D01*
X381800D01*
Y251973D01*
X381811D01*
Y251941D01*
X381822D01*
Y251908D01*
X381833D01*
Y251864D01*
X381844D01*
Y251559D01*
X381833D01*
Y251407D01*
X381822D01*
Y251188D01*
X381811D01*
Y250752D01*
X381800D01*
Y250513D01*
X381811D01*
Y250131D01*
X381822D01*
Y249979D01*
X381833D01*
Y249881D01*
X381844D01*
Y249782D01*
X381833D01*
Y249761D01*
X381822D01*
Y249728D01*
X381811D01*
Y249695D01*
X381800D01*
Y249684D01*
X381789D01*
Y249662D01*
X381779D01*
Y249652D01*
X381768D01*
Y249641D01*
X381757D01*
Y249619D01*
X381735D01*
Y249597D01*
X381713D01*
Y249575D01*
X381702D01*
Y249564D01*
X381680D01*
Y249542D01*
X381659D01*
Y249521D01*
X381637D01*
Y249499D01*
X381626D01*
Y249488D01*
X381604D01*
Y249466D01*
X381582D01*
Y249444D01*
X381572D01*
Y249433D01*
X381550D01*
Y249412D01*
X381528D01*
Y249390D01*
X381517D01*
Y249379D01*
X381506D01*
Y249357D01*
X381495D01*
Y249346D01*
X381484D01*
Y249335D01*
X381473D01*
Y249314D01*
X381463D01*
Y249303D01*
X381452D01*
Y249281D01*
X381441D01*
Y249270D01*
X381430D01*
Y249248D01*
X381419D01*
Y249226D01*
X381408D01*
Y249216D01*
X381397D01*
Y249183D01*
X381386D01*
Y249161D01*
X381375D01*
Y249139D01*
X381364D01*
Y249107D01*
X381353D01*
Y249085D01*
X381343D01*
Y249041D01*
X381332D01*
Y249019D01*
X381321D01*
Y248976D01*
X381310D01*
Y248943D01*
X381299D01*
Y248910D01*
X381288D01*
Y248845D01*
X381277D01*
Y248812D01*
X381266D01*
Y248714D01*
X381255D01*
Y248638D01*
X381244D01*
Y248540D01*
X381234D01*
Y248474D01*
X381244D01*
Y248311D01*
X381255D01*
Y248256D01*
X381266D01*
Y248158D01*
X381277D01*
Y248114D01*
X381288D01*
Y248038D01*
X381299D01*
Y248006D01*
X381310D01*
Y247962D01*
X381321D01*
Y247918D01*
X381332D01*
Y247897D01*
X381343D01*
Y247842D01*
X381353D01*
Y247820D01*
X381364D01*
Y247798D01*
X381375D01*
Y247755D01*
X381386D01*
Y247733D01*
X381397D01*
Y247700D01*
X381408D01*
Y247678D01*
X381419D01*
Y247657D01*
X381430D01*
Y247624D01*
X381441D01*
Y247613D01*
X381452D01*
Y247580D01*
X381463D01*
Y247569D01*
X381473D01*
Y247548D01*
X381484D01*
Y247526D01*
X381495D01*
Y247504D01*
X381506D01*
Y247482D01*
X381517D01*
Y247471D01*
X381528D01*
Y247450D01*
X381539D01*
Y247439D01*
X381550D01*
Y247417D01*
X381561D01*
Y247406D01*
X381572D01*
Y247395D01*
X381582D01*
Y247373D01*
X381593D01*
Y247362D01*
X381604D01*
Y247341D01*
X381615D01*
Y247330D01*
X381626D01*
Y247319D01*
X381637D01*
Y247297D01*
X381648D01*
Y247286D01*
X381659D01*
Y247275D01*
X381670D01*
Y247264D01*
X381680D01*
Y247253D01*
X381691D01*
Y247232D01*
X381702D01*
Y247221D01*
X381713D01*
Y247210D01*
X381724D01*
Y247199D01*
X381746D01*
Y247188D01*
X381768D01*
Y247177D01*
X381822D01*
Y247188D01*
X381844D01*
Y247210D01*
X381866D01*
Y247221D01*
X381877D01*
Y247232D01*
X381888D01*
Y247242D01*
X381898D01*
Y247264D01*
X381909D01*
Y247286D01*
X381920D01*
Y247308D01*
X381931D01*
Y247319D01*
X381942D01*
Y247330D01*
X381953D01*
Y247373D01*
X381964D01*
Y247395D01*
X381975D01*
Y247428D01*
X381986D01*
Y247471D01*
X381997D01*
Y247493D01*
X382008D01*
Y247548D01*
X382018D01*
Y247569D01*
X382029D01*
Y247624D01*
X382040D01*
Y247668D01*
X382051D01*
Y247711D01*
X382062D01*
Y247755D01*
X382073D01*
Y247787D01*
X382084D01*
Y247842D01*
X382095D01*
Y247875D01*
X382106D01*
Y247929D01*
X382117D01*
Y247962D01*
X382127D01*
Y247984D01*
X382138D01*
Y248049D01*
X382149D01*
Y248071D01*
X382160D01*
Y248125D01*
X382171D01*
Y248147D01*
X382182D01*
Y248180D01*
X382193D01*
Y248234D01*
X382204D01*
Y248256D01*
X382215D01*
Y248311D01*
X382226D01*
Y248333D01*
X382237D01*
Y248365D01*
X382247D01*
Y248409D01*
X382258D01*
Y248431D01*
X382269D01*
Y248463D01*
X382280D01*
Y248474D01*
X382291D01*
Y248507D01*
X382302D01*
Y248518D01*
X382313D01*
Y248551D01*
X382324D01*
Y248572D01*
X382334D01*
Y248583D01*
X382346D01*
Y248616D01*
X382356D01*
Y248627D01*
X382367D01*
Y248638D01*
X382378D01*
Y248649D01*
X382389D01*
Y248660D01*
X382400D01*
Y248681D01*
X382411D01*
Y248692D01*
X382422D01*
Y248703D01*
X382444D01*
Y248714D01*
X382454D01*
Y248725D01*
X382476D01*
Y248736D01*
X382487D01*
Y248747D01*
X382509D01*
Y248758D01*
X382542D01*
Y248769D01*
X382563D01*
Y248780D01*
X382716D01*
Y248769D01*
X382760D01*
Y248758D01*
X382814D01*
Y248747D01*
X382999D01*
Y248758D01*
X383032D01*
Y248769D01*
X383043D01*
Y248780D01*
X383065D01*
Y248790D01*
X383076D01*
Y248801D01*
X383087D01*
Y248812D01*
X383108D01*
Y248823D01*
X383119D01*
Y248834D01*
X383130D01*
Y248845D01*
X383141D01*
Y248856D01*
X383152D01*
Y248878D01*
X383163D01*
Y248888D01*
X383174D01*
Y248899D01*
X383185D01*
Y248921D01*
X383196D01*
Y248932D01*
X383207D01*
Y248954D01*
X383218D01*
Y248965D01*
X383228D01*
Y248987D01*
X383239D01*
Y249008D01*
X383250D01*
Y249019D01*
X383261D01*
Y249052D01*
X383272D01*
Y249063D01*
X383283D01*
Y249096D01*
X383294D01*
Y249107D01*
X383305D01*
Y249128D01*
X383316D01*
Y249161D01*
X383327D01*
Y249183D01*
X383337D01*
Y249216D01*
X383348D01*
Y249248D01*
X383359D01*
Y249281D01*
X383370D01*
Y249314D01*
X383381D01*
Y249335D01*
X383392D01*
Y249368D01*
X383403D01*
Y249401D01*
X383414D01*
Y249444D01*
X383425D01*
Y249477D01*
X383436D01*
Y249510D01*
X383446D01*
Y249564D01*
X383457D01*
Y249586D01*
X383468D01*
Y249652D01*
X383479D01*
Y249684D01*
X383490D01*
Y249717D01*
X383501D01*
Y249782D01*
X383512D01*
Y249826D01*
X383523D01*
Y249891D01*
X383534D01*
Y249924D01*
X383544D01*
Y249968D01*
X383556D01*
Y250033D01*
X383566D01*
Y250077D01*
X383577D01*
Y250131D01*
X383588D01*
Y250164D01*
X383599D01*
Y250240D01*
X383610D01*
Y250273D01*
X383621D01*
Y250317D01*
X383632D01*
Y250382D01*
X383643D01*
Y250404D01*
X383653D01*
Y250480D01*
X383664D01*
Y250513D01*
X383675D01*
Y250567D01*
X383686D01*
Y250622D01*
X383697D01*
Y250654D01*
X383708D01*
Y250720D01*
X383719D01*
Y250763D01*
X383730D01*
Y250818D01*
X383741D01*
Y250851D01*
X383752D01*
Y250894D01*
X383763D01*
Y250949D01*
X383773D01*
Y250981D01*
X383784D01*
Y251036D01*
X383795D01*
Y251069D01*
X383806D01*
Y251112D01*
X383817D01*
Y251156D01*
X383828D01*
Y251199D01*
X383839D01*
Y251254D01*
X383850D01*
Y251287D01*
X383861D01*
Y251363D01*
X383872D01*
Y251385D01*
X383882D01*
Y251417D01*
X383893D01*
Y251494D01*
X383904D01*
Y251526D01*
X383915D01*
Y251614D01*
X383926D01*
Y251657D01*
X383937D01*
Y251712D01*
X383948D01*
Y251908D01*
X383959D01*
Y251941D01*
X383948D01*
Y252039D01*
X383937D01*
Y252093D01*
X383926D01*
Y252115D01*
X383915D01*
Y252170D01*
X383904D01*
Y252191D01*
X383893D01*
Y252213D01*
X383882D01*
Y252235D01*
X383872D01*
Y252257D01*
X383861D01*
Y252279D01*
X383850D01*
Y252290D01*
X383839D01*
Y252311D01*
X383828D01*
Y252333D01*
X383817D01*
Y252344D01*
X383806D01*
Y252366D01*
X383795D01*
Y252377D01*
X383784D01*
Y252398D01*
X383773D01*
Y252409D01*
X383763D01*
Y252420D01*
X383752D01*
Y252442D01*
X383741D01*
Y252453D01*
X383730D01*
Y252486D01*
X383719D01*
Y252497D01*
X383708D01*
Y252507D01*
X383697D01*
Y252529D01*
X383686D01*
Y252540D01*
X383675D01*
Y252562D01*
X383664D01*
Y252573D01*
X383653D01*
Y252595D01*
X383643D01*
Y252606D01*
X383632D01*
Y252627D01*
X383621D01*
Y252649D01*
X383599D01*
Y252671D01*
X383588D01*
Y252693D01*
X383577D01*
Y252715D01*
X383566D01*
Y252726D01*
X383556D01*
Y252747D01*
X383544D01*
Y252769D01*
X383534D01*
Y252780D01*
X383523D01*
Y252791D01*
X383512D01*
Y252813D01*
X383501D01*
Y252824D01*
X383490D01*
Y252846D01*
X383479D01*
Y252856D01*
X383468D01*
Y252878D01*
X383457D01*
Y252889D01*
X383446D01*
Y252911D01*
X383436D01*
Y252933D01*
X383425D01*
Y252944D01*
X383414D01*
Y252965D01*
X383403D01*
Y252976D01*
X383392D01*
Y253009D01*
X383381D01*
Y253020D01*
X383370D01*
Y253042D01*
X383359D01*
Y253064D01*
X383348D01*
Y253074D01*
X383337D01*
Y253085D01*
X383327D01*
Y253107D01*
X383316D01*
Y253129D01*
X383305D01*
Y253151D01*
X383294D01*
Y253162D01*
X383283D01*
Y253183D01*
X383272D01*
Y253194D01*
X383261D01*
Y253216D01*
X383250D01*
Y253227D01*
X383239D01*
Y253249D01*
X383228D01*
Y253271D01*
X383218D01*
Y253281D01*
X383207D01*
Y253303D01*
X383196D01*
Y253314D01*
X383185D01*
Y253336D01*
X383174D01*
Y253358D01*
X383163D01*
Y253369D01*
X383152D01*
Y253401D01*
X383141D01*
Y253412D01*
X383130D01*
Y253423D01*
X383119D01*
Y253445D01*
X383108D01*
Y253467D01*
X383098D01*
Y253489D01*
X383087D01*
Y253500D01*
X383076D01*
Y253521D01*
X383065D01*
Y253532D01*
X383054D01*
Y253554D01*
X383043D01*
Y253576D01*
X383032D01*
Y253587D01*
X383021D01*
Y253608D01*
X383010D01*
Y253630D01*
X382999D01*
Y253652D01*
X382989D01*
Y253663D01*
X382978D01*
Y253674D01*
X382967D01*
Y253696D01*
X382956D01*
Y253707D01*
X382945D01*
Y253739D01*
X382934D01*
Y253750D01*
X382923D01*
Y253761D01*
X382912D01*
Y253783D01*
X382901D01*
Y253805D01*
X382891D01*
Y253826D01*
X382880D01*
Y253837D01*
X382869D01*
Y253859D01*
X382858D01*
Y253881D01*
X382847D01*
Y253892D01*
X382836D01*
Y253914D01*
X382825D01*
Y253925D01*
X382814D01*
Y253946D01*
X382803D01*
Y253968D01*
X382792D01*
Y253990D01*
X382782D01*
Y254001D01*
X382771D01*
Y254012D01*
X382760D01*
Y254034D01*
X382749D01*
Y254056D01*
X382738D01*
Y254077D01*
X382727D01*
Y254110D01*
X382749D01*
Y254121D01*
X382760D01*
Y254132D01*
X382771D01*
Y254143D01*
X382803D01*
Y254154D01*
X382814D01*
Y254165D01*
X382847D01*
Y254175D01*
X382858D01*
Y254186D01*
X382869D01*
Y254197D01*
X382891D01*
Y254208D01*
X382912D01*
Y254219D01*
X382934D01*
Y254230D01*
X382945D01*
Y254241D01*
X382967D01*
Y254252D01*
X382989D01*
Y254263D01*
X383010D01*
Y254274D01*
X383032D01*
Y254284D01*
X383043D01*
Y254295D01*
X383065D01*
Y254306D01*
X383076D01*
Y254317D01*
X383098D01*
Y254328D01*
X383119D01*
Y254339D01*
X383141D01*
Y254350D01*
X383163D01*
Y254361D01*
X383185D01*
Y254372D01*
X383207D01*
Y254382D01*
X383218D01*
Y254393D01*
X383228D01*
Y254404D01*
X383250D01*
Y254415D01*
X383261D01*
Y254426D01*
X383294D01*
Y254437D01*
X383316D01*
Y254448D01*
X383327D01*
Y254459D01*
X383348D01*
Y254470D01*
X383359D01*
Y254481D01*
X383381D01*
Y254491D01*
X383403D01*
Y254502D01*
X383425D01*
Y254513D01*
X383446D01*
Y254524D01*
X383457D01*
Y254535D01*
X383490D01*
Y254546D01*
X383501D01*
Y254557D01*
X383523D01*
Y254568D01*
X383534D01*
Y254579D01*
X383556D01*
Y254590D01*
X383577D01*
Y254601D01*
X383588D01*
Y254611D01*
X383621D01*
Y254622D01*
X383632D01*
Y254633D01*
X383653D01*
Y254644D01*
X383675D01*
Y254655D01*
X383686D01*
Y254666D01*
X383708D01*
Y254677D01*
X383719D01*
Y254688D01*
X383741D01*
Y254699D01*
X383763D01*
Y254710D01*
X383784D01*
Y254720D01*
X383806D01*
Y254731D01*
X383817D01*
Y254742D01*
X383850D01*
Y254753D01*
X383861D01*
Y254764D01*
X383872D01*
Y254775D01*
X383893D01*
Y254786D01*
X383904D01*
Y254797D01*
X383926D01*
Y254786D01*
D02*
G37*
G36*
X371870Y255026D02*
X371881D01*
Y255004D01*
X371902D01*
Y254982D01*
X371924D01*
Y254971D01*
X371935D01*
Y254949D01*
X371957D01*
Y254927D01*
X371968D01*
Y254917D01*
X371979D01*
Y254906D01*
X371990D01*
Y254895D01*
X372001D01*
Y254884D01*
X372011D01*
Y254873D01*
X372022D01*
Y254862D01*
X372033D01*
Y254851D01*
X372044D01*
Y254840D01*
X372055D01*
Y254829D01*
X372066D01*
Y254819D01*
X372077D01*
Y254808D01*
X372088D01*
Y254797D01*
X372099D01*
Y254786D01*
X372110D01*
Y254775D01*
X372120D01*
Y254764D01*
X372131D01*
Y254753D01*
X372142D01*
Y254742D01*
X372153D01*
Y254731D01*
X372164D01*
Y254710D01*
X372186D01*
Y254688D01*
X372197D01*
Y254677D01*
X372208D01*
Y254666D01*
X372219D01*
Y254655D01*
X372230D01*
Y254644D01*
X372240D01*
Y254633D01*
X372251D01*
Y254622D01*
X372262D01*
Y254611D01*
X372273D01*
Y254601D01*
X372284D01*
Y254590D01*
X372295D01*
Y254579D01*
X372306D01*
Y254568D01*
X372317D01*
Y254557D01*
X372328D01*
Y254546D01*
X372339D01*
Y254535D01*
X372349D01*
Y254524D01*
X372360D01*
Y254513D01*
X372371D01*
Y254502D01*
X372382D01*
Y254491D01*
X372393D01*
Y254481D01*
X372404D01*
Y254459D01*
X372426D01*
Y254437D01*
X372447D01*
Y254426D01*
X372458D01*
Y254404D01*
X372480D01*
Y254382D01*
X372491D01*
Y254372D01*
X372502D01*
Y254361D01*
X372513D01*
Y254350D01*
X372524D01*
Y254339D01*
X372535D01*
Y254328D01*
X372546D01*
Y254317D01*
X372556D01*
Y254306D01*
X372567D01*
Y254295D01*
X372578D01*
Y254284D01*
X372589D01*
Y254274D01*
X372600D01*
Y254263D01*
X372611D01*
Y254252D01*
X372622D01*
Y254241D01*
X372633D01*
Y254230D01*
X372644D01*
Y254219D01*
X372655D01*
Y254208D01*
X372666D01*
Y254186D01*
X372676D01*
Y254175D01*
X372687D01*
Y254165D01*
X372709D01*
Y254143D01*
X372720D01*
Y254132D01*
X372731D01*
Y254121D01*
X372742D01*
Y254110D01*
X372764D01*
Y254088D01*
X372775D01*
Y254077D01*
X372785D01*
Y254066D01*
X372796D01*
Y254056D01*
X372807D01*
Y254045D01*
X372818D01*
Y254034D01*
X372829D01*
Y254023D01*
X372840D01*
Y254012D01*
X372851D01*
Y254001D01*
X372862D01*
Y253990D01*
X372873D01*
Y253968D01*
X372884D01*
Y253957D01*
X372895D01*
Y253946D01*
X372905D01*
Y253936D01*
X372916D01*
Y253925D01*
X372927D01*
Y253914D01*
X372938D01*
Y253903D01*
X372949D01*
Y253892D01*
X372960D01*
Y253881D01*
X372971D01*
Y253870D01*
X372982D01*
Y253859D01*
X372993D01*
Y253848D01*
X373004D01*
Y253826D01*
X373014D01*
Y253816D01*
X373025D01*
Y253805D01*
X373036D01*
Y253794D01*
X373047D01*
Y253783D01*
X373058D01*
Y253772D01*
X373069D01*
Y253761D01*
X373080D01*
Y253750D01*
X373091D01*
Y253739D01*
X373102D01*
Y253728D01*
X373113D01*
Y253717D01*
X373123D01*
Y253707D01*
X373134D01*
Y253696D01*
X373145D01*
Y253685D01*
X373156D01*
Y253674D01*
X373167D01*
Y253663D01*
X373178D01*
Y253652D01*
X373189D01*
Y253630D01*
X373200D01*
Y253619D01*
X373211D01*
Y253608D01*
X373221D01*
Y253598D01*
X373232D01*
Y253587D01*
X373243D01*
Y253576D01*
X373254D01*
Y253565D01*
X373265D01*
Y253554D01*
X373276D01*
Y253543D01*
X373287D01*
Y253532D01*
X373298D01*
Y253510D01*
X373320D01*
Y253489D01*
X373341D01*
Y253467D01*
X373352D01*
Y253456D01*
X373363D01*
Y253445D01*
X373374D01*
Y253434D01*
X373385D01*
Y253423D01*
X373396D01*
Y253412D01*
X373407D01*
Y253401D01*
X373418D01*
Y253391D01*
X373429D01*
Y253380D01*
X373440D01*
Y253369D01*
X373450D01*
Y253358D01*
X373461D01*
Y253347D01*
X373472D01*
Y253336D01*
X373483D01*
Y253325D01*
X373494D01*
Y253303D01*
X373505D01*
Y253292D01*
X373516D01*
Y253281D01*
X373527D01*
Y253271D01*
X373538D01*
Y253260D01*
X373549D01*
Y253249D01*
X373559D01*
Y253238D01*
X373570D01*
Y253227D01*
X373581D01*
Y253205D01*
X373592D01*
Y253194D01*
X373603D01*
Y253183D01*
X373614D01*
Y253172D01*
X373625D01*
Y253162D01*
X373636D01*
Y253151D01*
X373647D01*
Y253140D01*
X373657D01*
Y253129D01*
X373668D01*
Y253118D01*
X373679D01*
Y253107D01*
X373690D01*
Y253096D01*
X373701D01*
Y253074D01*
X373712D01*
Y253064D01*
X373723D01*
Y253053D01*
X373734D01*
Y253042D01*
X373745D01*
Y253031D01*
X373756D01*
Y253020D01*
X373766D01*
Y253009D01*
X373777D01*
Y252998D01*
X373788D01*
Y252987D01*
X373799D01*
Y252976D01*
X373810D01*
Y252965D01*
X373821D01*
Y252955D01*
X373832D01*
Y252944D01*
X373843D01*
Y252933D01*
X373854D01*
Y252922D01*
X373865D01*
Y252900D01*
X373875D01*
Y252889D01*
X373886D01*
Y252878D01*
X373897D01*
Y252867D01*
X373908D01*
Y252856D01*
X373919D01*
Y252846D01*
X373930D01*
Y252835D01*
X373941D01*
Y252824D01*
X373952D01*
Y252813D01*
X373963D01*
Y252802D01*
X373974D01*
Y252791D01*
X373985D01*
Y252780D01*
X373995D01*
Y252758D01*
X374006D01*
Y252747D01*
X374017D01*
Y252736D01*
X374028D01*
Y252726D01*
X374039D01*
Y252715D01*
X374050D01*
Y252704D01*
X374061D01*
Y252693D01*
X374072D01*
Y252682D01*
X374083D01*
Y252671D01*
X374094D01*
Y252660D01*
X374104D01*
Y252649D01*
X374115D01*
Y252638D01*
X374126D01*
Y252627D01*
X374137D01*
Y252617D01*
X374148D01*
Y252606D01*
X374159D01*
Y252584D01*
X374170D01*
Y252573D01*
X374181D01*
Y252562D01*
X374192D01*
Y252551D01*
X374203D01*
Y252540D01*
X374214D01*
Y252529D01*
X374224D01*
Y252518D01*
X374235D01*
Y252507D01*
X374246D01*
Y252497D01*
X374257D01*
Y252486D01*
X374268D01*
Y252475D01*
X374279D01*
Y252464D01*
X374290D01*
Y252453D01*
X374301D01*
Y252442D01*
X374312D01*
Y252431D01*
X374323D01*
Y252420D01*
X374333D01*
Y252409D01*
X374344D01*
Y252398D01*
X374355D01*
Y252388D01*
X374366D01*
Y252366D01*
X374388D01*
Y252344D01*
X374410D01*
Y252333D01*
X374421D01*
Y252311D01*
X374442D01*
Y252290D01*
X374464D01*
Y252268D01*
X374475D01*
Y252257D01*
X374486D01*
Y252246D01*
X374497D01*
Y252235D01*
X374508D01*
Y252224D01*
X374519D01*
Y252213D01*
X374530D01*
Y252202D01*
X374540D01*
Y252191D01*
X374551D01*
Y252181D01*
X374562D01*
Y252170D01*
X374573D01*
Y252159D01*
X374584D01*
Y252148D01*
X374595D01*
Y252137D01*
X374606D01*
Y252126D01*
X374617D01*
Y252115D01*
X374628D01*
Y252104D01*
X374639D01*
Y252093D01*
X374650D01*
Y252082D01*
X374660D01*
Y252071D01*
X374671D01*
Y252061D01*
X374682D01*
Y252050D01*
X374704D01*
Y252039D01*
X374715D01*
Y252028D01*
X374726D01*
Y252017D01*
X374737D01*
Y252006D01*
X374748D01*
Y251995D01*
X374759D01*
Y251984D01*
X374769D01*
Y251973D01*
X374780D01*
Y251962D01*
X374802D01*
Y251952D01*
X374813D01*
Y251941D01*
X374824D01*
Y251919D01*
X374791D01*
Y251908D01*
X374780D01*
Y251897D01*
X374759D01*
Y251886D01*
X374748D01*
Y251875D01*
X374726D01*
Y251864D01*
X374704D01*
Y251853D01*
X374693D01*
Y251843D01*
X374660D01*
Y251832D01*
X374650D01*
Y251821D01*
X374628D01*
Y251810D01*
X374606D01*
Y251799D01*
X374595D01*
Y251788D01*
X374573D01*
Y251777D01*
X374562D01*
Y251766D01*
X374530D01*
Y251755D01*
X374519D01*
Y251745D01*
X374497D01*
Y251734D01*
X374475D01*
Y251723D01*
X374464D01*
Y251712D01*
X374431D01*
Y251701D01*
X374421D01*
Y251690D01*
X374399D01*
Y251679D01*
X374388D01*
Y251668D01*
X374366D01*
Y251657D01*
X374344D01*
Y251646D01*
X374333D01*
Y251636D01*
X374301D01*
Y251625D01*
X374290D01*
Y251614D01*
X374268D01*
Y251603D01*
X374246D01*
Y251592D01*
X374235D01*
Y251581D01*
X374214D01*
Y251570D01*
X374203D01*
Y251559D01*
X374181D01*
Y251548D01*
X374159D01*
Y251537D01*
X374137D01*
Y251526D01*
X374115D01*
Y251516D01*
X374104D01*
Y251505D01*
X374083D01*
Y251494D01*
X374061D01*
Y251483D01*
X374050D01*
Y251472D01*
X374028D01*
Y251461D01*
X374017D01*
Y251450D01*
X373985D01*
Y251439D01*
X373963D01*
Y251428D01*
X373941D01*
Y251417D01*
X373930D01*
Y251407D01*
X373919D01*
Y251396D01*
X373897D01*
Y251385D01*
X373875D01*
Y251374D01*
X373854D01*
Y251363D01*
X373843D01*
Y251352D01*
X373821D01*
Y251341D01*
X373799D01*
Y251330D01*
X373777D01*
Y251319D01*
X373756D01*
Y251308D01*
X373745D01*
Y251298D01*
X373723D01*
Y251287D01*
X373701D01*
Y251276D01*
X373690D01*
Y251265D01*
X373657D01*
Y251254D01*
X373647D01*
Y251243D01*
X373625D01*
Y251232D01*
X373614D01*
Y251221D01*
X373592D01*
Y251210D01*
X373570D01*
Y251199D01*
X373559D01*
Y251188D01*
X373538D01*
Y251178D01*
X373516D01*
Y251167D01*
X373494D01*
Y251156D01*
X373472D01*
Y251145D01*
X373461D01*
Y251134D01*
X373440D01*
Y251123D01*
X373429D01*
Y251112D01*
X373407D01*
Y251101D01*
X373385D01*
Y251090D01*
X373363D01*
Y251080D01*
X373341D01*
Y251069D01*
X373330D01*
Y251058D01*
X373298D01*
Y251047D01*
X373287D01*
Y251036D01*
X373265D01*
Y251025D01*
X373243D01*
Y251014D01*
X373232D01*
Y251003D01*
X373211D01*
Y250992D01*
X373200D01*
Y250981D01*
X373167D01*
Y250971D01*
X373156D01*
Y250960D01*
X373134D01*
Y250949D01*
X373113D01*
Y250938D01*
X373102D01*
Y250927D01*
X373080D01*
Y250916D01*
X373058D01*
Y250905D01*
X373047D01*
Y250894D01*
X373025D01*
Y250883D01*
X373014D01*
Y250872D01*
X372982D01*
Y250862D01*
X372971D01*
Y250851D01*
X372949D01*
Y250840D01*
X372927D01*
Y250829D01*
X372916D01*
Y250818D01*
X372895D01*
Y250807D01*
X372884D01*
Y250796D01*
X372851D01*
Y250785D01*
X372840D01*
Y250774D01*
X372818D01*
Y250763D01*
X372796D01*
Y250752D01*
X372775D01*
Y250742D01*
X372753D01*
Y250731D01*
X372742D01*
Y250720D01*
X372720D01*
Y250709D01*
X372709D01*
Y250698D01*
X372687D01*
Y250687D01*
X372666D01*
Y250676D01*
X372655D01*
Y250665D01*
X372622D01*
Y250654D01*
X372611D01*
Y250643D01*
X372589D01*
Y250633D01*
X372567D01*
Y250622D01*
X372556D01*
Y250611D01*
X372535D01*
Y250600D01*
X372524D01*
Y250589D01*
X372491D01*
Y250578D01*
X372480D01*
Y250567D01*
X372458D01*
Y250556D01*
X372437D01*
Y250545D01*
X372415D01*
Y250535D01*
X372393D01*
Y250524D01*
X372382D01*
Y250513D01*
X372360D01*
Y250502D01*
X372349D01*
Y250491D01*
X372328D01*
Y250480D01*
X372306D01*
Y250469D01*
X372295D01*
Y250458D01*
X372262D01*
Y250447D01*
X372251D01*
Y250436D01*
X372240D01*
Y250426D01*
X372219D01*
Y250415D01*
X372197D01*
Y250404D01*
X372175D01*
Y250393D01*
X372164D01*
Y250382D01*
X372142D01*
Y250371D01*
X372120D01*
Y250360D01*
X372099D01*
Y250349D01*
X372077D01*
Y250338D01*
X372066D01*
Y250327D01*
X372044D01*
Y250317D01*
X372022D01*
Y250306D01*
X372011D01*
Y250295D01*
X371990D01*
Y250284D01*
X371968D01*
Y250273D01*
X371946D01*
Y250262D01*
X371924D01*
Y250251D01*
X371902D01*
Y250240D01*
X371892D01*
Y250229D01*
X371881D01*
Y250218D01*
X371859D01*
Y250207D01*
X371837D01*
Y250197D01*
X371815D01*
Y250186D01*
X371794D01*
Y250175D01*
X371783D01*
Y250164D01*
X371750D01*
Y250153D01*
X371739D01*
Y250142D01*
X371717D01*
Y250131D01*
X371706D01*
Y250120D01*
X371685D01*
Y250109D01*
X371663D01*
Y250098D01*
X371652D01*
Y250088D01*
X371619D01*
Y250077D01*
X371608D01*
Y250066D01*
X371586D01*
Y250055D01*
X371575D01*
Y250044D01*
X371554D01*
Y250033D01*
X371532D01*
Y250022D01*
X371521D01*
Y250011D01*
X371488D01*
Y250000D01*
X371477D01*
Y249990D01*
X371456D01*
Y249979D01*
X371434D01*
Y249968D01*
X371423D01*
Y249957D01*
X371390D01*
Y249946D01*
X371379D01*
Y249935D01*
X371357D01*
Y249924D01*
X371346D01*
Y249913D01*
X371325D01*
Y249902D01*
X371303D01*
Y249891D01*
X371292D01*
Y249881D01*
X371259D01*
Y249869D01*
X371248D01*
Y249859D01*
X371227D01*
Y249848D01*
X371205D01*
Y249837D01*
X371194D01*
Y249826D01*
X371172D01*
Y249815D01*
X371161D01*
Y249804D01*
X371129D01*
Y249793D01*
X371118D01*
Y249782D01*
X371096D01*
Y249771D01*
X371074D01*
Y249761D01*
X371063D01*
Y249750D01*
X371041D01*
Y249739D01*
X371030D01*
Y249728D01*
X371009D01*
Y249717D01*
X370987D01*
Y249706D01*
X370976D01*
Y249695D01*
X370943D01*
Y249684D01*
X370932D01*
Y249673D01*
X370900D01*
Y249662D01*
X370889D01*
Y249652D01*
X370878D01*
Y249641D01*
X370856D01*
Y249630D01*
X370845D01*
Y249619D01*
X370812D01*
Y249608D01*
X370801D01*
Y249597D01*
X370780D01*
Y249586D01*
X370758D01*
Y249575D01*
X370736D01*
Y249564D01*
X370714D01*
Y249553D01*
X370703D01*
Y249542D01*
X370682D01*
Y249532D01*
X370671D01*
Y249521D01*
X370649D01*
Y249510D01*
X370627D01*
Y249499D01*
X370616D01*
Y249488D01*
X370584D01*
Y249477D01*
X370573D01*
Y249466D01*
X370540D01*
Y249455D01*
X370529D01*
Y249444D01*
X370518D01*
Y249433D01*
X370496D01*
Y249423D01*
X370485D01*
Y249412D01*
X370453D01*
Y249401D01*
X370442D01*
Y249390D01*
X370420D01*
Y249379D01*
X370398D01*
Y249368D01*
X370387D01*
Y249357D01*
X370366D01*
Y249346D01*
X370344D01*
Y249335D01*
X370322D01*
Y249324D01*
X370311D01*
Y249314D01*
X370289D01*
Y249303D01*
X370267D01*
Y249292D01*
X370246D01*
Y249281D01*
X370224D01*
Y249270D01*
X370213D01*
Y249259D01*
X370191D01*
Y249248D01*
X370180D01*
Y249237D01*
X370158D01*
Y249226D01*
X370136D01*
Y249216D01*
X370115D01*
Y249205D01*
X370093D01*
Y249194D01*
X370071D01*
Y249183D01*
X370060D01*
Y249172D01*
X370038D01*
Y249161D01*
X370027D01*
Y249150D01*
X370006D01*
Y249139D01*
X369984D01*
Y249128D01*
X369973D01*
Y249117D01*
X369940D01*
Y249107D01*
X369929D01*
Y249096D01*
X369908D01*
Y249085D01*
X369886D01*
Y249074D01*
X369864D01*
Y249063D01*
X369853D01*
Y249052D01*
X369831D01*
Y249041D01*
X369810D01*
Y249030D01*
X369799D01*
Y249019D01*
X369777D01*
Y249008D01*
X369755D01*
Y248997D01*
X369733D01*
Y248987D01*
X369711D01*
Y248976D01*
X369701D01*
Y248965D01*
X369679D01*
Y248954D01*
X369668D01*
Y248943D01*
X369646D01*
Y248932D01*
X369624D01*
Y248921D01*
X369613D01*
Y248910D01*
X369581D01*
Y248899D01*
X369570D01*
Y248888D01*
X369548D01*
Y248878D01*
X369526D01*
Y248867D01*
X369515D01*
Y248856D01*
X369493D01*
Y248845D01*
X369482D01*
Y248834D01*
X369450D01*
Y248823D01*
X369439D01*
Y248812D01*
X369417D01*
Y248801D01*
X369395D01*
Y248790D01*
X369373D01*
Y248780D01*
X369352D01*
Y248769D01*
X369341D01*
Y248758D01*
X369319D01*
Y248747D01*
X369308D01*
Y248736D01*
X369286D01*
Y248725D01*
X369265D01*
Y248714D01*
X369254D01*
Y248703D01*
X369221D01*
Y248692D01*
X369210D01*
Y248681D01*
X369199D01*
Y248671D01*
X369177D01*
Y248660D01*
X369156D01*
Y248649D01*
X369134D01*
Y248638D01*
X369123D01*
Y248627D01*
X369090D01*
Y248616D01*
X369079D01*
Y248605D01*
X369057D01*
Y248594D01*
X369036D01*
Y248583D01*
X369025D01*
Y248572D01*
X369003D01*
Y248562D01*
X368992D01*
Y248551D01*
X368959D01*
Y248540D01*
X368948D01*
Y248529D01*
X368937D01*
Y248518D01*
X368905D01*
Y248507D01*
X368894D01*
Y248496D01*
X368861D01*
Y248485D01*
X368850D01*
Y248474D01*
X368839D01*
Y248463D01*
X368817D01*
Y248452D01*
X368807D01*
Y248442D01*
X368774D01*
Y248431D01*
X368763D01*
Y248420D01*
X368741D01*
Y248409D01*
X368720D01*
Y248398D01*
X368698D01*
Y248387D01*
X368676D01*
Y248376D01*
X368665D01*
Y248365D01*
X368643D01*
Y248354D01*
X368632D01*
Y248343D01*
X368610D01*
Y248333D01*
X368589D01*
Y248322D01*
X368567D01*
Y248311D01*
X368545D01*
Y248300D01*
X368534D01*
Y248289D01*
X368512D01*
Y248278D01*
X368491D01*
Y248267D01*
X368480D01*
Y248256D01*
X368458D01*
Y248245D01*
X368447D01*
Y248234D01*
X368414D01*
Y248223D01*
X368392D01*
Y248213D01*
X368382D01*
Y248202D01*
X368360D01*
Y248191D01*
X368349D01*
Y248180D01*
X368327D01*
Y248169D01*
X368305D01*
Y248158D01*
X368283D01*
Y248147D01*
X368262D01*
Y248136D01*
X368251D01*
Y248125D01*
X368229D01*
Y248114D01*
X368207D01*
Y248104D01*
X368185D01*
Y248093D01*
X368174D01*
Y248082D01*
X368153D01*
Y248071D01*
X368131D01*
Y248060D01*
X368120D01*
Y248049D01*
X368087D01*
Y248038D01*
X368076D01*
Y248027D01*
X368055D01*
Y248016D01*
X368033D01*
Y248006D01*
X368011D01*
Y247995D01*
X368000D01*
Y247984D01*
X367989D01*
Y247973D01*
X367967D01*
Y247962D01*
X367946D01*
Y247951D01*
X367935D01*
Y247940D01*
X367902D01*
Y247929D01*
X367891D01*
Y247918D01*
X367869D01*
Y247907D01*
X367858D01*
Y247897D01*
X367836D01*
Y247886D01*
X367815D01*
Y247875D01*
X367804D01*
Y247864D01*
X367771D01*
Y247853D01*
X367760D01*
Y247842D01*
X367738D01*
Y247831D01*
X367717D01*
Y247820D01*
X367695D01*
Y247809D01*
X367673D01*
Y247831D01*
X367684D01*
Y247842D01*
X367695D01*
Y247853D01*
X367706D01*
Y247875D01*
X367717D01*
Y247897D01*
X367727D01*
Y247918D01*
X367738D01*
Y247929D01*
X367749D01*
Y247962D01*
X367760D01*
Y247973D01*
X367771D01*
Y247995D01*
X367782D01*
Y248016D01*
X367793D01*
Y248027D01*
X367804D01*
Y248049D01*
X367815D01*
Y248060D01*
X367826D01*
Y248093D01*
X367836D01*
Y248104D01*
X367847D01*
Y248136D01*
X367858D01*
Y248147D01*
X367869D01*
Y248158D01*
X367880D01*
Y248191D01*
X367891D01*
Y248202D01*
X367902D01*
Y248223D01*
X367913D01*
Y248234D01*
X367924D01*
Y248256D01*
X367935D01*
Y248278D01*
X367946D01*
Y248289D01*
X367956D01*
Y248322D01*
X367967D01*
Y248333D01*
X367978D01*
Y248354D01*
X367989D01*
Y248376D01*
X368000D01*
Y248387D01*
X368011D01*
Y248409D01*
X368022D01*
Y248420D01*
X368033D01*
Y248452D01*
X368044D01*
Y248463D01*
X368055D01*
Y248485D01*
X368065D01*
Y248507D01*
X368076D01*
Y248518D01*
X368087D01*
Y248540D01*
X368098D01*
Y248562D01*
X368109D01*
Y248583D01*
X368120D01*
Y248594D01*
X368131D01*
Y248616D01*
X368142D01*
Y248638D01*
X368153D01*
Y248649D01*
X368163D01*
Y248681D01*
X368174D01*
Y248692D01*
X368185D01*
Y248703D01*
X368196D01*
Y248725D01*
X368207D01*
Y248747D01*
X368218D01*
Y248769D01*
X368229D01*
Y248780D01*
X368240D01*
Y248812D01*
X368251D01*
Y248834D01*
X368262D01*
Y248845D01*
X368272D01*
Y248867D01*
X368283D01*
Y248878D01*
X368294D01*
Y248899D01*
X368305D01*
Y248910D01*
X368316D01*
Y248943D01*
X368327D01*
Y248965D01*
X368338D01*
Y248976D01*
X368349D01*
Y249008D01*
X368360D01*
Y249019D01*
X368371D01*
Y249041D01*
X368382D01*
Y249052D01*
X368392D01*
Y249063D01*
X368403D01*
Y249085D01*
X368414D01*
Y249107D01*
X368425D01*
Y249128D01*
X368436D01*
Y249150D01*
X368447D01*
Y249161D01*
X368458D01*
Y249194D01*
X368480D01*
Y249216D01*
X368491D01*
Y249237D01*
X368501D01*
Y249259D01*
X368512D01*
Y249281D01*
X368523D01*
Y249292D01*
X368534D01*
Y249324D01*
X368545D01*
Y249335D01*
X368556D01*
Y249357D01*
X368567D01*
Y249368D01*
X368578D01*
Y249390D01*
X368589D01*
Y249412D01*
X368600D01*
Y249423D01*
X368610D01*
Y249455D01*
X368621D01*
Y249466D01*
X368632D01*
Y249499D01*
X368643D01*
Y249510D01*
X368654D01*
Y249521D01*
X368665D01*
Y249542D01*
X368676D01*
Y249553D01*
X368687D01*
Y249575D01*
X368698D01*
Y249597D01*
X368709D01*
Y249619D01*
X368720D01*
Y249641D01*
X368730D01*
Y249652D01*
X368741D01*
Y249684D01*
X368752D01*
Y249695D01*
X368763D01*
Y249706D01*
X368774D01*
Y249728D01*
X368785D01*
Y249750D01*
X368796D01*
Y249771D01*
X368807D01*
Y249782D01*
X368817D01*
Y249815D01*
X368829D01*
Y249826D01*
X368839D01*
Y249848D01*
X368850D01*
Y249869D01*
X368861D01*
Y249881D01*
X368872D01*
Y249902D01*
X368883D01*
Y249913D01*
X368894D01*
Y249935D01*
X368905D01*
Y249957D01*
X368916D01*
Y249979D01*
X368927D01*
Y250000D01*
X368937D01*
Y250011D01*
X368948D01*
Y250044D01*
X368959D01*
Y250055D01*
X368970D01*
Y250066D01*
X368981D01*
Y250088D01*
X368992D01*
Y250109D01*
X369003D01*
Y250131D01*
X369014D01*
Y250142D01*
X369025D01*
Y250175D01*
X369036D01*
Y250186D01*
X369046D01*
Y250207D01*
X369057D01*
Y250229D01*
X369068D01*
Y250240D01*
X369079D01*
Y250262D01*
X369090D01*
Y250273D01*
X369101D01*
Y250295D01*
X369112D01*
Y250317D01*
X369123D01*
Y250327D01*
X369134D01*
Y250360D01*
X369145D01*
Y250371D01*
X369156D01*
Y250382D01*
X369166D01*
Y250415D01*
X369177D01*
Y250426D01*
X369188D01*
Y250447D01*
X369199D01*
Y250458D01*
X369210D01*
Y250491D01*
X369221D01*
Y250502D01*
X369232D01*
Y250524D01*
X369243D01*
Y250545D01*
X369254D01*
Y250556D01*
X369265D01*
Y250578D01*
X369275D01*
Y250600D01*
X369286D01*
Y250622D01*
X369297D01*
Y250633D01*
X369308D01*
Y250654D01*
X369319D01*
Y250687D01*
X369330D01*
Y250698D01*
X369341D01*
Y250720D01*
X369352D01*
Y250731D01*
X369363D01*
Y250742D01*
X369373D01*
Y250763D01*
X369384D01*
Y250785D01*
X369395D01*
Y250807D01*
X369406D01*
Y250818D01*
X369417D01*
Y250851D01*
X369428D01*
Y250872D01*
X369439D01*
Y250883D01*
X369450D01*
Y250905D01*
X369461D01*
Y250916D01*
X369472D01*
Y250938D01*
X369482D01*
Y250960D01*
X369493D01*
Y250981D01*
X369504D01*
Y251003D01*
X369515D01*
Y251014D01*
X369526D01*
Y251047D01*
X369537D01*
Y251058D01*
X369548D01*
Y251069D01*
X369559D01*
Y251090D01*
X369570D01*
Y251112D01*
X369581D01*
Y251134D01*
X369591D01*
Y251145D01*
X369602D01*
Y251178D01*
X369613D01*
Y251188D01*
X369624D01*
Y251199D01*
X369635D01*
Y251232D01*
X369646D01*
Y251243D01*
X369657D01*
Y251254D01*
X369668D01*
Y251276D01*
X369679D01*
Y251298D01*
X369690D01*
Y251319D01*
X369701D01*
Y251330D01*
X369711D01*
Y251363D01*
X369722D01*
Y251374D01*
X369733D01*
Y251396D01*
X369744D01*
Y251417D01*
X369755D01*
Y251428D01*
X369766D01*
Y251450D01*
X369777D01*
Y251461D01*
X369788D01*
Y251494D01*
X369799D01*
Y251505D01*
X369810D01*
Y251537D01*
X369820D01*
Y251548D01*
X369831D01*
Y251559D01*
X369842D01*
Y251592D01*
X369853D01*
Y251603D01*
X369864D01*
Y251614D01*
X369875D01*
Y251636D01*
X369886D01*
Y251657D01*
X369897D01*
Y251679D01*
X369908D01*
Y251690D01*
X369918D01*
Y251723D01*
X369929D01*
Y251734D01*
X369940D01*
Y251745D01*
X369951D01*
Y251777D01*
X369962D01*
Y251788D01*
X369973D01*
Y251810D01*
X369984D01*
Y251821D01*
X369995D01*
Y251853D01*
X370006D01*
Y251864D01*
X370017D01*
Y251886D01*
X370027D01*
Y251908D01*
X370038D01*
Y251919D01*
X370049D01*
Y251941D01*
X370060D01*
Y251962D01*
X370071D01*
Y251984D01*
X370082D01*
Y251995D01*
X370093D01*
Y252017D01*
X370104D01*
Y252039D01*
X370115D01*
Y252050D01*
X370126D01*
Y252082D01*
X370136D01*
Y252093D01*
X370147D01*
Y252104D01*
X370158D01*
Y252126D01*
X370169D01*
Y252148D01*
X370180D01*
Y252170D01*
X370191D01*
Y252181D01*
X370202D01*
Y252213D01*
X370213D01*
Y252224D01*
X370224D01*
Y252246D01*
X370235D01*
Y252268D01*
X370246D01*
Y252279D01*
X370256D01*
Y252300D01*
X370267D01*
Y252311D01*
X370278D01*
Y252344D01*
X370289D01*
Y252355D01*
X370300D01*
Y252377D01*
X370311D01*
Y252398D01*
X370322D01*
Y252409D01*
X370333D01*
Y252420D01*
X370344D01*
Y252453D01*
X370355D01*
Y252464D01*
X370366D01*
Y252486D01*
X370376D01*
Y252507D01*
X370387D01*
Y252529D01*
X370398D01*
Y252551D01*
X370409D01*
Y252562D01*
X370420D01*
Y252595D01*
X370442D01*
Y252617D01*
X370453D01*
Y252638D01*
X370464D01*
Y252660D01*
X370475D01*
Y252682D01*
X370485D01*
Y252693D01*
X370496D01*
Y252726D01*
X370507D01*
Y252736D01*
X370518D01*
Y252758D01*
X370529D01*
Y252769D01*
X370540D01*
Y252791D01*
X370551D01*
Y252813D01*
X370562D01*
Y252824D01*
X370573D01*
Y252856D01*
X370584D01*
Y252867D01*
X370594D01*
Y252900D01*
X370605D01*
Y252911D01*
X370616D01*
Y252922D01*
X370627D01*
Y252944D01*
X370638D01*
Y252955D01*
X370649D01*
Y252976D01*
X370660D01*
Y252998D01*
X370671D01*
Y253020D01*
X370682D01*
Y253042D01*
X370692D01*
Y253053D01*
X370703D01*
Y253085D01*
X370714D01*
Y253096D01*
X370725D01*
Y253107D01*
X370736D01*
Y253129D01*
X370747D01*
Y253151D01*
X370758D01*
Y253172D01*
X370769D01*
Y253183D01*
X370780D01*
Y253216D01*
X370791D01*
Y253227D01*
X370801D01*
Y253249D01*
X370812D01*
Y253271D01*
X370823D01*
Y253281D01*
X370834D01*
Y253303D01*
X370845D01*
Y253314D01*
X370856D01*
Y253336D01*
X370867D01*
Y253358D01*
X370878D01*
Y253380D01*
X370889D01*
Y253401D01*
X370900D01*
Y253412D01*
X370911D01*
Y253445D01*
X370921D01*
Y253456D01*
X370932D01*
Y253467D01*
X370943D01*
Y253489D01*
X370954D01*
Y253510D01*
X370965D01*
Y253532D01*
X370976D01*
Y253543D01*
X370987D01*
Y253576D01*
X370998D01*
Y253587D01*
X371009D01*
Y253598D01*
X371020D01*
Y253630D01*
X371030D01*
Y253641D01*
X371041D01*
Y253663D01*
X371052D01*
Y253674D01*
X371063D01*
Y253696D01*
X371074D01*
Y253717D01*
X371085D01*
Y253728D01*
X371096D01*
Y253761D01*
X371107D01*
Y253772D01*
X371118D01*
Y253783D01*
X371129D01*
Y253816D01*
X371139D01*
Y253826D01*
X371150D01*
Y253848D01*
X371161D01*
Y253859D01*
X371172D01*
Y253892D01*
X371183D01*
Y253903D01*
X371194D01*
Y253925D01*
X371205D01*
Y253946D01*
X371216D01*
Y253957D01*
X371227D01*
Y253979D01*
X371237D01*
Y254001D01*
X371248D01*
Y254023D01*
X371259D01*
Y254034D01*
X371270D01*
Y254056D01*
X371281D01*
Y254088D01*
X371303D01*
Y254121D01*
X371314D01*
Y254132D01*
X371325D01*
Y254143D01*
X371336D01*
Y254165D01*
X371346D01*
Y254186D01*
X371357D01*
Y254208D01*
X371368D01*
Y254219D01*
X371379D01*
Y254252D01*
X371390D01*
Y254274D01*
X371401D01*
Y254284D01*
X371412D01*
Y254306D01*
X371423D01*
Y254317D01*
X371434D01*
Y254339D01*
X371445D01*
Y254361D01*
X371456D01*
Y254382D01*
X371466D01*
Y254404D01*
X371477D01*
Y254415D01*
X371488D01*
Y254448D01*
X371510D01*
Y254470D01*
X371521D01*
Y254491D01*
X371532D01*
Y254513D01*
X371543D01*
Y254535D01*
X371554D01*
Y254546D01*
X371565D01*
Y254579D01*
X371575D01*
Y254590D01*
X371586D01*
Y254601D01*
X371597D01*
Y254633D01*
X371619D01*
Y254655D01*
X371630D01*
Y254677D01*
X371641D01*
Y254699D01*
X371652D01*
Y254720D01*
X371663D01*
Y254731D01*
X371674D01*
Y254764D01*
X371685D01*
Y254775D01*
X371695D01*
Y254797D01*
X371706D01*
Y254819D01*
X371717D01*
Y254829D01*
X371728D01*
Y254851D01*
X371739D01*
Y254862D01*
X371750D01*
Y254895D01*
X371761D01*
Y254906D01*
X371772D01*
Y254938D01*
X371783D01*
Y254949D01*
X371794D01*
Y254960D01*
X371804D01*
Y254993D01*
X371815D01*
Y255004D01*
X371826D01*
Y255015D01*
X371837D01*
Y255036D01*
X371870D01*
Y255026D01*
D02*
G37*
G36*
X164052Y210279D02*
X164031D01*
Y210300D01*
X164052D01*
Y210279D01*
D02*
G37*
%LPC*%
G36*
X382923Y248594D02*
X382716D01*
Y248583D01*
X382694D01*
Y248572D01*
X382640D01*
Y248562D01*
X382629D01*
Y248551D01*
X382596D01*
Y248540D01*
X382574D01*
Y248529D01*
X382563D01*
Y248518D01*
X382542D01*
Y248507D01*
X382531D01*
Y248496D01*
X382509D01*
Y248485D01*
X382498D01*
Y248474D01*
X382487D01*
Y248463D01*
X382476D01*
Y248452D01*
X382465D01*
Y248442D01*
X382454D01*
Y248431D01*
X382444D01*
Y248409D01*
X382433D01*
Y248398D01*
X382422D01*
Y248376D01*
X382411D01*
Y248365D01*
X382400D01*
Y248354D01*
X382389D01*
Y248322D01*
X382378D01*
Y248311D01*
X382367D01*
Y248267D01*
X382356D01*
Y248245D01*
X382346D01*
Y248234D01*
X382334D01*
Y248180D01*
X382324D01*
Y248158D01*
X382313D01*
Y248104D01*
X382302D01*
Y248093D01*
X382291D01*
Y248071D01*
X382280D01*
Y248016D01*
X382269D01*
Y248006D01*
X382258D01*
Y247940D01*
X382247D01*
Y247918D01*
X382237D01*
Y247875D01*
X382226D01*
Y247853D01*
X382215D01*
Y247820D01*
X382204D01*
Y247755D01*
X382193D01*
Y247733D01*
X382182D01*
Y247657D01*
X382171D01*
Y247635D01*
X382160D01*
Y247602D01*
X382149D01*
Y247515D01*
X382138D01*
Y247439D01*
X382127D01*
Y247319D01*
X382138D01*
Y247275D01*
X382149D01*
Y247242D01*
X382160D01*
Y247232D01*
X382182D01*
Y247221D01*
X382193D01*
Y247210D01*
X382356D01*
Y247221D01*
X382367D01*
Y247232D01*
X382389D01*
Y247242D01*
X382411D01*
Y247253D01*
X382422D01*
Y247264D01*
X382433D01*
Y247275D01*
X382444D01*
Y247286D01*
X382454D01*
Y247297D01*
X382465D01*
Y247308D01*
X382476D01*
Y247319D01*
X382487D01*
Y247330D01*
X382498D01*
Y247352D01*
X382509D01*
Y247362D01*
X382520D01*
Y247384D01*
X382531D01*
Y247395D01*
X382542D01*
Y247406D01*
X382553D01*
Y247428D01*
X382563D01*
Y247439D01*
X382574D01*
Y247450D01*
X382585D01*
Y247461D01*
X382596D01*
Y247482D01*
X382607D01*
Y247493D01*
X382618D01*
Y247504D01*
X382629D01*
Y247526D01*
X382640D01*
Y247537D01*
X382651D01*
Y247559D01*
X382662D01*
Y247569D01*
X382673D01*
Y247591D01*
X382683D01*
Y247613D01*
X382694D01*
Y247624D01*
X382705D01*
Y247635D01*
X382716D01*
Y247657D01*
X382727D01*
Y247668D01*
X382738D01*
Y247689D01*
X382749D01*
Y247700D01*
X382760D01*
Y247722D01*
X382771D01*
Y247733D01*
X382782D01*
Y247755D01*
X382792D01*
Y247777D01*
X382803D01*
Y247787D01*
X382814D01*
Y247820D01*
X382825D01*
Y247831D01*
X382836D01*
Y247842D01*
X382847D01*
Y247864D01*
X382858D01*
Y247886D01*
X382869D01*
Y247907D01*
X382880D01*
Y247929D01*
X382891D01*
Y247951D01*
X382901D01*
Y247973D01*
X382912D01*
Y247995D01*
X382923D01*
Y248027D01*
X382934D01*
Y248049D01*
X382945D01*
Y248071D01*
X382956D01*
Y248093D01*
X382967D01*
Y248125D01*
X382978D01*
Y248147D01*
X382989D01*
Y248169D01*
X382999D01*
Y248213D01*
X383010D01*
Y248256D01*
X383021D01*
Y248289D01*
X383032D01*
Y248343D01*
X383043D01*
Y248485D01*
X383032D01*
Y248507D01*
X383021D01*
Y248540D01*
X383010D01*
Y248551D01*
X382999D01*
Y248562D01*
X382989D01*
Y248572D01*
X382945D01*
Y248583D01*
X382923D01*
Y248594D01*
D02*
G37*
G36*
X379413Y248856D02*
X379271D01*
Y248845D01*
X379250D01*
Y248834D01*
X379195D01*
Y248823D01*
X379184D01*
Y248812D01*
X379152D01*
Y248801D01*
X379130D01*
Y248790D01*
X379119D01*
Y248780D01*
X379097D01*
Y248769D01*
X379086D01*
Y248758D01*
X379053D01*
Y248747D01*
X379043D01*
Y248736D01*
X379032D01*
Y248725D01*
X379010D01*
Y248714D01*
X378999D01*
Y248703D01*
X378988D01*
Y248692D01*
X378977D01*
Y248681D01*
X378966D01*
Y248671D01*
X378955D01*
Y248660D01*
X378944D01*
Y248638D01*
X378934D01*
Y248627D01*
X378923D01*
Y248616D01*
X378912D01*
Y248594D01*
X378901D01*
Y248583D01*
X378890D01*
Y248562D01*
X378879D01*
Y248540D01*
X378868D01*
Y248518D01*
X378857D01*
Y248496D01*
X378846D01*
Y248463D01*
X378835D01*
Y248376D01*
X378824D01*
Y248343D01*
X378814D01*
Y248333D01*
X378824D01*
Y248191D01*
X378835D01*
Y248125D01*
X378846D01*
Y248093D01*
X378857D01*
Y248060D01*
X378868D01*
Y248027D01*
X378879D01*
Y248006D01*
X378890D01*
Y247962D01*
X378901D01*
Y247951D01*
X378912D01*
Y247918D01*
X378923D01*
Y247907D01*
X378934D01*
Y247886D01*
X378944D01*
Y247864D01*
X378955D01*
Y247853D01*
X378966D01*
Y247831D01*
X378977D01*
Y247809D01*
X378988D01*
Y247787D01*
X378999D01*
Y247777D01*
X379010D01*
Y247766D01*
X379021D01*
Y247744D01*
X379032D01*
Y247733D01*
X379043D01*
Y247722D01*
X379053D01*
Y247700D01*
X379064D01*
Y247689D01*
X379075D01*
Y247678D01*
X379086D01*
Y247668D01*
X379097D01*
Y247657D01*
X379108D01*
Y247646D01*
X379119D01*
Y247624D01*
X379130D01*
Y247613D01*
X379141D01*
Y247602D01*
X379152D01*
Y247591D01*
X379162D01*
Y247580D01*
X379173D01*
Y247569D01*
X379184D01*
Y247559D01*
X379195D01*
Y247548D01*
X379206D01*
Y247537D01*
X379217D01*
Y247526D01*
X379228D01*
Y247504D01*
X379250D01*
Y247493D01*
X379260D01*
Y247471D01*
X379282D01*
Y247450D01*
X379304D01*
Y247439D01*
X379315D01*
Y247428D01*
X379326D01*
Y247417D01*
X379337D01*
Y247395D01*
X379359D01*
Y247384D01*
X379369D01*
Y247373D01*
X379380D01*
Y247362D01*
X379391D01*
Y247352D01*
X379402D01*
Y247341D01*
X379413D01*
Y247330D01*
X379424D01*
Y247319D01*
X379435D01*
Y247308D01*
X379446D01*
Y247297D01*
X379457D01*
Y247286D01*
X379479D01*
Y247275D01*
X379489D01*
Y247264D01*
X379500D01*
Y247253D01*
X379511D01*
Y247242D01*
X379533D01*
Y247232D01*
X379544D01*
Y247221D01*
X379555D01*
Y247210D01*
X379577D01*
Y247199D01*
X379588D01*
Y247188D01*
X379598D01*
Y247177D01*
X379620D01*
Y247166D01*
X379631D01*
Y247155D01*
X379664D01*
Y247144D01*
X379675D01*
Y247133D01*
X379708D01*
Y247123D01*
X379729D01*
Y247112D01*
X379740D01*
Y247101D01*
X379784D01*
Y247090D01*
X379806D01*
Y247079D01*
X379969D01*
Y247090D01*
X380002D01*
Y247101D01*
X380024D01*
Y247112D01*
X380034D01*
Y247123D01*
X380045D01*
Y247133D01*
X380056D01*
Y247144D01*
X380067D01*
Y247155D01*
X380078D01*
Y247166D01*
X380089D01*
Y247177D01*
X380100D01*
Y247188D01*
X380111D01*
Y247199D01*
X380122D01*
Y247221D01*
X380133D01*
Y247232D01*
X380143D01*
Y247242D01*
X380154D01*
Y247253D01*
X380165D01*
Y247275D01*
X380176D01*
Y247286D01*
Y247297D01*
Y247308D01*
X380187D01*
Y247319D01*
X380198D01*
Y247352D01*
X380209D01*
Y247362D01*
X380220D01*
Y247395D01*
X380231D01*
Y247439D01*
X380242D01*
Y247461D01*
X380253D01*
Y247526D01*
X380263D01*
Y247733D01*
X380253D01*
Y247809D01*
X380242D01*
Y247864D01*
X380231D01*
Y247897D01*
X380220D01*
Y247940D01*
X380209D01*
Y247951D01*
X380198D01*
Y247984D01*
X380187D01*
Y248006D01*
X380176D01*
Y248027D01*
X380165D01*
Y248049D01*
X380154D01*
Y248060D01*
X380143D01*
Y248093D01*
X380133D01*
Y248104D01*
X380122D01*
Y248125D01*
X380111D01*
Y248136D01*
X380100D01*
Y248158D01*
X380089D01*
Y248180D01*
X380078D01*
Y248191D01*
X380067D01*
Y248202D01*
X380056D01*
Y248213D01*
X380045D01*
Y248234D01*
X380034D01*
Y248245D01*
X380024D01*
Y248256D01*
X380013D01*
Y248278D01*
X380002D01*
Y248289D01*
X379991D01*
Y248311D01*
X379980D01*
Y248322D01*
X379969D01*
Y248333D01*
X379958D01*
Y248354D01*
X379947D01*
Y248365D01*
X379936D01*
Y248387D01*
X379925D01*
Y248398D01*
X379915D01*
Y248409D01*
X379904D01*
Y248431D01*
X379893D01*
Y248442D01*
X379882D01*
Y248452D01*
X379871D01*
Y248463D01*
X379860D01*
Y248485D01*
X379849D01*
Y248496D01*
X379838D01*
Y248507D01*
X379827D01*
Y248518D01*
X379817D01*
Y248529D01*
X379806D01*
Y248551D01*
X379795D01*
Y248562D01*
X379784D01*
Y248572D01*
X379773D01*
Y248594D01*
X379751D01*
Y248616D01*
X379740D01*
Y248627D01*
X379729D01*
Y248638D01*
X379718D01*
Y248649D01*
X379708D01*
Y248660D01*
X379697D01*
Y248671D01*
X379686D01*
Y248681D01*
X379675D01*
Y248692D01*
X379664D01*
Y248703D01*
X379653D01*
Y248714D01*
X379642D01*
Y248725D01*
X379631D01*
Y248736D01*
X379620D01*
Y248747D01*
X379598D01*
Y248758D01*
X379588D01*
Y248769D01*
X379577D01*
Y248780D01*
X379555D01*
Y248790D01*
X379544D01*
Y248801D01*
X379533D01*
Y248812D01*
X379500D01*
Y248823D01*
X379489D01*
Y248834D01*
X379446D01*
Y248845D01*
X379413D01*
Y248856D01*
D02*
G37*
%LPD*%
D10*
X432337Y275841D02*
X429766D01*
X428909Y276127D01*
X428623Y276413D01*
X428338Y276984D01*
Y277841D01*
X428623Y278412D01*
X428909Y278698D01*
X429766Y278984D01*
X432337D01*
Y272985D01*
X426995Y278984D02*
Y272985D01*
Y278984D02*
X424424D01*
X423567Y278698D01*
X423282Y278412D01*
X422996Y277841D01*
Y277270D01*
X423282Y276698D01*
X423567Y276413D01*
X424424Y276127D01*
X426995D01*
X424996D02*
X422996Y272985D01*
X419940Y278984D02*
X420511Y278698D01*
X421082Y278127D01*
X421368Y277555D01*
X421654Y276698D01*
Y275270D01*
X421368Y274413D01*
X421082Y273842D01*
X420511Y273271D01*
X419940Y272985D01*
X418797D01*
X418226Y273271D01*
X417654Y273842D01*
X417369Y274413D01*
X417083Y275270D01*
Y276698D01*
X417369Y277555D01*
X417654Y278127D01*
X418226Y278698D01*
X418797Y278984D01*
X419940D01*
X413684D02*
Y272985D01*
X415683Y278984D02*
X411684D01*
X409256D02*
X409828Y278698D01*
X410399Y278127D01*
X410684Y277555D01*
X410970Y276698D01*
Y275270D01*
X410684Y274413D01*
X410399Y273842D01*
X409828Y273271D01*
X409256Y272985D01*
X408113D01*
X407542Y273271D01*
X406971Y273842D01*
X406685Y274413D01*
X406400Y275270D01*
Y276698D01*
X406685Y277555D01*
X406971Y278127D01*
X407542Y278698D01*
X408113Y278984D01*
X409256D01*
X403000D02*
Y272985D01*
X405000Y278984D02*
X401001D01*
X400287D02*
X398001Y276127D01*
Y272985D01*
X395716Y278984D02*
X398001Y276127D01*
X394945Y275841D02*
X392374D01*
X391517Y276127D01*
X391231Y276413D01*
X390946Y276984D01*
Y277841D01*
X391231Y278412D01*
X391517Y278698D01*
X392374Y278984D01*
X394945D01*
Y272985D01*
X385890Y278984D02*
X389603D01*
Y272985D01*
X385890D01*
X389603Y276127D02*
X387318D01*
X380177Y278984D02*
Y272985D01*
Y278984D02*
X377606D01*
X376749Y278698D01*
X376463Y278412D01*
X376178Y277841D01*
Y277270D01*
X376463Y276698D01*
X376749Y276413D01*
X377606Y276127D01*
X380177D01*
X378177D02*
X376178Y272985D01*
X371122Y278984D02*
X374835D01*
Y272985D01*
X371122D01*
X374835Y276127D02*
X372550D01*
X370122Y278984D02*
X367836Y272985D01*
X365551Y278984D02*
X367836Y272985D01*
X364494Y273556D02*
X364780Y273271D01*
X364494Y272985D01*
X364209Y273271D01*
X364494Y273556D01*
X357896Y277555D02*
Y277841D01*
X357610Y278412D01*
X357324Y278698D01*
X356753Y278984D01*
X355610D01*
X355039Y278698D01*
X354753Y278412D01*
X354468Y277841D01*
Y277270D01*
X354753Y276698D01*
X355325Y275841D01*
X358181Y272985D01*
X354182D01*
D12*
X394246Y302606D02*
Y302793D01*
X394058Y303168D01*
X393871Y303356D01*
X393496Y303543D01*
X392746D01*
X392372Y303356D01*
X392184Y303168D01*
X391997Y302793D01*
Y302418D01*
X392184Y302043D01*
X392559Y301481D01*
X394433Y299607D01*
X391809D01*
X389804Y303543D02*
X390366Y303356D01*
X390741Y302793D01*
X390928Y301856D01*
Y301294D01*
X390741Y300357D01*
X390366Y299794D01*
X389804Y299607D01*
X389429D01*
X388866Y299794D01*
X388492Y300357D01*
X388304Y301294D01*
Y301856D01*
X388492Y302793D01*
X388866Y303356D01*
X389429Y303543D01*
X389804D01*
X387236Y302606D02*
Y302793D01*
X387048Y303168D01*
X386861Y303356D01*
X386486Y303543D01*
X385736D01*
X385361Y303356D01*
X385174Y303168D01*
X384986Y302793D01*
Y302418D01*
X385174Y302043D01*
X385549Y301481D01*
X387423Y299607D01*
X384799D01*
X381669Y303543D02*
X383543D01*
X383731Y301856D01*
X383543Y302043D01*
X382981Y302231D01*
X382419D01*
X381856Y302043D01*
X381481Y301669D01*
X381294Y301106D01*
Y300731D01*
X381481Y300169D01*
X381856Y299794D01*
X382419Y299607D01*
X382981D01*
X383543Y299794D01*
X383731Y299982D01*
X383918Y300357D01*
X380413Y301294D02*
X377039D01*
X375690Y302606D02*
Y302793D01*
X375502Y303168D01*
X375315Y303356D01*
X374940Y303543D01*
X374190D01*
X373815Y303356D01*
X373628Y303168D01*
X373440Y302793D01*
Y302418D01*
X373628Y302043D01*
X374003Y301481D01*
X375877Y299607D01*
X373253D01*
X370123Y302981D02*
X370310Y303356D01*
X370872Y303543D01*
X371247D01*
X371810Y303356D01*
X372185Y302793D01*
X372372Y301856D01*
Y300919D01*
X372185Y300169D01*
X371810Y299794D01*
X371247Y299607D01*
X371060D01*
X370498Y299794D01*
X370123Y300169D01*
X369935Y300731D01*
Y300919D01*
X370123Y301481D01*
X370498Y301856D01*
X371060Y302043D01*
X371247D01*
X371810Y301856D01*
X372185Y301481D01*
X372372Y300919D01*
X419148Y302231D02*
X418023Y299607D01*
X416899Y302231D02*
X418023Y299607D01*
X416261Y302793D02*
X415887Y302981D01*
X415324Y303543D01*
Y299607D01*
X413188Y299982D02*
X413375Y299794D01*
X413188Y299607D01*
X413000Y299794D01*
X413188Y299982D01*
X412138Y302793D02*
X411763Y302981D01*
X411201Y303543D01*
Y299607D01*
X406815Y302231D02*
X407002Y301669D01*
X407377Y301294D01*
X407939Y301106D01*
X408127D01*
X408689Y301294D01*
X409064Y301669D01*
X409251Y302231D01*
Y302418D01*
X409064Y302981D01*
X408689Y303356D01*
X408127Y303543D01*
X407939D01*
X407377Y303356D01*
X407002Y302981D01*
X406815Y302231D01*
Y301294D01*
X407002Y300357D01*
X407377Y299794D01*
X407939Y299607D01*
X408314D01*
X408876Y299794D01*
X409064Y300169D01*
X403872Y303543D02*
X405746Y300919D01*
X402935D01*
X403872Y303543D02*
Y299607D01*
D14*
X431550Y294825D02*
Y286952D01*
Y294825D02*
X428925D01*
X427801Y294450D01*
X427051Y293700D01*
X426676Y292950D01*
X426301Y291826D01*
Y289951D01*
X426676Y288827D01*
X427051Y288077D01*
X427801Y287327D01*
X428925Y286952D01*
X431550D01*
X420041Y292200D02*
Y286952D01*
Y291076D02*
X420791Y291826D01*
X421540Y292200D01*
X422665D01*
X423415Y291826D01*
X424164Y291076D01*
X424539Y289951D01*
Y289201D01*
X424164Y288077D01*
X423415Y287327D01*
X422665Y286952D01*
X421540D01*
X420791Y287327D01*
X420041Y288077D01*
X417942Y292200D02*
Y286952D01*
Y289951D02*
X417567Y291076D01*
X416817Y291826D01*
X416067Y292200D01*
X414943D01*
X409732Y291076D02*
X410482Y291826D01*
X411231Y292200D01*
X412356D01*
X413106Y291826D01*
X413856Y291076D01*
X414230Y289951D01*
Y289201D01*
X413856Y288077D01*
X413106Y287327D01*
X412356Y286952D01*
X411231D01*
X410482Y287327D01*
X409732Y288077D01*
X407670Y292200D02*
X405421Y286952D01*
X403172Y292200D02*
X405421Y286952D01*
X406171Y285453D01*
X406920Y284703D01*
X407670Y284328D01*
X408045D01*
X398111Y294825D02*
Y288827D01*
X398486Y287702D01*
X398861Y287327D01*
X399610Y286952D01*
X400360D01*
X401110Y287327D01*
X401485Y287702D01*
X401860Y288827D01*
Y289576D01*
X396087Y290701D02*
X392713D01*
X391588Y291076D01*
X391213Y291451D01*
X390838Y292200D01*
Y293325D01*
X391213Y294075D01*
X391588Y294450D01*
X392713Y294825D01*
X396087D01*
Y286952D01*
X389076Y292200D02*
Y286952D01*
Y289951D02*
X388702Y291076D01*
X387952Y291826D01*
X387202Y292200D01*
X386077D01*
X383491D02*
X384241Y291826D01*
X384990Y291076D01*
X385365Y289951D01*
Y289201D01*
X384990Y288077D01*
X384241Y287327D01*
X383491Y286952D01*
X382366D01*
X381616Y287327D01*
X380867Y288077D01*
X380492Y289201D01*
Y289951D01*
X380867Y291076D01*
X381616Y291826D01*
X382366Y292200D01*
X383491D01*
X377268Y294825D02*
X376893Y294450D01*
X376518Y294825D01*
X376893Y295199D01*
X377268Y294825D01*
X376893Y292200D02*
Y285828D01*
X377268Y284703D01*
X378018Y284328D01*
X378767D01*
X375056Y289951D02*
X370558D01*
Y290701D01*
X370933Y291451D01*
X371307Y291826D01*
X372057Y292200D01*
X373182D01*
X373932Y291826D01*
X374681Y291076D01*
X375056Y289951D01*
Y289201D01*
X374681Y288077D01*
X373932Y287327D01*
X373182Y286952D01*
X372057D01*
X371307Y287327D01*
X370558Y288077D01*
X364372Y291076D02*
X365122Y291826D01*
X365872Y292200D01*
X366996D01*
X367746Y291826D01*
X368496Y291076D01*
X368871Y289951D01*
Y289201D01*
X368496Y288077D01*
X367746Y287327D01*
X366996Y286952D01*
X365872D01*
X365122Y287327D01*
X364372Y288077D01*
X361561Y294825D02*
Y288452D01*
X361186Y287327D01*
X360436Y286952D01*
X359686D01*
X362685Y292200D02*
X360061D01*
X354438Y291076D02*
X354813Y291826D01*
X355938Y292200D01*
X357062D01*
X358187Y291826D01*
X358562Y291076D01*
X358187Y290326D01*
X357437Y289951D01*
X355563Y289576D01*
X354813Y289201D01*
X354438Y288452D01*
Y288077D01*
X354813Y287327D01*
X355938Y286952D01*
X357062D01*
X358187Y287327D01*
X358562Y288077D01*
M02*
