G04*
G04 #@! TF.GenerationSoftware,Altium Limited,Altium Designer,25.5.2 (35)*
G04*
G04 Layer_Color=255*
%FSLAX25Y25*%
%MOIN*%
G70*
G04*
G04 #@! TF.SameCoordinates,74914265-353A-42BA-94C5-A8DABEA31AB8*
G04*
G04*
G04 #@! TF.FilePolarity,Positive*
G04*
G01*
G75*
%ADD27R,0.03740X0.03740*%
%ADD28R,0.04134X0.03543*%
%ADD29R,0.04331X0.06693*%
%ADD30R,0.03150X0.03543*%
G04:AMPARAMS|DCode=31|XSize=64.5mil|YSize=24.33mil|CornerRadius=12.17mil|HoleSize=0mil|Usage=FLASHONLY|Rotation=90.000|XOffset=0mil|YOffset=0mil|HoleType=Round|Shape=RoundedRectangle|*
%AMROUNDEDRECTD31*
21,1,0.06450,0.00000,0,0,90.0*
21,1,0.04017,0.02433,0,0,90.0*
1,1,0.02433,0.00000,0.02009*
1,1,0.02433,0.00000,-0.02009*
1,1,0.02433,0.00000,-0.02009*
1,1,0.02433,0.00000,0.02009*
%
%ADD31ROUNDEDRECTD31*%
%ADD32O,0.04724X0.09843*%
G04:AMPARAMS|DCode=33|XSize=61.02mil|YSize=23.62mil|CornerRadius=2.01mil|HoleSize=0mil|Usage=FLASHONLY|Rotation=270.000|XOffset=0mil|YOffset=0mil|HoleType=Round|Shape=RoundedRectangle|*
%AMROUNDEDRECTD33*
21,1,0.06102,0.01961,0,0,270.0*
21,1,0.05701,0.02362,0,0,270.0*
1,1,0.00402,-0.00980,-0.02850*
1,1,0.00402,-0.00980,0.02850*
1,1,0.00402,0.00980,0.02850*
1,1,0.00402,0.00980,-0.02850*
%
%ADD33ROUNDEDRECTD33*%
G04:AMPARAMS|DCode=34|XSize=65.3mil|YSize=24.68mil|CornerRadius=12.34mil|HoleSize=0mil|Usage=FLASHONLY|Rotation=0.000|XOffset=0mil|YOffset=0mil|HoleType=Round|Shape=RoundedRectangle|*
%AMROUNDEDRECTD34*
21,1,0.06530,0.00000,0,0,0.0*
21,1,0.04063,0.02468,0,0,0.0*
1,1,0.02468,0.02031,0.00000*
1,1,0.02468,-0.02031,0.00000*
1,1,0.02468,-0.02031,0.00000*
1,1,0.02468,0.02031,0.00000*
%
%ADD34ROUNDEDRECTD34*%
%ADD35R,0.03150X0.03937*%
%ADD36R,0.03150X0.03150*%
%ADD37R,0.08583X0.06754*%
%ADD38R,0.06754X0.08583*%
%ADD39R,0.02756X0.03347*%
G04:AMPARAMS|DCode=40|XSize=64.5mil|YSize=24.33mil|CornerRadius=12.17mil|HoleSize=0mil|Usage=FLASHONLY|Rotation=0.000|XOffset=0mil|YOffset=0mil|HoleType=Round|Shape=RoundedRectangle|*
%AMROUNDEDRECTD40*
21,1,0.06450,0.00000,0,0,0.0*
21,1,0.04017,0.02433,0,0,0.0*
1,1,0.02433,0.02009,0.00000*
1,1,0.02433,-0.02009,0.00000*
1,1,0.02433,-0.02009,0.00000*
1,1,0.02433,0.02009,0.00000*
%
%ADD40ROUNDEDRECTD40*%
%ADD41R,0.06496X0.04331*%
%ADD42R,0.04331X0.06496*%
%ADD43O,0.02362X0.05709*%
%ADD44R,0.05512X0.06299*%
%ADD45R,0.09843X0.06299*%
%ADD46R,0.03347X0.02953*%
G04:AMPARAMS|DCode=47|XSize=65.3mil|YSize=24.68mil|CornerRadius=12.34mil|HoleSize=0mil|Usage=FLASHONLY|Rotation=90.000|XOffset=0mil|YOffset=0mil|HoleType=Round|Shape=RoundedRectangle|*
%AMROUNDEDRECTD47*
21,1,0.06530,0.00000,0,0,90.0*
21,1,0.04063,0.02468,0,0,90.0*
1,1,0.02468,0.00000,0.02031*
1,1,0.02468,0.00000,-0.02031*
1,1,0.02468,0.00000,-0.02031*
1,1,0.02468,0.00000,0.02031*
%
%ADD47ROUNDEDRECTD47*%
%ADD48R,0.07800X0.02100*%
%ADD49R,0.03307X0.03307*%
%ADD50R,0.04758X0.03985*%
%ADD51R,0.03765X0.04749*%
%ADD52R,0.09843X0.03937*%
%ADD53R,0.03347X0.02756*%
%ADD54R,0.08268X0.07874*%
%ADD55R,0.04724X0.09843*%
%ADD56R,0.02756X0.04724*%
%ADD57R,0.05906X0.09213*%
%ADD58R,0.02362X0.05906*%
%ADD59R,0.06102X0.02362*%
%ADD60R,0.03937X0.07874*%
%ADD61R,0.02047X0.03937*%
%ADD62R,0.02362X0.04331*%
%ADD63R,0.02756X0.02756*%
%ADD64R,0.04749X0.03765*%
%ADD65R,0.02559X0.04724*%
%ADD66O,0.02362X0.09055*%
%ADD67R,0.02953X0.03347*%
%ADD68R,0.04453X0.03591*%
%ADD69R,0.06299X0.03937*%
%ADD70R,0.07874X0.15748*%
%ADD71R,0.03954X0.03434*%
G04:AMPARAMS|DCode=72|XSize=37.4mil|YSize=151.58mil|CornerRadius=2.06mil|HoleSize=0mil|Usage=FLASHONLY|Rotation=180.000|XOffset=0mil|YOffset=0mil|HoleType=Round|Shape=RoundedRectangle|*
%AMROUNDEDRECTD72*
21,1,0.03740,0.14746,0,0,180.0*
21,1,0.03329,0.15158,0,0,180.0*
1,1,0.00411,-0.01664,0.07373*
1,1,0.00411,0.01664,0.07373*
1,1,0.00411,0.01664,-0.07373*
1,1,0.00411,-0.01664,-0.07373*
%
%ADD72ROUNDEDRECTD72*%
G04:AMPARAMS|DCode=73|XSize=251.97mil|YSize=311.02mil|CornerRadius=2.52mil|HoleSize=0mil|Usage=FLASHONLY|Rotation=180.000|XOffset=0mil|YOffset=0mil|HoleType=Round|Shape=RoundedRectangle|*
%AMROUNDEDRECTD73*
21,1,0.25197,0.30598,0,0,180.0*
21,1,0.24693,0.31102,0,0,180.0*
1,1,0.00504,-0.12347,0.15299*
1,1,0.00504,0.12347,0.15299*
1,1,0.00504,0.12347,-0.15299*
1,1,0.00504,-0.12347,-0.15299*
%
%ADD73ROUNDEDRECTD73*%
%ADD74R,0.02953X0.03543*%
%ADD75R,0.05669X0.05827*%
G04:AMPARAMS|DCode=76|XSize=9.84mil|YSize=45.28mil|CornerRadius=1.97mil|HoleSize=0mil|Usage=FLASHONLY|Rotation=180.000|XOffset=0mil|YOffset=0mil|HoleType=Round|Shape=RoundedRectangle|*
%AMROUNDEDRECTD76*
21,1,0.00984,0.04134,0,0,180.0*
21,1,0.00591,0.04528,0,0,180.0*
1,1,0.00394,-0.00295,0.02067*
1,1,0.00394,0.00295,0.02067*
1,1,0.00394,0.00295,-0.02067*
1,1,0.00394,-0.00295,-0.02067*
%
%ADD76ROUNDEDRECTD76*%
%ADD77R,0.05512X0.04724*%
%ADD78R,0.07693X0.07505*%
%ADD79R,0.04528X0.04134*%
%ADD80R,0.03386X0.01063*%
%ADD81R,0.02559X0.02756*%
%ADD82R,0.01063X0.03386*%
G04:AMPARAMS|DCode=83|XSize=39.54mil|YSize=125.28mil|CornerRadius=17.2mil|HoleSize=0mil|Usage=FLASHONLY|Rotation=0.000|XOffset=0mil|YOffset=0mil|HoleType=Round|Shape=RoundedRectangle|*
%AMROUNDEDRECTD83*
21,1,0.03954,0.09088,0,0,0.0*
21,1,0.00514,0.12528,0,0,0.0*
1,1,0.03440,0.00257,-0.04544*
1,1,0.03440,-0.00257,-0.04544*
1,1,0.03440,-0.00257,0.04544*
1,1,0.03440,0.00257,0.04544*
%
%ADD83ROUNDEDRECTD83*%
G04:AMPARAMS|DCode=84|XSize=39.54mil|YSize=34.34mil|CornerRadius=17.17mil|HoleSize=0mil|Usage=FLASHONLY|Rotation=0.000|XOffset=0mil|YOffset=0mil|HoleType=Round|Shape=RoundedRectangle|*
%AMROUNDEDRECTD84*
21,1,0.03954,0.00000,0,0,0.0*
21,1,0.00520,0.03434,0,0,0.0*
1,1,0.03434,0.00260,0.00000*
1,1,0.03434,-0.00260,0.00000*
1,1,0.03434,-0.00260,0.00000*
1,1,0.03434,0.00260,0.00000*
%
%ADD84ROUNDEDRECTD84*%
%ADD85R,0.21260X0.15158*%
%ADD86R,0.01063X0.03937*%
%ADD87R,0.02433X0.06450*%
%ADD88R,0.03740X0.03740*%
%ADD89R,0.03937X0.04331*%
%ADD90R,0.02468X0.06530*%
%ADD91R,0.07087X0.03937*%
%ADD92R,0.04331X0.03937*%
%ADD93R,0.05906X0.07874*%
%ADD94R,0.14961X0.07874*%
%ADD95R,0.04134X0.04528*%
%ADD96R,0.03543X0.03307*%
%ADD97R,0.06450X0.02433*%
%ADD98R,0.07874X0.05906*%
%ADD99R,0.07874X0.14961*%
%ADD100R,0.02284X0.04724*%
%ADD101R,0.03937X0.02362*%
%ADD102R,0.03937X0.09843*%
%ADD103R,0.17323X0.14961*%
%ADD104R,0.05922X0.13602*%
%ADD105R,0.06530X0.02468*%
%ADD106R,0.03150X0.02362*%
%ADD107R,0.07480X0.05906*%
%ADD111R,0.02362X0.02362*%
%ADD116R,0.02362X0.02362*%
%ADD160C,0.05512*%
%ADD161R,0.05512X0.05512*%
%ADD165R,0.06102X0.06102*%
%ADD179C,0.06102*%
%ADD182R,0.22047X0.22047*%
%ADD183C,0.08268*%
%ADD184R,0.08268X0.08268*%
%ADD185C,0.05071*%
%ADD186C,0.07087*%
%ADD187R,0.07795X0.07795*%
%ADD188R,0.07087X0.07087*%
%ADD189R,0.06000X0.06000*%
%ADD190O,0.04724X0.09449*%
%ADD191O,0.04559X0.09118*%
%ADD192R,0.08268X0.08268*%
%ADD193R,0.05071X0.05071*%
%ADD194C,0.07795*%
%ADD195C,0.06000*%
%ADD196C,0.02362*%
%ADD197C,0.02480*%
%ADD198C,0.07618*%
%ADD199R,0.07087X0.07087*%
D27*
X204724Y158465D02*
D03*
Y152559D02*
D03*
X129921Y186024D02*
D03*
X135827D02*
D03*
Y180118D02*
D03*
X423228Y132874D02*
D03*
Y126969D02*
D03*
X129921Y180118D02*
D03*
X167323Y158465D02*
D03*
Y152559D02*
D03*
X242126D02*
D03*
Y158465D02*
D03*
X279528Y157480D02*
D03*
Y151575D02*
D03*
D28*
X204724Y166437D02*
D03*
X555118Y146555D02*
D03*
X529528D02*
D03*
X279528Y172146D02*
D03*
X242126D02*
D03*
X204724D02*
D03*
X167323D02*
D03*
Y166437D02*
D03*
X242126D02*
D03*
X279528D02*
D03*
X529528Y140847D02*
D03*
X555118D02*
D03*
X537402Y140945D02*
D03*
Y146457D02*
D03*
X562992Y140945D02*
D03*
Y146457D02*
D03*
D29*
X223622Y147638D02*
D03*
X290158D02*
D03*
X250787D02*
D03*
X213386D02*
D03*
X107480Y169291D02*
D03*
X175984Y147638D02*
D03*
X107480Y159449D02*
D03*
Y149606D02*
D03*
Y139764D02*
D03*
X97244Y149606D02*
D03*
Y159449D02*
D03*
Y169291D02*
D03*
Y139764D02*
D03*
X186221Y147638D02*
D03*
X300394D02*
D03*
X261024D02*
D03*
D30*
X221457Y157480D02*
D03*
X292323D02*
D03*
X252953D02*
D03*
X215551D02*
D03*
X178150D02*
D03*
X85630Y137795D02*
D03*
X79724D02*
D03*
X87598Y238189D02*
D03*
X493595Y258780D02*
D03*
X93504Y238189D02*
D03*
X298228Y157480D02*
D03*
X184055D02*
D03*
X258858D02*
D03*
X487689Y258780D02*
D03*
D31*
X222244Y169291D02*
D03*
X411417Y168637D02*
D03*
X218504Y169291D02*
D03*
X293307Y168637D02*
D03*
X255906D02*
D03*
X181335Y169291D02*
D03*
X252165Y177820D02*
D03*
X289567D02*
D03*
X177595Y178474D02*
D03*
X214764Y178474D02*
D03*
X407677Y177820D02*
D03*
X259646D02*
D03*
X185075Y178474D02*
D03*
Y169291D02*
D03*
X415158Y168637D02*
D03*
Y177820D02*
D03*
X297047D02*
D03*
Y168637D02*
D03*
X259646D02*
D03*
X222244Y178474D02*
D03*
D32*
X397165Y196850D02*
D03*
X321181Y196850D02*
D03*
X331181D02*
D03*
X283937D02*
D03*
X273937D02*
D03*
X236693D02*
D03*
X226693D02*
D03*
X189449Y196850D02*
D03*
X179449D02*
D03*
X349921D02*
D03*
X379921D02*
D03*
X427165D02*
D03*
X417165Y233228D02*
D03*
X407165Y196850D02*
D03*
X417165D02*
D03*
X397165Y233228D02*
D03*
X407165D02*
D03*
X321181Y233228D02*
D03*
X331181D02*
D03*
X301181D02*
D03*
X311181Y196850D02*
D03*
Y233228D02*
D03*
X253937D02*
D03*
X273937D02*
D03*
X283937D02*
D03*
X263937Y196850D02*
D03*
Y233228D02*
D03*
X216693D02*
D03*
Y196850D02*
D03*
X206693Y233228D02*
D03*
X226693D02*
D03*
X236693D02*
D03*
X169449Y233228D02*
D03*
Y196850D02*
D03*
X159449Y233228D02*
D03*
X189449D02*
D03*
X179449D02*
D03*
X349921D02*
D03*
X359921D02*
D03*
X369921Y196850D02*
D03*
Y233228D02*
D03*
X359921Y196850D02*
D03*
D33*
X130295Y203937D02*
D03*
X145295D02*
D03*
X140295D02*
D03*
X135295D02*
D03*
X140295Y225197D02*
D03*
X135295D02*
D03*
X145295D02*
D03*
X130295D02*
D03*
D34*
X695691Y177500D02*
D03*
X631982Y177500D02*
D03*
X639672Y181102D02*
D03*
X703382Y181102D02*
D03*
D35*
X552087Y158465D02*
D03*
X532402Y158465D02*
D03*
X518780Y158465D02*
D03*
X479410D02*
D03*
X459724D02*
D03*
X499094D02*
D03*
X158465Y76772D02*
D03*
X152559D02*
D03*
X178150D02*
D03*
X172244D02*
D03*
X679646Y223425D02*
D03*
X626890Y223425D02*
D03*
X552087Y184055D02*
D03*
X532402Y184055D02*
D03*
X499094Y184055D02*
D03*
X518780D02*
D03*
X479410D02*
D03*
X459724D02*
D03*
X146653Y234252D02*
D03*
X128937D02*
D03*
X134843D02*
D03*
X140748D02*
D03*
X689646Y223425D02*
D03*
Y197835D02*
D03*
X679646D02*
D03*
X449724Y158465D02*
D03*
Y184055D02*
D03*
X489094D02*
D03*
Y158465D02*
D03*
X469410D02*
D03*
Y184055D02*
D03*
X508779D02*
D03*
Y158465D02*
D03*
X542402Y184055D02*
D03*
Y158465D02*
D03*
X562087Y184055D02*
D03*
Y158465D02*
D03*
X636890Y223425D02*
D03*
Y197835D02*
D03*
X626890D02*
D03*
D36*
X569095Y130709D02*
D03*
X549409D02*
D03*
X553150Y121260D02*
D03*
X556890Y130709D02*
D03*
X572835Y121260D02*
D03*
X576575Y130709D02*
D03*
D37*
X532146Y106052D02*
D03*
X375984Y102609D02*
D03*
X507874Y90798D02*
D03*
X448819D02*
D03*
X488189D02*
D03*
X468504D02*
D03*
X375984Y75050D02*
D03*
X94488Y305365D02*
D03*
X375984Y117863D02*
D03*
X375984Y90304D02*
D03*
X94488Y320619D02*
D03*
X488189Y106052D02*
D03*
X507874D02*
D03*
X468504D02*
D03*
X448819D02*
D03*
X532146Y90798D02*
D03*
D38*
X523869Y122048D02*
D03*
X539123D02*
D03*
D39*
X426181Y163386D02*
D03*
X318406Y169291D02*
D03*
X528051Y240158D02*
D03*
X528051Y224410D02*
D03*
X523130D02*
D03*
X421260Y163386D02*
D03*
X323327Y169291D02*
D03*
X523130Y240158D02*
D03*
D40*
X332023Y174016D02*
D03*
X414700Y151575D02*
D03*
X332023Y156299D02*
D03*
X341206Y160039D02*
D03*
X341206Y177756D02*
D03*
X423883Y155315D02*
D03*
X469226Y231703D02*
D03*
X344488Y250000D02*
D03*
X335305Y246260D02*
D03*
X460043Y227963D02*
D03*
X344488Y253740D02*
D03*
X423883Y147835D02*
D03*
X414700D02*
D03*
X332023Y152559D02*
D03*
X341206D02*
D03*
X341206Y170276D02*
D03*
X332023D02*
D03*
X460043Y235444D02*
D03*
X469226D02*
D03*
X335305Y253740D02*
D03*
D41*
X405512Y135531D02*
D03*
Y124311D02*
D03*
D42*
X331004Y141732D02*
D03*
X342224D02*
D03*
D43*
X104705Y203839D02*
D03*
X79114D02*
D03*
X89114D02*
D03*
X119705D02*
D03*
X94114D02*
D03*
X104705Y225295D02*
D03*
X79114D02*
D03*
X119705D02*
D03*
X94114D02*
D03*
X109705D02*
D03*
X84114D02*
D03*
X109705Y203839D02*
D03*
X84114D02*
D03*
X114705D02*
D03*
Y225295D02*
D03*
X89114D02*
D03*
D44*
X131890Y155512D02*
D03*
X523622Y232284D02*
D03*
X535433D02*
D03*
X666072Y192913D02*
D03*
X654261D02*
D03*
X615899Y192913D02*
D03*
X604088D02*
D03*
X535433Y248032D02*
D03*
X131890Y141732D02*
D03*
X143701Y131890D02*
D03*
X131890D02*
D03*
X143701Y141732D02*
D03*
X143701Y155512D02*
D03*
X523622Y248032D02*
D03*
D45*
X51181Y151575D02*
D03*
X64961D02*
D03*
X369094Y314961D02*
D03*
X382874D02*
D03*
D46*
X185592Y109646D02*
D03*
X167323Y109646D02*
D03*
X545276Y146260D02*
D03*
X570866D02*
D03*
X728346Y215158D02*
D03*
X533190Y280906D02*
D03*
X521339D02*
D03*
X539370Y280906D02*
D03*
X515748Y280906D02*
D03*
X519685Y197441D02*
D03*
X500000Y199409D02*
D03*
X479816Y199714D02*
D03*
X460630Y199409D02*
D03*
Y194291D02*
D03*
X450705Y200787D02*
D03*
X521339Y286024D02*
D03*
X728346Y210039D02*
D03*
X515748Y286024D02*
D03*
X500000Y194291D02*
D03*
X539370Y286024D02*
D03*
X519685Y192323D02*
D03*
X159449Y109646D02*
D03*
Y114764D02*
D03*
X167323Y114764D02*
D03*
X720472Y263189D02*
D03*
X479816Y194596D02*
D03*
X177718Y114764D02*
D03*
Y109646D02*
D03*
X185592Y114764D02*
D03*
X320866Y160827D02*
D03*
Y155709D02*
D03*
X533190Y286024D02*
D03*
X450705Y195669D02*
D03*
X545276Y141142D02*
D03*
X570866D02*
D03*
X720472Y268307D02*
D03*
D47*
X185257Y122139D02*
D03*
X166988D02*
D03*
X163386Y129830D02*
D03*
X181655D02*
D03*
D48*
X84788Y125610D02*
D03*
Y110610D02*
D03*
Y115610D02*
D03*
X104188Y110610D02*
D03*
Y125610D02*
D03*
Y120610D02*
D03*
Y115610D02*
D03*
X84788Y120610D02*
D03*
D49*
X82677Y98425D02*
D03*
X78976Y90551D02*
D03*
D50*
X68118Y122047D02*
D03*
X61804D02*
D03*
D51*
X68996Y129921D02*
D03*
X60925D02*
D03*
X588681Y295276D02*
D03*
X563091Y283465D02*
D03*
X485307Y290776D02*
D03*
Y282902D02*
D03*
X736319Y173228D02*
D03*
X485307Y275028D02*
D03*
X494677Y243032D02*
D03*
X580610Y295276D02*
D03*
X555020Y283465D02*
D03*
X493378Y290776D02*
D03*
Y282902D02*
D03*
Y275028D02*
D03*
X728248Y173228D02*
D03*
X486606Y243032D02*
D03*
D52*
X82677Y153543D02*
D03*
Y165354D02*
D03*
D53*
X141732Y185531D02*
D03*
X614173Y180610D02*
D03*
X622047D02*
D03*
X685757Y180610D02*
D03*
X677883D02*
D03*
X423228Y179134D02*
D03*
Y174213D02*
D03*
X614173Y185531D02*
D03*
X677883Y185531D02*
D03*
X141732Y180610D02*
D03*
X352362Y180118D02*
D03*
Y175197D02*
D03*
X685757Y185531D02*
D03*
X622047Y185531D02*
D03*
D54*
X592717Y179527D02*
D03*
X654261Y179528D02*
D03*
X665678D02*
D03*
X604134Y179527D02*
D03*
D55*
X159449Y196850D02*
D03*
X206693Y196850D02*
D03*
X253937D02*
D03*
X301181D02*
D03*
X427165Y233228D02*
D03*
X379921D02*
D03*
D56*
X728346Y309842D02*
D03*
X737205D02*
D03*
Y276772D02*
D03*
X719488D02*
D03*
Y309842D02*
D03*
D57*
X567598Y337087D02*
D03*
X511142D02*
D03*
D58*
X549606Y306378D02*
D03*
X540945D02*
D03*
X536614D02*
D03*
X532283D02*
D03*
X518701D02*
D03*
X553937D02*
D03*
X545276D02*
D03*
X523622D02*
D03*
X527953D02*
D03*
X558268D02*
D03*
D59*
X601181Y282028D02*
D03*
X579921Y272028D02*
D03*
Y287028D02*
D03*
X601181D02*
D03*
X579921Y282028D02*
D03*
Y277028D02*
D03*
X601181D02*
D03*
Y272028D02*
D03*
D60*
X485433Y348425D02*
D03*
X474409D02*
D03*
D61*
X492126Y331890D02*
D03*
X467717D02*
D03*
X489173D02*
D03*
X470669D02*
D03*
D62*
X484252Y319882D02*
D03*
X480512Y310039D02*
D03*
X484252D02*
D03*
X487992D02*
D03*
X480512Y319882D02*
D03*
X487992D02*
D03*
D63*
X547245Y280709D02*
D03*
X415676Y287845D02*
D03*
Y292176D02*
D03*
X547245Y286221D02*
D03*
X415676Y297688D02*
D03*
Y282333D02*
D03*
D64*
X598425Y251870D02*
D03*
X173228Y261713D02*
D03*
X598425Y259941D02*
D03*
X173228Y269783D02*
D03*
D65*
X736516Y201378D02*
D03*
Y184449D02*
D03*
X728051Y244685D02*
D03*
Y227756D02*
D03*
Y141142D02*
D03*
Y158071D02*
D03*
Y184449D02*
D03*
Y201378D02*
D03*
X736516Y158071D02*
D03*
Y141142D02*
D03*
Y244685D02*
D03*
Y227756D02*
D03*
D66*
X573366Y224213D02*
D03*
X583366Y260039D02*
D03*
X573366D02*
D03*
X578366Y224213D02*
D03*
X553366D02*
D03*
X558366D02*
D03*
X563366D02*
D03*
X568366D02*
D03*
X553366Y260039D02*
D03*
X558366D02*
D03*
X563366D02*
D03*
X568366D02*
D03*
X578366D02*
D03*
X588366D02*
D03*
X583366Y224213D02*
D03*
X588366D02*
D03*
D67*
X731010Y131300D02*
D03*
X736128D02*
D03*
X492717Y200787D02*
D03*
X512402D02*
D03*
X473032D02*
D03*
X108858Y90551D02*
D03*
X103740D02*
D03*
X108858Y96457D02*
D03*
X103740D02*
D03*
X418701Y187008D02*
D03*
X423819D02*
D03*
X368701D02*
D03*
X363583D02*
D03*
X406890D02*
D03*
X412008D02*
D03*
X729724Y252896D02*
D03*
X487598Y200787D02*
D03*
X507283D02*
D03*
X467913D02*
D03*
X734842Y252896D02*
D03*
D68*
X493163Y250906D02*
D03*
X488120D02*
D03*
D69*
X269685Y340551D02*
D03*
X399606Y277559D02*
D03*
X210630Y271654D02*
D03*
X399606Y289370D02*
D03*
X269685Y328740D02*
D03*
X210630Y283465D02*
D03*
D70*
X332677Y299016D02*
D03*
X198819Y295276D02*
D03*
X332677Y326969D02*
D03*
X198819Y323228D02*
D03*
D71*
X363012Y298386D02*
D03*
D72*
X253543Y290551D02*
D03*
X240158D02*
D03*
X246850D02*
D03*
X226772D02*
D03*
X233465D02*
D03*
D73*
X240158Y331299D02*
D03*
D74*
X420760Y276756D02*
D03*
X425484Y255102D02*
D03*
X420760Y255102D02*
D03*
X425484Y276756D02*
D03*
D75*
X223760Y273622D02*
D03*
X240807D02*
D03*
D76*
X163386Y274114D02*
D03*
X159449Y257382D02*
D03*
X157480D02*
D03*
X165354Y274114D02*
D03*
Y257382D02*
D03*
X163386D02*
D03*
X157480Y274114D02*
D03*
X161417D02*
D03*
X159449D02*
D03*
X161417Y257382D02*
D03*
D77*
X427920Y262681D02*
D03*
X419259Y269374D02*
D03*
Y262681D02*
D03*
X427920Y269374D02*
D03*
D78*
X381008Y267717D02*
D03*
X54031Y253937D02*
D03*
X64079D02*
D03*
X370960Y267717D02*
D03*
D79*
X361417Y248031D02*
D03*
X448296Y227766D02*
D03*
X368110Y248031D02*
D03*
X441603Y227766D02*
D03*
D80*
X470217Y288386D02*
D03*
Y286417D02*
D03*
Y268701D02*
D03*
Y282480D02*
D03*
Y278543D02*
D03*
Y280512D02*
D03*
X443169Y268701D02*
D03*
X470217Y276575D02*
D03*
X443169Y284449D02*
D03*
Y286417D02*
D03*
Y282480D02*
D03*
Y280512D02*
D03*
Y276575D02*
D03*
Y274606D02*
D03*
Y288386D02*
D03*
Y272638D02*
D03*
Y270669D02*
D03*
X470217D02*
D03*
Y272638D02*
D03*
X443169Y278543D02*
D03*
X470217Y284449D02*
D03*
Y290354D02*
D03*
Y274606D02*
D03*
X443169Y290354D02*
D03*
D81*
X493299Y266654D02*
D03*
X106890Y311024D02*
D03*
X112205D02*
D03*
X487984Y266654D02*
D03*
D82*
X465551Y266004D02*
D03*
X445866Y293051D02*
D03*
Y266004D02*
D03*
X461614D02*
D03*
X459646D02*
D03*
X447835Y293051D02*
D03*
X451772Y266004D02*
D03*
X453740D02*
D03*
X467520Y293051D02*
D03*
X455709Y266004D02*
D03*
X457677D02*
D03*
X459646Y293051D02*
D03*
X457677D02*
D03*
X455709D02*
D03*
X453740D02*
D03*
X449803D02*
D03*
X463583Y266004D02*
D03*
Y293051D02*
D03*
X449803Y266004D02*
D03*
X447835D02*
D03*
X461614Y293051D02*
D03*
X467520Y266004D02*
D03*
X451772Y293051D02*
D03*
X465551D02*
D03*
D83*
X388957Y289370D02*
D03*
D84*
X363012D02*
D03*
Y280354D02*
D03*
D85*
X287402Y316732D02*
D03*
Y277756D02*
D03*
D86*
X476968Y331890D02*
D03*
X480905D02*
D03*
X486811D02*
D03*
X473032D02*
D03*
X484842D02*
D03*
X482874D02*
D03*
X478937D02*
D03*
X475000D02*
D03*
D87*
X252165Y168637D02*
D03*
X407677D02*
D03*
X177595Y169291D02*
D03*
X289567Y168637D02*
D03*
X214764Y169291D02*
D03*
D88*
X382874Y248031D02*
D03*
X447902Y235641D02*
D03*
X376969Y248031D02*
D03*
X353346Y169291D02*
D03*
X359252D02*
D03*
X441997Y235641D02*
D03*
D89*
X534646Y190945D02*
D03*
X609449Y224410D02*
D03*
X614961D02*
D03*
X554331Y190945D02*
D03*
X540158D02*
D03*
X559842D02*
D03*
D90*
X159783Y122139D02*
D03*
X178053D02*
D03*
D91*
X425097Y295058D02*
D03*
Y285215D02*
D03*
D92*
X698819Y229134D02*
D03*
Y223622D02*
D03*
D93*
X413386Y114764D02*
D03*
X422441D02*
D03*
X404331D02*
D03*
D94*
X413386Y89961D02*
D03*
D95*
X110236Y53150D02*
D03*
Y59842D02*
D03*
D96*
X86378Y90551D02*
D03*
D97*
X414700Y155315D02*
D03*
X332023Y160039D02*
D03*
X332023Y177756D02*
D03*
X469226Y227963D02*
D03*
X344488Y246260D02*
D03*
D98*
X355709Y140551D02*
D03*
Y149606D02*
D03*
Y158661D02*
D03*
D99*
X380512Y149606D02*
D03*
D100*
X138187Y336074D02*
D03*
X143186D02*
D03*
X133186D02*
D03*
X128187D02*
D03*
X143186Y314421D02*
D03*
X128187D02*
D03*
X133186D02*
D03*
X138187D02*
D03*
D101*
X111287Y324476D02*
D03*
Y316996D02*
D03*
X120736D02*
D03*
X111287Y320736D02*
D03*
X120736Y324476D02*
D03*
Y320736D02*
D03*
D102*
X100394Y342520D02*
D03*
X88583D02*
D03*
D103*
X135696Y322704D02*
D03*
D104*
X150193Y291339D02*
D03*
X172642D02*
D03*
D105*
X695691Y184705D02*
D03*
X631982Y184705D02*
D03*
D106*
X527284Y280906D02*
D03*
Y286024D02*
D03*
D107*
X448819Y137795D02*
D03*
Y149606D02*
D03*
X468504Y127954D02*
D03*
Y116142D02*
D03*
X448819Y127954D02*
D03*
Y116142D02*
D03*
X468504Y137795D02*
D03*
Y149606D02*
D03*
X488189Y137795D02*
D03*
Y149606D02*
D03*
X507874Y137795D02*
D03*
Y149606D02*
D03*
X488189Y127954D02*
D03*
Y116142D02*
D03*
X507874Y116142D02*
D03*
Y127954D02*
D03*
D111*
X199213Y72835D02*
D03*
X86614Y145669D02*
D03*
X190551Y84646D02*
D03*
X190551Y72835D02*
D03*
X151181Y68898D02*
D03*
X190551Y61024D02*
D03*
X179134Y68898D02*
D03*
X190551Y49213D02*
D03*
X77953Y145669D02*
D03*
X535512Y294587D02*
D03*
X526851D02*
D03*
X567402D02*
D03*
X551260D02*
D03*
X511102D02*
D03*
X433858Y322835D02*
D03*
X449606D02*
D03*
X170472Y68898D02*
D03*
X159843D02*
D03*
X519764Y294587D02*
D03*
X558740D02*
D03*
X199213Y84646D02*
D03*
X199213Y49213D02*
D03*
Y61024D02*
D03*
X440945Y322835D02*
D03*
X425197D02*
D03*
X542598Y294587D02*
D03*
D116*
X389764Y100000D02*
D03*
Y74410D02*
D03*
Y108661D02*
D03*
Y83071D02*
D03*
D160*
X231693Y96457D02*
D03*
X244685Y116142D02*
D03*
X231693D02*
D03*
Y106299D02*
D03*
X244685D02*
D03*
X341339D02*
D03*
X220472D02*
D03*
Y116142D02*
D03*
X207480D02*
D03*
X291929Y106299D02*
D03*
Y116142D02*
D03*
X278937D02*
D03*
Y106299D02*
D03*
Y96457D02*
D03*
X267717Y106299D02*
D03*
X354331Y116142D02*
D03*
X207480Y96457D02*
D03*
Y106299D02*
D03*
X254724Y96457D02*
D03*
Y106299D02*
D03*
Y116142D02*
D03*
X267717D02*
D03*
X316929Y96457D02*
D03*
Y106299D02*
D03*
Y116142D02*
D03*
X329921D02*
D03*
Y106299D02*
D03*
X341339Y96457D02*
D03*
Y116142D02*
D03*
X354331Y106299D02*
D03*
X519685Y317992D02*
D03*
X559055D02*
D03*
D161*
X244685Y96457D02*
D03*
X291929D02*
D03*
X220472D02*
D03*
X267717D02*
D03*
X329921D02*
D03*
X354331D02*
D03*
D165*
X155169Y53031D02*
D03*
X447402Y338500D02*
D03*
D179*
X437402D02*
D03*
X427402D02*
D03*
X165169Y53031D02*
D03*
X175169D02*
D03*
D182*
X456693Y279528D02*
D03*
D183*
X233780Y74803D02*
D03*
X218779D02*
D03*
X263779D02*
D03*
X248780D02*
D03*
X622047Y74803D02*
D03*
X607047D02*
D03*
X74803D02*
D03*
X59803D02*
D03*
X320394Y74803D02*
D03*
X335394D02*
D03*
X477126Y74803D02*
D03*
X492126D02*
D03*
X462126D02*
D03*
X447126D02*
D03*
X547992D02*
D03*
X562992D02*
D03*
X681102D02*
D03*
X666102D02*
D03*
X74803Y333898D02*
D03*
D184*
X577992Y74803D02*
D03*
X507126D02*
D03*
X350394Y74803D02*
D03*
X278780D02*
D03*
X89803Y74803D02*
D03*
X637047D02*
D03*
X696102D02*
D03*
D185*
X66929Y204409D02*
D03*
Y224410D02*
D03*
Y184409D02*
D03*
D186*
X132047Y62992D02*
D03*
Y72992D02*
D03*
X654449Y336811D02*
D03*
X664449D02*
D03*
X674449D02*
D03*
X122047Y62992D02*
D03*
X132047Y52992D02*
D03*
X122047D02*
D03*
D187*
X637795Y153937D02*
D03*
X704724D02*
D03*
D188*
X644449Y336811D02*
D03*
D189*
X627924Y283465D02*
D03*
D190*
X496929Y348425D02*
D03*
X462913D02*
D03*
D191*
X496929Y333366D02*
D03*
X462913D02*
D03*
D192*
X74803Y318898D02*
D03*
D193*
X66929Y234409D02*
D03*
D194*
X590551Y153937D02*
D03*
Y105905D02*
D03*
X637795D02*
D03*
X704724D02*
D03*
X657480D02*
D03*
Y153937D02*
D03*
D195*
X704724Y283465D02*
D03*
D196*
X468110Y336221D02*
D03*
D197*
D03*
X491732D02*
D03*
D198*
X614173Y161811D02*
D03*
X681102D02*
D03*
D199*
X122047Y72992D02*
D03*
M02*
