G04*
G04 #@! TF.GenerationSoftware,Altium Limited,Altium Designer,25.5.2 (35)*
G04*
G04 Layer_Color=16711935*
%FSLAX43Y43*%
%MOMM*%
G71*
G04*
G04 #@! TF.SameCoordinates,5343D25E-564B-450C-8E3F-5604407B260E*
G04*
G04*
G04 #@! TF.FilePolarity,Negative*
G04*
G01*
G75*
%ADD148C,1.400*%
%ADD149R,1.400X1.400*%
%ADD150R,2.303X2.303*%
%ADD151C,2.003*%
%ADD152R,1.550X1.550*%
%ADD153C,1.491*%
%ADD154C,2.303*%
%ADD155R,0.203X0.203*%
%ADD156C,1.550*%
%ADD157R,2.003X2.003*%
%ADD158R,1.727X1.727*%
%ADD159O,1.403X2.603*%
%ADD160O,1.361X2.519*%
%ADD161R,2.303X2.303*%
%ADD162R,2.183X2.183*%
%ADD163C,1.727*%
%ADD164R,2.003X2.003*%
%ADD165C,2.183*%
%ADD166C,2.138*%
%ADD167R,1.491X1.491*%
%ADD168C,0.803*%
%ADD169C,0.833*%
%ADD170C,1.603*%
D148*
X56800Y27000D02*
D03*
X53500D02*
D03*
Y24500D02*
D03*
X56800Y29500D02*
D03*
X53500D02*
D03*
X62650Y27000D02*
D03*
X59350D02*
D03*
Y24500D02*
D03*
X62650Y29500D02*
D03*
X59350D02*
D03*
X68650Y27000D02*
D03*
X65350D02*
D03*
Y24500D02*
D03*
X68650Y29500D02*
D03*
X65350D02*
D03*
X90650Y27000D02*
D03*
Y29500D02*
D03*
X87350Y27000D02*
D03*
Y29500D02*
D03*
Y24500D02*
D03*
X71350Y29500D02*
D03*
X74650D02*
D03*
X71350Y24500D02*
D03*
Y27000D02*
D03*
X74650D02*
D03*
X84650Y27000D02*
D03*
Y29500D02*
D03*
X81350Y27000D02*
D03*
Y29500D02*
D03*
Y24500D02*
D03*
D149*
X56800Y24500D02*
D03*
X62650Y24500D02*
D03*
X68650D02*
D03*
X90650Y24500D02*
D03*
X74650Y24500D02*
D03*
X84650Y24500D02*
D03*
D150*
X22810Y19000D02*
D03*
X70810Y19000D02*
D03*
X89000D02*
D03*
X128810Y19000D02*
D03*
X146810D02*
D03*
X176810D02*
D03*
X161810D02*
D03*
D151*
X33540Y16000D02*
D03*
X166230Y85550D02*
D03*
X168770D02*
D03*
X171310D02*
D03*
X33540Y18540D02*
D03*
Y13460D02*
D03*
X31000Y16000D02*
D03*
Y13460D02*
D03*
D152*
X39413Y13470D02*
D03*
X113640Y85979D02*
D03*
D153*
X16750Y55460D02*
D03*
Y63080D02*
D03*
Y50380D02*
D03*
D154*
X55570Y19000D02*
D03*
X59380D02*
D03*
X63190D02*
D03*
X67000D02*
D03*
X81380D02*
D03*
X85190D02*
D03*
X143000Y19000D02*
D03*
X139190D02*
D03*
X125000D02*
D03*
X121190D02*
D03*
X117380D02*
D03*
X113570D02*
D03*
X169190D02*
D03*
X173000D02*
D03*
X154190D02*
D03*
X158000D02*
D03*
X19000Y84810D02*
D03*
X15190Y19000D02*
D03*
X19000D02*
D03*
D155*
X52500Y80750D02*
D03*
X156500Y63000D02*
D03*
X178500D02*
D03*
X156500Y85000D02*
D03*
X178500D02*
D03*
X150000Y80750D02*
D03*
X142500Y25750D02*
D03*
X45000D02*
D03*
X15000Y73000D02*
D03*
X102000Y85000D02*
D03*
X185000D02*
D03*
Y15000D02*
D03*
X102000D02*
D03*
X15000Y26000D02*
D03*
D156*
X41953Y13470D02*
D03*
X44493D02*
D03*
X108560Y85979D02*
D03*
X111100D02*
D03*
D157*
X163690Y85550D02*
D03*
D158*
X159493Y72000D02*
D03*
D159*
X126320Y88100D02*
D03*
X117680D02*
D03*
D160*
X126320Y84275D02*
D03*
X117680D02*
D03*
D161*
X19000Y81000D02*
D03*
D162*
X179000Y39100D02*
D03*
X162000D02*
D03*
D163*
X179000Y72000D02*
D03*
D164*
X31000Y18540D02*
D03*
D165*
X167000Y39100D02*
D03*
X150000D02*
D03*
X167000Y26900D02*
D03*
X179000D02*
D03*
X150000D02*
D03*
X162000D02*
D03*
D166*
X173000Y41100D02*
D03*
X156000D02*
D03*
D167*
X16750Y65620D02*
D03*
D168*
X119000Y85000D02*
D03*
X104000Y65000D02*
D03*
X27000Y25000D02*
D03*
Y28000D02*
D03*
X30380Y36875D02*
D03*
X18500Y36000D02*
D03*
X18700Y38201D02*
D03*
X36000Y38000D02*
D03*
X41500Y32500D02*
D03*
X62000Y33500D02*
D03*
X42500Y44000D02*
D03*
X54000Y39000D02*
D03*
X60500Y49500D02*
D03*
X74500Y49000D02*
D03*
X50500Y49500D02*
D03*
X96000Y17000D02*
D03*
X111500Y21000D02*
D03*
X119000D02*
D03*
X123000D02*
D03*
X87421Y37612D02*
D03*
X92317Y38756D02*
D03*
X115500Y38500D02*
D03*
X120500D02*
D03*
X133000Y28000D02*
D03*
X125500Y38500D02*
D03*
X131500D02*
D03*
X140766Y38062D02*
D03*
X81448Y42245D02*
D03*
X90842Y42463D02*
D03*
X92307Y44793D02*
D03*
X82212Y45939D02*
D03*
X83500Y49500D02*
D03*
X92500D02*
D03*
X131500Y40500D02*
D03*
X138784Y42184D02*
D03*
X160000Y44000D02*
D03*
X177500Y43500D02*
D03*
X46500Y73000D02*
D03*
X25500Y44000D02*
D03*
X146500Y85500D02*
D03*
X185000Y70000D02*
D03*
X138902Y74292D02*
D03*
X133531Y74066D02*
D03*
X129821Y73713D02*
D03*
X126500Y81500D02*
D03*
X123712Y79788D02*
D03*
X115861Y82985D02*
D03*
X126000Y79000D02*
D03*
X126670Y74108D02*
D03*
X156000Y57000D02*
D03*
X144989Y59040D02*
D03*
X128300Y62382D02*
D03*
X188500Y52500D02*
D03*
X184187Y33315D02*
D03*
X129642Y55695D02*
D03*
X130690Y51465D02*
D03*
X131205Y46689D02*
D03*
X123317Y61017D02*
D03*
X120827Y59860D02*
D03*
X119000Y69000D02*
D03*
Y65000D02*
D03*
X115000D02*
D03*
X112043Y69529D02*
D03*
X115000Y69000D02*
D03*
X118774Y57695D02*
D03*
X120388Y50101D02*
D03*
X116000Y56000D02*
D03*
X117864Y53684D02*
D03*
X113000Y57000D02*
D03*
Y53000D02*
D03*
X113365Y49630D02*
D03*
X111000Y80000D02*
D03*
X108407Y77765D02*
D03*
X110761Y75457D02*
D03*
X108000Y73000D02*
D03*
X96500Y86500D02*
D03*
X98000Y79000D02*
D03*
X100500Y71500D02*
D03*
X103500Y68000D02*
D03*
X100000D02*
D03*
X80500Y70500D02*
D03*
X79500Y69500D02*
D03*
X77810Y68746D02*
D03*
X89000Y68000D02*
D03*
X56500Y85000D02*
D03*
X44000Y84500D02*
D03*
X75500Y73500D02*
D03*
X67251Y70554D02*
D03*
X68425Y69763D02*
D03*
X27116Y69327D02*
D03*
X41000Y62500D02*
D03*
X53000D02*
D03*
X111000Y52500D02*
D03*
X108171Y56618D02*
D03*
X110500Y55500D02*
D03*
X104500Y41000D02*
D03*
X90000Y61000D02*
D03*
X104273Y60093D02*
D03*
X65000Y62000D02*
D03*
X78000Y61500D02*
D03*
X102946Y36356D02*
D03*
X32210Y63124D02*
D03*
X29500Y60000D02*
D03*
X13500Y46500D02*
D03*
X18810Y45029D02*
D03*
X134756Y70211D02*
D03*
X133000Y70500D02*
D03*
X121000Y61000D02*
D03*
X42500Y83000D02*
D03*
X29500Y69000D02*
D03*
X119500Y52819D02*
D03*
X155000Y70500D02*
D03*
X157500Y60500D02*
D03*
X119430Y71930D02*
D03*
X145484Y54286D02*
D03*
X146500Y51000D02*
D03*
X145500Y49500D02*
D03*
X109866Y46608D02*
D03*
X102500Y67000D02*
D03*
X43500Y88500D02*
D03*
X27500Y64000D02*
D03*
X106500Y50500D02*
D03*
X28000Y61000D02*
D03*
X27897Y47857D02*
D03*
X155946Y70390D02*
D03*
X157500Y59000D02*
D03*
X115000Y72500D02*
D03*
X143977Y54237D02*
D03*
X143500Y52000D02*
D03*
Y50000D02*
D03*
X107500Y49000D02*
D03*
X109797Y47661D02*
D03*
X44500Y88500D02*
D03*
X27983Y65017D02*
D03*
X29000Y61500D02*
D03*
X28825Y47979D02*
D03*
X166500Y75000D02*
D03*
X152000Y73000D02*
D03*
X139000Y55000D02*
D03*
X179000Y47000D02*
D03*
X173267Y47819D02*
D03*
X123000Y67000D02*
D03*
X183199Y65411D02*
D03*
X128500Y76181D02*
D03*
X183000Y57000D02*
D03*
X187000Y55500D02*
D03*
X145000Y69500D02*
D03*
X62000Y36000D02*
D03*
X50500Y38000D02*
D03*
X49500Y39500D02*
D03*
X42000Y36500D02*
D03*
X120786Y61988D02*
D03*
X113500Y61000D02*
D03*
X127000Y76000D02*
D03*
X137800Y72133D02*
D03*
X122500Y50000D02*
D03*
X27000Y12500D02*
D03*
X11000Y22500D02*
D03*
X12000Y34000D02*
D03*
X155000Y47500D02*
D03*
X161500Y48000D02*
D03*
X118500Y76500D02*
D03*
X125000D02*
D03*
X128000Y79500D02*
D03*
X132451Y76356D02*
D03*
X114500Y61000D02*
D03*
X130793Y69482D02*
D03*
X123007Y56686D02*
D03*
X134500Y73500D02*
D03*
X131000D02*
D03*
X131500Y69962D02*
D03*
X124082Y55418D02*
D03*
X121000Y53000D02*
D03*
Y74000D02*
D03*
X93000Y37500D02*
D03*
X82000Y38000D02*
D03*
X93000Y23500D02*
D03*
X118000Y55500D02*
D03*
X123000Y65638D02*
D03*
X124833Y58439D02*
D03*
X122032Y57532D02*
D03*
X120500Y75500D02*
D03*
X116500Y76000D02*
D03*
X117982Y77206D02*
D03*
X120226Y71240D02*
D03*
X118000Y72140D02*
D03*
X115000Y79181D02*
D03*
X119500Y76000D02*
D03*
X122000Y69500D02*
D03*
X120966Y70500D02*
D03*
X124000Y76500D02*
D03*
X122017Y76517D02*
D03*
X122000Y67500D02*
D03*
X22000Y45767D02*
D03*
X129000Y67000D02*
D03*
X128994Y70494D02*
D03*
X21000Y46000D02*
D03*
X128819Y72500D02*
D03*
X124000Y66000D02*
D03*
X129000Y65500D02*
D03*
X14865Y46365D02*
D03*
X111000Y66500D02*
D03*
X108000Y50000D02*
D03*
X109990Y48630D02*
D03*
X127500Y50000D02*
D03*
X122473Y64966D02*
D03*
X121819Y64000D02*
D03*
X117500Y50000D02*
D03*
X112060Y61397D02*
D03*
X112000Y50000D02*
D03*
X111000Y61000D02*
D03*
X115000Y74681D02*
D03*
X112000Y74500D02*
D03*
X18000Y33000D02*
D03*
X20000Y34000D02*
D03*
X106500Y35500D02*
D03*
X113000Y62000D02*
D03*
X106500Y43500D02*
D03*
X112221Y63392D02*
D03*
X121000Y63000D02*
D03*
X108500Y63819D02*
D03*
D169*
X119000Y85000D02*
D03*
X125000D02*
D03*
D170*
X142000Y80770D02*
D03*
X132000D02*
D03*
M02*
