M48
;Layer_Color=9474304
;FILE_FORMAT=4:3
METRIC,LZ
;TYPE=PLATED
T01F00S00C0.300
T03F00S00C0.780
T04F00S00C0.813
T05F00S00C0.900
T06F00S00C1.000
T07F00S00C1.290
T08F00S00C1.320
T09F00S00C1.400
%
T01
X0011Y00225
X0012Y0034
X0018Y0033
X002Y0034
X00185Y0036
X00187Y0038201
X003038Y0036875
X0036Y0038
X0027Y0028
Y0025
Y00125
X00415Y00325
X0042Y00365
X00505Y0038
X00495Y00395
X0054Y0039
X0062Y0036
Y00335
X0082Y0038
X0087421Y0037612
X0093Y00375
X0092317Y0038756
X0102946Y0036356
X01065Y00355
X01155Y00385
X0119Y0021
X01115
X0096Y0017
X0093Y00235
X0123Y0021
X0133Y0028
X01315Y00385
X01255
X01205
X0140766Y0038062
X0184187Y0033315
X01775Y00435
X0179Y0047
X0173267Y0047819
X01615Y0048
X016Y0044
X0183Y0057
X0187Y00555
X01885Y00525
X0183199Y0065411
X0185Y007
X01665Y0075
X0155946Y007039
X0155Y00705
X0152Y0073
X0145Y00695
X01378Y0072133
X0138902Y0074292
X01345Y00735
X0133531Y0074066
X0131Y00735
X0129821Y0073713
X0128819Y00725
X0128994Y0070494
X0130793Y0069482
X01315Y0069962
X0133Y00705
X0134756Y0070211
X0132451Y0076356
X01285Y0076181
X0127Y0076
X012667Y0074108
X0125Y00765
X0124
X0122017Y0076517
X01205Y00755
X01195Y0076
X0121Y0074
X0120226Y007124
X0120966Y00705
X0122Y00695
Y00675
X0123Y0067
Y0065638
X0122473Y0064966
X0121819Y0064
X0121Y0063
X0120786Y0061988
X0121Y0061
X0120827Y005986
X0122032Y0057532
X0123007Y0056686
X0124082Y0055418
X0124833Y0058439
X0123317Y0061017
X0124Y0066
X0129Y00655
Y0067
X01283Y0062382
X0129642Y0055695
X013069Y0051465
X01275Y005
X01225
X0120388Y0050101
X0121Y0053
X01195Y0052819
X0131205Y0046689
X01315Y00405
X0138784Y0042184
X01435Y005
Y0052
X0143977Y0054237
X0145484Y0054286
X01465Y0051
X01455Y00495
X0144989Y005904
X0139Y0055
X0156Y0057
X01575Y0059
Y00605
X0155Y00475
X011943Y007193
X0126Y0079
X0117982Y0077206
X01185Y00765
X01165Y0076
X0115Y0074681
Y00725
X0118Y007214
X0119Y0069
Y0065
X0115
Y0069
X0112043Y0069529
X0111Y00665
X0112221Y0063392
X011206Y0061397
X0111Y0061
X01135
X01145
X0113Y0062
Y0057
X0116Y0056
X0118Y00555
X0117864Y0053684
X01175Y005
X0113365Y004963
X0112Y005
X010999Y004863
X0109797Y0047661
X0109866Y0046608
X01075Y0049
X0108Y005
X01065Y00505
X0111Y00525
X0113Y0053
X01105Y00555
X0108171Y0056618
X0104273Y0060093
X0104Y0065
X01025Y0067
X01035Y0068
X01
X01005Y00715
X0108Y0073
X0108407Y0077765
X0110761Y0075457
X0112Y00745
X0115Y0079181
X0098Y0079
X0089Y0068
X009Y0061
X00925Y00495
X0092307Y0044793
X0090842Y0042463
X0081448Y0042245
X0082212Y0045939
X00835Y00495
X00795Y00695
X00805Y00705
X01085Y0063819
X0118774Y0057695
X01065Y00435
X01045Y0041
X00745Y0049
X00605Y00495
X00505
X00425Y0044
X0041Y00625
X0053
X0065Y0062
X0067251Y0070554
X0068425Y0069763
X007781Y0068746
X00755Y00735
X0078Y00615
X00465Y0073
X00295Y0069
X0027116Y0069327
X0027983Y0065017
X00275Y0064
X0028Y0061
X0029Y00615
X00295Y006
X003221Y0063124
X0028825Y0047979
X0027897Y0047857
X00255Y0044
X0022Y0045767
X0021Y0046
X001881Y0045029
X0014865Y0046365
X00135Y00465
X00425Y0083
X0044Y00845
X00445Y00885
X00435
X00565Y0085
X00965Y00865
X0111Y008
X0115861Y0082985
X0123712Y0079788
X01265Y00815
X0128Y00795
X01465Y00855
T03
X001675Y005038
Y005546
Y006308
Y006562
T04
X0159493Y0072
X0179
T05
X00535Y00245
Y0027
Y00295
X00568
Y0027
Y00245
X005935Y00245
Y0027
Y00295
X006265
Y0027
Y00245
X006535
Y0027
Y00295
X006865
Y0027
Y00245
X007135
Y0027
Y00295
X007465
Y0027
Y00245
X008135Y00245
Y0027
Y00295
X008465
Y0027
Y00245
X008735Y00245
Y0027
Y00295
X009065
Y0027
Y00245
T06
X0031Y001346
X003354
Y0016
Y001854
X0031
Y0016
X0039413Y001347
X0041953
X0044493
X010856Y0085979
X01111
X011364
X016369Y008555
X016623
X016877
X017131
T07
X0173Y00411
X0156
T08
X015Y00269
Y00391
X0162
X0167
X0179
Y00269
X0167
X0162
T09
X001519Y0019
X0019
X002281
X005557Y0019
X005938
X006319
X0067
X007081
X008138
X008519
X0089
X011357Y0019
X011738
X012119
X0125
X012881
X013919
X0143
X014681
X015419
X0158
X016181
X016919
X0173
X017681
X0019Y0081
Y008481
M30
