ISO-10303-21;
HEADER;
/* Generated by software containing ST-Developer
 * from STEP Tools, Inc. (www.steptools.com) 
 */

FILE_DESCRIPTION(
/* description */ (''),
/* implementation_level */ '2;1');

FILE_NAME(
/* name */ 'top_panel.step',
/* time_stamp */ '2026-04-12T19:03:49+08:00',
/* author */ (''),
/* organization */ (''),
/* preprocessor_version */ 'ST-DEVELOPER v20.1',
/* originating_system */ 'Autodesk Translation Framework v14.24.0.0',
/* authorisation */ '');

FILE_SCHEMA (('AUTOMOTIVE_DESIGN { 1 0 10303 214 3 1 1 }'));
ENDSEC;

DATA;
#10=MECHANICAL_DESIGN_GEOMETRIC_PRESENTATION_REPRESENTATION('',(#13),#1109);
#11=SHAPE_REPRESENTATION_RELATIONSHIP('SRR','None',#1116,#12);
#12=ADVANCED_BREP_SHAPE_REPRESENTATION('',(#14),#1108);
#13=STYLED_ITEM('',(#1126),#14);
#14=MANIFOLD_SOLID_BREP('Body1',#649);
#15=CYLINDRICAL_SURFACE('',#683,1.50000000000001);
#16=CYLINDRICAL_SURFACE('',#686,1.50000000000001);
#17=CYLINDRICAL_SURFACE('',#689,1.50000000000001);
#18=CYLINDRICAL_SURFACE('',#692,1.50000000000001);
#19=CYLINDRICAL_SURFACE('',#695,2.00000000000001);
#20=CYLINDRICAL_SURFACE('',#698,2.00000000000003);
#21=CYLINDRICAL_SURFACE('',#700,1.6);
#22=CYLINDRICAL_SURFACE('',#702,1.50000000000001);
#23=CYLINDRICAL_SURFACE('',#705,1.50000000000001);
#24=CYLINDRICAL_SURFACE('',#708,1.6);
#25=CYLINDRICAL_SURFACE('',#710,1.6);
#26=CYLINDRICAL_SURFACE('',#712,1.6);
#27=CYLINDRICAL_SURFACE('',#714,1.6);
#28=CYLINDRICAL_SURFACE('',#716,1.5);
#29=CYLINDRICAL_SURFACE('',#719,1.5);
#30=CYLINDRICAL_SURFACE('',#722,1.6);
#31=CYLINDRICAL_SURFACE('',#724,2.);
#32=CYLINDRICAL_SURFACE('',#727,1.99999999999999);
#33=FACE_BOUND('',#82,.T.);
#34=FACE_BOUND('',#83,.T.);
#35=FACE_BOUND('',#84,.T.);
#36=FACE_BOUND('',#85,.T.);
#37=FACE_BOUND('',#86,.T.);
#38=FACE_BOUND('',#87,.T.);
#39=FACE_BOUND('',#88,.T.);
#40=FACE_BOUND('',#89,.T.);
#41=FACE_BOUND('',#121,.T.);
#42=FACE_BOUND('',#122,.T.);
#43=FACE_BOUND('',#123,.T.);
#44=FACE_BOUND('',#124,.T.);
#45=FACE_BOUND('',#125,.T.);
#46=FACE_BOUND('',#126,.T.);
#47=FACE_BOUND('',#127,.T.);
#48=FACE_BOUND('',#128,.T.);
#49=FACE_OUTER_BOUND('',#81,.T.);
#50=FACE_OUTER_BOUND('',#90,.T.);
#51=FACE_OUTER_BOUND('',#91,.T.);
#52=FACE_OUTER_BOUND('',#92,.T.);
#53=FACE_OUTER_BOUND('',#93,.T.);
#54=FACE_OUTER_BOUND('',#94,.T.);
#55=FACE_OUTER_BOUND('',#95,.T.);
#56=FACE_OUTER_BOUND('',#96,.T.);
#57=FACE_OUTER_BOUND('',#97,.T.);
#58=FACE_OUTER_BOUND('',#98,.T.);
#59=FACE_OUTER_BOUND('',#99,.T.);
#60=FACE_OUTER_BOUND('',#100,.T.);
#61=FACE_OUTER_BOUND('',#101,.T.);
#62=FACE_OUTER_BOUND('',#102,.T.);
#63=FACE_OUTER_BOUND('',#103,.T.);
#64=FACE_OUTER_BOUND('',#104,.T.);
#65=FACE_OUTER_BOUND('',#105,.T.);
#66=FACE_OUTER_BOUND('',#106,.T.);
#67=FACE_OUTER_BOUND('',#107,.T.);
#68=FACE_OUTER_BOUND('',#108,.T.);
#69=FACE_OUTER_BOUND('',#109,.T.);
#70=FACE_OUTER_BOUND('',#110,.T.);
#71=FACE_OUTER_BOUND('',#111,.T.);
#72=FACE_OUTER_BOUND('',#112,.T.);
#73=FACE_OUTER_BOUND('',#113,.T.);
#74=FACE_OUTER_BOUND('',#114,.T.);
#75=FACE_OUTER_BOUND('',#115,.T.);
#76=FACE_OUTER_BOUND('',#116,.T.);
#77=FACE_OUTER_BOUND('',#117,.T.);
#78=FACE_OUTER_BOUND('',#118,.T.);
#79=FACE_OUTER_BOUND('',#119,.T.);
#80=FACE_OUTER_BOUND('',#120,.T.);
#81=EDGE_LOOP('',(#423,#424,#425,#426,#427,#428,#429,#430));
#82=EDGE_LOOP('',(#431));
#83=EDGE_LOOP('',(#432,#433,#434,#435,#436,#437,#438,#439));
#84=EDGE_LOOP('',(#440));
#85=EDGE_LOOP('',(#441));
#86=EDGE_LOOP('',(#442));
#87=EDGE_LOOP('',(#443));
#88=EDGE_LOOP('',(#444,#445,#446,#447,#448,#449,#450,#451));
#89=EDGE_LOOP('',(#452));
#90=EDGE_LOOP('',(#453,#454,#455,#456));
#91=EDGE_LOOP('',(#457,#458,#459,#460));
#92=EDGE_LOOP('',(#461,#462,#463,#464));
#93=EDGE_LOOP('',(#465,#466,#467,#468));
#94=EDGE_LOOP('',(#469,#470,#471,#472));
#95=EDGE_LOOP('',(#473,#474,#475,#476));
#96=EDGE_LOOP('',(#477,#478,#479,#480));
#97=EDGE_LOOP('',(#481,#482,#483,#484));
#98=EDGE_LOOP('',(#485,#486,#487,#488));
#99=EDGE_LOOP('',(#489,#490,#491,#492));
#100=EDGE_LOOP('',(#493,#494,#495,#496));
#101=EDGE_LOOP('',(#497,#498,#499,#500));
#102=EDGE_LOOP('',(#501,#502,#503,#504));
#103=EDGE_LOOP('',(#505,#506,#507,#508));
#104=EDGE_LOOP('',(#509,#510,#511,#512));
#105=EDGE_LOOP('',(#513,#514,#515,#516));
#106=EDGE_LOOP('',(#517,#518,#519,#520));
#107=EDGE_LOOP('',(#521,#522,#523,#524));
#108=EDGE_LOOP('',(#525,#526,#527,#528));
#109=EDGE_LOOP('',(#529,#530,#531,#532));
#110=EDGE_LOOP('',(#533,#534,#535,#536));
#111=EDGE_LOOP('',(#537,#538,#539,#540));
#112=EDGE_LOOP('',(#541,#542,#543,#544));
#113=EDGE_LOOP('',(#545,#546,#547,#548));
#114=EDGE_LOOP('',(#549,#550,#551,#552));
#115=EDGE_LOOP('',(#553,#554,#555,#556));
#116=EDGE_LOOP('',(#557,#558,#559,#560));
#117=EDGE_LOOP('',(#561,#562,#563,#564));
#118=EDGE_LOOP('',(#565,#566,#567,#568));
#119=EDGE_LOOP('',(#569,#570,#571,#572));
#120=EDGE_LOOP('',(#573,#574,#575,#576,#577,#578,#579,#580));
#121=EDGE_LOOP('',(#581));
#122=EDGE_LOOP('',(#582,#583,#584,#585,#586,#587,#588,#589));
#123=EDGE_LOOP('',(#590));
#124=EDGE_LOOP('',(#591));
#125=EDGE_LOOP('',(#592));
#126=EDGE_LOOP('',(#593));
#127=EDGE_LOOP('',(#594,#595,#596,#597,#598,#599,#600,#601));
#128=EDGE_LOOP('',(#602));
#129=LINE('',#929,#183);
#130=LINE('',#933,#184);
#131=LINE('',#937,#185);
#132=LINE('',#940,#186);
#133=LINE('',#947,#187);
#134=LINE('',#951,#188);
#135=LINE('',#955,#189);
#136=LINE('',#958,#190);
#137=LINE('',#971,#191);
#138=LINE('',#975,#192);
#139=LINE('',#979,#193);
#140=LINE('',#982,#194);
#141=LINE('',#987,#195);
#142=LINE('',#989,#196);
#143=LINE('',#990,#197);
#144=LINE('',#993,#198);
#145=LINE('',#997,#199);
#146=LINE('',#998,#200);
#147=LINE('',#1001,#201);
#148=LINE('',#1005,#202);
#149=LINE('',#1007,#203);
#150=LINE('',#1008,#204);
#151=LINE('',#1011,#205);
#152=LINE('',#1015,#206);
#153=LINE('',#1016,#207);
#154=LINE('',#1019,#208);
#155=LINE('',#1023,#209);
#156=LINE('',#1025,#210);
#157=LINE('',#1026,#211);
#158=LINE('',#1029,#212);
#159=LINE('',#1033,#213);
#160=LINE('',#1034,#214);
#161=LINE('',#1037,#215);
#162=LINE('',#1042,#216);
#163=LINE('',#1046,#217);
#164=LINE('',#1049,#218);
#165=LINE('',#1050,#219);
#166=LINE('',#1054,#220);
#167=LINE('',#1056,#221);
#168=LINE('',#1060,#222);
#169=LINE('',#1064,#223);
#170=LINE('',#1068,#224);
#171=LINE('',#1072,#225);
#172=LINE('',#1076,#226);
#173=LINE('',#1079,#227);
#174=LINE('',#1080,#228);
#175=LINE('',#1084,#229);
#176=LINE('',#1086,#230);
#177=LINE('',#1090,#231);
#178=LINE('',#1094,#232);
#179=LINE('',#1097,#233);
#180=LINE('',#1098,#234);
#181=LINE('',#1102,#235);
#182=LINE('',#1104,#236);
#183=VECTOR('',#737,10.);
#184=VECTOR('',#740,10.);
#185=VECTOR('',#743,10.);
#186=VECTOR('',#746,10.);
#187=VECTOR('',#751,10.);
#188=VECTOR('',#754,10.);
#189=VECTOR('',#757,10.);
#190=VECTOR('',#760,10.);
#191=VECTOR('',#771,10.);
#192=VECTOR('',#774,10.);
#193=VECTOR('',#777,10.);
#194=VECTOR('',#780,10.);
#195=VECTOR('',#785,10.);
#196=VECTOR('',#786,10.);
#197=VECTOR('',#787,10.);
#198=VECTOR('',#790,10.);
#199=VECTOR('',#795,10.);
#200=VECTOR('',#796,10.);
#201=VECTOR('',#799,10.);
#202=VECTOR('',#804,10.);
#203=VECTOR('',#805,10.);
#204=VECTOR('',#806,10.);
#205=VECTOR('',#809,10.);
#206=VECTOR('',#814,10.);
#207=VECTOR('',#815,10.);
#208=VECTOR('',#818,10.);
#209=VECTOR('',#823,10.);
#210=VECTOR('',#824,10.);
#211=VECTOR('',#825,10.);
#212=VECTOR('',#828,10.);
#213=VECTOR('',#833,10.);
#214=VECTOR('',#834,10.);
#215=VECTOR('',#837,10.);
#216=VECTOR('',#844,1.6);
#217=VECTOR('',#849,10.);
#218=VECTOR('',#852,10.);
#219=VECTOR('',#853,10.);
#220=VECTOR('',#858,10.);
#221=VECTOR('',#861,10.);
#222=VECTOR('',#866,1.6);
#223=VECTOR('',#871,1.6);
#224=VECTOR('',#876,1.6);
#225=VECTOR('',#881,1.6);
#226=VECTOR('',#886,10.);
#227=VECTOR('',#889,10.);
#228=VECTOR('',#890,10.);
#229=VECTOR('',#895,10.);
#230=VECTOR('',#898,10.);
#231=VECTOR('',#903,1.6);
#232=VECTOR('',#908,10.);
#233=VECTOR('',#911,10.);
#234=VECTOR('',#912,10.);
#235=VECTOR('',#917,10.);
#236=VECTOR('',#920,10.);
#237=CIRCLE('',#664,2.00000000000003);
#238=CIRCLE('',#665,2.00000000000001);
#239=CIRCLE('',#666,2.);
#240=CIRCLE('',#667,1.99999999999999);
#241=CIRCLE('',#668,1.6);
#242=CIRCLE('',#669,1.50000000000001);
#243=CIRCLE('',#670,1.50000000000001);
#244=CIRCLE('',#671,1.5);
#245=CIRCLE('',#672,1.5);
#246=CIRCLE('',#673,1.6);
#247=CIRCLE('',#674,1.6);
#248=CIRCLE('',#675,1.6);
#249=CIRCLE('',#676,1.6);
#250=CIRCLE('',#677,1.50000000000001);
#251=CIRCLE('',#678,1.50000000000001);
#252=CIRCLE('',#679,1.50000000000001);
#253=CIRCLE('',#680,1.50000000000001);
#254=CIRCLE('',#681,1.6);
#255=CIRCLE('',#684,1.50000000000001);
#256=CIRCLE('',#687,1.50000000000001);
#257=CIRCLE('',#690,1.50000000000001);
#258=CIRCLE('',#693,1.50000000000001);
#259=CIRCLE('',#696,2.00000000000001);
#260=CIRCLE('',#699,2.00000000000003);
#261=CIRCLE('',#701,1.6);
#262=CIRCLE('',#703,1.50000000000001);
#263=CIRCLE('',#706,1.50000000000001);
#264=CIRCLE('',#709,1.6);
#265=CIRCLE('',#711,1.6);
#266=CIRCLE('',#713,1.6);
#267=CIRCLE('',#715,1.6);
#268=CIRCLE('',#717,1.5);
#269=CIRCLE('',#720,1.5);
#270=CIRCLE('',#723,1.6);
#271=CIRCLE('',#725,2.);
#272=CIRCLE('',#728,1.99999999999999);
#273=VERTEX_POINT('',#925);
#274=VERTEX_POINT('',#926);
#275=VERTEX_POINT('',#928);
#276=VERTEX_POINT('',#930);
#277=VERTEX_POINT('',#932);
#278=VERTEX_POINT('',#934);
#279=VERTEX_POINT('',#936);
#280=VERTEX_POINT('',#938);
#281=VERTEX_POINT('',#941);
#282=VERTEX_POINT('',#943);
#283=VERTEX_POINT('',#944);
#284=VERTEX_POINT('',#946);
#285=VERTEX_POINT('',#948);
#286=VERTEX_POINT('',#950);
#287=VERTEX_POINT('',#952);
#288=VERTEX_POINT('',#954);
#289=VERTEX_POINT('',#956);
#290=VERTEX_POINT('',#959);
#291=VERTEX_POINT('',#961);
#292=VERTEX_POINT('',#963);
#293=VERTEX_POINT('',#965);
#294=VERTEX_POINT('',#967);
#295=VERTEX_POINT('',#968);
#296=VERTEX_POINT('',#970);
#297=VERTEX_POINT('',#972);
#298=VERTEX_POINT('',#974);
#299=VERTEX_POINT('',#976);
#300=VERTEX_POINT('',#978);
#301=VERTEX_POINT('',#980);
#302=VERTEX_POINT('',#983);
#303=VERTEX_POINT('',#986);
#304=VERTEX_POINT('',#988);
#305=VERTEX_POINT('',#992);
#306=VERTEX_POINT('',#996);
#307=VERTEX_POINT('',#1000);
#308=VERTEX_POINT('',#1004);
#309=VERTEX_POINT('',#1006);
#310=VERTEX_POINT('',#1010);
#311=VERTEX_POINT('',#1014);
#312=VERTEX_POINT('',#1018);
#313=VERTEX_POINT('',#1022);
#314=VERTEX_POINT('',#1024);
#315=VERTEX_POINT('',#1028);
#316=VERTEX_POINT('',#1032);
#317=VERTEX_POINT('',#1036);
#318=VERTEX_POINT('',#1040);
#319=VERTEX_POINT('',#1044);
#320=VERTEX_POINT('',#1048);
#321=VERTEX_POINT('',#1052);
#322=VERTEX_POINT('',#1058);
#323=VERTEX_POINT('',#1062);
#324=VERTEX_POINT('',#1066);
#325=VERTEX_POINT('',#1070);
#326=VERTEX_POINT('',#1074);
#327=VERTEX_POINT('',#1078);
#328=VERTEX_POINT('',#1082);
#329=VERTEX_POINT('',#1088);
#330=VERTEX_POINT('',#1092);
#331=VERTEX_POINT('',#1096);
#332=VERTEX_POINT('',#1100);
#333=EDGE_CURVE('',#273,#274,#237,.T.);
#334=EDGE_CURVE('',#275,#273,#129,.T.);
#335=EDGE_CURVE('',#276,#275,#238,.T.);
#336=EDGE_CURVE('',#277,#276,#130,.T.);
#337=EDGE_CURVE('',#278,#277,#239,.T.);
#338=EDGE_CURVE('',#279,#278,#131,.T.);
#339=EDGE_CURVE('',#280,#279,#240,.T.);
#340=EDGE_CURVE('',#274,#280,#132,.T.);
#341=EDGE_CURVE('',#281,#281,#241,.T.);
#342=EDGE_CURVE('',#282,#283,#242,.T.);
#343=EDGE_CURVE('',#284,#282,#133,.T.);
#344=EDGE_CURVE('',#285,#284,#243,.T.);
#345=EDGE_CURVE('',#286,#285,#134,.T.);
#346=EDGE_CURVE('',#287,#286,#244,.T.);
#347=EDGE_CURVE('',#288,#287,#135,.T.);
#348=EDGE_CURVE('',#289,#288,#245,.T.);
#349=EDGE_CURVE('',#283,#289,#136,.T.);
#350=EDGE_CURVE('',#290,#290,#246,.T.);
#351=EDGE_CURVE('',#291,#291,#247,.T.);
#352=EDGE_CURVE('',#292,#292,#248,.T.);
#353=EDGE_CURVE('',#293,#293,#249,.T.);
#354=EDGE_CURVE('',#294,#295,#250,.T.);
#355=EDGE_CURVE('',#296,#294,#137,.T.);
#356=EDGE_CURVE('',#297,#296,#251,.T.);
#357=EDGE_CURVE('',#298,#297,#138,.T.);
#358=EDGE_CURVE('',#299,#298,#252,.T.);
#359=EDGE_CURVE('',#300,#299,#139,.T.);
#360=EDGE_CURVE('',#301,#300,#253,.T.);
#361=EDGE_CURVE('',#295,#301,#140,.T.);
#362=EDGE_CURVE('',#302,#302,#254,.T.);
#363=EDGE_CURVE('',#297,#303,#141,.T.);
#364=EDGE_CURVE('',#304,#303,#142,.T.);
#365=EDGE_CURVE('',#298,#304,#143,.T.);
#366=EDGE_CURVE('',#296,#305,#144,.T.);
#367=EDGE_CURVE('',#303,#305,#255,.T.);
#368=EDGE_CURVE('',#294,#306,#145,.T.);
#369=EDGE_CURVE('',#305,#306,#146,.T.);
#370=EDGE_CURVE('',#295,#307,#147,.T.);
#371=EDGE_CURVE('',#306,#307,#256,.T.);
#372=EDGE_CURVE('',#285,#308,#148,.T.);
#373=EDGE_CURVE('',#309,#308,#149,.T.);
#374=EDGE_CURVE('',#286,#309,#150,.T.);
#375=EDGE_CURVE('',#284,#310,#151,.T.);
#376=EDGE_CURVE('',#308,#310,#257,.T.);
#377=EDGE_CURVE('',#282,#311,#152,.T.);
#378=EDGE_CURVE('',#310,#311,#153,.T.);
#379=EDGE_CURVE('',#283,#312,#154,.T.);
#380=EDGE_CURVE('',#311,#312,#258,.T.);
#381=EDGE_CURVE('',#276,#313,#155,.T.);
#382=EDGE_CURVE('',#314,#313,#156,.T.);
#383=EDGE_CURVE('',#277,#314,#157,.T.);
#384=EDGE_CURVE('',#275,#315,#158,.T.);
#385=EDGE_CURVE('',#313,#315,#259,.T.);
#386=EDGE_CURVE('',#273,#316,#159,.T.);
#387=EDGE_CURVE('',#315,#316,#160,.T.);
#388=EDGE_CURVE('',#274,#317,#161,.T.);
#389=EDGE_CURVE('',#316,#317,#260,.T.);
#390=EDGE_CURVE('',#318,#318,#261,.T.);
#391=EDGE_CURVE('',#318,#302,#162,.T.);
#392=EDGE_CURVE('',#319,#304,#262,.T.);
#393=EDGE_CURVE('',#299,#319,#163,.T.);
#394=EDGE_CURVE('',#320,#319,#164,.T.);
#395=EDGE_CURVE('',#300,#320,#165,.T.);
#396=EDGE_CURVE('',#321,#320,#263,.T.);
#397=EDGE_CURVE('',#301,#321,#166,.T.);
#398=EDGE_CURVE('',#307,#321,#167,.T.);
#399=EDGE_CURVE('',#322,#322,#264,.T.);
#400=EDGE_CURVE('',#322,#293,#168,.T.);
#401=EDGE_CURVE('',#323,#323,#265,.T.);
#402=EDGE_CURVE('',#323,#292,#169,.T.);
#403=EDGE_CURVE('',#324,#324,#266,.T.);
#404=EDGE_CURVE('',#324,#291,#170,.T.);
#405=EDGE_CURVE('',#325,#325,#267,.T.);
#406=EDGE_CURVE('',#325,#290,#171,.T.);
#407=EDGE_CURVE('',#326,#309,#268,.T.);
#408=EDGE_CURVE('',#287,#326,#172,.T.);
#409=EDGE_CURVE('',#327,#326,#173,.T.);
#410=EDGE_CURVE('',#288,#327,#174,.T.);
#411=EDGE_CURVE('',#328,#327,#269,.T.);
#412=EDGE_CURVE('',#289,#328,#175,.T.);
#413=EDGE_CURVE('',#312,#328,#176,.T.);
#414=EDGE_CURVE('',#329,#329,#270,.T.);
#415=EDGE_CURVE('',#329,#281,#177,.T.);
#416=EDGE_CURVE('',#330,#314,#271,.T.);
#417=EDGE_CURVE('',#278,#330,#178,.T.);
#418=EDGE_CURVE('',#331,#330,#179,.T.);
#419=EDGE_CURVE('',#279,#331,#180,.T.);
#420=EDGE_CURVE('',#332,#331,#272,.T.);
#421=EDGE_CURVE('',#280,#332,#181,.T.);
#422=EDGE_CURVE('',#317,#332,#182,.T.);
#423=ORIENTED_EDGE('',*,*,#333,.F.);
#424=ORIENTED_EDGE('',*,*,#334,.F.);
#425=ORIENTED_EDGE('',*,*,#335,.F.);
#426=ORIENTED_EDGE('',*,*,#336,.F.);
#427=ORIENTED_EDGE('',*,*,#337,.F.);
#428=ORIENTED_EDGE('',*,*,#338,.F.);
#429=ORIENTED_EDGE('',*,*,#339,.F.);
#430=ORIENTED_EDGE('',*,*,#340,.F.);
#431=ORIENTED_EDGE('',*,*,#341,.F.);
#432=ORIENTED_EDGE('',*,*,#342,.F.);
#433=ORIENTED_EDGE('',*,*,#343,.F.);
#434=ORIENTED_EDGE('',*,*,#344,.F.);
#435=ORIENTED_EDGE('',*,*,#345,.F.);
#436=ORIENTED_EDGE('',*,*,#346,.F.);
#437=ORIENTED_EDGE('',*,*,#347,.F.);
#438=ORIENTED_EDGE('',*,*,#348,.F.);
#439=ORIENTED_EDGE('',*,*,#349,.F.);
#440=ORIENTED_EDGE('',*,*,#350,.F.);
#441=ORIENTED_EDGE('',*,*,#351,.F.);
#442=ORIENTED_EDGE('',*,*,#352,.F.);
#443=ORIENTED_EDGE('',*,*,#353,.F.);
#444=ORIENTED_EDGE('',*,*,#354,.F.);
#445=ORIENTED_EDGE('',*,*,#355,.F.);
#446=ORIENTED_EDGE('',*,*,#356,.F.);
#447=ORIENTED_EDGE('',*,*,#357,.F.);
#448=ORIENTED_EDGE('',*,*,#358,.F.);
#449=ORIENTED_EDGE('',*,*,#359,.F.);
#450=ORIENTED_EDGE('',*,*,#360,.F.);
#451=ORIENTED_EDGE('',*,*,#361,.F.);
#452=ORIENTED_EDGE('',*,*,#362,.F.);
#453=ORIENTED_EDGE('',*,*,#357,.T.);
#454=ORIENTED_EDGE('',*,*,#363,.T.);
#455=ORIENTED_EDGE('',*,*,#364,.F.);
#456=ORIENTED_EDGE('',*,*,#365,.F.);
#457=ORIENTED_EDGE('',*,*,#356,.T.);
#458=ORIENTED_EDGE('',*,*,#366,.T.);
#459=ORIENTED_EDGE('',*,*,#367,.F.);
#460=ORIENTED_EDGE('',*,*,#363,.F.);
#461=ORIENTED_EDGE('',*,*,#355,.T.);
#462=ORIENTED_EDGE('',*,*,#368,.T.);
#463=ORIENTED_EDGE('',*,*,#369,.F.);
#464=ORIENTED_EDGE('',*,*,#366,.F.);
#465=ORIENTED_EDGE('',*,*,#354,.T.);
#466=ORIENTED_EDGE('',*,*,#370,.T.);
#467=ORIENTED_EDGE('',*,*,#371,.F.);
#468=ORIENTED_EDGE('',*,*,#368,.F.);
#469=ORIENTED_EDGE('',*,*,#345,.T.);
#470=ORIENTED_EDGE('',*,*,#372,.T.);
#471=ORIENTED_EDGE('',*,*,#373,.F.);
#472=ORIENTED_EDGE('',*,*,#374,.F.);
#473=ORIENTED_EDGE('',*,*,#344,.T.);
#474=ORIENTED_EDGE('',*,*,#375,.T.);
#475=ORIENTED_EDGE('',*,*,#376,.F.);
#476=ORIENTED_EDGE('',*,*,#372,.F.);
#477=ORIENTED_EDGE('',*,*,#343,.T.);
#478=ORIENTED_EDGE('',*,*,#377,.T.);
#479=ORIENTED_EDGE('',*,*,#378,.F.);
#480=ORIENTED_EDGE('',*,*,#375,.F.);
#481=ORIENTED_EDGE('',*,*,#342,.T.);
#482=ORIENTED_EDGE('',*,*,#379,.T.);
#483=ORIENTED_EDGE('',*,*,#380,.F.);
#484=ORIENTED_EDGE('',*,*,#377,.F.);
#485=ORIENTED_EDGE('',*,*,#336,.T.);
#486=ORIENTED_EDGE('',*,*,#381,.T.);
#487=ORIENTED_EDGE('',*,*,#382,.F.);
#488=ORIENTED_EDGE('',*,*,#383,.F.);
#489=ORIENTED_EDGE('',*,*,#335,.T.);
#490=ORIENTED_EDGE('',*,*,#384,.T.);
#491=ORIENTED_EDGE('',*,*,#385,.F.);
#492=ORIENTED_EDGE('',*,*,#381,.F.);
#493=ORIENTED_EDGE('',*,*,#334,.T.);
#494=ORIENTED_EDGE('',*,*,#386,.T.);
#495=ORIENTED_EDGE('',*,*,#387,.F.);
#496=ORIENTED_EDGE('',*,*,#384,.F.);
#497=ORIENTED_EDGE('',*,*,#333,.T.);
#498=ORIENTED_EDGE('',*,*,#388,.T.);
#499=ORIENTED_EDGE('',*,*,#389,.F.);
#500=ORIENTED_EDGE('',*,*,#386,.F.);
#501=ORIENTED_EDGE('',*,*,#390,.F.);
#502=ORIENTED_EDGE('',*,*,#391,.T.);
#503=ORIENTED_EDGE('',*,*,#362,.T.);
#504=ORIENTED_EDGE('',*,*,#391,.F.);
#505=ORIENTED_EDGE('',*,*,#358,.T.);
#506=ORIENTED_EDGE('',*,*,#365,.T.);
#507=ORIENTED_EDGE('',*,*,#392,.F.);
#508=ORIENTED_EDGE('',*,*,#393,.F.);
#509=ORIENTED_EDGE('',*,*,#359,.T.);
#510=ORIENTED_EDGE('',*,*,#393,.T.);
#511=ORIENTED_EDGE('',*,*,#394,.F.);
#512=ORIENTED_EDGE('',*,*,#395,.F.);
#513=ORIENTED_EDGE('',*,*,#360,.T.);
#514=ORIENTED_EDGE('',*,*,#395,.T.);
#515=ORIENTED_EDGE('',*,*,#396,.F.);
#516=ORIENTED_EDGE('',*,*,#397,.F.);
#517=ORIENTED_EDGE('',*,*,#361,.T.);
#518=ORIENTED_EDGE('',*,*,#397,.T.);
#519=ORIENTED_EDGE('',*,*,#398,.F.);
#520=ORIENTED_EDGE('',*,*,#370,.F.);
#521=ORIENTED_EDGE('',*,*,#399,.F.);
#522=ORIENTED_EDGE('',*,*,#400,.T.);
#523=ORIENTED_EDGE('',*,*,#353,.T.);
#524=ORIENTED_EDGE('',*,*,#400,.F.);
#525=ORIENTED_EDGE('',*,*,#401,.F.);
#526=ORIENTED_EDGE('',*,*,#402,.T.);
#527=ORIENTED_EDGE('',*,*,#352,.T.);
#528=ORIENTED_EDGE('',*,*,#402,.F.);
#529=ORIENTED_EDGE('',*,*,#403,.F.);
#530=ORIENTED_EDGE('',*,*,#404,.T.);
#531=ORIENTED_EDGE('',*,*,#351,.T.);
#532=ORIENTED_EDGE('',*,*,#404,.F.);
#533=ORIENTED_EDGE('',*,*,#405,.F.);
#534=ORIENTED_EDGE('',*,*,#406,.T.);
#535=ORIENTED_EDGE('',*,*,#350,.T.);
#536=ORIENTED_EDGE('',*,*,#406,.F.);
#537=ORIENTED_EDGE('',*,*,#346,.T.);
#538=ORIENTED_EDGE('',*,*,#374,.T.);
#539=ORIENTED_EDGE('',*,*,#407,.F.);
#540=ORIENTED_EDGE('',*,*,#408,.F.);
#541=ORIENTED_EDGE('',*,*,#347,.T.);
#542=ORIENTED_EDGE('',*,*,#408,.T.);
#543=ORIENTED_EDGE('',*,*,#409,.F.);
#544=ORIENTED_EDGE('',*,*,#410,.F.);
#545=ORIENTED_EDGE('',*,*,#348,.T.);
#546=ORIENTED_EDGE('',*,*,#410,.T.);
#547=ORIENTED_EDGE('',*,*,#411,.F.);
#548=ORIENTED_EDGE('',*,*,#412,.F.);
#549=ORIENTED_EDGE('',*,*,#349,.T.);
#550=ORIENTED_EDGE('',*,*,#412,.T.);
#551=ORIENTED_EDGE('',*,*,#413,.F.);
#552=ORIENTED_EDGE('',*,*,#379,.F.);
#553=ORIENTED_EDGE('',*,*,#414,.F.);
#554=ORIENTED_EDGE('',*,*,#415,.T.);
#555=ORIENTED_EDGE('',*,*,#341,.T.);
#556=ORIENTED_EDGE('',*,*,#415,.F.);
#557=ORIENTED_EDGE('',*,*,#337,.T.);
#558=ORIENTED_EDGE('',*,*,#383,.T.);
#559=ORIENTED_EDGE('',*,*,#416,.F.);
#560=ORIENTED_EDGE('',*,*,#417,.F.);
#561=ORIENTED_EDGE('',*,*,#338,.T.);
#562=ORIENTED_EDGE('',*,*,#417,.T.);
#563=ORIENTED_EDGE('',*,*,#418,.F.);
#564=ORIENTED_EDGE('',*,*,#419,.F.);
#565=ORIENTED_EDGE('',*,*,#339,.T.);
#566=ORIENTED_EDGE('',*,*,#419,.T.);
#567=ORIENTED_EDGE('',*,*,#420,.F.);
#568=ORIENTED_EDGE('',*,*,#421,.F.);
#569=ORIENTED_EDGE('',*,*,#340,.T.);
#570=ORIENTED_EDGE('',*,*,#421,.T.);
#571=ORIENTED_EDGE('',*,*,#422,.F.);
#572=ORIENTED_EDGE('',*,*,#388,.F.);
#573=ORIENTED_EDGE('',*,*,#389,.T.);
#574=ORIENTED_EDGE('',*,*,#422,.T.);
#575=ORIENTED_EDGE('',*,*,#420,.T.);
#576=ORIENTED_EDGE('',*,*,#418,.T.);
#577=ORIENTED_EDGE('',*,*,#416,.T.);
#578=ORIENTED_EDGE('',*,*,#382,.T.);
#579=ORIENTED_EDGE('',*,*,#385,.T.);
#580=ORIENTED_EDGE('',*,*,#387,.T.);
#581=ORIENTED_EDGE('',*,*,#414,.T.);
#582=ORIENTED_EDGE('',*,*,#380,.T.);
#583=ORIENTED_EDGE('',*,*,#413,.T.);
#584=ORIENTED_EDGE('',*,*,#411,.T.);
#585=ORIENTED_EDGE('',*,*,#409,.T.);
#586=ORIENTED_EDGE('',*,*,#407,.T.);
#587=ORIENTED_EDGE('',*,*,#373,.T.);
#588=ORIENTED_EDGE('',*,*,#376,.T.);
#589=ORIENTED_EDGE('',*,*,#378,.T.);
#590=ORIENTED_EDGE('',*,*,#405,.T.);
#591=ORIENTED_EDGE('',*,*,#403,.T.);
#592=ORIENTED_EDGE('',*,*,#401,.T.);
#593=ORIENTED_EDGE('',*,*,#399,.T.);
#594=ORIENTED_EDGE('',*,*,#371,.T.);
#595=ORIENTED_EDGE('',*,*,#398,.T.);
#596=ORIENTED_EDGE('',*,*,#396,.T.);
#597=ORIENTED_EDGE('',*,*,#394,.T.);
#598=ORIENTED_EDGE('',*,*,#392,.T.);
#599=ORIENTED_EDGE('',*,*,#364,.T.);
#600=ORIENTED_EDGE('',*,*,#367,.T.);
#601=ORIENTED_EDGE('',*,*,#369,.T.);
#602=ORIENTED_EDGE('',*,*,#390,.T.);
#603=PLANE('',#663);
#604=PLANE('',#682);
#605=PLANE('',#685);
#606=PLANE('',#688);
#607=PLANE('',#691);
#608=PLANE('',#694);
#609=PLANE('',#697);
#610=PLANE('',#704);
#611=PLANE('',#707);
#612=PLANE('',#718);
#613=PLANE('',#721);
#614=PLANE('',#726);
#615=PLANE('',#729);
#616=PLANE('',#730);
#617=ADVANCED_FACE('',(#49,#33,#34,#35,#36,#37,#38,#39,#40),#603,.F.);
#618=ADVANCED_FACE('',(#50),#604,.T.);
#619=ADVANCED_FACE('',(#51),#15,.F.);
#620=ADVANCED_FACE('',(#52),#605,.T.);
#621=ADVANCED_FACE('',(#53),#16,.F.);
#622=ADVANCED_FACE('',(#54),#606,.T.);
#623=ADVANCED_FACE('',(#55),#17,.F.);
#624=ADVANCED_FACE('',(#56),#607,.T.);
#625=ADVANCED_FACE('',(#57),#18,.F.);
#626=ADVANCED_FACE('',(#58),#608,.T.);
#627=ADVANCED_FACE('',(#59),#19,.T.);
#628=ADVANCED_FACE('',(#60),#609,.T.);
#629=ADVANCED_FACE('',(#61),#20,.T.);
#630=ADVANCED_FACE('',(#62),#21,.F.);
#631=ADVANCED_FACE('',(#63),#22,.F.);
#632=ADVANCED_FACE('',(#64),#610,.T.);
#633=ADVANCED_FACE('',(#65),#23,.F.);
#634=ADVANCED_FACE('',(#66),#611,.T.);
#635=ADVANCED_FACE('',(#67),#24,.F.);
#636=ADVANCED_FACE('',(#68),#25,.F.);
#637=ADVANCED_FACE('',(#69),#26,.F.);
#638=ADVANCED_FACE('',(#70),#27,.F.);
#639=ADVANCED_FACE('',(#71),#28,.F.);
#640=ADVANCED_FACE('',(#72),#612,.T.);
#641=ADVANCED_FACE('',(#73),#29,.F.);
#642=ADVANCED_FACE('',(#74),#613,.T.);
#643=ADVANCED_FACE('',(#75),#30,.F.);
#644=ADVANCED_FACE('',(#76),#31,.T.);
#645=ADVANCED_FACE('',(#77),#614,.T.);
#646=ADVANCED_FACE('',(#78),#32,.T.);
#647=ADVANCED_FACE('',(#79),#615,.T.);
#648=ADVANCED_FACE('',(#80,#41,#42,#43,#44,#45,#46,#47,#48),#616,.T.);
#649=CLOSED_SHELL('',(#617,#618,#619,#620,#621,#622,#623,#624,#625,#626,
#627,#628,#629,#630,#631,#632,#633,#634,#635,#636,#637,#638,#639,#640,#641,
#642,#643,#644,#645,#646,#647,#648));
#650=DERIVED_UNIT_ELEMENT(#652,1.);
#651=DERIVED_UNIT_ELEMENT(#1111,-3.);
#652=(
MASS_UNIT()
NAMED_UNIT(*)
SI_UNIT(.KILO.,.GRAM.)
);
#653=DERIVED_UNIT((#650,#651));
#654=MEASURE_REPRESENTATION_ITEM('density measure',
POSITIVE_RATIO_MEASURE(7850.),#653);
#655=PROPERTY_DEFINITION_REPRESENTATION(#660,#657);
#656=PROPERTY_DEFINITION_REPRESENTATION(#661,#658);
#657=REPRESENTATION('material name',(#659),#1108);
#658=REPRESENTATION('density',(#654),#1108);
#659=DESCRIPTIVE_REPRESENTATION_ITEM('Steel','Steel');
#660=PROPERTY_DEFINITION('material property','material name',#1118);
#661=PROPERTY_DEFINITION('material property','density of part',#1118);
#662=AXIS2_PLACEMENT_3D('',#923,#731,#732);
#663=AXIS2_PLACEMENT_3D('',#924,#733,#734);
#664=AXIS2_PLACEMENT_3D('',#927,#735,#736);
#665=AXIS2_PLACEMENT_3D('',#931,#738,#739);
#666=AXIS2_PLACEMENT_3D('',#935,#741,#742);
#667=AXIS2_PLACEMENT_3D('',#939,#744,#745);
#668=AXIS2_PLACEMENT_3D('',#942,#747,#748);
#669=AXIS2_PLACEMENT_3D('',#945,#749,#750);
#670=AXIS2_PLACEMENT_3D('',#949,#752,#753);
#671=AXIS2_PLACEMENT_3D('',#953,#755,#756);
#672=AXIS2_PLACEMENT_3D('',#957,#758,#759);
#673=AXIS2_PLACEMENT_3D('',#960,#761,#762);
#674=AXIS2_PLACEMENT_3D('',#962,#763,#764);
#675=AXIS2_PLACEMENT_3D('',#964,#765,#766);
#676=AXIS2_PLACEMENT_3D('',#966,#767,#768);
#677=AXIS2_PLACEMENT_3D('',#969,#769,#770);
#678=AXIS2_PLACEMENT_3D('',#973,#772,#773);
#679=AXIS2_PLACEMENT_3D('',#977,#775,#776);
#680=AXIS2_PLACEMENT_3D('',#981,#778,#779);
#681=AXIS2_PLACEMENT_3D('',#984,#781,#782);
#682=AXIS2_PLACEMENT_3D('',#985,#783,#784);
#683=AXIS2_PLACEMENT_3D('',#991,#788,#789);
#684=AXIS2_PLACEMENT_3D('',#994,#791,#792);
#685=AXIS2_PLACEMENT_3D('',#995,#793,#794);
#686=AXIS2_PLACEMENT_3D('',#999,#797,#798);
#687=AXIS2_PLACEMENT_3D('',#1002,#800,#801);
#688=AXIS2_PLACEMENT_3D('',#1003,#802,#803);
#689=AXIS2_PLACEMENT_3D('',#1009,#807,#808);
#690=AXIS2_PLACEMENT_3D('',#1012,#810,#811);
#691=AXIS2_PLACEMENT_3D('',#1013,#812,#813);
#692=AXIS2_PLACEMENT_3D('',#1017,#816,#817);
#693=AXIS2_PLACEMENT_3D('',#1020,#819,#820);
#694=AXIS2_PLACEMENT_3D('',#1021,#821,#822);
#695=AXIS2_PLACEMENT_3D('',#1027,#826,#827);
#696=AXIS2_PLACEMENT_3D('',#1030,#829,#830);
#697=AXIS2_PLACEMENT_3D('',#1031,#831,#832);
#698=AXIS2_PLACEMENT_3D('',#1035,#835,#836);
#699=AXIS2_PLACEMENT_3D('',#1038,#838,#839);
#700=AXIS2_PLACEMENT_3D('',#1039,#840,#841);
#701=AXIS2_PLACEMENT_3D('',#1041,#842,#843);
#702=AXIS2_PLACEMENT_3D('',#1043,#845,#846);
#703=AXIS2_PLACEMENT_3D('',#1045,#847,#848);
#704=AXIS2_PLACEMENT_3D('',#1047,#850,#851);
#705=AXIS2_PLACEMENT_3D('',#1051,#854,#855);
#706=AXIS2_PLACEMENT_3D('',#1053,#856,#857);
#707=AXIS2_PLACEMENT_3D('',#1055,#859,#860);
#708=AXIS2_PLACEMENT_3D('',#1057,#862,#863);
#709=AXIS2_PLACEMENT_3D('',#1059,#864,#865);
#710=AXIS2_PLACEMENT_3D('',#1061,#867,#868);
#711=AXIS2_PLACEMENT_3D('',#1063,#869,#870);
#712=AXIS2_PLACEMENT_3D('',#1065,#872,#873);
#713=AXIS2_PLACEMENT_3D('',#1067,#874,#875);
#714=AXIS2_PLACEMENT_3D('',#1069,#877,#878);
#715=AXIS2_PLACEMENT_3D('',#1071,#879,#880);
#716=AXIS2_PLACEMENT_3D('',#1073,#882,#883);
#717=AXIS2_PLACEMENT_3D('',#1075,#884,#885);
#718=AXIS2_PLACEMENT_3D('',#1077,#887,#888);
#719=AXIS2_PLACEMENT_3D('',#1081,#891,#892);
#720=AXIS2_PLACEMENT_3D('',#1083,#893,#894);
#721=AXIS2_PLACEMENT_3D('',#1085,#896,#897);
#722=AXIS2_PLACEMENT_3D('',#1087,#899,#900);
#723=AXIS2_PLACEMENT_3D('',#1089,#901,#902);
#724=AXIS2_PLACEMENT_3D('',#1091,#904,#905);
#725=AXIS2_PLACEMENT_3D('',#1093,#906,#907);
#726=AXIS2_PLACEMENT_3D('',#1095,#909,#910);
#727=AXIS2_PLACEMENT_3D('',#1099,#913,#914);
#728=AXIS2_PLACEMENT_3D('',#1101,#915,#916);
#729=AXIS2_PLACEMENT_3D('',#1103,#918,#919);
#730=AXIS2_PLACEMENT_3D('',#1105,#921,#922);
#731=DIRECTION('axis',(0.,0.,1.));
#732=DIRECTION('refdir',(1.,0.,0.));
#733=DIRECTION('center_axis',(0.,0.,1.));
#734=DIRECTION('ref_axis',(1.,0.,0.));
#735=DIRECTION('center_axis',(0.,0.,1.));
#736=DIRECTION('ref_axis',(1.,8.88178419700113E-15,0.));
#737=DIRECTION('',(4.67462326066306E-16,1.,0.));
#738=DIRECTION('center_axis',(0.,0.,1.));
#739=DIRECTION('ref_axis',(3.55271367880049E-14,-1.,0.));
#740=DIRECTION('',(1.,0.,0.));
#741=DIRECTION('center_axis',(0.,0.,1.));
#742=DIRECTION('ref_axis',(-1.,-3.33066907387547E-15,0.));
#743=DIRECTION('',(0.,-1.,0.));
#744=DIRECTION('center_axis',(0.,0.,1.));
#745=DIRECTION('ref_axis',(7.45059125506489E-9,1.,0.));
#746=DIRECTION('',(-1.,7.45058056286017E-9,0.));
#747=DIRECTION('center_axis',(0.,0.,-1.));
#748=DIRECTION('ref_axis',(1.,0.,0.));
#749=DIRECTION('center_axis',(0.,0.,-1.));
#750=DIRECTION('ref_axis',(0.,1.,0.));
#751=DIRECTION('',(0.,1.,0.));
#752=DIRECTION('center_axis',(0.,0.,-1.));
#753=DIRECTION('ref_axis',(-1.,-8.88178419700118E-15,0.));
#754=DIRECTION('',(-1.,-4.67462316992526E-16,0.));
#755=DIRECTION('center_axis',(0.,0.,-1.));
#756=DIRECTION('ref_axis',(-1.1842378929335E-14,-1.,0.));
#757=DIRECTION('',(0.,-1.,0.));
#758=DIRECTION('center_axis',(0.,0.,-1.));
#759=DIRECTION('ref_axis',(1.,5.92118946466749E-15,0.));
#760=DIRECTION('',(1.,0.,0.));
#761=DIRECTION('center_axis',(0.,0.,-1.));
#762=DIRECTION('ref_axis',(1.,0.,0.));
#763=DIRECTION('center_axis',(0.,0.,-1.));
#764=DIRECTION('ref_axis',(1.,0.,0.));
#765=DIRECTION('center_axis',(0.,0.,-1.));
#766=DIRECTION('ref_axis',(1.,0.,0.));
#767=DIRECTION('center_axis',(0.,0.,-1.));
#768=DIRECTION('ref_axis',(1.,0.,0.));
#769=DIRECTION('center_axis',(0.,0.,-1.));
#770=DIRECTION('ref_axis',(-5.92118946466745E-15,1.,0.));
#771=DIRECTION('',(0.,1.,0.));
#772=DIRECTION('center_axis',(0.,0.,-1.));
#773=DIRECTION('ref_axis',(-1.,-8.88178419700118E-15,0.));
#774=DIRECTION('',(-1.,0.,0.));
#775=DIRECTION('center_axis',(0.,0.,-1.));
#776=DIRECTION('ref_axis',(5.92118946466745E-15,-1.,0.));
#777=DIRECTION('',(0.,-1.,0.));
#778=DIRECTION('center_axis',(0.,0.,-1.));
#779=DIRECTION('ref_axis',(1.,8.88178419700118E-15,0.));
#780=DIRECTION('',(1.,0.,0.));
#781=DIRECTION('center_axis',(0.,0.,-1.));
#782=DIRECTION('ref_axis',(1.,0.,0.));
#783=DIRECTION('center_axis',(0.,1.,0.));
#784=DIRECTION('ref_axis',(-1.,0.,0.));
#785=DIRECTION('',(0.,0.,1.));
#786=DIRECTION('',(-1.,0.,0.));
#787=DIRECTION('',(0.,0.,1.));
#788=DIRECTION('center_axis',(0.,0.,1.));
#789=DIRECTION('ref_axis',(-1.,-8.88178419700118E-15,0.));
#790=DIRECTION('',(0.,0.,1.));
#791=DIRECTION('center_axis',(0.,0.,-1.));
#792=DIRECTION('ref_axis',(-1.,-8.88178419700118E-15,0.));
#793=DIRECTION('center_axis',(1.,0.,0.));
#794=DIRECTION('ref_axis',(0.,1.,0.));
#795=DIRECTION('',(0.,0.,1.));
#796=DIRECTION('',(0.,1.,0.));
#797=DIRECTION('center_axis',(0.,0.,1.));
#798=DIRECTION('ref_axis',(-5.92118946466745E-15,1.,0.));
#799=DIRECTION('',(0.,0.,1.));
#800=DIRECTION('center_axis',(0.,0.,-1.));
#801=DIRECTION('ref_axis',(-5.92118946466745E-15,1.,0.));
#802=DIRECTION('center_axis',(-4.67462316992526E-16,1.,0.));
#803=DIRECTION('ref_axis',(-1.,-4.67462316992526E-16,0.));
#804=DIRECTION('',(0.,0.,1.));
#805=DIRECTION('',(-1.,-4.67462316992526E-16,0.));
#806=DIRECTION('',(0.,0.,1.));
#807=DIRECTION('center_axis',(0.,0.,1.));
#808=DIRECTION('ref_axis',(-1.,-8.88178419700118E-15,0.));
#809=DIRECTION('',(0.,0.,1.));
#810=DIRECTION('center_axis',(0.,0.,-1.));
#811=DIRECTION('ref_axis',(-1.,-8.88178419700118E-15,0.));
#812=DIRECTION('center_axis',(1.,0.,0.));
#813=DIRECTION('ref_axis',(0.,1.,0.));
#814=DIRECTION('',(0.,0.,1.));
#815=DIRECTION('',(0.,1.,0.));
#816=DIRECTION('center_axis',(0.,0.,1.));
#817=DIRECTION('ref_axis',(0.,1.,0.));
#818=DIRECTION('',(0.,0.,1.));
#819=DIRECTION('center_axis',(0.,0.,-1.));
#820=DIRECTION('ref_axis',(0.,1.,0.));
#821=DIRECTION('center_axis',(0.,-1.,0.));
#822=DIRECTION('ref_axis',(1.,0.,0.));
#823=DIRECTION('',(0.,0.,1.));
#824=DIRECTION('',(1.,0.,0.));
#825=DIRECTION('',(0.,0.,1.));
#826=DIRECTION('center_axis',(0.,0.,1.));
#827=DIRECTION('ref_axis',(3.55271367880049E-14,-1.,0.));
#828=DIRECTION('',(0.,0.,1.));
#829=DIRECTION('center_axis',(0.,0.,1.));
#830=DIRECTION('ref_axis',(3.55271367880049E-14,-1.,0.));
#831=DIRECTION('center_axis',(1.,-4.67462326066306E-16,0.));
#832=DIRECTION('ref_axis',(4.67462326066306E-16,1.,0.));
#833=DIRECTION('',(0.,0.,1.));
#834=DIRECTION('',(4.67462326066306E-16,1.,0.));
#835=DIRECTION('center_axis',(0.,0.,1.));
#836=DIRECTION('ref_axis',(1.,8.88178419700113E-15,0.));
#837=DIRECTION('',(0.,0.,1.));
#838=DIRECTION('center_axis',(0.,0.,1.));
#839=DIRECTION('ref_axis',(1.,8.88178419700113E-15,0.));
#840=DIRECTION('center_axis',(0.,0.,1.));
#841=DIRECTION('ref_axis',(1.,0.,0.));
#842=DIRECTION('center_axis',(0.,0.,-1.));
#843=DIRECTION('ref_axis',(1.,0.,0.));
#844=DIRECTION('',(0.,0.,-1.));
#845=DIRECTION('center_axis',(0.,0.,1.));
#846=DIRECTION('ref_axis',(5.92118946466745E-15,-1.,0.));
#847=DIRECTION('center_axis',(0.,0.,-1.));
#848=DIRECTION('ref_axis',(5.92118946466745E-15,-1.,0.));
#849=DIRECTION('',(0.,0.,1.));
#850=DIRECTION('center_axis',(-1.,0.,0.));
#851=DIRECTION('ref_axis',(0.,-1.,0.));
#852=DIRECTION('',(0.,-1.,0.));
#853=DIRECTION('',(0.,0.,1.));
#854=DIRECTION('center_axis',(0.,0.,1.));
#855=DIRECTION('ref_axis',(1.,8.88178419700118E-15,0.));
#856=DIRECTION('center_axis',(0.,0.,-1.));
#857=DIRECTION('ref_axis',(1.,8.88178419700118E-15,0.));
#858=DIRECTION('',(0.,0.,1.));
#859=DIRECTION('center_axis',(0.,-1.,0.));
#860=DIRECTION('ref_axis',(1.,0.,0.));
#861=DIRECTION('',(1.,0.,0.));
#862=DIRECTION('center_axis',(0.,0.,1.));
#863=DIRECTION('ref_axis',(1.,0.,0.));
#864=DIRECTION('center_axis',(0.,0.,-1.));
#865=DIRECTION('ref_axis',(1.,0.,0.));
#866=DIRECTION('',(0.,0.,-1.));
#867=DIRECTION('center_axis',(0.,0.,1.));
#868=DIRECTION('ref_axis',(1.,0.,0.));
#869=DIRECTION('center_axis',(0.,0.,-1.));
#870=DIRECTION('ref_axis',(1.,0.,0.));
#871=DIRECTION('',(0.,0.,-1.));
#872=DIRECTION('center_axis',(0.,0.,1.));
#873=DIRECTION('ref_axis',(1.,0.,0.));
#874=DIRECTION('center_axis',(0.,0.,-1.));
#875=DIRECTION('ref_axis',(1.,0.,0.));
#876=DIRECTION('',(0.,0.,-1.));
#877=DIRECTION('center_axis',(0.,0.,1.));
#878=DIRECTION('ref_axis',(1.,0.,0.));
#879=DIRECTION('center_axis',(0.,0.,-1.));
#880=DIRECTION('ref_axis',(1.,0.,0.));
#881=DIRECTION('',(0.,0.,-1.));
#882=DIRECTION('center_axis',(0.,0.,1.));
#883=DIRECTION('ref_axis',(-1.1842378929335E-14,-1.,0.));
#884=DIRECTION('center_axis',(0.,0.,-1.));
#885=DIRECTION('ref_axis',(-1.1842378929335E-14,-1.,0.));
#886=DIRECTION('',(0.,0.,1.));
#887=DIRECTION('center_axis',(-1.,0.,0.));
#888=DIRECTION('ref_axis',(0.,-1.,0.));
#889=DIRECTION('',(0.,-1.,0.));
#890=DIRECTION('',(0.,0.,1.));
#891=DIRECTION('center_axis',(0.,0.,1.));
#892=DIRECTION('ref_axis',(1.,5.92118946466749E-15,0.));
#893=DIRECTION('center_axis',(0.,0.,-1.));
#894=DIRECTION('ref_axis',(1.,5.92118946466749E-15,0.));
#895=DIRECTION('',(0.,0.,1.));
#896=DIRECTION('center_axis',(0.,-1.,0.));
#897=DIRECTION('ref_axis',(1.,0.,0.));
#898=DIRECTION('',(1.,0.,0.));
#899=DIRECTION('center_axis',(0.,0.,1.));
#900=DIRECTION('ref_axis',(1.,0.,0.));
#901=DIRECTION('center_axis',(0.,0.,-1.));
#902=DIRECTION('ref_axis',(1.,0.,0.));
#903=DIRECTION('',(0.,0.,-1.));
#904=DIRECTION('center_axis',(0.,0.,1.));
#905=DIRECTION('ref_axis',(-1.,-3.33066907387547E-15,0.));
#906=DIRECTION('center_axis',(0.,0.,1.));
#907=DIRECTION('ref_axis',(-1.,-3.33066907387547E-15,0.));
#908=DIRECTION('',(0.,0.,1.));
#909=DIRECTION('center_axis',(-1.,0.,0.));
#910=DIRECTION('ref_axis',(0.,-1.,0.));
#911=DIRECTION('',(0.,-1.,0.));
#912=DIRECTION('',(0.,0.,1.));
#913=DIRECTION('center_axis',(0.,0.,1.));
#914=DIRECTION('ref_axis',(7.45059125506489E-9,1.,0.));
#915=DIRECTION('center_axis',(0.,0.,1.));
#916=DIRECTION('ref_axis',(7.45059125506489E-9,1.,0.));
#917=DIRECTION('',(0.,0.,1.));
#918=DIRECTION('center_axis',(7.45058056286017E-9,1.,0.));
#919=DIRECTION('ref_axis',(-1.,7.45058056286017E-9,0.));
#920=DIRECTION('',(-1.,7.45058056286017E-9,0.));
#921=DIRECTION('center_axis',(0.,0.,1.));
#922=DIRECTION('ref_axis',(1.,0.,0.));
#923=CARTESIAN_POINT('',(0.,0.,0.));
#924=CARTESIAN_POINT('Origin',(100.000000074506,50.0000006631017,20.));
#925=CARTESIAN_POINT('',(190.,88.0000000149012,20.));
#926=CARTESIAN_POINT('',(188.000000014901,90.0000000149012,20.));
#927=CARTESIAN_POINT('Origin',(188.,88.0000000149011,20.));
#928=CARTESIAN_POINT('',(190.,12.,20.));
#929=CARTESIAN_POINT('',(190.,31.0000003315508,20.));
#930=CARTESIAN_POINT('',(188.,10.,20.));
#931=CARTESIAN_POINT('Origin',(188.,12.,20.));
#932=CARTESIAN_POINT('',(12.0000001490116,10.,20.));
#933=CARTESIAN_POINT('',(56.0000001117587,10.,20.));
#934=CARTESIAN_POINT('',(10.0000001490116,12.,20.));
#935=CARTESIAN_POINT('Origin',(12.0000001490116,12.,20.));
#936=CARTESIAN_POINT('',(10.0000001490116,88.0000013262033,20.));
#937=CARTESIAN_POINT('',(10.0000001490116,69.0000009946525,20.));
#938=CARTESIAN_POINT('',(12.0000001639128,90.0000013262033,20.));
#939=CARTESIAN_POINT('Origin',(12.0000001490116,88.0000013262033,20.));
#940=CARTESIAN_POINT('',(144.000000193715,90.0000003427267,20.));
#941=CARTESIAN_POINT('',(13.4000002235174,73.0000010877848,20.));
#942=CARTESIAN_POINT('Origin',(15.0000002235174,73.0000010877848,20.));
#943=CARTESIAN_POINT('',(79.0000011771917,31.5000004917383,20.));
#944=CARTESIAN_POINT('',(80.5000011771917,33.0000004917383,20.));
#945=CARTESIAN_POINT('Origin',(80.5000011771917,31.5000004917383,20.));
#946=CARTESIAN_POINT('',(79.0000011771917,22.5000004917383,20.));
#947=CARTESIAN_POINT('',(79.0000011771917,36.25000057742,20.));
#948=CARTESIAN_POINT('',(80.5000011771917,21.0000004917383,20.));
#949=CARTESIAN_POINT('Origin',(80.5000011771917,22.5000004917383,20.));
#950=CARTESIAN_POINT('',(90.0000013634562,21.0000004917383,20.));
#951=CARTESIAN_POINT('',(95.000000718981,21.0000004917383,20.));
#952=CARTESIAN_POINT('',(91.5000013634562,22.5000004917383,20.));
#953=CARTESIAN_POINT('Origin',(90.0000013634562,22.5000004917383,20.));
#954=CARTESIAN_POINT('',(91.5000013634562,31.5000004917383,20.));
#955=CARTESIAN_POINT('',(91.5000013634562,40.75000057742,20.));
#956=CARTESIAN_POINT('',(90.0000013634562,33.0000004917383,20.));
#957=CARTESIAN_POINT('Origin',(90.0000013634562,31.5000004917383,20.));
#958=CARTESIAN_POINT('',(90.2500006258488,33.0000004917383,20.));
#959=CARTESIAN_POINT('',(100.400001519918,85.0000012665987,20.));
#960=CARTESIAN_POINT('Origin',(102.000001519918,85.0000012665987,20.));
#961=CARTESIAN_POINT('',(100.400001519918,15.0000002235174,20.));
#962=CARTESIAN_POINT('Origin',(102.000001519918,15.0000002235174,20.));
#963=CARTESIAN_POINT('',(13.4000002235174,26.0000003874302,20.));
#964=CARTESIAN_POINT('Origin',(15.0000002235174,26.0000003874302,20.));
#965=CARTESIAN_POINT('',(183.400002756715,15.0000002235174,20.));
#966=CARTESIAN_POINT('Origin',(185.000002756715,15.0000002235174,20.));
#967=CARTESIAN_POINT('',(51.0000007599592,31.5000004917383,20.));
#968=CARTESIAN_POINT('',(52.5000007599592,33.0000004917383,20.));
#969=CARTESIAN_POINT('Origin',(52.5000007599592,31.5000004917383,20.));
#970=CARTESIAN_POINT('',(51.0000007599592,22.5000004917383,20.));
#971=CARTESIAN_POINT('',(51.0000007599592,36.25000057742,20.));
#972=CARTESIAN_POINT('',(52.5000007599592,21.0000004917383,20.));
#973=CARTESIAN_POINT('Origin',(52.5000007599592,22.5000004917383,20.));
#974=CARTESIAN_POINT('',(74.3499983269721,21.0000004917383,20.));
#975=CARTESIAN_POINT('',(87.174999200739,21.0000004917383,20.));
#976=CARTESIAN_POINT('',(75.8499983269721,22.5000004917383,20.));
#977=CARTESIAN_POINT('Origin',(74.3499983269721,22.5000004917383,20.));
#978=CARTESIAN_POINT('',(75.8499983269721,31.5000004917383,20.));
#979=CARTESIAN_POINT('',(75.8499983269721,40.75000057742,20.));
#980=CARTESIAN_POINT('',(74.3499983269721,33.0000004917383,20.));
#981=CARTESIAN_POINT('Origin',(74.3499983269721,31.5000004917383,20.));
#982=CARTESIAN_POINT('',(76.2500004172325,33.0000004917383,20.));
#983=CARTESIAN_POINT('',(183.400002756715,85.0000012665987,20.));
#984=CARTESIAN_POINT('Origin',(185.000002756715,85.0000012665987,20.));
#985=CARTESIAN_POINT('Origin',(74.3499983269721,21.0000004917383,0.));
#986=CARTESIAN_POINT('',(52.5000007599592,21.0000004917383,23.));
#987=CARTESIAN_POINT('',(52.5000007599592,21.0000004917383,0.));
#988=CARTESIAN_POINT('',(74.3499983269721,21.0000004917383,23.));
#989=CARTESIAN_POINT('',(74.3499983269721,21.0000004917383,23.));
#990=CARTESIAN_POINT('',(74.3499983269721,21.0000004917383,0.));
#991=CARTESIAN_POINT('Origin',(52.5000007599592,22.5000004917383,0.));
#992=CARTESIAN_POINT('',(51.0000007599592,22.5000004917383,23.));
#993=CARTESIAN_POINT('',(51.0000007599592,22.5000004917383,0.));
#994=CARTESIAN_POINT('Origin',(52.5000007599592,22.5000004917383,23.));
#995=CARTESIAN_POINT('Origin',(51.0000007599592,22.5000004917383,0.));
#996=CARTESIAN_POINT('',(51.0000007599592,31.5000004917383,23.));
#997=CARTESIAN_POINT('',(51.0000007599592,31.5000004917383,0.));
#998=CARTESIAN_POINT('',(51.0000007599592,22.5000004917383,23.));
#999=CARTESIAN_POINT('Origin',(52.5000007599592,31.5000004917383,0.));
#1000=CARTESIAN_POINT('',(52.5000007599592,33.0000004917383,23.));
#1001=CARTESIAN_POINT('',(52.5000007599592,33.0000004917383,0.));
#1002=CARTESIAN_POINT('Origin',(52.5000007599592,31.5000004917383,23.));
#1003=CARTESIAN_POINT('Origin',(90.0000013634562,21.0000004917383,0.));
#1004=CARTESIAN_POINT('',(80.5000011771917,21.0000004917383,23.));
#1005=CARTESIAN_POINT('',(80.5000011771917,21.0000004917383,0.));
#1006=CARTESIAN_POINT('',(90.0000013634562,21.0000004917383,23.));
#1007=CARTESIAN_POINT('',(90.0000013634562,21.0000004917383,23.));
#1008=CARTESIAN_POINT('',(90.0000013634562,21.0000004917383,0.));
#1009=CARTESIAN_POINT('Origin',(80.5000011771917,22.5000004917383,0.));
#1010=CARTESIAN_POINT('',(79.0000011771917,22.5000004917383,23.));
#1011=CARTESIAN_POINT('',(79.0000011771917,22.5000004917383,0.));
#1012=CARTESIAN_POINT('Origin',(80.5000011771917,22.5000004917383,23.));
#1013=CARTESIAN_POINT('Origin',(79.0000011771917,22.5000004917383,0.));
#1014=CARTESIAN_POINT('',(79.0000011771917,31.5000004917383,23.));
#1015=CARTESIAN_POINT('',(79.0000011771917,31.5000004917383,0.));
#1016=CARTESIAN_POINT('',(79.0000011771917,22.5000004917383,23.));
#1017=CARTESIAN_POINT('Origin',(80.5000011771917,31.5000004917383,0.));
#1018=CARTESIAN_POINT('',(80.5000011771917,33.0000004917383,23.));
#1019=CARTESIAN_POINT('',(80.5000011771917,33.0000004917383,0.));
#1020=CARTESIAN_POINT('Origin',(80.5000011771917,31.5000004917383,23.));
#1021=CARTESIAN_POINT('Origin',(12.0000001490116,10.,0.));
#1022=CARTESIAN_POINT('',(188.,10.,23.));
#1023=CARTESIAN_POINT('',(188.,10.,0.));
#1024=CARTESIAN_POINT('',(12.0000001490116,10.,23.));
#1025=CARTESIAN_POINT('',(12.0000001490116,10.,23.));
#1026=CARTESIAN_POINT('',(12.0000001490116,10.,0.));
#1027=CARTESIAN_POINT('Origin',(188.,12.,0.));
#1028=CARTESIAN_POINT('',(190.,12.,23.));
#1029=CARTESIAN_POINT('',(190.,12.,0.));
#1030=CARTESIAN_POINT('Origin',(188.,12.,23.));
#1031=CARTESIAN_POINT('Origin',(190.,12.,0.));
#1032=CARTESIAN_POINT('',(190.,88.0000000149012,23.));
#1033=CARTESIAN_POINT('',(190.,88.0000000149012,0.));
#1034=CARTESIAN_POINT('',(190.,12.,23.));
#1035=CARTESIAN_POINT('Origin',(188.,88.0000000149011,0.));
#1036=CARTESIAN_POINT('',(188.000000014901,90.0000000149012,23.));
#1037=CARTESIAN_POINT('',(188.000000014901,90.0000000149012,0.));
#1038=CARTESIAN_POINT('Origin',(188.,88.0000000149011,23.));
#1039=CARTESIAN_POINT('Origin',(185.000002756715,85.0000012665987,0.));
#1040=CARTESIAN_POINT('',(183.400002756715,85.0000012665987,23.));
#1041=CARTESIAN_POINT('Origin',(185.000002756715,85.0000012665987,23.));
#1042=CARTESIAN_POINT('',(183.400002756715,85.0000012665987,0.));
#1043=CARTESIAN_POINT('Origin',(74.3499983269721,22.5000004917383,0.));
#1044=CARTESIAN_POINT('',(75.8499983269721,22.5000004917383,23.));
#1045=CARTESIAN_POINT('Origin',(74.3499983269721,22.5000004917383,23.));
#1046=CARTESIAN_POINT('',(75.8499983269721,22.5000004917383,0.));
#1047=CARTESIAN_POINT('Origin',(75.8499983269721,31.5000004917383,0.));
#1048=CARTESIAN_POINT('',(75.8499983269721,31.5000004917383,23.));
#1049=CARTESIAN_POINT('',(75.8499983269721,31.5000004917383,23.));
#1050=CARTESIAN_POINT('',(75.8499983269721,31.5000004917383,0.));
#1051=CARTESIAN_POINT('Origin',(74.3499983269721,31.5000004917383,0.));
#1052=CARTESIAN_POINT('',(74.3499983269721,33.0000004917383,23.));
#1053=CARTESIAN_POINT('Origin',(74.3499983269721,31.5000004917383,23.));
#1054=CARTESIAN_POINT('',(74.3499983269721,33.0000004917383,0.));
#1055=CARTESIAN_POINT('Origin',(52.5000007599592,33.0000004917383,0.));
#1056=CARTESIAN_POINT('',(52.5000007599592,33.0000004917383,23.));
#1057=CARTESIAN_POINT('Origin',(185.000002756715,15.0000002235174,0.));
#1058=CARTESIAN_POINT('',(183.400002756715,15.0000002235174,23.));
#1059=CARTESIAN_POINT('Origin',(185.000002756715,15.0000002235174,23.));
#1060=CARTESIAN_POINT('',(183.400002756715,15.0000002235174,0.));
#1061=CARTESIAN_POINT('Origin',(15.0000002235174,26.0000003874302,0.));
#1062=CARTESIAN_POINT('',(13.4000002235174,26.0000003874302,23.));
#1063=CARTESIAN_POINT('Origin',(15.0000002235174,26.0000003874302,23.));
#1064=CARTESIAN_POINT('',(13.4000002235174,26.0000003874302,0.));
#1065=CARTESIAN_POINT('Origin',(102.000001519918,15.0000002235174,0.));
#1066=CARTESIAN_POINT('',(100.400001519918,15.0000002235174,23.));
#1067=CARTESIAN_POINT('Origin',(102.000001519918,15.0000002235174,23.));
#1068=CARTESIAN_POINT('',(100.400001519918,15.0000002235174,0.));
#1069=CARTESIAN_POINT('Origin',(102.000001519918,85.0000012665987,0.));
#1070=CARTESIAN_POINT('',(100.400001519918,85.0000012665987,23.));
#1071=CARTESIAN_POINT('Origin',(102.000001519918,85.0000012665987,23.));
#1072=CARTESIAN_POINT('',(100.400001519918,85.0000012665987,0.));
#1073=CARTESIAN_POINT('Origin',(90.0000013634562,22.5000004917383,0.));
#1074=CARTESIAN_POINT('',(91.5000013634562,22.5000004917383,23.));
#1075=CARTESIAN_POINT('Origin',(90.0000013634562,22.5000004917383,23.));
#1076=CARTESIAN_POINT('',(91.5000013634562,22.5000004917383,0.));
#1077=CARTESIAN_POINT('Origin',(91.5000013634562,31.5000004917383,0.));
#1078=CARTESIAN_POINT('',(91.5000013634562,31.5000004917383,23.));
#1079=CARTESIAN_POINT('',(91.5000013634562,31.5000004917383,23.));
#1080=CARTESIAN_POINT('',(91.5000013634562,31.5000004917383,0.));
#1081=CARTESIAN_POINT('Origin',(90.0000013634562,31.5000004917383,0.));
#1082=CARTESIAN_POINT('',(90.0000013634562,33.0000004917383,23.));
#1083=CARTESIAN_POINT('Origin',(90.0000013634562,31.5000004917383,23.));
#1084=CARTESIAN_POINT('',(90.0000013634562,33.0000004917383,0.));
#1085=CARTESIAN_POINT('Origin',(80.5000011771917,33.0000004917383,0.));
#1086=CARTESIAN_POINT('',(80.5000011771917,33.0000004917383,23.));
#1087=CARTESIAN_POINT('Origin',(15.0000002235174,73.0000010877848,0.));
#1088=CARTESIAN_POINT('',(13.4000002235174,73.0000010877848,23.));
#1089=CARTESIAN_POINT('Origin',(15.0000002235174,73.0000010877848,23.));
#1090=CARTESIAN_POINT('',(13.4000002235174,73.0000010877848,0.));
#1091=CARTESIAN_POINT('Origin',(12.0000001490116,12.,0.));
#1092=CARTESIAN_POINT('',(10.0000001490116,12.,23.));
#1093=CARTESIAN_POINT('Origin',(12.0000001490116,12.,23.));
#1094=CARTESIAN_POINT('',(10.0000001490116,12.,0.));
#1095=CARTESIAN_POINT('Origin',(10.0000001490116,88.0000013262033,0.));
#1096=CARTESIAN_POINT('',(10.0000001490116,88.0000013262033,23.));
#1097=CARTESIAN_POINT('',(10.0000001490116,88.0000013262033,23.));
#1098=CARTESIAN_POINT('',(10.0000001490116,88.0000013262033,0.));
#1099=CARTESIAN_POINT('Origin',(12.0000001490116,88.0000013262033,0.));
#1100=CARTESIAN_POINT('',(12.0000001639128,90.0000013262033,23.));
#1101=CARTESIAN_POINT('Origin',(12.0000001490116,88.0000013262033,23.));
#1102=CARTESIAN_POINT('',(12.0000001639128,90.0000013262033,0.));
#1103=CARTESIAN_POINT('Origin',(188.000000014901,90.0000000149012,0.));
#1104=CARTESIAN_POINT('',(188.000000014901,90.0000000149012,23.));
#1105=CARTESIAN_POINT('Origin',(100.000000074506,50.0000006631017,23.));
#1106=UNCERTAINTY_MEASURE_WITH_UNIT(LENGTH_MEASURE(0.01),#1110,
'DISTANCE_ACCURACY_VALUE',
'Maximum model space distance between geometric entities at asserted c
onnectivities');
#1107=UNCERTAINTY_MEASURE_WITH_UNIT(LENGTH_MEASURE(0.01),#1110,
'DISTANCE_ACCURACY_VALUE',
'Maximum model space distance between geometric entities at asserted c
onnectivities');
#1108=(
GEOMETRIC_REPRESENTATION_CONTEXT(3)
GLOBAL_UNCERTAINTY_ASSIGNED_CONTEXT((#1106))
GLOBAL_UNIT_ASSIGNED_CONTEXT((#1110,#1112,#1113))
REPRESENTATION_CONTEXT('','3D')
);
#1109=(
GEOMETRIC_REPRESENTATION_CONTEXT(3)
GLOBAL_UNCERTAINTY_ASSIGNED_CONTEXT((#1107))
GLOBAL_UNIT_ASSIGNED_CONTEXT((#1110,#1112,#1113))
REPRESENTATION_CONTEXT('','3D')
);
#1110=(
LENGTH_UNIT()
NAMED_UNIT(*)
SI_UNIT(.MILLI.,.METRE.)
);
#1111=(
LENGTH_UNIT()
NAMED_UNIT(*)
SI_UNIT($,.METRE.)
);
#1112=(
NAMED_UNIT(*)
PLANE_ANGLE_UNIT()
SI_UNIT($,.RADIAN.)
);
#1113=(
NAMED_UNIT(*)
SI_UNIT($,.STERADIAN.)
SOLID_ANGLE_UNIT()
);
#1114=SHAPE_DEFINITION_REPRESENTATION(#1115,#1116);
#1115=PRODUCT_DEFINITION_SHAPE('',$,#1118);
#1116=SHAPE_REPRESENTATION('',(#662),#1108);
#1117=PRODUCT_DEFINITION_CONTEXT('part definition',#1122,'design');
#1118=PRODUCT_DEFINITION('2026-04-12-19-03-49-793','FusionComponent',#1119,
#1117);
#1119=PRODUCT_DEFINITION_FORMATION('',$,#1124);
#1120=PRODUCT_RELATED_PRODUCT_CATEGORY('FusionComponent',
'FusionComponent',(#1124));
#1121=APPLICATION_PROTOCOL_DEFINITION('international standard',
'automotive_design',2009,#1122);
#1122=APPLICATION_CONTEXT(
'Core Data for Automotive Mechanical Design Process');
#1123=PRODUCT_CONTEXT('part definition',#1122,'mechanical');
#1124=PRODUCT('2026-04-12-19-03-49-793','FusionComponent',$,(#1123));
#1125=PRESENTATION_STYLE_ASSIGNMENT((#1127));
#1126=PRESENTATION_STYLE_ASSIGNMENT((#1128));
#1127=SURFACE_STYLE_USAGE(.BOTH.,#1129);
#1128=SURFACE_STYLE_USAGE(.BOTH.,#1130);
#1129=SURFACE_SIDE_STYLE('',(#1131));
#1130=SURFACE_SIDE_STYLE('',(#1132));
#1131=SURFACE_STYLE_FILL_AREA(#1133);
#1132=SURFACE_STYLE_FILL_AREA(#1134);
#1133=FILL_AREA_STYLE('Steel - Satin',(#1135));
#1134=FILL_AREA_STYLE('Acrylic (Clear)',(#1136));
#1135=FILL_AREA_STYLE_COLOUR('Steel - Satin',#1137);
#1136=FILL_AREA_STYLE_COLOUR('Acrylic (Clear)',#1138);
#1137=COLOUR_RGB('Steel - Satin',0.627450980392157,0.627450980392157,0.627450980392157);
#1138=COLOUR_RGB('Acrylic (Clear)',0.964705882352941,0.964705882352941,
0.952941176470588);
ENDSEC;
END-ISO-10303-21;
