G04*
G04 #@! TF.GenerationSoftware,Altium Limited,Altium Designer,25.5.2 (35)*
G04*
G04 Layer_Color=32768*
%FSLAX25Y25*%
%MOIN*%
G70*
G04*
G04 #@! TF.SameCoordinates,74914265-353A-42BA-94C5-A8DABEA31AB8*
G04*
G04*
G04 #@! TF.FilePolarity,Positive*
G04*
G01*
G75*
%ADD11C,0.00787*%
%ADD15C,0.00394*%
%ADD223C,0.00197*%
D11*
X537185Y291338D02*
Y297835D01*
X525177D02*
X537185D01*
X525177Y291338D02*
Y297835D01*
Y291338D02*
X537185D01*
X72847Y125578D02*
Y134264D01*
X57074D02*
X72847D01*
X57074Y125578D02*
Y134264D01*
Y125578D02*
X72847D01*
X57456Y118086D02*
Y126008D01*
Y118086D02*
X72465D01*
Y126008D01*
X57456D02*
X72465D01*
X148622Y200492D02*
Y228642D01*
X126969Y200492D02*
X148622D01*
X126969D02*
Y228642D01*
X148622D01*
X85236Y235236D02*
X95866D01*
X85236D02*
Y241142D01*
X95866D01*
Y235236D02*
Y241142D01*
X168799Y65650D02*
Y72146D01*
Y65650D02*
X180807D01*
Y72146D01*
X168799D02*
X180807D01*
X161516Y65650D02*
Y72146D01*
X149508D02*
X161516D01*
X149508Y65650D02*
Y72146D01*
Y65650D02*
X161516D01*
X649733Y173425D02*
Y185630D01*
Y173425D02*
X670206D01*
Y185630D01*
X649733D02*
X670206D01*
X588189Y173425D02*
Y185630D01*
Y173425D02*
X608661D01*
Y185630D01*
X588189D02*
X608661D01*
X275787Y88189D02*
Y124409D01*
X295079D01*
Y88189D02*
Y124409D01*
X275787Y88189D02*
X295079D01*
X173658Y164098D02*
Y183668D01*
X189013D01*
Y164098D02*
Y183668D01*
X173658Y164098D02*
X189013D01*
X155709Y116905D02*
Y135063D01*
X171063D01*
Y116905D02*
Y135063D01*
X155709Y116905D02*
X171063D01*
X367835Y98838D02*
X384134D01*
Y121634D01*
X367835D02*
X384134D01*
X367835Y98838D02*
Y121634D01*
X409507Y143898D02*
Y159252D01*
Y143898D02*
X429076D01*
Y159252D01*
X409507D02*
X429076D01*
X173978Y116905D02*
X189332D01*
Y135063D01*
X173978D02*
X189332D01*
X173978Y116905D02*
Y135063D01*
X403740Y163444D02*
X419095D01*
Y183013D01*
X403740D02*
X419095D01*
X403740Y163444D02*
Y183013D01*
X386516Y110335D02*
X393012D01*
X386516Y98327D02*
Y110335D01*
Y98327D02*
X393012D01*
Y110335D01*
X76279Y148917D02*
X88287D01*
Y142421D02*
Y148917D01*
X76279Y142421D02*
X88287D01*
X76279D02*
Y148917D01*
X76772Y167717D02*
X88583D01*
X76772Y151181D02*
Y167717D01*
Y151181D02*
X88583D01*
Y167717D01*
X45276Y161417D02*
X70866D01*
Y141732D02*
Y161417D01*
X45276Y141732D02*
X70866D01*
X45276D02*
Y161417D01*
X77362Y140748D02*
X87992D01*
Y134843D02*
Y140748D01*
X77362Y134843D02*
X87992D01*
X77362D02*
Y140748D01*
X228543Y88189D02*
X247835D01*
Y124409D01*
X228543D02*
X247835D01*
X228543Y88189D02*
Y124409D01*
X204331Y88189D02*
X223622D01*
Y124409D01*
X204331D02*
X223622D01*
X204331Y88189D02*
Y124409D01*
X251575Y88189D02*
X270866D01*
Y124409D01*
X251575D02*
X270866D01*
X251575Y88189D02*
Y124409D01*
X313779Y88189D02*
X333071D01*
Y124409D01*
X313779D02*
X333071D01*
X313779Y88189D02*
Y124409D01*
X285630Y163444D02*
X300984D01*
Y183013D01*
X285630D02*
X300984D01*
X285630Y163444D02*
Y183013D01*
X289961Y154528D02*
X300590D01*
X289961D02*
Y160433D01*
X300590D01*
Y154528D02*
Y160433D01*
X188878Y87894D02*
X200886D01*
Y81398D02*
Y87894D01*
X188878Y81398D02*
X200886D01*
X188878D02*
Y87894D01*
X248228Y163444D02*
X263583D01*
Y183013D01*
X248228D02*
X263583D01*
X248228Y163444D02*
Y183013D01*
X210827Y164098D02*
X226181D01*
Y183668D01*
X210827D02*
X226181D01*
X210827Y164098D02*
Y183668D01*
X223819Y154528D02*
Y160433D01*
X213189D02*
X223819D01*
X213189Y154528D02*
Y160433D01*
Y154528D02*
X223819D01*
X186417D02*
Y160433D01*
X175787D02*
X186417D01*
X175787Y154528D02*
Y160433D01*
Y154528D02*
X186417D01*
X250590D02*
X261221D01*
X250590D02*
Y160433D01*
X261221D01*
Y154528D02*
Y160433D01*
X386516Y84744D02*
X393012D01*
X386516Y72736D02*
Y84744D01*
Y72736D02*
X393012D01*
Y84744D01*
X326829Y163976D02*
X346399D01*
Y148622D02*
Y163976D01*
X326829Y148622D02*
X346399D01*
X326829D02*
Y163976D01*
X188878Y76083D02*
X200886D01*
Y69587D02*
Y76083D01*
X188878Y69587D02*
X200886D01*
X188878D02*
Y76083D01*
X395669Y275197D02*
X403543D01*
Y291732D01*
X395669D02*
X403543D01*
X395669Y275197D02*
Y291732D01*
X360641Y276171D02*
Y302569D01*
Y276171D02*
X391327D01*
Y302569D01*
X360641D02*
X391327D01*
X365145Y273437D02*
X386823D01*
Y261996D02*
Y273437D01*
X365145Y261996D02*
X386823D01*
X365145D02*
Y273437D01*
X363189Y305118D02*
Y324803D01*
Y305118D02*
X388779D01*
Y324803D01*
X363189D02*
X388779D01*
X338189Y88189D02*
X357480D01*
Y124409D01*
X338189D02*
X357480D01*
X338189Y88189D02*
Y124409D01*
X188878Y45965D02*
Y52461D01*
Y45965D02*
X200886D01*
Y52461D01*
X188878D02*
X200886D01*
X188878Y64272D02*
X200886D01*
Y57776D02*
Y64272D01*
X188878Y57776D02*
X200886D01*
X188878D02*
Y64272D01*
X149776Y58425D02*
X180563D01*
Y47638D02*
Y58425D01*
X149776Y47638D02*
X180563D01*
X149776D02*
Y58425D01*
X326829Y181693D02*
X346399D01*
Y166339D02*
Y181693D01*
X326829Y166339D02*
X346399D01*
X326829D02*
Y181693D01*
X474420Y224026D02*
Y239381D01*
X454850D02*
X474420D01*
X454850Y224026D02*
Y239381D01*
Y224026D02*
X474420D01*
X330112Y242323D02*
X349682D01*
X330112D02*
Y257677D01*
X349682D01*
Y242323D02*
Y257677D01*
X102638Y301595D02*
Y324390D01*
X86339Y301595D02*
X102638D01*
X86339D02*
Y324390D01*
X102638D01*
X181102Y286417D02*
Y332087D01*
X216535D01*
Y286417D02*
Y332087D01*
X181102Y286417D02*
X216535D01*
X105217Y308858D02*
Y313189D01*
Y308858D02*
X113878D01*
Y313189D01*
X105217D02*
X113878D01*
X86221Y336614D02*
Y348425D01*
Y336614D02*
X102756D01*
Y348425D01*
X86221D02*
X102756D01*
X482756Y238689D02*
Y247375D01*
Y238689D02*
X498528D01*
Y247375D01*
X482756D02*
X498528D01*
X594082Y248019D02*
Y263792D01*
X602768D01*
Y248019D02*
Y263792D01*
X594082Y248019D02*
X602768D01*
X676083Y225787D02*
X693209D01*
X676083Y195472D02*
Y225787D01*
Y195472D02*
X693209D01*
Y225787D01*
X690457Y188779D02*
X708615D01*
Y173425D02*
Y188779D01*
X690457Y173425D02*
X708615D01*
X690457D02*
Y188779D01*
X418398Y274394D02*
X427846D01*
X418398D02*
Y279118D01*
X427846D01*
Y274394D02*
Y279118D01*
X418398Y252740D02*
X427846D01*
X418398D02*
Y257465D01*
X427846D01*
Y252740D02*
Y257465D01*
X413117Y280562D02*
Y289617D01*
X418235D01*
Y280562D02*
Y289617D01*
X413117Y280562D02*
X418235D01*
Y290404D02*
Y299459D01*
X413117Y290404D02*
X418235D01*
X413117D02*
Y299459D01*
X418235D01*
X429034Y282853D02*
Y297420D01*
X421160Y282853D02*
X429034D01*
X421160D02*
Y297420D01*
X429034D01*
X484909Y253686D02*
X496374D01*
Y248126D02*
Y253686D01*
X484909Y248126D02*
X496374D01*
X484909D02*
Y253686D01*
X486311Y264390D02*
X494973D01*
X486311D02*
Y268918D01*
X494973D01*
Y264390D02*
Y268918D01*
X485327Y261733D02*
X495957D01*
Y255827D02*
Y261733D01*
X485327Y255827D02*
X495957D01*
X485327D02*
Y261733D01*
X497228Y278559D02*
Y287245D01*
X481456D02*
X497228D01*
X481456Y278559D02*
Y287245D01*
Y278559D02*
X497228D01*
X481456Y286433D02*
X497228D01*
X481456D02*
Y295119D01*
X497228D01*
Y286433D02*
Y295119D01*
Y270685D02*
Y279371D01*
X481456D02*
X497228D01*
X481456Y270685D02*
Y279371D01*
Y270685D02*
X497228D01*
X545079Y278937D02*
Y287993D01*
X549410D01*
Y278937D02*
Y287993D01*
X545079Y278937D02*
X549410D01*
X551169Y287807D02*
X566941D01*
Y279122D02*
Y287807D01*
X551169Y279122D02*
X566941D01*
X551169D02*
Y287807D01*
X480039Y109823D02*
X496339D01*
X480039Y87028D02*
Y109823D01*
Y87028D02*
X496339D01*
Y109823D01*
X499724D02*
X516024D01*
X499724Y87028D02*
Y109823D01*
Y87028D02*
X516024D01*
Y109823D01*
X460354D02*
X476653D01*
X460354Y87028D02*
Y109823D01*
Y87028D02*
X476653D01*
Y109823D01*
X440669D02*
X456968D01*
X440669Y87028D02*
Y109823D01*
Y87028D02*
X456968D01*
Y109823D01*
X446161Y156102D02*
X463287D01*
Y186417D01*
X446161D02*
X463287D01*
X446161Y156102D02*
Y186417D01*
X485532Y156102D02*
Y186417D01*
X502658D01*
Y156102D02*
Y186417D01*
X485532Y156102D02*
X502658D01*
X465847D02*
X482973D01*
Y186417D01*
X465847D02*
X482973D01*
X465847Y156102D02*
Y186417D01*
X505217Y156102D02*
Y186417D01*
X522342D01*
Y156102D02*
Y186417D01*
X505217Y156102D02*
X522342D01*
X452795Y333106D02*
Y343894D01*
X422008D02*
X452795D01*
X422008Y333106D02*
Y343894D01*
Y333106D02*
X452795D01*
X439272Y319587D02*
Y326083D01*
Y319587D02*
X451279D01*
Y326083D01*
X439272D02*
X451279D01*
X423524Y319587D02*
Y326083D01*
Y319587D02*
X435532D01*
Y326083D01*
X423524D02*
X435532D01*
X523996Y87028D02*
X540295D01*
Y109823D01*
X523996D02*
X540295D01*
X523996Y87028D02*
Y109823D01*
X542894Y113898D02*
Y130198D01*
X520099D02*
X542894D01*
X520099Y113898D02*
Y130198D01*
Y113898D02*
X542894D01*
X546153Y132677D02*
X560146D01*
X546153Y119291D02*
Y132677D01*
Y119291D02*
X560146D01*
Y132677D01*
X565839D02*
X579831D01*
X565839Y119291D02*
Y132677D01*
Y119291D02*
X579831D01*
Y132677D01*
X528839Y186417D02*
X545965D01*
X528839Y156102D02*
Y186417D01*
Y156102D02*
X545965D01*
Y186417D01*
X548524Y186417D02*
X565650D01*
X548524Y156103D02*
Y186417D01*
Y156103D02*
X565650D01*
Y186417D01*
X640453Y195472D02*
Y225787D01*
X623327Y195472D02*
X640453D01*
X623327D02*
Y225787D01*
X640453D01*
X626748Y188779D02*
X644906D01*
Y173425D02*
Y188779D01*
X626748Y173425D02*
X644906D01*
X626748D02*
Y188779D01*
X740170Y168885D02*
Y177571D01*
X724397D02*
X740170D01*
X724397Y168885D02*
Y177571D01*
Y168885D02*
X740170D01*
X509429Y291338D02*
X521437D01*
X509429D02*
Y297835D01*
X521437D01*
Y291338D02*
Y297835D01*
X557067D02*
X569075D01*
Y291338D02*
Y297835D01*
X557067Y291338D02*
X569075D01*
X557067D02*
Y297835D01*
X540925D02*
X552933D01*
Y291338D02*
Y297835D01*
X540925Y291338D02*
X552933D01*
X540925D02*
Y297835D01*
X592532Y290933D02*
Y299619D01*
X576759D02*
X592532D01*
X576759Y290933D02*
Y299619D01*
Y290933D02*
X592532D01*
X576476Y290354D02*
X604626D01*
Y268701D02*
Y290354D01*
X576476Y268701D02*
X604626D01*
X576476D02*
Y290354D01*
X367835Y71279D02*
Y94075D01*
X384134D01*
Y71279D02*
Y94075D01*
X367835Y71279D02*
X384134D01*
X206693Y269291D02*
X214567D01*
Y285827D01*
X206693D02*
X214567D01*
X206693Y269291D02*
Y285827D01*
X168885Y257862D02*
X177571D01*
Y273634D01*
X168885D02*
X177571D01*
X168885Y257862D02*
Y273634D01*
X69894Y248216D02*
Y259658D01*
X48216D02*
X69894D01*
X48216Y248216D02*
Y259658D01*
Y248216D02*
X69894D01*
X176587Y283553D02*
Y299124D01*
X146248D02*
X176587D01*
X146248Y283553D02*
Y299124D01*
Y283553D02*
X176587D01*
X314961Y290158D02*
Y335827D01*
X350394D01*
Y290158D02*
Y335827D01*
X314961Y290158D02*
X350394D01*
X273622Y326378D02*
Y342913D01*
X265748Y326378D02*
X273622D01*
X265748D02*
Y342913D01*
X273622D01*
D15*
X153740Y76772D02*
X157283D01*
X155512Y75000D02*
Y78543D01*
X173425Y76772D02*
X176969D01*
X175197Y75000D02*
Y78543D01*
X484252Y312992D02*
Y316929D01*
X482283Y314961D02*
X486221D01*
X568898Y242126D02*
X572835D01*
X570866Y240158D02*
Y244094D01*
X523721Y224410D02*
X527461D01*
X525591Y222539D02*
Y226279D01*
X521339Y281594D02*
Y285335D01*
X519468Y283465D02*
X523209D01*
X135827Y181201D02*
Y184941D01*
X133957Y183071D02*
X137697D01*
X421358Y176673D02*
X425098D01*
X423228Y174803D02*
Y178543D01*
X295276Y145669D02*
Y149606D01*
X293307Y147638D02*
X297244D01*
X255906Y145669D02*
Y149606D01*
X253937Y147638D02*
X257874D01*
X209780Y79527D02*
X287835D01*
Y43307D02*
Y79527D01*
X209724Y43307D02*
Y79527D01*
X209780Y43307D02*
X287835D01*
X614173Y181201D02*
Y184941D01*
X612303Y183071D02*
X616043D01*
X677883Y181201D02*
Y184941D01*
X676013Y183071D02*
X679753D01*
X157579Y112205D02*
X161319D01*
X159449Y110335D02*
Y114075D01*
X165453Y112205D02*
X169193D01*
X167323Y110335D02*
Y114075D01*
X379921Y246161D02*
Y249902D01*
X378051Y248031D02*
X381791D01*
X110236Y54626D02*
Y58366D01*
X108366Y56496D02*
X112106D01*
X104429Y90551D02*
X108169D01*
X106299Y88681D02*
Y92421D01*
X104429Y96457D02*
X108169D01*
X106299Y94587D02*
Y98327D01*
X102362Y137795D02*
Y141732D01*
X100394Y139764D02*
X104331D01*
X102362Y157480D02*
Y161417D01*
X100394Y159449D02*
X104331D01*
X102362Y167323D02*
Y171260D01*
X100394Y169291D02*
X104331D01*
X102362Y147638D02*
Y151575D01*
X100394Y149606D02*
X104331D01*
X403543Y129921D02*
X407480D01*
X405512Y127953D02*
Y131890D01*
X141732Y181201D02*
Y184941D01*
X139862Y183071D02*
X143602D01*
X128051D02*
X131791D01*
X129921Y181201D02*
Y184941D01*
X165453Y155512D02*
X169193D01*
X167323Y153642D02*
Y157382D01*
X177718Y110335D02*
Y114075D01*
X175848Y112205D02*
X179588D01*
X185592Y110335D02*
Y114075D01*
X183722Y112205D02*
X187462D01*
X419390Y187008D02*
X423130D01*
X421260Y185138D02*
Y188878D01*
X421850Y163386D02*
X425591D01*
X423721Y161516D02*
Y165256D01*
X82677Y92520D02*
Y96457D01*
X80709Y94488D02*
X84646D01*
X112205Y212598D02*
Y216535D01*
X110236Y214567D02*
X114173D01*
X86614Y212598D02*
Y216535D01*
X84646Y214567D02*
X88583D01*
X143701Y232480D02*
Y236024D01*
X141929Y234252D02*
X145472D01*
X318996Y169291D02*
X322736D01*
X320866Y167421D02*
Y171161D01*
X240256Y169291D02*
X243996D01*
X242126Y167421D02*
Y171161D01*
X202854Y169291D02*
X206594D01*
X204724Y167421D02*
Y171161D01*
X277658Y169291D02*
X281398D01*
X279528Y167421D02*
Y171161D01*
X204724Y153642D02*
Y157382D01*
X202854Y155512D02*
X206594D01*
X242126Y153642D02*
Y157382D01*
X240256Y155512D02*
X243996D01*
X279528Y152657D02*
Y156398D01*
X277658Y154528D02*
X281398D01*
X218504Y145669D02*
Y149606D01*
X216535Y147638D02*
X220472D01*
X179134D02*
X183071D01*
X181102Y145669D02*
Y149606D01*
X165453Y169291D02*
X169193D01*
X167323Y167421D02*
Y171161D01*
X318996Y158268D02*
X322736D01*
X320866Y156398D02*
Y160138D01*
X311339Y43307D02*
Y79527D01*
X311394Y43307D02*
X359449D01*
Y79527D01*
X311394D02*
X359449D01*
X352362Y175787D02*
Y179528D01*
X350492Y177657D02*
X354232D01*
X421358Y129921D02*
X425098D01*
X423228Y128051D02*
Y131791D01*
X356299Y167421D02*
Y171161D01*
X354429Y169291D02*
X358169D01*
X364272Y187008D02*
X368012D01*
X366142Y185138D02*
Y188878D01*
X413386Y100394D02*
Y104331D01*
X411417Y102362D02*
X415354D01*
X366142Y149606D02*
X370079D01*
X368110Y147638D02*
Y151575D01*
X443080Y235641D02*
X446820D01*
X444950Y233770D02*
Y237511D01*
X336614Y139764D02*
Y143701D01*
X334646Y141732D02*
X338583D01*
X407579Y187008D02*
X411319D01*
X409449Y185138D02*
Y188878D01*
X114043Y320736D02*
X117980D01*
X116011Y318767D02*
Y322704D01*
X238189Y314961D02*
X242126D01*
X240158Y312992D02*
Y316929D01*
X698819Y224410D02*
Y228346D01*
X696850Y226378D02*
X700787D01*
X612205Y222441D02*
Y226378D01*
X610236Y224410D02*
X614173D01*
X525591Y238287D02*
Y242028D01*
X523721Y240158D02*
X527461D01*
X537500Y283465D02*
X541240D01*
X539370Y281594D02*
Y285335D01*
X515748Y281594D02*
Y285335D01*
X513878Y283465D02*
X517618D01*
X531320D02*
X535060D01*
X533190Y281594D02*
Y285335D01*
X525513Y283465D02*
X529056D01*
X527284Y281693D02*
Y285236D01*
X131890Y232480D02*
Y236024D01*
X130118Y234252D02*
X133661D01*
X448835Y198228D02*
X452575D01*
X450705Y196358D02*
Y200098D01*
X448819Y141732D02*
Y145669D01*
X446850Y143701D02*
X450787D01*
X468504Y120080D02*
Y124016D01*
X466536Y122048D02*
X470473D01*
X446851Y122048D02*
X450788D01*
X448819Y120079D02*
Y124016D01*
X466535Y143701D02*
X470472D01*
X468504Y141732D02*
Y145669D01*
X486221Y143701D02*
X490158D01*
X488189Y141732D02*
Y145669D01*
X505905Y143701D02*
X509842D01*
X507874Y141732D02*
Y145669D01*
X488189Y120080D02*
Y124016D01*
X486221Y122048D02*
X490158D01*
X505906Y122048D02*
X509843D01*
X507874Y120080D02*
Y124017D01*
X490158Y198917D02*
Y202658D01*
X488287Y200787D02*
X492028D01*
X498130Y196850D02*
X501870D01*
X500000Y194980D02*
Y198721D01*
X517815Y194882D02*
X521555D01*
X519685Y193012D02*
Y196752D01*
X509842Y198917D02*
Y202658D01*
X507972Y200787D02*
X511713D01*
X458760Y196850D02*
X462500D01*
X460630Y194980D02*
Y198721D01*
X477946Y197155D02*
X481686D01*
X479816Y195285D02*
Y199025D01*
X470472Y198917D02*
Y202658D01*
X468602Y200787D02*
X472342D01*
X438126Y79528D02*
X516181D01*
Y43307D02*
Y79528D01*
X438071Y43307D02*
Y79528D01*
X438126Y43307D02*
X516181D01*
X538992Y79528D02*
X587047D01*
Y43307D02*
Y79528D01*
X538992Y43307D02*
X587047D01*
X538937D02*
Y79528D01*
X598047D02*
X646102D01*
Y43307D02*
Y79528D01*
X598047Y43307D02*
X646102D01*
X597992D02*
Y79528D01*
X657102D02*
X705158D01*
Y43307D02*
Y79528D01*
X657102Y43307D02*
X705158D01*
X657047D02*
Y79528D01*
X529528Y141831D02*
Y145571D01*
X527658Y143701D02*
X531398D01*
X555118Y141831D02*
Y145571D01*
X553248Y143701D02*
X556988D01*
X537402Y141831D02*
Y145571D01*
X535532Y143701D02*
X539272D01*
X561122D02*
X564862D01*
X562992Y141831D02*
Y145571D01*
X543405Y143701D02*
X547146D01*
X545276Y141831D02*
Y145571D01*
X570866Y141831D02*
Y145571D01*
X568996Y143701D02*
X572736D01*
X537402Y188976D02*
Y192913D01*
X535433Y190945D02*
X539370D01*
X555118D02*
X559055D01*
X557087Y188976D02*
Y192913D01*
X733569Y129430D02*
Y133170D01*
X731699Y131300D02*
X735439D01*
X685757Y181201D02*
Y184941D01*
X683887Y183071D02*
X687627D01*
X726476Y212598D02*
X730217D01*
X728346Y210728D02*
Y214469D01*
X730413Y252896D02*
X734154D01*
X732283Y251026D02*
Y254766D01*
X718602Y265748D02*
X722342D01*
X720472Y263878D02*
Y267618D01*
X362894Y248031D02*
X366634D01*
X364764Y246161D02*
Y249902D01*
X443080Y227766D02*
X446820D01*
X444950Y225896D02*
Y229637D01*
X620177Y183071D02*
X623917D01*
X622047Y181201D02*
Y184941D01*
X263779Y273622D02*
Y320866D01*
X311024D01*
Y273622D02*
Y320866D01*
X263779Y273622D02*
X311024D01*
X50748Y43307D02*
Y79528D01*
X50803Y43307D02*
X98858D01*
Y79528D01*
X50803D02*
X98858D01*
X159449Y265748D02*
X163386D01*
X161417Y263779D02*
Y267717D01*
X43307Y309842D02*
X79528D01*
X43307D02*
Y342953D01*
X79528D01*
Y309842D02*
Y342953D01*
D223*
X162008Y72835D02*
Y80709D01*
X149016Y72835D02*
Y80709D01*
Y72835D02*
X162008D01*
X149016Y80709D02*
X162008D01*
X168701Y72835D02*
Y80709D01*
X181693Y72835D02*
Y80709D01*
X168701D02*
X181693D01*
X168701Y72835D02*
X181693D01*
X520078Y228150D02*
X538976D01*
X520078D02*
Y236418D01*
X538976D01*
Y228150D02*
Y236418D01*
X650717Y197047D02*
X669615D01*
Y188779D02*
Y197047D01*
X650717Y188779D02*
X669615D01*
X650717D02*
Y197047D01*
X600545Y197047D02*
X619443D01*
Y188779D02*
Y197047D01*
X600545Y188779D02*
X619443D01*
X600545D02*
Y197047D01*
X477756Y322441D02*
X490748D01*
X477756Y307480D02*
X490748D01*
Y322441D01*
X477756Y307480D02*
Y322441D01*
X549213Y218701D02*
Y265551D01*
X592520Y218701D02*
Y265551D01*
X549213Y218701D02*
X592520D01*
X549213Y265551D02*
X592520D01*
X521260Y222047D02*
Y226772D01*
X529921Y222047D02*
Y226772D01*
X521260D02*
X529921D01*
X521260Y222047D02*
X529921D01*
X440492Y295728D02*
X472894D01*
Y263327D02*
Y295728D01*
X440492Y263327D02*
X472894D01*
X440492D02*
Y295728D01*
X518976Y278937D02*
X523701D01*
X518976Y287992D02*
X523701D01*
X518976Y278937D02*
Y287992D01*
X523701Y278937D02*
Y287992D01*
X132874Y188976D02*
X138779D01*
X132874Y177165D02*
X138779D01*
Y188976D01*
X132874Y177165D02*
Y188976D01*
X425591Y172343D02*
Y181004D01*
X420866Y172343D02*
Y181004D01*
X425591D01*
X420866Y172343D02*
X425591D01*
X287598Y151575D02*
X302953D01*
X287598Y143701D02*
X302953D01*
X287598D02*
Y151575D01*
X302953Y143701D02*
Y151575D01*
X248228D02*
X263583D01*
X248228Y143701D02*
X263583D01*
X248228D02*
Y151575D01*
X263583Y143701D02*
Y151575D01*
X500276Y327815D02*
Y359055D01*
X459567Y327815D02*
X500276D01*
X459567D02*
Y359055D01*
X500276D01*
X582677Y91339D02*
Y168504D01*
Y91339D02*
X645669D01*
Y168504D01*
X582677D02*
X645669D01*
X611811Y187402D02*
X616535D01*
X611811Y178740D02*
X616535D01*
Y187402D01*
X611811Y178740D02*
Y187402D01*
X675521Y187402D02*
X680245D01*
X675521Y178740D02*
X680245D01*
Y187402D01*
X675521Y178740D02*
Y187402D01*
X157087Y107677D02*
Y116732D01*
X161811Y107677D02*
Y116732D01*
X157087Y107677D02*
X161811D01*
X157087Y116732D02*
X161811D01*
X169685Y107677D02*
Y116732D01*
X164961Y107677D02*
Y116732D01*
X169685D01*
X164961Y107677D02*
X169685D01*
X374016Y250984D02*
X385827D01*
X374016Y245079D02*
X385827D01*
X374016D02*
Y250984D01*
X385827Y245079D02*
Y250984D01*
X106102Y64173D02*
X114370D01*
X106102Y48819D02*
X114370D01*
Y64173D01*
X106102Y48819D02*
Y64173D01*
X110827Y88189D02*
Y92913D01*
X101772Y88189D02*
Y92913D01*
Y88189D02*
X110827D01*
X101772Y92913D02*
X110827D01*
X110827Y94095D02*
Y98819D01*
X101772Y94095D02*
Y98819D01*
Y94095D02*
X110827D01*
X101772Y98819D02*
X110827D01*
X94685Y135827D02*
X110039D01*
X94685Y143701D02*
X110039D01*
Y135827D02*
Y143701D01*
X94685Y135827D02*
Y143701D01*
Y155512D02*
X110039D01*
X94685Y163386D02*
X110039D01*
Y155512D02*
Y163386D01*
X94685Y155512D02*
Y163386D01*
Y165354D02*
X110039D01*
X94685Y173228D02*
X110039D01*
Y165354D02*
Y173228D01*
X94685Y165354D02*
Y173228D01*
Y145669D02*
X110039D01*
X94685Y153543D02*
X110039D01*
Y145669D02*
Y153543D01*
X94685Y145669D02*
Y153543D01*
X401181Y121063D02*
Y138779D01*
X409842Y121063D02*
Y138779D01*
X401181Y121063D02*
X409842D01*
X401181Y138779D02*
X409842D01*
X139370Y187402D02*
X144095D01*
X139370Y178740D02*
X144095D01*
Y187402D01*
X139370Y178740D02*
Y187402D01*
X126969Y177165D02*
Y188976D01*
X132874Y177165D02*
Y188976D01*
X126969Y177165D02*
X132874D01*
X126969Y188976D02*
X132874D01*
X170276Y149606D02*
Y161417D01*
X164370Y149606D02*
Y161417D01*
X170276D01*
X164370Y149606D02*
X170276D01*
X147244Y127756D02*
Y136024D01*
X128347D02*
X147244D01*
X128347Y127756D02*
Y136024D01*
Y127756D02*
X147244D01*
Y137598D02*
Y145866D01*
X128347D02*
X147244D01*
X128347Y137598D02*
Y145866D01*
Y137598D02*
X147244D01*
X128347Y151378D02*
Y159646D01*
Y151378D02*
X147244D01*
Y159646D01*
X128347D02*
X147244D01*
X175356Y116732D02*
X180080D01*
X175356Y107677D02*
X180080D01*
Y116732D01*
X175356Y107677D02*
Y116732D01*
X183230Y107677D02*
X187954D01*
X183230Y116732D02*
X187954D01*
X183230Y107677D02*
Y116732D01*
X187954Y107677D02*
Y116732D01*
X416732Y184646D02*
Y189370D01*
X425787Y184646D02*
Y189370D01*
X416732D02*
X425787D01*
X416732Y184646D02*
X425787D01*
X419390Y161024D02*
Y165748D01*
X428051Y161024D02*
Y165748D01*
X419390D02*
X428051D01*
X419390Y161024D02*
X428051D01*
X88819Y88504D02*
Y100472D01*
X76535Y88504D02*
X88819D01*
X76535Y100472D02*
X88819D01*
X76535Y88504D02*
Y100472D01*
X101181Y229134D02*
X123228D01*
X101181Y200000D02*
X123228D01*
Y229134D01*
X101181Y200000D02*
Y229134D01*
X75590D02*
X97638D01*
X75590Y200000D02*
X97638D01*
Y229134D01*
X75590Y200000D02*
Y229134D01*
X137205Y230315D02*
X150197D01*
X137205Y238189D02*
X150197D01*
Y230315D02*
Y238189D01*
X137205Y230315D02*
Y238189D01*
X325197Y166929D02*
Y171653D01*
X316535Y166929D02*
Y171653D01*
Y166929D02*
X325197D01*
X316535Y171653D02*
X325197D01*
X237992Y162598D02*
Y175984D01*
X246260Y162598D02*
Y175984D01*
X237992Y162598D02*
X246260D01*
X237992Y175984D02*
X246260D01*
X200590Y162598D02*
Y175984D01*
X208858Y162598D02*
Y175984D01*
X200590Y162598D02*
X208858D01*
X200590Y175984D02*
X208858D01*
X275394Y162598D02*
Y175984D01*
X283661Y162598D02*
Y175984D01*
X275394Y162598D02*
X283661D01*
X275394Y175984D02*
X283661D01*
X201772Y149606D02*
X207677D01*
X201772Y161417D02*
X207677D01*
X201772Y149606D02*
Y161417D01*
X207677Y149606D02*
Y161417D01*
X239173Y149606D02*
X245079D01*
X239173Y161417D02*
X245079D01*
X239173Y149606D02*
Y161417D01*
X245079Y149606D02*
Y161417D01*
X276575Y148622D02*
X282480D01*
X276575Y160433D02*
X282480D01*
X276575Y148622D02*
Y160433D01*
X282480Y148622D02*
Y160433D01*
X210827Y151575D02*
X226181D01*
X210827Y143701D02*
X226181D01*
X210827D02*
Y151575D01*
X226181Y143701D02*
Y151575D01*
X188779Y143701D02*
Y151575D01*
X173425Y143701D02*
Y151575D01*
Y143701D02*
X188779D01*
X173425Y151575D02*
X188779D01*
X163189Y162598D02*
Y175984D01*
X171457Y162598D02*
Y175984D01*
X163189Y162598D02*
X171457D01*
X163189Y175984D02*
X171457D01*
X318504Y153740D02*
Y162795D01*
X323228Y153740D02*
Y162795D01*
X318504Y153740D02*
X323228D01*
X318504Y162795D02*
X323228D01*
X350000Y181988D02*
X354724D01*
X350000Y173327D02*
X354724D01*
Y181988D01*
X350000Y173327D02*
Y181988D01*
X420276Y124016D02*
Y135827D01*
X426181Y124016D02*
Y135827D01*
X420276Y124016D02*
X426181D01*
X420276Y135827D02*
X426181D01*
X350394Y166339D02*
X362205D01*
X350394Y172244D02*
X362205D01*
Y166339D02*
Y172244D01*
X350394Y166339D02*
Y172244D01*
X370669Y184646D02*
Y189370D01*
X361614Y184646D02*
Y189370D01*
Y184646D02*
X370669D01*
X361614Y189370D02*
X370669D01*
X400197Y85630D02*
X426575D01*
Y119095D01*
X400197Y85630D02*
Y119095D01*
X426575D01*
X384842Y136417D02*
Y162795D01*
X351378D02*
X384842D01*
X351378Y136417D02*
X384842D01*
X351378D02*
Y162795D01*
X450855Y232688D02*
Y238593D01*
X439044Y232688D02*
Y238593D01*
Y232688D02*
X450855D01*
X439044Y238593D02*
X450855D01*
X327756Y137402D02*
X345472D01*
X327756Y146063D02*
X345472D01*
Y137402D02*
Y146063D01*
X327756Y137402D02*
Y146063D01*
X404921Y184646D02*
Y189370D01*
X413976Y184646D02*
Y189370D01*
X404921D02*
X413976D01*
X404921Y184646D02*
X413976D01*
X123590Y313846D02*
Y327625D01*
X108432Y313846D02*
Y327625D01*
Y313846D02*
X123590D01*
X108432Y327625D02*
X123590D01*
X261516Y282677D02*
Y347244D01*
X218799Y282677D02*
Y347244D01*
X261516D01*
X218799Y282677D02*
X261516D01*
X244626Y267520D02*
Y279724D01*
X219941D02*
X244626D01*
X219941Y267520D02*
Y279724D01*
Y267520D02*
X244626D01*
X694685Y233071D02*
X702953D01*
X694685Y219685D02*
X702953D01*
Y233071D01*
X694685Y219685D02*
Y233071D01*
X605512Y220276D02*
X618898D01*
X605512Y228543D02*
X618898D01*
Y220276D02*
Y228543D01*
X605512Y220276D02*
Y228543D01*
X538976Y243898D02*
Y252166D01*
X520078D02*
X538976D01*
X520078Y243898D02*
Y252166D01*
Y243898D02*
X538976D01*
X521260Y242520D02*
X529921D01*
X521260Y237795D02*
X529921D01*
X521260D02*
Y242520D01*
X529921Y237795D02*
Y242520D01*
X431660Y259334D02*
Y272720D01*
X415518D02*
X431660D01*
X415518Y259334D02*
X431660D01*
X415518D02*
Y272720D01*
X541732Y278937D02*
Y287992D01*
X537008Y278937D02*
Y287992D01*
X541732D01*
X537008Y278937D02*
X541732D01*
X513386Y278937D02*
X518110D01*
X513386Y287992D02*
X518110D01*
X513386Y278937D02*
Y287992D01*
X518110Y278937D02*
Y287992D01*
X535552Y278937D02*
Y287992D01*
X530828Y278937D02*
Y287992D01*
X535552D01*
X530828Y278937D02*
X535552D01*
X529450Y279331D02*
Y287598D01*
X525119Y279331D02*
Y287598D01*
X529450D01*
X525119Y279331D02*
X529450D01*
X125394Y238189D02*
X138386D01*
X125394Y230315D02*
X138386D01*
X125394D02*
Y238189D01*
X138386Y230315D02*
Y238189D01*
X453067Y193701D02*
Y202756D01*
X448343Y193701D02*
Y202756D01*
X453067D01*
X448343Y193701D02*
X453067D01*
X443110Y132874D02*
X454528D01*
X443110Y154528D02*
X454528D01*
X443110Y132874D02*
Y154528D01*
X454528Y132874D02*
Y154528D01*
X462796Y111221D02*
X474213D01*
X462796Y132875D02*
X474213D01*
X462796Y111221D02*
Y132875D01*
X474213Y111221D02*
Y132875D01*
X454528Y111221D02*
Y132875D01*
X443111Y111221D02*
Y132875D01*
X454528D01*
X443111Y111221D02*
X454528D01*
X474213Y132874D02*
Y154528D01*
X462795Y132874D02*
Y154528D01*
X474213D01*
X462795Y132874D02*
X474213D01*
X493898D02*
Y154528D01*
X482480Y132874D02*
Y154528D01*
X493898D01*
X482480Y132874D02*
X493898D01*
X513583D02*
Y154528D01*
X502165Y132874D02*
Y154528D01*
X513583D01*
X502165Y132874D02*
X513583D01*
X482481Y111221D02*
X493898D01*
X482481Y132875D02*
X493898D01*
X482481Y111221D02*
Y132875D01*
X493898Y111221D02*
Y132875D01*
X513583Y111221D02*
Y132875D01*
X502166Y111221D02*
Y132875D01*
X513583D01*
X502166Y111221D02*
X513583D01*
X485630Y198425D02*
X494685D01*
X485630Y203150D02*
X494685D01*
Y198425D02*
Y203150D01*
X485630Y198425D02*
Y203150D01*
X497638Y192323D02*
Y201378D01*
X502362Y192323D02*
Y201378D01*
X497638Y192323D02*
X502362D01*
X497638Y201378D02*
X502362D01*
X517323Y190354D02*
Y199409D01*
X522047Y190354D02*
Y199409D01*
X517323Y190354D02*
X522047D01*
X517323Y199409D02*
X522047D01*
X505315Y198425D02*
X514370D01*
X505315Y203150D02*
X514370D01*
Y198425D02*
Y203150D01*
X505315Y198425D02*
Y203150D01*
X458268Y192323D02*
Y201378D01*
X462992Y192323D02*
Y201378D01*
X458268Y192323D02*
X462992D01*
X458268Y201378D02*
X462992D01*
X477454Y192628D02*
Y201683D01*
X482178Y192628D02*
Y201683D01*
X477454Y192628D02*
X482178D01*
X477454Y201683D02*
X482178D01*
X465945Y198425D02*
X475000D01*
X465945Y203150D02*
X475000D01*
Y198425D02*
Y203150D01*
X465945Y198425D02*
Y203150D01*
X571535Y302441D02*
Y381890D01*
X507205D02*
X571535D01*
X507205Y302441D02*
Y381890D01*
Y302441D02*
X571535D01*
X649606Y168504D02*
X712598D01*
Y91339D02*
Y168504D01*
X649606Y91339D02*
X712598D01*
X649606D02*
Y168504D01*
X525394Y137008D02*
X533661D01*
X525394Y150394D02*
X533661D01*
X525394Y137008D02*
Y150394D01*
X533661Y137008D02*
Y150394D01*
X550984Y137008D02*
X559252D01*
X550984Y150394D02*
X559252D01*
X550984Y137008D02*
Y150394D01*
X559252Y137008D02*
Y150394D01*
X533268Y150197D02*
X541535D01*
X533268Y137205D02*
X541535D01*
Y150197D01*
X533268Y137205D02*
Y150197D01*
X558858Y137205D02*
Y150197D01*
X567126Y137205D02*
Y150197D01*
X558858Y137205D02*
X567126D01*
X558858Y150197D02*
X567126D01*
X542913Y139173D02*
Y148228D01*
X547638Y139173D02*
Y148228D01*
X542913Y139173D02*
X547638D01*
X542913Y148228D02*
X547638D01*
X568504D02*
X573228D01*
X568504Y139173D02*
X573228D01*
Y148228D01*
X568504Y139173D02*
Y148228D01*
X530709Y186811D02*
X544095D01*
X530709Y195079D02*
X544095D01*
Y186811D02*
Y195079D01*
X530709Y186811D02*
Y195079D01*
X550394Y186811D02*
Y195079D01*
X563779Y186811D02*
Y195079D01*
X550394D02*
X563779D01*
X550394Y186811D02*
X563779D01*
X729042Y128938D02*
X738097D01*
X729042Y133662D02*
X738097D01*
Y128938D02*
Y133662D01*
X729042Y128938D02*
Y133662D01*
X683395Y178740D02*
X688119D01*
X683395Y187402D02*
X688119D01*
X683395Y178740D02*
Y187402D01*
X688119Y178740D02*
Y187402D01*
X725984Y208071D02*
Y217126D01*
X730709Y208071D02*
Y217126D01*
X725984Y208071D02*
X730709D01*
X725984Y217126D02*
X730709D01*
X736811Y250534D02*
Y255258D01*
X727756Y250534D02*
Y255258D01*
Y250534D02*
X736811D01*
X727756Y255258D02*
X736811D01*
X718110Y261221D02*
Y270276D01*
X722835Y261221D02*
Y270276D01*
X718110Y261221D02*
X722835D01*
X718110Y270276D02*
X722835D01*
X372441Y243898D02*
Y252165D01*
X357087Y243898D02*
Y252165D01*
Y243898D02*
X372441D01*
X357087Y252165D02*
X372441D01*
X437273Y223633D02*
Y231900D01*
X452627Y223633D02*
Y231900D01*
X437273D02*
X452627D01*
X437273Y223633D02*
X452627D01*
X624409Y178740D02*
Y187402D01*
X619685Y178740D02*
Y187402D01*
X624409D01*
X619685Y178740D02*
X624409D01*
X167913Y254724D02*
Y276772D01*
X154921Y254724D02*
Y276772D01*
X167913D01*
X154921Y254724D02*
X167913D01*
M02*
