G04*
G04 #@! TF.GenerationSoftware,Altium Limited,Altium Designer,25.5.2 (35)*
G04*
G04 Layer_Color=2752767*
%FSLAX25Y25*%
%MOIN*%
G70*
G04*
G04 #@! TF.SameCoordinates,74914265-353A-42BA-94C5-A8DABEA31AB8*
G04*
G04*
G04 #@! TF.FilePolarity,Positive*
G04*
G01*
G75*
%ADD18C,0.00500*%
%ADD224C,0.00667*%
%ADD225C,0.00400*%
D18*
X560024Y101362D02*
Y100362D01*
X562024D01*
Y101362D01*
X563024D01*
Y103362D01*
X562024D01*
Y104362D01*
X560024D01*
Y103362D01*
X559024D01*
Y101362D01*
X560024D01*
X560424Y101762D02*
Y101162D01*
X561624D01*
Y101762D01*
X562224D01*
Y102962D01*
X561624D01*
Y103562D01*
X560424D01*
Y102962D01*
X559824D01*
Y101762D01*
X560424D01*
X231693Y94457D02*
X232693Y95457D01*
X233693D01*
X232693Y96457D01*
X233693Y97457D01*
X232693D01*
X231693Y98457D01*
X230693Y97457D01*
X229693D01*
X230693Y96457D01*
X229693Y95457D01*
X230693D01*
X231693Y94457D01*
X244685Y114142D02*
X245685Y115142D01*
X246685D01*
X245685Y116142D01*
X246685Y117142D01*
X245685D01*
X244685Y118142D01*
X243685Y117142D01*
X242685D01*
X243685Y116142D01*
X242685Y115142D01*
X243685D01*
X244685Y114142D01*
X231693D02*
X232693Y115142D01*
X233693D01*
X232693Y116142D01*
X233693Y117142D01*
X232693D01*
X231693Y118142D01*
X230693Y117142D01*
X229693D01*
X230693Y116142D01*
X229693Y115142D01*
X230693D01*
X231693Y114142D01*
X244685Y94457D02*
X245685Y95457D01*
X246685D01*
X245685Y96457D01*
X246685Y97457D01*
X245685D01*
X244685Y98457D01*
X243685Y97457D01*
X242685D01*
X243685Y96457D01*
X242685Y95457D01*
X243685D01*
X244685Y94457D01*
X231693Y104299D02*
X232693Y105299D01*
X233693D01*
X232693Y106299D01*
X233693Y107299D01*
X232693D01*
X231693Y108299D01*
X230693Y107299D01*
X229693D01*
X230693Y106299D01*
X229693Y105299D01*
X230693D01*
X231693Y104299D01*
X244685D02*
X245685Y105299D01*
X246685D01*
X245685Y106299D01*
X246685Y107299D01*
X245685D01*
X244685Y108299D01*
X243685Y107299D01*
X242685D01*
X243685Y106299D01*
X242685Y105299D01*
X243685D01*
X244685Y104299D01*
X233780Y72803D02*
X231780Y76803D01*
X235780D01*
X233780Y72803D01*
X132858Y101362D02*
Y100362D01*
X134858D01*
Y101362D01*
X135858D01*
Y103362D01*
X134858D01*
Y104362D01*
X132858D01*
Y103362D01*
X131858D01*
Y101362D01*
X132858D01*
X133258Y101762D02*
Y101162D01*
X134458D01*
Y101762D01*
X135058D01*
Y102962D01*
X134458D01*
Y103562D01*
X133258D01*
Y102962D01*
X132658D01*
Y101762D01*
X133258D01*
X577992Y72803D02*
X575992Y76803D01*
X579992D01*
X577992Y72803D01*
X507126D02*
X505126Y76803D01*
X509126D01*
X507126Y72803D01*
X350394Y72803D02*
X348394Y76803D01*
X352394D01*
X350394Y72803D01*
X66929Y202409D02*
X67929Y203409D01*
X68929D01*
X67929Y204409D01*
X68929Y205410D01*
X67929D01*
X66929Y206410D01*
X65929Y205410D01*
X64929D01*
X65929Y204409D01*
X64929Y203409D01*
X65929D01*
X66929Y202409D01*
Y203209D02*
X67529Y203809D01*
X68129D01*
X67529Y204409D01*
X68129Y205010D01*
X67529D01*
X66929Y205609D01*
X66329Y205010D01*
X65729D01*
X66329Y204409D01*
X65729Y203809D01*
X66329D01*
X66929Y203209D01*
X278780Y72803D02*
X276780Y76803D01*
X280780D01*
X278780Y72803D01*
X153169Y51032D02*
X154169Y53031D01*
X153169Y55032D01*
X155169Y54031D01*
X157169Y55032D01*
X156169Y53031D01*
X157169Y51032D01*
X155169Y52031D01*
X153169Y51032D01*
X89803Y72803D02*
X87803Y76803D01*
X91803D01*
X89803Y72803D01*
X130047Y60992D02*
X131047Y62992D01*
X130047Y64992D01*
X132047Y63992D01*
X134047Y64992D01*
X133047Y62992D01*
X134047Y60992D01*
X132047Y61992D01*
X130047Y60992D01*
Y70992D02*
X131047Y72992D01*
X130047Y74992D01*
X132047Y73992D01*
X134047Y74992D01*
X133047Y72992D01*
X134047Y70992D01*
X132047Y71992D01*
X130047Y70992D01*
X635795Y151937D02*
Y155937D01*
X639795D01*
Y151937D01*
X635795D01*
X702724D02*
Y155937D01*
X706724D01*
Y151937D01*
X702724D01*
X642449Y334811D02*
X643449Y336811D01*
X642449Y338811D01*
X644449Y337811D01*
X646449Y338811D01*
X645449Y336811D01*
X646449Y334811D01*
X644449Y335811D01*
X642449Y334811D01*
X625924Y281465D02*
Y285465D01*
X629924D01*
Y281465D01*
X625924D01*
X626724Y282265D02*
Y284665D01*
X629124D01*
Y282265D01*
X626724D01*
X494929Y346425D02*
X495929D01*
X496929Y347425D01*
X497929Y346425D01*
X498929D01*
Y347425D01*
X497929Y348425D01*
X498929Y349425D01*
Y350425D01*
X497929D01*
X496929Y349425D01*
X495929Y350425D01*
X494929D01*
Y349425D01*
X495929Y348425D01*
X494929Y347425D01*
Y346425D01*
Y333366D02*
X496929Y335366D01*
X498929Y333366D01*
X496929Y331366D01*
X494929Y333366D01*
X460913D02*
X462913Y335366D01*
X464913Y333366D01*
X462913Y331366D01*
X460913Y333366D01*
Y346425D02*
X461913D01*
X462913Y347425D01*
X463913Y346425D01*
X464913D01*
Y347425D01*
X463913Y348425D01*
X464913Y349425D01*
Y350425D01*
X463913D01*
X462913Y349425D01*
X461913Y350425D01*
X460913D01*
Y349425D01*
X461913Y348425D01*
X460913Y347425D01*
Y346425D01*
X445402Y336500D02*
X446402Y338500D01*
X445402Y340500D01*
X447402Y339500D01*
X449402Y340500D01*
X448402Y338500D01*
X449402Y336500D01*
X447402Y337500D01*
X445402Y336500D01*
X74803Y316898D02*
X72803Y320898D01*
X76803D01*
X74803Y316898D01*
X66929Y222410D02*
X67929Y223410D01*
X68929D01*
X67929Y224410D01*
X68929Y225410D01*
X67929D01*
X66929Y226410D01*
X65929Y225410D01*
X64929D01*
X65929Y224410D01*
X64929Y223410D01*
X65929D01*
X66929Y222410D01*
Y223210D02*
X67529Y223810D01*
X68129D01*
X67529Y224410D01*
X68129Y225009D01*
X67529D01*
X66929Y225609D01*
X66329Y225009D01*
X65729D01*
X66329Y224410D01*
X65729Y223810D01*
X66329D01*
X66929Y223210D01*
X652449Y334811D02*
X653449Y336811D01*
X652449Y338811D01*
X654449Y337811D01*
X656449Y338811D01*
X655449Y336811D01*
X656449Y334811D01*
X654449Y335811D01*
X652449Y334811D01*
X66929Y182409D02*
X67929Y183409D01*
X68929D01*
X67929Y184409D01*
X68929Y185409D01*
X67929D01*
X66929Y186409D01*
X65929Y185409D01*
X64929D01*
X65929Y184409D01*
X64929Y183409D01*
X65929D01*
X66929Y182409D01*
Y183209D02*
X67529Y183809D01*
X68129D01*
X67529Y184409D01*
X68129Y185009D01*
X67529D01*
X66929Y185609D01*
X66329Y185009D01*
X65729D01*
X66329Y184409D01*
X65729Y183809D01*
X66329D01*
X66929Y183209D01*
Y232410D02*
X67929Y233410D01*
X68929D01*
X67929Y234409D01*
X68929Y235409D01*
X67929D01*
X66929Y236409D01*
X65929Y235409D01*
X64929D01*
X65929Y234409D01*
X64929Y233410D01*
X65929D01*
X66929Y232410D01*
Y233209D02*
X67529Y233809D01*
X68129D01*
X67529Y234409D01*
X68129Y235010D01*
X67529D01*
X66929Y235610D01*
X66329Y235010D01*
X65729D01*
X66329Y234409D01*
X65729Y233809D01*
X66329D01*
X66929Y233209D01*
X588551Y151937D02*
Y155937D01*
X592551D01*
Y151937D01*
X588551D01*
X702724Y281465D02*
Y285465D01*
X706724D01*
Y281465D01*
X702724D01*
X703524Y282265D02*
Y284665D01*
X705924D01*
Y282265D01*
X703524D01*
X662449Y334811D02*
X663449Y336811D01*
X662449Y338811D01*
X664449Y337811D01*
X666449Y338811D01*
X665449Y336811D01*
X666449Y334811D01*
X664449Y335811D01*
X662449Y334811D01*
X672449D02*
X673449Y336811D01*
X672449Y338811D01*
X674449Y337811D01*
X676449Y338811D01*
X675449Y336811D01*
X676449Y334811D01*
X674449Y335811D01*
X672449Y334811D01*
X341339Y104299D02*
X342339Y105299D01*
X343339D01*
X342339Y106299D01*
X343339Y107299D01*
X342339D01*
X341339Y108299D01*
X340339Y107299D01*
X339339D01*
X340339Y106299D01*
X339339Y105299D01*
X340339D01*
X341339Y104299D01*
X218779Y72803D02*
X216779Y76803D01*
X220779D01*
X218779Y72803D01*
X220472Y104299D02*
X221472Y105299D01*
X222472D01*
X221472Y106299D01*
X222472Y107299D01*
X221472D01*
X220472Y108299D01*
X219472Y107299D01*
X218472D01*
X219472Y106299D01*
X218472Y105299D01*
X219472D01*
X220472Y104299D01*
Y114142D02*
X221472Y115142D01*
X222472D01*
X221472Y116142D01*
X222472Y117142D01*
X221472D01*
X220472Y118142D01*
X219472Y117142D01*
X218472D01*
X219472Y116142D01*
X218472Y115142D01*
X219472D01*
X220472Y114142D01*
X207480D02*
X208480Y115142D01*
X209480D01*
X208480Y116142D01*
X209480Y117142D01*
X208480D01*
X207480Y118142D01*
X206480Y117142D01*
X205480D01*
X206480Y116142D01*
X205480Y115142D01*
X206480D01*
X207480Y114142D01*
X291929Y94457D02*
X292929Y95457D01*
X293929D01*
X292929Y96457D01*
X293929Y97457D01*
X292929D01*
X291929Y98457D01*
X290929Y97457D01*
X289929D01*
X290929Y96457D01*
X289929Y95457D01*
X290929D01*
X291929Y94457D01*
Y104299D02*
X292929Y105299D01*
X293929D01*
X292929Y106299D01*
X293929Y107299D01*
X292929D01*
X291929Y108299D01*
X290929Y107299D01*
X289929D01*
X290929Y106299D01*
X289929Y105299D01*
X290929D01*
X291929Y104299D01*
Y114142D02*
X292929Y115142D01*
X293929D01*
X292929Y116142D01*
X293929Y117142D01*
X292929D01*
X291929Y118142D01*
X290929Y117142D01*
X289929D01*
X290929Y116142D01*
X289929Y115142D01*
X290929D01*
X291929Y114142D01*
X278937D02*
X279937Y115142D01*
X280937D01*
X279937Y116142D01*
X280937Y117142D01*
X279937D01*
X278937Y118142D01*
X277937Y117142D01*
X276937D01*
X277937Y116142D01*
X276937Y115142D01*
X277937D01*
X278937Y114142D01*
Y104299D02*
X279937Y105299D01*
X280937D01*
X279937Y106299D01*
X280937Y107299D01*
X279937D01*
X278937Y108299D01*
X277937Y107299D01*
X276937D01*
X277937Y106299D01*
X276937Y105299D01*
X277937D01*
X278937Y104299D01*
Y94457D02*
X279937Y95457D01*
X280937D01*
X279937Y96457D01*
X280937Y97457D01*
X279937D01*
X278937Y98457D01*
X277937Y97457D01*
X276937D01*
X277937Y96457D01*
X276937Y95457D01*
X277937D01*
X278937Y94457D01*
X263779Y72803D02*
X261779Y76803D01*
X265779D01*
X263779Y72803D01*
X248780D02*
X246779Y76803D01*
X250780D01*
X248780Y72803D01*
X588551Y103905D02*
Y107905D01*
X592551D01*
Y103905D01*
X588551D01*
X635795D02*
Y107905D01*
X639795D01*
Y103905D01*
X635795D01*
X637047Y72803D02*
X635047Y76803D01*
X639047D01*
X637047Y72803D01*
X622047D02*
X620047Y76803D01*
X624047D01*
X622047Y72803D01*
X607047D02*
X605047Y76803D01*
X609047D01*
X607047Y72803D01*
X267717Y104299D02*
X268717Y105299D01*
X269717D01*
X268717Y106299D01*
X269717Y107299D01*
X268717D01*
X267717Y108299D01*
X266717Y107299D01*
X265717D01*
X266717Y106299D01*
X265717Y105299D01*
X266717D01*
X267717Y104299D01*
X435402Y336500D02*
X436402Y338500D01*
X435402Y340500D01*
X437402Y339500D01*
X439402Y340500D01*
X438402Y338500D01*
X439402Y336500D01*
X437402Y337500D01*
X435402Y336500D01*
X425402D02*
X426402Y338500D01*
X425402Y340500D01*
X427402Y339500D01*
X429402Y340500D01*
X428402Y338500D01*
X429402Y336500D01*
X427402Y337500D01*
X425402Y336500D01*
X354331Y114142D02*
X355331Y115142D01*
X356331D01*
X355331Y116142D01*
X356331Y117142D01*
X355331D01*
X354331Y118142D01*
X353331Y117142D01*
X352331D01*
X353331Y116142D01*
X352331Y115142D01*
X353331D01*
X354331Y114142D01*
X120047Y60992D02*
X121047Y62992D01*
X120047Y64992D01*
X122047Y63992D01*
X124047Y64992D01*
X123047Y62992D01*
X124047Y60992D01*
X122047Y61992D01*
X120047Y60992D01*
X130047Y50992D02*
X131047Y52992D01*
X130047Y54992D01*
X132047Y53992D01*
X134047Y54992D01*
X133047Y52992D01*
X134047Y50992D01*
X132047Y51992D01*
X130047Y50992D01*
X74803Y72803D02*
X72803Y76803D01*
X76803D01*
X74803Y72803D01*
X120047Y70992D02*
X121047Y72992D01*
X120047Y74992D01*
X122047Y73992D01*
X124047Y74992D01*
X123047Y72992D01*
X124047Y70992D01*
X122047Y71992D01*
X120047Y70992D01*
X207480Y94457D02*
X208480Y95457D01*
X209480D01*
X208480Y96457D01*
X209480Y97457D01*
X208480D01*
X207480Y98457D01*
X206480Y97457D01*
X205480D01*
X206480Y96457D01*
X205480Y95457D01*
X206480D01*
X207480Y94457D01*
X220472D02*
X221472Y95457D01*
X222472D01*
X221472Y96457D01*
X222472Y97457D01*
X221472D01*
X220472Y98457D01*
X219472Y97457D01*
X218472D01*
X219472Y96457D01*
X218472Y95457D01*
X219472D01*
X220472Y94457D01*
X59803Y72803D02*
X57803Y76803D01*
X61803D01*
X59803Y72803D01*
X120047Y50992D02*
X121047Y52992D01*
X120047Y54992D01*
X122047Y53992D01*
X124047Y54992D01*
X123047Y52992D01*
X124047Y50992D01*
X122047Y51992D01*
X120047Y50992D01*
X207480Y104299D02*
X208480Y105299D01*
X209480D01*
X208480Y106299D01*
X209480Y107299D01*
X208480D01*
X207480Y108299D01*
X206480Y107299D01*
X205480D01*
X206480Y106299D01*
X205480Y105299D01*
X206480D01*
X207480Y104299D01*
X254724Y94457D02*
X255724Y95457D01*
X256724D01*
X255724Y96457D01*
X256724Y97457D01*
X255724D01*
X254724Y98457D01*
X253724Y97457D01*
X252724D01*
X253724Y96457D01*
X252724Y95457D01*
X253724D01*
X254724Y94457D01*
Y104299D02*
X255724Y105299D01*
X256724D01*
X255724Y106299D01*
X256724Y107299D01*
X255724D01*
X254724Y108299D01*
X253724Y107299D01*
X252724D01*
X253724Y106299D01*
X252724Y105299D01*
X253724D01*
X254724Y104299D01*
Y114142D02*
X255724Y115142D01*
X256724D01*
X255724Y116142D01*
X256724Y117142D01*
X255724D01*
X254724Y118142D01*
X253724Y117142D01*
X252724D01*
X253724Y116142D01*
X252724Y115142D01*
X253724D01*
X254724Y114142D01*
X267717D02*
X268717Y115142D01*
X269717D01*
X268717Y116142D01*
X269717Y117142D01*
X268717D01*
X267717Y118142D01*
X266717Y117142D01*
X265717D01*
X266717Y116142D01*
X265717Y115142D01*
X266717D01*
X267717Y114142D01*
Y94457D02*
X268717Y95457D01*
X269717D01*
X268717Y96457D01*
X269717Y97457D01*
X268717D01*
X267717Y98457D01*
X266717Y97457D01*
X265717D01*
X266717Y96457D01*
X265717Y95457D01*
X266717D01*
X267717Y94457D01*
X316929D02*
X317929Y95457D01*
X318929D01*
X317929Y96457D01*
X318929Y97457D01*
X317929D01*
X316929Y98457D01*
X315929Y97457D01*
X314929D01*
X315929Y96457D01*
X314929Y95457D01*
X315929D01*
X316929Y94457D01*
Y104299D02*
X317929Y105299D01*
X318929D01*
X317929Y106299D01*
X318929Y107299D01*
X317929D01*
X316929Y108299D01*
X315929Y107299D01*
X314929D01*
X315929Y106299D01*
X314929Y105299D01*
X315929D01*
X316929Y104299D01*
Y114142D02*
X317929Y115142D01*
X318929D01*
X317929Y116142D01*
X318929Y117142D01*
X317929D01*
X316929Y118142D01*
X315929Y117142D01*
X314929D01*
X315929Y116142D01*
X314929Y115142D01*
X315929D01*
X316929Y114142D01*
X329921D02*
X330921Y115142D01*
X331921D01*
X330921Y116142D01*
X331921Y117142D01*
X330921D01*
X329921Y118142D01*
X328921Y117142D01*
X327921D01*
X328921Y116142D01*
X327921Y115142D01*
X328921D01*
X329921Y114142D01*
Y104299D02*
X330921Y105299D01*
X331921D01*
X330921Y106299D01*
X331921Y107299D01*
X330921D01*
X329921Y108299D01*
X328921Y107299D01*
X327921D01*
X328921Y106299D01*
X327921Y105299D01*
X328921D01*
X329921Y104299D01*
Y94457D02*
X330921Y95457D01*
X331921D01*
X330921Y96457D01*
X331921Y97457D01*
X330921D01*
X329921Y98457D01*
X328921Y97457D01*
X327921D01*
X328921Y96457D01*
X327921Y95457D01*
X328921D01*
X329921Y94457D01*
X320394Y72803D02*
X318394Y76803D01*
X322394D01*
X320394Y72803D01*
X335394D02*
X333394Y76803D01*
X337394D01*
X335394Y72803D01*
X163169Y51032D02*
X164169Y53031D01*
X163169Y55032D01*
X165169Y54031D01*
X167169Y55032D01*
X166169Y53031D01*
X167169Y51032D01*
X165169Y52031D01*
X163169Y51032D01*
X173169D02*
X174169Y53031D01*
X173169Y55032D01*
X175169Y54031D01*
X177169Y55032D01*
X176169Y53031D01*
X177169Y51032D01*
X175169Y52031D01*
X173169Y51032D01*
X341339Y94457D02*
X342339Y95457D01*
X343339D01*
X342339Y96457D01*
X343339Y97457D01*
X342339D01*
X341339Y98457D01*
X340339Y97457D01*
X339339D01*
X340339Y96457D01*
X339339Y95457D01*
X340339D01*
X341339Y94457D01*
Y114142D02*
X342339Y115142D01*
X343339D01*
X342339Y116142D01*
X343339Y117142D01*
X342339D01*
X341339Y118142D01*
X340339Y117142D01*
X339339D01*
X340339Y116142D01*
X339339Y115142D01*
X340339D01*
X341339Y114142D01*
X354331Y104299D02*
X355331Y105299D01*
X356331D01*
X355331Y106299D01*
X356331Y107299D01*
X355331D01*
X354331Y108299D01*
X353331Y107299D01*
X352331D01*
X353331Y106299D01*
X352331Y105299D01*
X353331D01*
X354331Y104299D01*
Y94457D02*
X355331Y95457D01*
X356331D01*
X355331Y96457D01*
X356331Y97457D01*
X355331D01*
X354331Y98457D01*
X353331Y97457D01*
X352331D01*
X353331Y96457D01*
X352331Y95457D01*
X353331D01*
X354331Y94457D01*
X477126Y72803D02*
X475126Y76803D01*
X479126D01*
X477126Y72803D01*
X492126D02*
X490126Y76803D01*
X494126D01*
X492126Y72803D01*
X462126D02*
X460126Y76803D01*
X464126D01*
X462126Y72803D01*
X447126D02*
X445126Y76803D01*
X449126D01*
X447126Y72803D01*
X547992D02*
X545992Y76803D01*
X549992D01*
X547992Y72803D01*
X562992D02*
X560992Y76803D01*
X564992D01*
X562992Y72803D01*
X701756Y333646D02*
Y332646D01*
X703756D01*
Y333646D01*
X704756D01*
Y335646D01*
X703756D01*
Y336646D01*
X701756D01*
Y335646D01*
X700756D01*
Y333646D01*
X701756D01*
X615142D02*
Y332646D01*
X617142D01*
Y333646D01*
X618142D01*
Y335646D01*
X617142D01*
Y336646D01*
X615142D01*
Y335646D01*
X614142D01*
Y333646D01*
X615142D01*
X701756Y247031D02*
Y246031D01*
X703756D01*
Y247031D01*
X704756D01*
Y249031D01*
X703756D01*
Y250031D01*
X701756D01*
Y249031D01*
X700756D01*
Y247031D01*
X701756D01*
X615142D02*
Y246031D01*
X617142D01*
Y247031D01*
X618142D01*
Y249031D01*
X617142D01*
Y250031D01*
X615142D01*
Y249031D01*
X614142D01*
Y247031D01*
X615142D01*
X517685Y315992D02*
X518685Y317992D01*
X517685Y319992D01*
X519685Y318992D01*
X521685Y319992D01*
X520685Y317992D01*
X521685Y315992D01*
X519685Y316992D01*
X517685Y315992D01*
X518485Y316792D02*
X519085Y317992D01*
X518485Y319192D01*
X519685Y318592D01*
X520885Y319192D01*
X520285Y317992D01*
X520885Y316792D01*
X519685Y317392D01*
X518485Y316792D01*
X557055Y315992D02*
X558055Y317992D01*
X557055Y319992D01*
X559055Y318992D01*
X561055Y319992D01*
X560055Y317992D01*
X561055Y315992D01*
X559055Y316992D01*
X557055Y315992D01*
X557855Y316792D02*
X558455Y317992D01*
X557855Y319192D01*
X559055Y318592D01*
X560255Y319192D01*
X559655Y317992D01*
X560255Y316792D01*
X559055Y317392D01*
X557855Y316792D01*
X702724Y103905D02*
Y107905D01*
X706724D01*
Y103905D01*
X702724D01*
X655480D02*
Y107905D01*
X659480D01*
Y103905D01*
X655480D01*
Y151937D02*
Y155937D01*
X659480D01*
Y151937D01*
X655480D01*
X696102Y72803D02*
X694102Y76803D01*
X698102D01*
X696102Y72803D01*
X681102D02*
X679102Y76803D01*
X683102D01*
X681102Y72803D01*
X666102D02*
X664102Y76803D01*
X668102D01*
X666102Y72803D01*
X400575Y333646D02*
Y332646D01*
X402575D01*
Y333646D01*
X403575D01*
Y335646D01*
X402575D01*
Y336646D01*
X400575D01*
Y335646D01*
X399575D01*
Y333646D01*
X400575D01*
X400975Y334046D02*
Y333446D01*
X402175D01*
Y334046D01*
X402775D01*
Y335246D01*
X402175D01*
Y335846D01*
X400975D01*
Y335246D01*
X400375D01*
Y334046D01*
X400975D01*
X400575Y58055D02*
Y57055D01*
X402575D01*
Y58055D01*
X403575D01*
Y60055D01*
X402575D01*
Y61055D01*
X400575D01*
Y60055D01*
X399575D01*
Y58055D01*
X400575D01*
X400975Y58455D02*
Y57855D01*
X402175D01*
Y58455D01*
X402775D01*
Y59655D01*
X402175D01*
Y60255D01*
X400975D01*
Y59655D01*
X400375D01*
Y58455D01*
X400975D01*
X589551Y317898D02*
Y316898D01*
X591551D01*
Y317898D01*
X592551D01*
Y319898D01*
X591551D01*
Y320898D01*
X589551D01*
Y319898D01*
X588551D01*
Y317898D01*
X589551D01*
X589951Y318298D02*
Y317698D01*
X591151D01*
Y318298D01*
X591751D01*
Y319498D01*
X591151D01*
Y320098D01*
X589951D01*
Y319498D01*
X589351D01*
Y318298D01*
X589951D01*
X727347Y333646D02*
Y332646D01*
X729347D01*
Y333646D01*
X730346D01*
Y335646D01*
X729347D01*
Y336646D01*
X727347D01*
Y335646D01*
X726346D01*
Y333646D01*
X727347D01*
X727746Y334046D02*
Y333446D01*
X728946D01*
Y334046D01*
X729546D01*
Y335246D01*
X728946D01*
Y335846D01*
X727746D01*
Y335246D01*
X727146D01*
Y334046D01*
X727746D01*
X727347Y58055D02*
Y57055D01*
X729347D01*
Y58055D01*
X730346D01*
Y60055D01*
X729347D01*
Y61055D01*
X727347D01*
Y60055D01*
X726346D01*
Y58055D01*
X727347D01*
X727746Y58455D02*
Y57855D01*
X728946D01*
Y58455D01*
X729546D01*
Y59655D01*
X728946D01*
Y60255D01*
X727746D01*
Y59655D01*
X727146D01*
Y58455D01*
X727746D01*
X162386Y317898D02*
Y316898D01*
X164386D01*
Y317898D01*
X165386D01*
Y319898D01*
X164386D01*
Y320898D01*
X162386D01*
Y319898D01*
X161386D01*
Y317898D01*
X162386D01*
X162786Y318298D02*
Y317698D01*
X163986D01*
Y318298D01*
X164586D01*
Y319498D01*
X163986D01*
Y320098D01*
X162786D01*
Y319498D01*
X162186D01*
Y318298D01*
X162786D01*
X74803Y331898D02*
X72803Y335898D01*
X76803D01*
X74803Y331898D01*
X58055Y286402D02*
Y285402D01*
X60055D01*
Y286402D01*
X61055D01*
Y288402D01*
X60055D01*
Y289402D01*
X58055D01*
Y288402D01*
X57055D01*
Y286402D01*
X58055D01*
X58455Y286802D02*
Y286202D01*
X59655D01*
Y286802D01*
X60255D01*
Y288002D01*
X59655D01*
Y288602D01*
X58455D01*
Y288002D01*
X57855D01*
Y286802D01*
X58455D01*
X58055Y101362D02*
Y100362D01*
X60055D01*
Y101362D01*
X61055D01*
Y103362D01*
X60055D01*
Y104362D01*
X58055D01*
Y103362D01*
X57055D01*
Y101362D01*
X58055D01*
X58455Y101762D02*
Y101162D01*
X59655D01*
Y101762D01*
X60255D01*
Y102962D01*
X59655D01*
Y103562D01*
X58455D01*
Y102962D01*
X57855D01*
Y101762D01*
X58455D01*
X460630Y57055D02*
X458630Y61055D01*
X462630D01*
X460630Y57055D01*
Y57855D02*
X459430Y60255D01*
X461830D01*
X460630Y57855D01*
X496063Y57055D02*
X494063Y61055D01*
X498063D01*
X496063Y57055D01*
Y57855D02*
X494863Y60255D01*
X497263D01*
X496063Y57855D01*
X566929Y57055D02*
X564929Y61055D01*
X568929D01*
X566929Y57055D01*
Y57855D02*
X565729Y60255D01*
X568129D01*
X566929Y57855D01*
X655512Y45244D02*
X653512Y49244D01*
X657512D01*
X655512Y45244D01*
Y46044D02*
X654312Y48444D01*
X656712D01*
X655512Y46044D01*
X620079Y45244D02*
X618079Y49244D01*
X622079D01*
X620079Y45244D01*
Y46044D02*
X618879Y48444D01*
X621278D01*
X620079Y46044D01*
X738189Y92488D02*
X736189Y96488D01*
X740189D01*
X738189Y92488D01*
Y93288D02*
X736989Y95688D01*
X739389D01*
X738189Y93288D01*
X342520Y57055D02*
X340520Y61055D01*
X344520D01*
X342520Y57055D01*
Y57855D02*
X341320Y60255D01*
X343720D01*
X342520Y57855D01*
X596456Y45244D02*
X594456Y49244D01*
X598456D01*
X596456Y45244D01*
Y46044D02*
X595257Y48444D01*
X597656D01*
X596456Y46044D01*
X295275Y57055D02*
X293275Y61055D01*
X297275D01*
X295275Y57055D01*
Y57855D02*
X294075Y60255D01*
X296476D01*
X295275Y57855D01*
X561023Y45244D02*
X559023Y49244D01*
X563023D01*
X561023Y45244D01*
Y46044D02*
X559823Y48444D01*
X562223D01*
X561023Y46044D01*
X720472Y80677D02*
X718472Y84677D01*
X722472D01*
X720472Y80677D01*
Y81477D02*
X719272Y83877D01*
X721672D01*
X720472Y81477D01*
X513779Y45244D02*
X511779Y49244D01*
X515779D01*
X513779Y45244D01*
Y46044D02*
X512579Y48444D01*
X514979D01*
X513779Y46044D01*
X383858Y45244D02*
X381858Y49244D01*
X385858D01*
X383858Y45244D01*
Y46044D02*
X382658Y48444D01*
X385058D01*
X383858Y46044D01*
X230315Y163354D02*
X228315Y167354D01*
X232315D01*
X230315Y163354D01*
Y164154D02*
X229115Y166554D01*
X231515D01*
X230315Y164154D01*
X47244Y127921D02*
X45244Y131921D01*
X49244D01*
X47244Y127921D01*
Y128721D02*
X46044Y131121D01*
X48444D01*
X47244Y128721D01*
X732283Y80677D02*
X730283Y84677D01*
X734283D01*
X732283Y80677D01*
Y81477D02*
X731083Y83877D01*
X733483D01*
X732283Y81477D01*
X336614Y45244D02*
X334614Y49244D01*
X338614D01*
X336614Y45244D01*
Y46044D02*
X335414Y48444D01*
X337814D01*
X336614Y46044D01*
X141732Y57055D02*
X139732Y61055D01*
X143732D01*
X141732Y57055D01*
Y57855D02*
X140532Y60255D01*
X142932D01*
X141732Y57855D01*
X47244Y198787D02*
X45244Y202787D01*
X49244D01*
X47244Y198787D01*
Y199587D02*
X46044Y201987D01*
X48444D01*
X47244Y199587D01*
X324803Y45244D02*
X322803Y49244D01*
X326803D01*
X324803Y45244D01*
Y46044D02*
X323603Y48444D01*
X326003D01*
X324803Y46044D01*
X377953Y57055D02*
X375953Y61055D01*
X379953D01*
X377953Y57055D01*
Y57855D02*
X376753Y60255D01*
X379153D01*
X377953Y57855D01*
X171260Y92488D02*
X169260Y96488D01*
X173260D01*
X171260Y92488D01*
Y93288D02*
X170060Y95688D01*
X172460D01*
X171260Y93288D01*
X271654Y175165D02*
X269654Y179165D01*
X273654D01*
X271654Y175165D01*
Y175965D02*
X270454Y178365D01*
X272853D01*
X271654Y175965D01*
X312992Y45244D02*
X310992Y49244D01*
X314992D01*
X312992Y45244D01*
Y46044D02*
X311792Y48444D01*
X314192D01*
X312992Y46044D01*
X584646Y139732D02*
X582646Y143732D01*
X586646D01*
X584646Y139732D01*
Y140532D02*
X583446Y142932D01*
X585846D01*
X584646Y140532D01*
X318898Y57055D02*
X316898Y61055D01*
X320898D01*
X318898Y57055D01*
Y57855D02*
X317698Y60255D01*
X320097D01*
X318898Y57855D01*
X70866Y57055D02*
X68866Y61055D01*
X72866D01*
X70866Y57055D01*
Y57855D02*
X69666Y60255D01*
X72066D01*
X70866Y57855D01*
X265748Y45244D02*
X263748Y49244D01*
X267748D01*
X265748Y45244D01*
Y46044D02*
X264548Y48444D01*
X266948D01*
X265748Y46044D01*
X59055Y57055D02*
X57055Y61055D01*
X61055D01*
X59055Y57055D01*
Y57855D02*
X57855Y60255D01*
X60255D01*
X59055Y57855D01*
X330709Y57055D02*
X328709Y61055D01*
X332709D01*
X330709Y57055D01*
Y57855D02*
X329509Y60255D01*
X331909D01*
X330709Y57855D01*
X47244Y175165D02*
X45244Y179165D01*
X49244D01*
X47244Y175165D01*
Y175965D02*
X46044Y178365D01*
X48444D01*
X47244Y175965D01*
X549212Y45244D02*
X547212Y49244D01*
X551212D01*
X549212Y45244D01*
Y46044D02*
X548012Y48444D01*
X550412D01*
X549212Y46044D01*
X472441Y57055D02*
X470441Y61055D01*
X474441D01*
X472441Y57055D01*
Y57855D02*
X471241Y60255D01*
X473641D01*
X472441Y57855D01*
X100394Y45244D02*
X98394Y49244D01*
X102394D01*
X100394Y45244D01*
Y46044D02*
X99194Y48444D01*
X101594D01*
X100394Y46044D01*
X47244Y57055D02*
X45244Y61055D01*
X49244D01*
X47244Y57055D01*
Y57855D02*
X46044Y60255D01*
X48444D01*
X47244Y57855D01*
X277559Y45244D02*
X275559Y49244D01*
X279559D01*
X277559Y45244D01*
Y46044D02*
X276359Y48444D01*
X278759D01*
X277559Y46044D01*
X643701Y45244D02*
X641701Y49244D01*
X645701D01*
X643701Y45244D01*
Y46044D02*
X642501Y48444D01*
X644901D01*
X643701Y46044D01*
X348425Y45244D02*
X346425Y49244D01*
X350425D01*
X348425Y45244D01*
Y46044D02*
X347225Y48444D01*
X349625D01*
X348425Y46044D01*
X289370Y45244D02*
X287370Y49244D01*
X291370D01*
X289370Y45244D01*
Y46044D02*
X288170Y48444D01*
X290570D01*
X289370Y46044D01*
X259842Y57055D02*
X257842Y61055D01*
X261842D01*
X259842Y57055D01*
Y57855D02*
X258642Y60255D01*
X261042D01*
X259842Y57855D01*
X307086Y57055D02*
X305086Y61055D01*
X309086D01*
X307086Y57055D01*
Y57855D02*
X305887Y60255D01*
X308286D01*
X307086Y57855D01*
X690945Y45244D02*
X688945Y49244D01*
X692945D01*
X690945Y45244D01*
Y46044D02*
X689745Y48444D01*
X692145D01*
X690945Y46044D01*
X76772Y45244D02*
X74772Y49244D01*
X78772D01*
X76772Y45244D01*
Y46044D02*
X75572Y48444D01*
X77972D01*
X76772Y46044D01*
X702756Y139732D02*
X700756Y143732D01*
X704756D01*
X702756Y139732D01*
Y140532D02*
X701556Y142932D01*
X703956D01*
X702756Y140532D01*
X301181Y45244D02*
X299181Y49244D01*
X303181D01*
X301181Y45244D01*
Y46044D02*
X299981Y48444D01*
X302381D01*
X301181Y46044D01*
X88583Y45244D02*
X86583Y49244D01*
X90583D01*
X88583Y45244D01*
Y46044D02*
X87383Y48444D01*
X89783D01*
X88583Y46044D01*
X679134Y45244D02*
X677134Y49244D01*
X681134D01*
X679134Y45244D01*
Y46044D02*
X677934Y48444D01*
X680334D01*
X679134Y46044D01*
X366142Y57055D02*
X364142Y61055D01*
X368142D01*
X366142Y57055D01*
Y57855D02*
X364942Y60255D01*
X367342D01*
X366142Y57855D01*
X94488Y57055D02*
X92488Y61055D01*
X96488D01*
X94488Y57055D01*
Y57855D02*
X93288Y60255D01*
X95688D01*
X94488Y57855D01*
X643701Y186976D02*
X641701Y190976D01*
X645701D01*
X643701Y186976D01*
Y187776D02*
X642501Y190176D01*
X644901D01*
X643701Y187776D01*
X519685Y57055D02*
X517685Y61055D01*
X521685D01*
X519685Y57055D01*
Y57855D02*
X518485Y60255D01*
X520885D01*
X519685Y57855D01*
X578740Y151543D02*
X576740Y155543D01*
X580740D01*
X578740Y151543D01*
Y152343D02*
X577540Y154743D01*
X579940D01*
X578740Y152343D01*
X649606Y57055D02*
X647606Y61055D01*
X651606D01*
X649606Y57055D01*
Y57855D02*
X648406Y60255D01*
X650806D01*
X649606Y57855D01*
X289370Y68866D02*
X287370Y72866D01*
X291370D01*
X289370Y68866D01*
Y69666D02*
X288170Y72066D01*
X290570D01*
X289370Y69666D01*
X608267Y45244D02*
X606267Y49244D01*
X610267D01*
X608267Y45244D01*
Y46044D02*
X607067Y48444D01*
X609468D01*
X608267Y46044D01*
X525590Y68866D02*
X523590Y72866D01*
X527590D01*
X525590Y68866D01*
Y69666D02*
X524390Y72066D01*
X526790D01*
X525590Y69666D01*
X702756Y45244D02*
X700756Y49244D01*
X704756D01*
X702756Y45244D01*
Y46044D02*
X701556Y48444D01*
X703956D01*
X702756Y46044D01*
X271654Y57055D02*
X269654Y61055D01*
X273654D01*
X271654Y57055D01*
Y57855D02*
X270454Y60255D01*
X272853D01*
X271654Y57855D01*
X631890Y45244D02*
X629890Y49244D01*
X633890D01*
X631890Y45244D01*
Y46044D02*
X630690Y48444D01*
X633090D01*
X631890Y46044D01*
X253937Y45244D02*
X251937Y49244D01*
X255937D01*
X253937Y45244D01*
Y46044D02*
X252737Y48444D01*
X255137D01*
X253937Y46044D01*
X531496Y57055D02*
X529496Y61055D01*
X533496D01*
X531496Y57055D01*
Y57855D02*
X530296Y60255D01*
X532696D01*
X531496Y57855D01*
X484252Y57055D02*
X482252Y61055D01*
X486252D01*
X484252Y57055D01*
Y57855D02*
X483052Y60255D01*
X485452D01*
X484252Y57855D01*
X183071Y45244D02*
X181071Y49244D01*
X185071D01*
X183071Y45244D01*
Y46044D02*
X181871Y48444D01*
X184271D01*
X183071Y46044D01*
X643701Y163354D02*
X641701Y167354D01*
X645701D01*
X643701Y163354D01*
Y164154D02*
X642501Y166554D01*
X644901D01*
X643701Y164154D01*
X501968Y45244D02*
X499968Y49244D01*
X503968D01*
X501968Y45244D01*
Y46044D02*
X500768Y48444D01*
X503168D01*
X501968Y46044D01*
X572834Y45244D02*
X570834Y49244D01*
X574834D01*
X572834Y45244D01*
Y46044D02*
X571634Y48444D01*
X574035D01*
X572834Y46044D01*
X454724Y45244D02*
X452724Y49244D01*
X456724D01*
X454724Y45244D01*
Y46044D02*
X453524Y48444D01*
X455924D01*
X454724Y46044D01*
X47244Y80677D02*
X45244Y84677D01*
X49244D01*
X47244Y80677D01*
Y81477D02*
X46044Y83877D01*
X48444D01*
X47244Y81477D01*
X53150Y163354D02*
X51150Y167354D01*
X55150D01*
X53150Y163354D01*
Y164154D02*
X51950Y166554D01*
X54350D01*
X53150Y164154D01*
X637795Y127921D02*
X635795Y131921D01*
X639795D01*
X637795Y127921D01*
Y128721D02*
X636595Y131121D01*
X638995D01*
X637795Y128721D01*
X590551Y127921D02*
X588551Y131921D01*
X592551D01*
X590551Y127921D01*
Y128721D02*
X589351Y131121D01*
X591751D01*
X590551Y128721D01*
X490157Y45244D02*
X488157Y49244D01*
X492157D01*
X490157Y45244D01*
Y46044D02*
X488957Y48444D01*
X491357D01*
X490157Y46044D01*
X655512Y163354D02*
X653512Y167354D01*
X657512D01*
X655512Y163354D01*
Y164154D02*
X654312Y166554D01*
X656712D01*
X655512Y164154D01*
X354331Y57055D02*
X352331Y61055D01*
X356331D01*
X354331Y57055D01*
Y57855D02*
X353131Y60255D01*
X355531D01*
X354331Y57855D01*
X466535Y45244D02*
X464535Y49244D01*
X468535D01*
X466535Y45244D01*
Y46044D02*
X465335Y48444D01*
X467735D01*
X466535Y46044D01*
X372047Y45244D02*
X370047Y49244D01*
X374047D01*
X372047Y45244D01*
Y46044D02*
X370847Y48444D01*
X373247D01*
X372047Y46044D01*
X82677Y57055D02*
X80677Y61055D01*
X84677D01*
X82677Y57055D01*
Y57855D02*
X81477Y60255D01*
X83877D01*
X82677Y57855D01*
X141732Y80677D02*
X139732Y84677D01*
X143732D01*
X141732Y80677D01*
Y81477D02*
X140532Y83877D01*
X142932D01*
X141732Y81477D01*
X183071Y92488D02*
X181071Y96488D01*
X185071D01*
X183071Y92488D01*
Y93288D02*
X181871Y95688D01*
X184271D01*
X183071Y93288D01*
X655512Y139732D02*
X653512Y143732D01*
X657512D01*
X655512Y139732D01*
Y140532D02*
X654312Y142932D01*
X656712D01*
X655512Y140532D01*
X478346Y45244D02*
X476346Y49244D01*
X480346D01*
X478346Y45244D01*
Y46044D02*
X477146Y48444D01*
X479546D01*
X478346Y46044D01*
X702756Y163354D02*
X700756Y167354D01*
X704756D01*
X702756Y163354D01*
Y164154D02*
X701556Y166554D01*
X703956D01*
X702756Y164154D01*
X194882Y163354D02*
X192882Y167354D01*
X196882D01*
X194882Y163354D01*
Y164154D02*
X193682Y166554D01*
X196082D01*
X194882Y164154D01*
X507874Y57055D02*
X505874Y61055D01*
X509874D01*
X507874Y57055D01*
Y57855D02*
X506674Y60255D01*
X509074D01*
X507874Y57855D01*
X667323Y45244D02*
X665323Y49244D01*
X669323D01*
X667323Y45244D01*
Y46044D02*
X666123Y48444D01*
X668523D01*
X667323Y46044D01*
X584646Y45244D02*
X582646Y49244D01*
X586646D01*
X584646Y45244D01*
Y46044D02*
X583446Y48444D01*
X585846D01*
X584646Y46044D01*
X578740Y57055D02*
X576740Y61055D01*
X580740D01*
X578740Y57055D01*
Y57855D02*
X577540Y60255D01*
X579940D01*
X578740Y57855D01*
X537401Y45244D02*
X535401Y49244D01*
X539401D01*
X537401Y45244D01*
Y46044D02*
X536201Y48444D01*
X538601D01*
X537401Y46044D01*
X525590Y45244D02*
X523590Y49244D01*
X527590D01*
X525590Y45244D01*
Y46044D02*
X524390Y48444D01*
X526790D01*
X525590Y46044D01*
X53150Y45244D02*
X51150Y49244D01*
X55150D01*
X53150Y45244D01*
Y46044D02*
X51950Y48444D01*
X54350D01*
X53150Y46044D01*
X129921Y80677D02*
X127921Y84677D01*
X131921D01*
X129921Y80677D01*
Y81477D02*
X128721Y83877D01*
X131121D01*
X129921Y81477D01*
X64961Y45244D02*
X62961Y49244D01*
X66961D01*
X64961Y45244D01*
Y46044D02*
X63761Y48444D01*
X66161D01*
X64961Y46044D01*
X649606Y127921D02*
X647606Y131921D01*
X651606D01*
X649606Y127921D01*
Y128721D02*
X648406Y131121D01*
X650806D01*
X649606Y128721D01*
X643701Y139732D02*
X641701Y143732D01*
X645701D01*
X643701Y139732D01*
Y140532D02*
X642501Y142932D01*
X644901D01*
X643701Y140532D01*
X726378Y92488D02*
X724378Y96488D01*
X728378D01*
X726378Y92488D01*
Y93288D02*
X725178Y95688D01*
X727578D01*
X726378Y93288D01*
X283465Y57055D02*
X281465Y61055D01*
X285465D01*
X283465Y57055D01*
Y57855D02*
X282264Y60255D01*
X284665D01*
X283465Y57855D01*
X448819Y57055D02*
X446819Y61055D01*
X450819D01*
X448819Y57055D01*
Y57855D02*
X447619Y60255D01*
X450019D01*
X448819Y57855D01*
X590551Y57055D02*
X588551Y61055D01*
X592551D01*
X590551Y57055D01*
Y57855D02*
X589351Y60255D01*
X591751D01*
X590551Y57855D01*
X360236Y45244D02*
X358236Y49244D01*
X362236D01*
X360236Y45244D01*
Y46044D02*
X359036Y48444D01*
X361436D01*
X360236Y46044D01*
X326772Y155480D02*
X324772Y159480D01*
X328772D01*
X326772Y155480D01*
Y156280D02*
X325572Y158680D01*
X327972D01*
X326772Y156280D01*
X411417Y137764D02*
X409417Y141764D01*
X413417D01*
X411417Y137764D01*
Y138564D02*
X410217Y140964D01*
X412617D01*
X411417Y138564D01*
X324803Y139732D02*
X322803Y143732D01*
X326803D01*
X324803Y139732D01*
Y140532D02*
X323603Y142932D01*
X326003D01*
X324803Y140532D01*
X384081Y96866D02*
X382081Y100866D01*
X386081D01*
X384081Y96866D01*
Y97666D02*
X382881Y100066D01*
X385281D01*
X384081Y97666D01*
X127953Y196819D02*
X125953Y200819D01*
X129953D01*
X127953Y196819D01*
Y197619D02*
X126753Y200019D01*
X129153D01*
X127953Y197619D01*
X130654Y146371D02*
X128654Y150371D01*
X132654D01*
X130654Y146371D01*
Y147171D02*
X129454Y149571D01*
X131854D01*
X130654Y147171D01*
X86614Y96425D02*
X84614Y100425D01*
X88614D01*
X86614Y96425D01*
Y97225D02*
X85414Y99625D01*
X87814D01*
X86614Y97225D01*
X181102Y80677D02*
X179102Y84677D01*
X183102D01*
X181102Y80677D01*
Y81477D02*
X179902Y83877D01*
X182302D01*
X181102Y81477D01*
X149606Y80677D02*
X147606Y84677D01*
X151606D01*
X149606Y80677D01*
Y81477D02*
X148406Y83877D01*
X150806D01*
X149606Y81477D01*
X171260Y80677D02*
X169260Y84677D01*
X173260D01*
X171260Y80677D01*
Y81477D02*
X170060Y83877D01*
X172460D01*
X171260Y81477D01*
X157480Y80677D02*
X155480Y84677D01*
X159480D01*
X157480Y80677D01*
Y81477D02*
X156280Y83877D01*
X158680D01*
X157480Y81477D01*
X70157Y155324D02*
X68157Y159324D01*
X72157D01*
X70157Y155324D01*
Y156124D02*
X68957Y158524D01*
X71357D01*
X70157Y156124D01*
X149349Y198094D02*
X147349Y202094D01*
X151349D01*
X149349Y198094D01*
Y198894D02*
X148149Y201294D01*
X150549D01*
X149349Y198894D01*
X84608Y104457D02*
X82608Y108457D01*
X86608D01*
X84608Y104457D01*
Y105257D02*
X83408Y107657D01*
X85808D01*
X84608Y105257D01*
X70866Y135795D02*
X68866Y139795D01*
X72866D01*
X70866Y135795D01*
Y136595D02*
X69666Y138995D01*
X72066D01*
X70866Y136595D01*
X62992Y135795D02*
X60992Y139795D01*
X64992D01*
X62992Y135795D01*
Y136595D02*
X61792Y138995D01*
X64192D01*
X62992Y136595D01*
X66929Y139732D02*
X64929Y143732D01*
X68929D01*
X66929Y139732D01*
Y140532D02*
X65729Y142932D01*
X68129D01*
X66929Y140532D01*
X72954Y140968D02*
X70954Y144968D01*
X74954D01*
X72954Y140968D01*
Y141768D02*
X71754Y144168D01*
X74154D01*
X72954Y141768D01*
X76772Y135795D02*
X74772Y139795D01*
X78772D01*
X76772Y135795D01*
Y136595D02*
X75572Y138995D01*
X77972D01*
X76772Y136595D01*
X175197Y179102D02*
X173197Y183102D01*
X177197D01*
X175197Y179102D01*
Y179902D02*
X173997Y182302D01*
X176397D01*
X175197Y179902D01*
X212598Y181071D02*
X210598Y185071D01*
X214598D01*
X212598Y181071D01*
Y181871D02*
X211398Y184271D01*
X213798D01*
X212598Y181871D01*
X287479Y178693D02*
X285479Y182693D01*
X289479D01*
X287479Y178693D01*
Y179493D02*
X286279Y181893D01*
X288679D01*
X287479Y179493D01*
X250000Y179102D02*
X248000Y183102D01*
X252000D01*
X250000Y179102D01*
Y179902D02*
X248800Y182302D01*
X251200D01*
X250000Y179902D01*
X127280Y187575D02*
X125280Y191575D01*
X129280D01*
X127280Y187575D01*
Y188375D02*
X126080Y190775D01*
X128480D01*
X127280Y188375D01*
X133858Y186976D02*
X131858Y190976D01*
X135858D01*
X133858Y186976D01*
Y187776D02*
X132658Y190176D01*
X135058D01*
X133858Y187776D01*
X94488Y196819D02*
X92488Y200819D01*
X96488D01*
X94488Y196819D01*
Y197619D02*
X93288Y200019D01*
X95688D01*
X94488Y197619D01*
X122354Y199573D02*
X120354Y203573D01*
X124354D01*
X122354Y199573D01*
Y200373D02*
X121154Y202773D01*
X123554D01*
X122354Y200373D01*
X144426Y181952D02*
X142426Y185952D01*
X146426D01*
X144426Y181952D01*
Y182752D02*
X143226Y185152D01*
X145626D01*
X144426Y182752D01*
X155512Y194850D02*
X153512Y198850D01*
X157512D01*
X155512Y194850D01*
Y195650D02*
X154312Y198050D01*
X156712D01*
X155512Y195650D01*
X200787Y194850D02*
X198787Y198850D01*
X202787D01*
X200787Y194850D01*
Y195650D02*
X199587Y198050D01*
X201987D01*
X200787Y195650D01*
X250000Y194850D02*
X248000Y198850D01*
X252000D01*
X250000Y194850D01*
Y195650D02*
X248800Y198050D01*
X251200D01*
X250000Y195650D01*
X340765Y162614D02*
X338765Y166614D01*
X342765D01*
X340765Y162614D01*
Y163414D02*
X339565Y165814D01*
X341965D01*
X340765Y163414D01*
X341195Y172746D02*
X339195Y176746D01*
X343195D01*
X341195Y172746D01*
Y173546D02*
X339995Y175946D01*
X342395D01*
X341195Y173546D01*
X403830Y177599D02*
X401830Y181599D01*
X405830D01*
X403830Y177599D01*
Y178399D02*
X402630Y180799D01*
X405030D01*
X403830Y178399D01*
X546217Y147742D02*
X544217Y151742D01*
X548217D01*
X546217Y147742D01*
Y148542D02*
X545017Y150942D01*
X547417D01*
X546217Y148542D01*
X570866Y147606D02*
X568866Y151606D01*
X572866D01*
X570866Y147606D01*
Y148406D02*
X569666Y150806D01*
X572066D01*
X570866Y148406D01*
X427165Y151543D02*
X425165Y155543D01*
X429165D01*
X427165Y151543D01*
Y152343D02*
X425965Y154743D01*
X428365D01*
X427165Y152343D01*
X683071Y177134D02*
X681071Y181134D01*
X685071D01*
X683071Y177134D01*
Y177934D02*
X681871Y180334D01*
X684271D01*
X683071Y177934D01*
X618110Y179102D02*
X616110Y183102D01*
X620110D01*
X618110Y179102D01*
Y179902D02*
X616910Y182302D01*
X619310D01*
X618110Y179902D01*
X675197Y179102D02*
X673197Y183102D01*
X677197D01*
X675197Y179102D01*
Y179902D02*
X673997Y182302D01*
X676397D01*
X675197Y179902D01*
X429055Y188317D02*
X427055Y192317D01*
X431055D01*
X429055Y188317D01*
Y189117D02*
X427855Y191517D01*
X430255D01*
X429055Y189117D01*
X594488Y183039D02*
X592488Y187039D01*
X596488D01*
X594488Y183039D01*
Y183839D02*
X593288Y186239D01*
X595688D01*
X594488Y183839D01*
X297244Y194850D02*
X295244Y198850D01*
X299244D01*
X297244Y194850D01*
Y195650D02*
X296044Y198050D01*
X298444D01*
X297244Y195650D01*
X385827Y190913D02*
X383827Y194913D01*
X387827D01*
X385827Y190913D01*
Y191713D02*
X384627Y194113D01*
X387027D01*
X385827Y191713D01*
X611066Y180008D02*
X609066Y184008D01*
X613066D01*
X611066Y180008D01*
Y180807D02*
X609866Y183207D01*
X612266D01*
X611066Y180807D01*
X653543Y183039D02*
X651543Y187039D01*
X655543D01*
X653543Y183039D01*
Y183839D02*
X652343Y186239D01*
X654743D01*
X653543Y183839D01*
X690945Y340520D02*
X688945Y344520D01*
X692945D01*
X690945Y340520D01*
Y341320D02*
X689745Y343720D01*
X692145D01*
X690945Y341320D01*
X685039Y328709D02*
X683039Y332709D01*
X687039D01*
X685039Y328709D01*
Y329509D02*
X683839Y331909D01*
X686239D01*
X685039Y329509D01*
X679134Y316898D02*
X677134Y320898D01*
X681134D01*
X679134Y316898D01*
Y317698D02*
X677934Y320097D01*
X680334D01*
X679134Y317698D01*
X643701Y316898D02*
X641701Y320898D01*
X645701D01*
X643701Y316898D01*
Y317698D02*
X642501Y320097D01*
X644901D01*
X643701Y317698D01*
X655512Y316898D02*
X653512Y320898D01*
X657512D01*
X655512Y316898D01*
Y317698D02*
X654312Y320097D01*
X656712D01*
X655512Y317698D01*
X714567Y316898D02*
X712567Y320898D01*
X716567D01*
X714567Y316898D01*
Y317698D02*
X713367Y320097D01*
X715767D01*
X714567Y317698D01*
X726378Y293275D02*
X724378Y297275D01*
X728378D01*
X726378Y293275D01*
Y294075D02*
X725178Y296476D01*
X727578D01*
X726378Y294075D01*
X702756Y316898D02*
X700756Y320898D01*
X704756D01*
X702756Y316898D01*
Y317698D02*
X701556Y320097D01*
X703956D01*
X702756Y317698D01*
X690945Y316898D02*
X688945Y320898D01*
X692945D01*
X690945Y316898D01*
Y317698D02*
X689745Y320097D01*
X692145D01*
X690945Y317698D01*
X708661Y305086D02*
X706661Y309086D01*
X710661D01*
X708661Y305086D01*
Y305887D02*
X707461Y308286D01*
X709861D01*
X708661Y305887D01*
X631890Y340520D02*
X629890Y344520D01*
X633890D01*
X631890Y340520D01*
Y341320D02*
X630690Y343720D01*
X633090D01*
X631890Y341320D01*
X608267Y340520D02*
X606267Y344520D01*
X610267D01*
X608267Y340520D01*
Y341320D02*
X607067Y343720D01*
X609468D01*
X608267Y341320D01*
X631890Y316898D02*
X629890Y320898D01*
X633890D01*
X631890Y316898D01*
Y317698D02*
X630690Y320097D01*
X633090D01*
X631890Y317698D01*
X555118Y328709D02*
X553118Y332709D01*
X557118D01*
X555118Y328709D01*
Y329509D02*
X553918Y331909D01*
X556318D01*
X555118Y329509D01*
X549212Y316898D02*
X547212Y320898D01*
X551212D01*
X549212Y316898D01*
Y317698D02*
X548012Y320097D01*
X550412D01*
X549212Y317698D01*
X614173Y305086D02*
X612173Y309086D01*
X616173D01*
X614173Y305086D01*
Y305887D02*
X612973Y308286D01*
X615373D01*
X614173Y305887D01*
X592520Y293276D02*
X590520Y297276D01*
X594520D01*
X592520Y293276D01*
Y294076D02*
X591320Y296476D01*
X593720D01*
X592520Y294076D01*
X566929Y305086D02*
X564929Y309086D01*
X568929D01*
X566929Y305086D01*
Y305887D02*
X565729Y308286D01*
X568129D01*
X566929Y305887D01*
X673228Y281465D02*
X671228Y285465D01*
X675228D01*
X673228Y281465D01*
Y282264D02*
X672028Y284665D01*
X674428D01*
X673228Y282264D01*
X661417Y281465D02*
X659417Y285465D01*
X663417D01*
X661417Y281465D01*
Y282264D02*
X660217Y284665D01*
X662617D01*
X661417Y282264D01*
X685039Y281465D02*
X683039Y285465D01*
X687039D01*
X685039Y281465D01*
Y282264D02*
X683839Y284665D01*
X686239D01*
X685039Y282264D01*
X614173Y281465D02*
X612173Y285465D01*
X616173D01*
X614173Y281465D01*
Y282264D02*
X612973Y284665D01*
X615373D01*
X614173Y282264D01*
X566929Y289339D02*
X564929Y293339D01*
X568929D01*
X566929Y289339D01*
Y290139D02*
X565729Y292539D01*
X568129D01*
X566929Y290139D01*
Y281465D02*
X564929Y285465D01*
X568929D01*
X566929Y281465D01*
Y282265D02*
X565729Y284665D01*
X568129D01*
X566929Y282265D01*
X543307Y328709D02*
X541307Y332709D01*
X545307D01*
X543307Y328709D01*
Y329509D02*
X542107Y331909D01*
X544507D01*
X543307Y329509D01*
X531496Y328709D02*
X529496Y332709D01*
X533496D01*
X531496Y328709D01*
Y329509D02*
X530296Y331909D01*
X532696D01*
X531496Y329509D01*
X537401Y316898D02*
X535401Y320898D01*
X539401D01*
X537401Y316898D01*
Y317698D02*
X536201Y320097D01*
X538601D01*
X537401Y317698D01*
X524343Y291073D02*
X522343Y295073D01*
X526343D01*
X524343Y291073D01*
Y291873D02*
X523143Y294273D01*
X525543D01*
X524343Y291873D01*
X496063Y305086D02*
X494063Y309086D01*
X498063D01*
X496063Y305086D01*
Y305887D02*
X494863Y308286D01*
X497263D01*
X496063Y305887D01*
X483815Y314056D02*
X481815Y318056D01*
X485815D01*
X483815Y314056D01*
Y314856D02*
X482616Y317256D01*
X485015D01*
X483815Y314856D01*
X488091Y291275D02*
X486091Y295275D01*
X490091D01*
X488091Y291275D01*
Y292075D02*
X486891Y294475D01*
X489291D01*
X488091Y292075D01*
X547244Y275559D02*
X545244Y279559D01*
X549244D01*
X547244Y275559D01*
Y276359D02*
X546044Y278759D01*
X548444D01*
X547244Y276359D01*
X488189Y283433D02*
X486189Y287433D01*
X490189D01*
X488189Y283433D01*
Y284233D02*
X486989Y286633D01*
X489389D01*
X488189Y284233D01*
X462598Y283433D02*
X460598Y287433D01*
X464598D01*
X462598Y283433D01*
Y284233D02*
X461398Y286633D01*
X463798D01*
X462598Y284233D01*
X456693Y277528D02*
X454693Y281528D01*
X458693D01*
X456693Y277528D01*
Y278328D02*
X455493Y280728D01*
X457893D01*
X456693Y278328D01*
X702756Y269654D02*
X700756Y273654D01*
X704756D01*
X702756Y269654D01*
Y270454D02*
X701556Y272853D01*
X703956D01*
X702756Y270454D01*
X679134Y269654D02*
X677134Y273654D01*
X681134D01*
X679134Y269654D01*
Y270454D02*
X677934Y272853D01*
X680334D01*
X679134Y270454D01*
X696850Y257842D02*
X694850Y261842D01*
X698850D01*
X696850Y257842D01*
Y258642D02*
X695650Y261042D01*
X698050D01*
X696850Y258642D01*
X655512Y269654D02*
X653512Y273654D01*
X657512D01*
X655512Y269654D01*
Y270454D02*
X654312Y272853D01*
X656712D01*
X655512Y270454D01*
X643701Y269654D02*
X641701Y273654D01*
X645701D01*
X643701Y269654D01*
Y270454D02*
X642501Y272853D01*
X644901D01*
X643701Y270454D01*
X667323Y269654D02*
X665323Y273654D01*
X669323D01*
X667323Y269654D01*
Y270454D02*
X666123Y272853D01*
X668523D01*
X667323Y270454D01*
X690945Y246031D02*
X688945Y250031D01*
X692945D01*
X690945Y246031D01*
Y246831D02*
X689745Y249231D01*
X692145D01*
X690945Y246831D01*
X679134Y246031D02*
X677134Y250031D01*
X681134D01*
X679134Y246031D01*
Y246831D02*
X677934Y249231D01*
X680334D01*
X679134Y246831D01*
X708661Y234220D02*
X706661Y238220D01*
X710661D01*
X708661Y234220D01*
Y235020D02*
X707461Y237420D01*
X709861D01*
X708661Y235020D01*
X655512Y246031D02*
X653512Y250031D01*
X657512D01*
X655512Y246031D01*
Y246831D02*
X654312Y249231D01*
X656712D01*
X655512Y246831D01*
X643701Y246031D02*
X641701Y250031D01*
X645701D01*
X643701Y246031D01*
Y246831D02*
X642501Y249231D01*
X644901D01*
X643701Y246831D01*
X667323Y246031D02*
X665323Y250031D01*
X669323D01*
X667323Y246031D01*
Y246831D02*
X666123Y249231D01*
X668523D01*
X667323Y246831D01*
X631890Y246031D02*
X629890Y250031D01*
X633890D01*
X631890Y246031D01*
Y246831D02*
X630690Y249231D01*
X633090D01*
X631890Y246831D01*
X549212Y246031D02*
X547212Y250031D01*
X551212D01*
X549212Y246031D01*
Y246831D02*
X548012Y249231D01*
X550412D01*
X549212Y246831D01*
X543307Y257842D02*
X541307Y261842D01*
X545307D01*
X543307Y257842D01*
Y258642D02*
X542107Y261042D01*
X544507D01*
X543307Y258642D01*
X561023Y246031D02*
X559023Y250031D01*
X563023D01*
X561023Y246031D01*
Y246831D02*
X559823Y249231D01*
X562223D01*
X561023Y246831D01*
X566929Y234220D02*
X564929Y238220D01*
X568929D01*
X566929Y234220D01*
Y235020D02*
X565729Y237420D01*
X568129D01*
X566929Y235020D01*
X555118Y234220D02*
X553118Y238220D01*
X557118D01*
X555118Y234220D01*
Y235020D02*
X553918Y237420D01*
X556318D01*
X555118Y235020D01*
X578740Y234220D02*
X576740Y238220D01*
X580740D01*
X578740Y234220D01*
Y235020D02*
X577540Y237420D01*
X579940D01*
X578740Y235020D01*
X740158Y198787D02*
X738158Y202787D01*
X742158D01*
X740158Y198787D01*
Y199587D02*
X738958Y201987D01*
X741358D01*
X740158Y199587D01*
Y171228D02*
X738158Y175228D01*
X742158D01*
X740158Y171228D01*
Y172028D02*
X738958Y174428D01*
X741358D01*
X740158Y172028D01*
X714567Y222409D02*
X712567Y226409D01*
X716567D01*
X714567Y222409D01*
Y223209D02*
X713367Y225609D01*
X715767D01*
X714567Y223209D01*
X667323Y222409D02*
X665323Y226409D01*
X669323D01*
X667323Y222409D01*
Y223209D02*
X666123Y225609D01*
X668523D01*
X667323Y223209D01*
X655512Y222409D02*
X653512Y226409D01*
X657512D01*
X655512Y222409D01*
Y223209D02*
X654312Y225609D01*
X656712D01*
X655512Y223209D01*
X561023Y198787D02*
X559023Y202787D01*
X563023D01*
X561023Y198787D01*
Y199587D02*
X559823Y201987D01*
X562223D01*
X561023Y199587D01*
X507874Y257842D02*
X505874Y261842D01*
X509874D01*
X507874Y257842D01*
Y258642D02*
X506674Y261042D01*
X509074D01*
X507874Y258642D01*
X496063Y253906D02*
X494063Y257906D01*
X498063D01*
X496063Y253906D01*
Y254706D02*
X494863Y257105D01*
X497263D01*
X496063Y254706D01*
X498032Y242094D02*
X496032Y246094D01*
X500032D01*
X498032Y242094D01*
Y242895D02*
X496832Y245294D01*
X499231D01*
X498032Y242895D01*
X496901Y248600D02*
X494901Y252600D01*
X498901D01*
X496901Y248600D01*
Y249400D02*
X495701Y251800D01*
X498101D01*
X496901Y249400D01*
X481867Y273061D02*
X479867Y277061D01*
X483867D01*
X481867Y273061D01*
Y273861D02*
X480667Y276261D01*
X483067D01*
X481867Y273861D01*
X462598Y271622D02*
X460598Y275622D01*
X464598D01*
X462598Y271622D01*
Y272422D02*
X461398Y274822D01*
X463798D01*
X462598Y272422D01*
X484252Y210598D02*
X482252Y214598D01*
X486252D01*
X484252Y210598D01*
Y211398D02*
X483052Y213798D01*
X485452D01*
X484252Y211398D01*
X464567Y238158D02*
X462567Y242158D01*
X466567D01*
X464567Y238158D01*
Y238958D02*
X463367Y241357D01*
X465767D01*
X464567Y238958D01*
X454875Y228863D02*
X452875Y232862D01*
X456875D01*
X454875Y228863D01*
Y229662D02*
X453675Y232063D01*
X456075D01*
X454875Y229662D01*
X460630Y186976D02*
X458630Y190976D01*
X462630D01*
X460630Y186976D01*
Y187776D02*
X459430Y190176D01*
X461830D01*
X460630Y187776D01*
X250000Y324772D02*
X248000Y328772D01*
X252000D01*
X250000Y324772D01*
Y325572D02*
X248800Y327972D01*
X251200D01*
X250000Y325572D01*
Y316898D02*
X248000Y320898D01*
X252000D01*
X250000Y316898D01*
Y317698D02*
X248800Y320098D01*
X251200D01*
X250000Y317698D01*
X289370Y293275D02*
X287370Y297275D01*
X291370D01*
X289370Y293275D01*
Y294075D02*
X288170Y296476D01*
X290570D01*
X289370Y294075D01*
X312992Y293275D02*
X310992Y297275D01*
X314992D01*
X312992Y293275D01*
Y294075D02*
X311792Y296476D01*
X314192D01*
X312992Y294075D01*
X250000Y334614D02*
X248000Y338614D01*
X252000D01*
X250000Y334614D01*
Y335414D02*
X248800Y337814D01*
X251200D01*
X250000Y335414D01*
Y342488D02*
X248000Y346488D01*
X252000D01*
X250000Y342488D01*
Y343288D02*
X248800Y345688D01*
X251200D01*
X250000Y343288D01*
X240158Y324772D02*
X238158Y328772D01*
X242158D01*
X240158Y324772D01*
Y325572D02*
X238958Y327972D01*
X241357D01*
X240158Y325572D01*
Y342488D02*
X238158Y346488D01*
X242158D01*
X240158Y342488D01*
Y343288D02*
X238958Y345688D01*
X241357D01*
X240158Y343288D01*
X230315Y342488D02*
X228315Y346488D01*
X232315D01*
X230315Y342488D01*
Y343288D02*
X229115Y345688D01*
X231515D01*
X230315Y343288D01*
X240158Y334614D02*
X238158Y338614D01*
X242158D01*
X240158Y334614D01*
Y335414D02*
X238958Y337814D01*
X241357D01*
X240158Y335414D01*
Y316898D02*
X238158Y320898D01*
X242158D01*
X240158Y316898D01*
Y317698D02*
X238958Y320098D01*
X241357D01*
X240158Y317698D01*
X230315Y316898D02*
X228315Y320898D01*
X232315D01*
X230315Y316898D01*
Y317698D02*
X229115Y320098D01*
X231515D01*
X230315Y317698D01*
X236220Y305086D02*
X234220Y309086D01*
X238220D01*
X236220Y305086D01*
Y305887D02*
X235020Y308286D01*
X237420D01*
X236220Y305887D01*
X450787Y283433D02*
X448787Y287433D01*
X452787D01*
X450787Y283433D01*
Y284233D02*
X449587Y286633D01*
X451987D01*
X450787Y284233D01*
Y271622D02*
X448787Y275622D01*
X452787D01*
X450787Y271622D01*
Y272422D02*
X449587Y274822D01*
X451987D01*
X450787Y272422D01*
X416185Y273656D02*
X414185Y277656D01*
X418185D01*
X416185Y273656D01*
Y274456D02*
X414985Y276856D01*
X417385D01*
X416185Y274456D01*
X277559Y293275D02*
X275559Y297275D01*
X279559D01*
X277559Y293275D01*
Y294075D02*
X276359Y296476D01*
X278759D01*
X277559Y294075D01*
X265748Y293275D02*
X263748Y297275D01*
X267748D01*
X265748Y293275D01*
Y294075D02*
X264548Y296476D01*
X266948D01*
X265748Y294075D01*
X301181Y293275D02*
X299181Y297275D01*
X303181D01*
X301181Y293275D01*
Y294075D02*
X299981Y296476D01*
X302381D01*
X301181Y294075D01*
X413298Y287798D02*
X411298Y291798D01*
X415298D01*
X413298Y287798D01*
Y288598D02*
X412098Y290998D01*
X414498D01*
X413298Y288598D01*
X336614Y269654D02*
X334614Y273654D01*
X338614D01*
X336614Y269654D01*
Y270454D02*
X335414Y272853D01*
X337814D01*
X336614Y270454D01*
X318898Y281465D02*
X316898Y285465D01*
X320898D01*
X318898Y281465D01*
Y282264D02*
X317698Y284665D01*
X320097D01*
X318898Y282264D01*
X330709Y281465D02*
X328709Y285465D01*
X332709D01*
X330709Y281465D01*
Y282264D02*
X329509Y284665D01*
X331909D01*
X330709Y282264D01*
X206693Y340520D02*
X204693Y344520D01*
X208693D01*
X206693Y340520D01*
Y341320D02*
X205493Y343720D01*
X207893D01*
X206693Y341320D01*
X194882Y340520D02*
X192882Y344520D01*
X196882D01*
X194882Y340520D01*
Y341320D02*
X193682Y343720D01*
X196082D01*
X194882Y341320D01*
X218504Y340520D02*
X216504Y344520D01*
X220504D01*
X218504Y340520D01*
Y341320D02*
X217304Y343720D01*
X219704D01*
X218504Y341320D01*
X171260Y340520D02*
X169260Y344520D01*
X173260D01*
X171260Y340520D01*
Y341320D02*
X170060Y343720D01*
X172460D01*
X171260Y341320D01*
X159449Y340520D02*
X157449Y344520D01*
X161449D01*
X159449Y340520D01*
Y341320D02*
X158249Y343720D01*
X160649D01*
X159449Y341320D01*
X183071Y340520D02*
X181071Y344520D01*
X185071D01*
X183071Y340520D01*
Y341320D02*
X181871Y343720D01*
X184271D01*
X183071Y341320D01*
X230315Y324772D02*
X228315Y328772D01*
X232315D01*
X230315Y324772D01*
Y325572D02*
X229115Y327972D01*
X231515D01*
X230315Y325572D01*
Y334614D02*
X228315Y338614D01*
X232315D01*
X230315Y334614D01*
Y335414D02*
X229115Y337814D01*
X231515D01*
X230315Y335414D01*
X224409Y305086D02*
X222409Y309086D01*
X226409D01*
X224409Y305086D01*
Y305887D02*
X223209Y308286D01*
X225609D01*
X224409Y305887D01*
X112205Y293275D02*
X110205Y297275D01*
X114205D01*
X112205Y293275D01*
Y294075D02*
X111005Y296476D01*
X113405D01*
X112205Y294075D01*
X118110Y281465D02*
X116110Y285465D01*
X120110D01*
X118110Y281465D01*
Y282264D02*
X116910Y284665D01*
X119310D01*
X118110Y282264D01*
X59055Y328709D02*
X57055Y332709D01*
X61055D01*
X59055Y328709D01*
Y329509D02*
X57855Y331909D01*
X60255D01*
X59055Y329509D01*
X53150Y316898D02*
X51150Y320898D01*
X55150D01*
X53150Y316898D01*
Y317698D02*
X51950Y320097D01*
X54350D01*
X53150Y317698D01*
Y340520D02*
X51150Y344520D01*
X55150D01*
X53150Y340520D01*
Y341320D02*
X51950Y343720D01*
X54350D01*
X53150Y341320D01*
X47244Y328709D02*
X45244Y332709D01*
X49244D01*
X47244Y328709D01*
Y329509D02*
X46044Y331909D01*
X48444D01*
X47244Y329509D01*
Y305086D02*
X45244Y309086D01*
X49244D01*
X47244Y305086D01*
Y305887D02*
X46044Y308286D01*
X48444D01*
X47244Y305887D01*
X88583Y293275D02*
X86583Y297275D01*
X90583D01*
X88583Y293275D01*
Y294075D02*
X87383Y296476D01*
X89783D01*
X88583Y294075D01*
X100394Y293275D02*
X98394Y297275D01*
X102394D01*
X100394Y293275D01*
Y294075D02*
X99194Y296476D01*
X101594D01*
X100394Y294075D01*
X70866Y305086D02*
X68866Y309086D01*
X72866D01*
X70866Y305086D01*
Y305887D02*
X69666Y308286D01*
X72066D01*
X70866Y305887D01*
X82677Y305086D02*
X80677Y309086D01*
X84677D01*
X82677Y305086D01*
Y305887D02*
X81477Y308286D01*
X83877D01*
X82677Y305887D01*
X165354Y276559D02*
X163354Y280559D01*
X167354D01*
X165354Y276559D01*
Y277359D02*
X164154Y279759D01*
X166554D01*
X165354Y277359D01*
X194882Y269654D02*
X192882Y273654D01*
X196882D01*
X194882Y269654D01*
Y270454D02*
X193682Y272853D01*
X196082D01*
X194882Y270454D01*
X183071Y269654D02*
X181071Y273654D01*
X185071D01*
X183071Y269654D01*
Y270454D02*
X181871Y272853D01*
X184271D01*
X183071Y270454D01*
X106299Y281465D02*
X104299Y285465D01*
X108299D01*
X106299Y281465D01*
Y282264D02*
X105099Y284665D01*
X107499D01*
X106299Y282264D01*
X94488Y281465D02*
X92488Y285465D01*
X96488D01*
X94488Y281465D01*
Y282264D02*
X93288Y284665D01*
X95688D01*
X94488Y282264D01*
X129921Y281465D02*
X127921Y285465D01*
X131921D01*
X129921Y281465D01*
Y282264D02*
X128721Y284665D01*
X131121D01*
X129921Y282264D01*
X82677Y281465D02*
X80677Y285465D01*
X84677D01*
X82677Y281465D01*
Y282264D02*
X81477Y284665D01*
X83877D01*
X82677Y282264D01*
X76772Y269654D02*
X74772Y273654D01*
X78772D01*
X76772Y269654D01*
Y270454D02*
X75572Y272853D01*
X77972D01*
X76772Y270454D01*
X88583Y269654D02*
X86583Y273654D01*
X90583D01*
X88583Y269654D01*
Y270454D02*
X87383Y272853D01*
X89783D01*
X88583Y270454D01*
X135827Y269654D02*
X133827Y273654D01*
X137827D01*
X135827Y269654D01*
Y270454D02*
X134627Y272853D01*
X137027D01*
X135827Y270454D01*
X124016Y269654D02*
X122016Y273654D01*
X126016D01*
X124016Y269654D01*
Y270454D02*
X122816Y272853D01*
X125216D01*
X124016Y270454D01*
X147638Y269654D02*
X145638Y273654D01*
X149638D01*
X147638Y269654D01*
Y270454D02*
X146438Y272853D01*
X148838D01*
X147638Y270454D01*
X100394Y269654D02*
X98394Y273654D01*
X102394D01*
X100394Y269654D01*
Y270454D02*
X99194Y272853D01*
X101594D01*
X100394Y270454D01*
X112205Y269654D02*
X110205Y273654D01*
X114205D01*
X112205Y269654D01*
Y270454D02*
X111005Y272853D01*
X113405D01*
X112205Y270454D01*
X429262Y255865D02*
X427262Y259865D01*
X431262D01*
X429262Y255865D01*
Y256665D02*
X428062Y259065D01*
X430462D01*
X429262Y256665D01*
X324803Y269654D02*
X322803Y273654D01*
X326803D01*
X324803Y269654D01*
Y270454D02*
X323603Y272853D01*
X326003D01*
X324803Y270454D01*
X312992Y246031D02*
X310992Y250031D01*
X314992D01*
X312992Y246031D01*
Y246831D02*
X311792Y249231D01*
X314192D01*
X312992Y246831D01*
X301181Y246031D02*
X299181Y250031D01*
X303181D01*
X301181Y246031D01*
Y246831D02*
X299981Y249231D01*
X302381D01*
X301181Y246831D01*
X277559Y246031D02*
X275559Y250031D01*
X279559D01*
X277559Y246031D01*
Y246831D02*
X276359Y249231D01*
X278759D01*
X277559Y246831D01*
X289370Y246031D02*
X287370Y250031D01*
X291370D01*
X289370Y246031D01*
Y246831D02*
X288170Y249231D01*
X290570D01*
X289370Y246831D01*
X364380Y242350D02*
X362380Y246350D01*
X366380D01*
X364380Y242350D01*
Y243150D02*
X363180Y245550D01*
X365580D01*
X364380Y243150D01*
X177165Y259811D02*
X175165Y263811D01*
X179165D01*
X177165Y259811D01*
Y260611D02*
X175965Y263011D01*
X178365D01*
X177165Y260611D01*
X129921Y257842D02*
X127921Y261842D01*
X131921D01*
X129921Y257842D01*
Y258642D02*
X128721Y261042D01*
X131121D01*
X129921Y258642D01*
X118110Y257842D02*
X116110Y261842D01*
X120110D01*
X118110Y257842D01*
Y258642D02*
X116910Y261042D01*
X119310D01*
X118110Y258642D01*
X106299Y257842D02*
X104299Y261842D01*
X108299D01*
X106299Y257842D01*
Y258642D02*
X105099Y261042D01*
X107499D01*
X106299Y258642D01*
X94488Y257842D02*
X92488Y261842D01*
X96488D01*
X94488Y257842D01*
Y258642D02*
X93288Y261042D01*
X95688D01*
X94488Y258642D01*
X153543Y249969D02*
X151543Y253969D01*
X155543D01*
X153543Y249969D01*
Y250768D02*
X152343Y253169D01*
X154743D01*
X153543Y250768D01*
X230315Y246031D02*
X228315Y250031D01*
X232315D01*
X230315Y246031D01*
Y246831D02*
X229115Y249231D01*
X231515D01*
X230315Y246831D01*
X218504Y246031D02*
X216504Y250031D01*
X220504D01*
X218504Y246031D01*
Y246831D02*
X217304Y249231D01*
X219704D01*
X218504Y246831D01*
X242126Y246031D02*
X240126Y250031D01*
X244126D01*
X242126Y246031D01*
Y246831D02*
X240926Y249231D01*
X243326D01*
X242126Y246831D01*
X194882Y246031D02*
X192882Y250031D01*
X196882D01*
X194882Y246031D01*
Y246831D02*
X193682Y249231D01*
X196082D01*
X194882Y246831D01*
X183071Y246031D02*
X181071Y250031D01*
X185071D01*
X183071Y246031D01*
Y246831D02*
X181871Y249231D01*
X184271D01*
X183071Y246831D01*
X206693Y246031D02*
X204693Y250031D01*
X208693D01*
X206693Y246031D01*
Y246831D02*
X205493Y249231D01*
X207893D01*
X206693Y246831D01*
X265748Y246031D02*
X263748Y250031D01*
X267748D01*
X265748Y246031D01*
Y246831D02*
X264548Y249231D01*
X266948D01*
X265748Y246831D01*
X253937Y246031D02*
X251937Y250031D01*
X255937D01*
X253937Y246031D01*
Y246831D02*
X252737Y249231D01*
X255137D01*
X253937Y246831D01*
X112205Y246031D02*
X110205Y250031D01*
X114205D01*
X112205Y246031D01*
Y246831D02*
X111005Y249231D01*
X113405D01*
X112205Y246831D01*
X100394Y246031D02*
X98394Y250031D01*
X102394D01*
X100394Y246031D01*
Y246831D02*
X99194Y249231D01*
X101594D01*
X100394Y246831D01*
X171260Y246031D02*
X169260Y250031D01*
X173260D01*
X171260Y246031D01*
Y246831D02*
X170060Y249231D01*
X172460D01*
X171260Y246831D01*
X88583Y246031D02*
X86583Y250031D01*
X90583D01*
X88583Y246031D01*
Y246831D02*
X87383Y249231D01*
X89783D01*
X88583Y246831D01*
X47244Y234220D02*
X45244Y238220D01*
X49244D01*
X47244Y234220D01*
Y235020D02*
X46044Y237420D01*
X48444D01*
X47244Y235020D01*
X736221Y312961D02*
X734221Y316961D01*
X738221D01*
X736221Y312961D01*
Y313761D02*
X735020Y316161D01*
X737421D01*
X736221Y313761D01*
X601342Y289136D02*
X599342Y293136D01*
X603342D01*
X601342Y289136D01*
Y289936D02*
X600142Y292336D01*
X602542D01*
X601342Y289936D01*
X576772Y289339D02*
X574772Y293339D01*
X578772D01*
X576772Y289339D01*
Y290139D02*
X575572Y292539D01*
X577972D01*
X576772Y290139D01*
X549044Y286479D02*
X547044Y290479D01*
X551044D01*
X549044Y286479D01*
Y287279D02*
X547844Y289679D01*
X550244D01*
X549044Y287279D01*
X541166Y309656D02*
X539166Y313656D01*
X543166D01*
X541166Y309656D01*
Y310456D02*
X539966Y312856D01*
X542366D01*
X541166Y310456D01*
X724529Y243330D02*
X722529Y247330D01*
X726529D01*
X724529Y243330D01*
Y244130D02*
X723329Y246530D01*
X725729D01*
X724529Y244130D01*
X602362Y257842D02*
X600362Y261842D01*
X604362D01*
X602362Y257842D01*
Y258643D02*
X601162Y261042D01*
X603562D01*
X602362Y258643D01*
X572835Y251937D02*
X570835Y255937D01*
X574835D01*
X572835Y251937D01*
Y252737D02*
X571635Y255137D01*
X574035D01*
X572835Y252737D01*
X728346Y161386D02*
X726346Y165386D01*
X730346D01*
X728346Y161386D01*
Y162186D02*
X727146Y164586D01*
X729546D01*
X728346Y162186D01*
X555118Y277528D02*
X553118Y281528D01*
X557118D01*
X555118Y277528D01*
Y278328D02*
X553918Y280728D01*
X556318D01*
X555118Y278328D01*
X518543Y280677D02*
X516543Y284677D01*
X520543D01*
X518543Y280677D01*
Y281477D02*
X517343Y283877D01*
X519743D01*
X518543Y281477D01*
X512385Y280932D02*
X510385Y284932D01*
X514385D01*
X512385Y280932D01*
Y281732D02*
X511185Y284132D01*
X513585D01*
X512385Y281732D01*
X542043Y276429D02*
X540043Y280429D01*
X544043D01*
X542043Y276429D01*
Y277229D02*
X540843Y279629D01*
X543243D01*
X542043Y277229D01*
X530712Y276565D02*
X528712Y280565D01*
X532712D01*
X530712Y276565D01*
Y277365D02*
X529512Y279765D01*
X531912D01*
X530712Y277365D01*
X531496Y238158D02*
X529496Y242158D01*
X533496D01*
X531496Y238158D01*
Y238958D02*
X530296Y241357D01*
X532696D01*
X531496Y238958D01*
X523622Y192882D02*
X521622Y196882D01*
X525622D01*
X523622Y192882D01*
Y193682D02*
X522422Y196082D01*
X524822D01*
X523622Y193682D01*
X497275Y281642D02*
X495275Y285642D01*
X499275D01*
X497275Y281642D01*
Y282442D02*
X496075Y284842D01*
X498475D01*
X497275Y282442D01*
X496967Y273429D02*
X494967Y277429D01*
X498967D01*
X496967Y273429D01*
Y274229D02*
X495767Y276629D01*
X498167D01*
X496967Y274229D01*
X496063Y293276D02*
X494063Y297276D01*
X498063D01*
X496063Y293276D01*
Y294076D02*
X494863Y296476D01*
X497263D01*
X496063Y294076D01*
X474409Y287370D02*
X472409Y291370D01*
X476409D01*
X474409Y287370D01*
Y288170D02*
X473209Y290570D01*
X475609D01*
X474409Y288170D01*
X496063Y263748D02*
X494063Y267748D01*
X498063D01*
X496063Y263748D01*
Y264548D02*
X494863Y266948D01*
X497263D01*
X496063Y264548D01*
X465574Y260651D02*
X463574Y264651D01*
X467574D01*
X465574Y260651D01*
Y261451D02*
X464374Y263851D01*
X466774D01*
X465574Y261451D01*
X399606Y307055D02*
X397606Y311055D01*
X401606D01*
X399606Y307055D01*
Y307855D02*
X398406Y310255D01*
X400806D01*
X399606Y307855D01*
Y312961D02*
X397606Y316961D01*
X401606D01*
X399606Y312961D01*
Y313761D02*
X398406Y316161D01*
X400806D01*
X399606Y313761D01*
Y301150D02*
X397606Y305150D01*
X401606D01*
X399606Y301150D01*
Y301950D02*
X398406Y304350D01*
X400806D01*
X399606Y301950D01*
X442913Y291307D02*
X440913Y295307D01*
X444913D01*
X442913Y291307D01*
Y292107D02*
X441713Y294507D01*
X444113D01*
X442913Y292107D01*
X399606Y291307D02*
X397606Y295307D01*
X401606D01*
X399606Y291307D01*
Y292107D02*
X398406Y294507D01*
X400806D01*
X399606Y292107D01*
X391732Y307055D02*
X389732Y311055D01*
X393732D01*
X391732Y307055D01*
Y307855D02*
X390532Y310255D01*
X392932D01*
X391732Y307855D01*
Y312961D02*
X389732Y316961D01*
X393732D01*
X391732Y312961D01*
Y313761D02*
X390532Y316161D01*
X392932D01*
X391732Y313761D01*
Y301150D02*
X389732Y305150D01*
X393732D01*
X391732Y301150D01*
Y301950D02*
X390532Y304350D01*
X392932D01*
X391732Y301950D01*
X330709Y244063D02*
X328709Y248063D01*
X332709D01*
X330709Y244063D01*
Y244863D02*
X329509Y247263D01*
X331909D01*
X330709Y244863D01*
X459584Y228531D02*
X457584Y232531D01*
X461584D01*
X459584Y228531D01*
Y229331D02*
X458384Y231731D01*
X460784D01*
X459584Y229331D01*
X431045Y225994D02*
X429045Y229994D01*
X433045D01*
X431045Y225994D01*
Y226794D02*
X429845Y229194D01*
X432245D01*
X431045Y226794D01*
X297244Y226346D02*
X295244Y230346D01*
X299244D01*
X297244Y226346D01*
Y227147D02*
X296044Y229546D01*
X298444D01*
X297244Y227147D01*
X250000Y228315D02*
X248000Y232315D01*
X252000D01*
X250000Y228315D01*
Y229115D02*
X248800Y231515D01*
X251200D01*
X250000Y229115D01*
X498032Y200756D02*
X496032Y204756D01*
X500032D01*
X498032Y200756D01*
Y201556D02*
X496832Y203956D01*
X499231D01*
X498032Y201556D01*
X478346Y200756D02*
X476346Y204756D01*
X480346D01*
X478346Y200756D01*
Y201556D02*
X477146Y203956D01*
X479546D01*
X478346Y201556D01*
X458661Y200756D02*
X456661Y204756D01*
X460661D01*
X458661Y200756D01*
Y201556D02*
X457461Y203956D01*
X459861D01*
X458661Y201556D01*
X383858Y224378D02*
X381858Y228378D01*
X385858D01*
X383858Y224378D01*
Y225178D02*
X382658Y227578D01*
X385058D01*
X383858Y225178D01*
X202756Y228315D02*
X200756Y232315D01*
X204756D01*
X202756Y228315D01*
Y229115D02*
X201556Y231515D01*
X203956D01*
X202756Y229115D01*
X155512Y230283D02*
X153512Y234283D01*
X157512D01*
X155512Y230283D01*
Y231083D02*
X154312Y233484D01*
X156712D01*
X155512Y231083D01*
X149123Y234833D02*
X147123Y238833D01*
X151123D01*
X149123Y234833D01*
Y235633D02*
X147923Y238033D01*
X150323D01*
X149123Y235633D01*
X129556Y235493D02*
X127556Y239493D01*
X131556D01*
X129556Y235493D01*
Y236293D02*
X128356Y238693D01*
X130756D01*
X129556Y236293D01*
X122047Y226346D02*
X120047Y230346D01*
X124047D01*
X122047Y226346D01*
Y227147D02*
X120847Y229546D01*
X123247D01*
X122047Y227147D01*
X94488Y228315D02*
X92488Y232315D01*
X96488D01*
X94488Y228315D01*
Y229115D02*
X93288Y231515D01*
X95688D01*
X94488Y229115D01*
X147638Y226346D02*
X145638Y230346D01*
X149638D01*
X147638Y226346D01*
Y227147D02*
X146438Y229546D01*
X148838D01*
X147638Y227147D01*
X248031Y297213D02*
X246031Y301213D01*
X250031D01*
X248031Y297213D01*
Y298013D02*
X246831Y300413D01*
X249232D01*
X248031Y298013D01*
X332677Y340520D02*
X330677Y344520D01*
X334677D01*
X332677Y340520D01*
Y341320D02*
X331477Y343720D01*
X333877D01*
X332677Y341320D01*
X362205Y263748D02*
X360205Y267748D01*
X364205D01*
X362205Y263748D01*
Y264548D02*
X361005Y266948D01*
X363405D01*
X362205Y264548D01*
Y269654D02*
X360205Y273654D01*
X364205D01*
X362205Y269654D01*
Y270454D02*
X361005Y272853D01*
X363405D01*
X362205Y270454D01*
X74803Y249969D02*
X72803Y253969D01*
X76803D01*
X74803Y249969D01*
Y250768D02*
X73603Y253169D01*
X76003D01*
X74803Y250768D01*
Y238158D02*
X72803Y242158D01*
X76803D01*
X74803Y238158D01*
Y238958D02*
X73603Y241357D01*
X76003D01*
X74803Y238958D01*
X76984Y244497D02*
X74984Y248497D01*
X78984D01*
X76984Y244497D01*
Y245297D02*
X75784Y247697D01*
X78184D01*
X76984Y245297D01*
X70866Y253906D02*
X68866Y257906D01*
X72866D01*
X70866Y253906D01*
Y254706D02*
X69666Y257105D01*
X72066D01*
X70866Y254706D01*
Y244063D02*
X68866Y248063D01*
X72866D01*
X70866Y244063D01*
Y244863D02*
X69666Y247263D01*
X72066D01*
X70866Y244863D01*
X62992Y244063D02*
X60992Y248063D01*
X64992D01*
X62992Y244063D01*
Y244863D02*
X61792Y247263D01*
X64192D01*
X62992Y244863D01*
X356299Y273590D02*
X354299Y277590D01*
X358299D01*
X356299Y273590D01*
Y274391D02*
X355099Y276790D01*
X357499D01*
X356299Y274391D01*
Y267685D02*
X354299Y271685D01*
X358299D01*
X356299Y267685D01*
Y268485D02*
X355099Y270885D01*
X357499D01*
X356299Y268485D01*
Y261779D02*
X354299Y265779D01*
X358299D01*
X356299Y261779D01*
Y262579D02*
X355099Y264980D01*
X357499D01*
X356299Y262579D01*
X350394Y269654D02*
X348394Y273654D01*
X352394D01*
X350394Y269654D01*
Y270454D02*
X349194Y272853D01*
X351594D01*
X350394Y270454D01*
Y263748D02*
X348394Y267748D01*
X352394D01*
X350394Y263748D01*
Y264548D02*
X349194Y266948D01*
X351594D01*
X350394Y264548D01*
Y275559D02*
X348394Y279559D01*
X352394D01*
X350394Y275559D01*
Y276359D02*
X349194Y278759D01*
X351594D01*
X350394Y276359D01*
X324803Y161386D02*
X322803Y165386D01*
X326803D01*
X324803Y161386D01*
Y162186D02*
X323603Y164586D01*
X326003D01*
X324803Y162186D01*
X370079Y332646D02*
X368079Y336646D01*
X372079D01*
X370079Y332646D01*
Y333446D02*
X368879Y335846D01*
X371279D01*
X370079Y333446D01*
X375984Y332646D02*
X373984Y336646D01*
X377984D01*
X375984Y332646D01*
Y333446D02*
X374784Y335846D01*
X377184D01*
X375984Y333446D01*
X381890Y332646D02*
X379890Y336646D01*
X383890D01*
X381890Y332646D01*
Y333446D02*
X380690Y335846D01*
X383090D01*
X381890Y333446D01*
X379921Y338551D02*
X377921Y342551D01*
X381921D01*
X379921Y338551D01*
Y339351D02*
X378721Y341751D01*
X381121D01*
X379921Y339351D01*
X372047Y338551D02*
X370047Y342551D01*
X374047D01*
X372047Y338551D01*
Y339351D02*
X370847Y341751D01*
X373247D01*
X372047Y339351D01*
X381890Y344457D02*
X379890Y348457D01*
X383890D01*
X381890Y344457D01*
Y345257D02*
X380690Y347657D01*
X383090D01*
X381890Y345257D01*
X375984Y344457D02*
X373984Y348457D01*
X377984D01*
X375984Y344457D01*
Y345257D02*
X374784Y347657D01*
X377184D01*
X375984Y345257D01*
X370079Y344457D02*
X368079Y348457D01*
X372079D01*
X370079Y344457D01*
Y345257D02*
X368879Y347657D01*
X371279D01*
X370079Y345257D01*
X141732Y318866D02*
X139732Y322866D01*
X143732D01*
X141732Y318866D01*
Y319666D02*
X140532Y322066D01*
X142932D01*
X141732Y319666D01*
X129921Y318866D02*
X127921Y322866D01*
X131921D01*
X129921Y318866D01*
Y319666D02*
X128721Y322066D01*
X131121D01*
X129921Y319666D01*
X143612Y285313D02*
X141612Y289313D01*
X145612D01*
X143612Y285313D01*
Y286113D02*
X142412Y288513D01*
X144812D01*
X143612Y286113D01*
X143581Y294009D02*
X141581Y298009D01*
X145581D01*
X143581Y294009D01*
Y294809D02*
X142381Y297209D01*
X144781D01*
X143581Y294809D01*
X141732Y324772D02*
X139732Y328772D01*
X143732D01*
X141732Y324772D01*
Y325572D02*
X140532Y327972D01*
X142932D01*
X141732Y325572D01*
X129921Y324772D02*
X127921Y328772D01*
X131921D01*
X129921Y324772D01*
Y325572D02*
X128721Y327972D01*
X131121D01*
X129921Y325572D01*
X390000Y168000D02*
X388000Y172000D01*
X392000D01*
X390000Y168000D01*
Y168800D02*
X388800Y171200D01*
X391200D01*
X390000Y168800D01*
X395000Y158000D02*
X393000Y162000D01*
X397000D01*
X395000Y158000D01*
Y158800D02*
X393800Y161200D01*
X396200D01*
X395000Y158800D01*
X390000Y148000D02*
X388000Y152000D01*
X392000D01*
X390000Y148000D01*
Y148800D02*
X388800Y151200D01*
X391200D01*
X390000Y148800D01*
X380000Y168000D02*
X378000Y172000D01*
X382000D01*
X380000Y168000D01*
Y168800D02*
X378800Y171200D01*
X381200D01*
X380000Y168800D01*
X385000Y158000D02*
X383000Y162000D01*
X387000D01*
X385000Y158000D01*
Y158800D02*
X383800Y161200D01*
X386200D01*
X385000Y158800D01*
Y138000D02*
X383000Y142000D01*
X387000D01*
X385000Y138000D01*
Y138800D02*
X383800Y141200D01*
X386200D01*
X385000Y138800D01*
X380000Y128000D02*
X378000Y132000D01*
X382000D01*
X380000Y128000D01*
Y128800D02*
X378800Y131200D01*
X381200D01*
X380000Y128800D01*
X370000Y168000D02*
X368000Y172000D01*
X372000D01*
X370000Y168000D01*
Y168800D02*
X368800Y171200D01*
X371200D01*
X370000Y168800D01*
X375000Y158000D02*
X373000Y162000D01*
X377000D01*
X375000Y158000D01*
Y158800D02*
X373800Y161200D01*
X376200D01*
X375000Y158800D01*
X370000Y148000D02*
X368000Y152000D01*
X372000D01*
X370000Y148000D01*
Y148800D02*
X368800Y151200D01*
X371200D01*
X370000Y148800D01*
X375000Y138000D02*
X373000Y142000D01*
X377000D01*
X375000Y138000D01*
Y138800D02*
X373800Y141200D01*
X376200D01*
X375000Y138800D01*
X370000Y128000D02*
X368000Y132000D01*
X372000D01*
X370000Y128000D01*
Y128800D02*
X368800Y131200D01*
X371200D01*
X370000Y128800D01*
X365000Y158000D02*
X363000Y162000D01*
X367000D01*
X365000Y158000D01*
Y158800D02*
X363800Y161200D01*
X366200D01*
X365000Y158800D01*
Y138000D02*
X363000Y142000D01*
X367000D01*
X365000Y138000D01*
Y138800D02*
X363800Y141200D01*
X366200D01*
X365000Y138800D01*
X435000Y98000D02*
X433000Y102000D01*
X437000D01*
X435000Y98000D01*
Y98800D02*
X433800Y101200D01*
X436200D01*
X435000Y98800D01*
X430000Y88000D02*
X428000Y92000D01*
X432000D01*
X430000Y88000D01*
Y88800D02*
X428800Y91200D01*
X431200D01*
X430000Y88800D01*
X435000Y78000D02*
X433000Y82000D01*
X437000D01*
X435000Y78000D01*
Y78800D02*
X433800Y81200D01*
X436200D01*
X435000Y78800D01*
X430000Y68000D02*
X428000Y72000D01*
X432000D01*
X430000Y68000D01*
Y68800D02*
X428800Y71200D01*
X431200D01*
X430000Y68800D01*
X435000Y58000D02*
X433000Y62000D01*
X437000D01*
X435000Y58000D01*
Y58800D02*
X433800Y61200D01*
X436200D01*
X435000Y58800D01*
X430000Y48000D02*
X428000Y52000D01*
X432000D01*
X430000Y48000D01*
Y48800D02*
X428800Y51200D01*
X431200D01*
X430000Y48800D01*
X425000Y98000D02*
X423000Y102000D01*
X427000D01*
X425000Y98000D01*
Y98800D02*
X423800Y101200D01*
X426200D01*
X425000Y98800D01*
Y78000D02*
X423000Y82000D01*
X427000D01*
X425000Y78000D01*
Y78800D02*
X423800Y81200D01*
X426200D01*
X425000Y78800D01*
X420000Y68000D02*
X418000Y72000D01*
X422000D01*
X420000Y68000D01*
Y68800D02*
X418800Y71200D01*
X421200D01*
X420000Y68800D01*
X425000Y58000D02*
X423000Y62000D01*
X427000D01*
X425000Y58000D01*
Y58800D02*
X423800Y61200D01*
X426200D01*
X425000Y58800D01*
X420000Y48000D02*
X418000Y52000D01*
X422000D01*
X420000Y48000D01*
Y48800D02*
X418800Y51200D01*
X421200D01*
X420000Y48800D01*
X415000Y98000D02*
X413000Y102000D01*
X417000D01*
X415000Y98000D01*
Y98800D02*
X413800Y101200D01*
X416200D01*
X415000Y98800D01*
Y78000D02*
X413000Y82000D01*
X417000D01*
X415000Y78000D01*
Y78800D02*
X413800Y81200D01*
X416200D01*
X415000Y78800D01*
X405000Y98000D02*
X403000Y102000D01*
X407000D01*
X405000Y98000D01*
Y98800D02*
X403800Y101200D01*
X406200D01*
X405000Y98800D01*
X400000Y88000D02*
X398000Y92000D01*
X402000D01*
X400000Y88000D01*
Y88800D02*
X398800Y91200D01*
X401200D01*
X400000Y88800D01*
X405000Y78000D02*
X403000Y82000D01*
X407000D01*
X405000Y78000D01*
Y78800D02*
X403800Y81200D01*
X406200D01*
X405000Y78800D01*
X476016Y278197D02*
X474016Y282197D01*
X478016D01*
X476016Y278197D01*
Y278997D02*
X474816Y281397D01*
X477215D01*
X476016Y278997D01*
X473577Y280512D02*
X471577Y284512D01*
X475577D01*
X473577Y280512D01*
Y281312D02*
X472377Y283712D01*
X474777D01*
X473577Y281312D01*
X470836Y295248D02*
X468836Y299248D01*
X472836D01*
X470836Y295248D01*
Y296048D02*
X469636Y298448D01*
X472036D01*
X470836Y296048D01*
X460686Y295300D02*
X458686Y299300D01*
X462686D01*
X460686Y295300D01*
Y296100D02*
X459486Y298500D01*
X461886D01*
X460686Y296100D01*
X454724Y295244D02*
X452724Y299244D01*
X456724D01*
X454724Y295244D01*
Y296044D02*
X453524Y298444D01*
X455924D01*
X454724Y296044D01*
X509842Y285402D02*
X507842Y289402D01*
X511842D01*
X509842Y285402D01*
Y286202D02*
X508642Y288602D01*
X511042D01*
X509842Y286202D01*
X473500Y266269D02*
X471500Y270269D01*
X475500D01*
X473500Y266269D01*
Y267069D02*
X472300Y269469D01*
X474700D01*
X473500Y267069D01*
X515212Y302006D02*
X513212Y306006D01*
X517212D01*
X515212Y302006D01*
Y302806D02*
X514012Y305206D01*
X516412D01*
X515212Y302806D01*
X460604Y301552D02*
X458604Y305552D01*
X462604D01*
X460604Y301552D01*
Y302352D02*
X459404Y304752D01*
X461804D01*
X460604Y302352D01*
X470842Y302456D02*
X468842Y306456D01*
X472842D01*
X470842Y302456D01*
Y303256D02*
X469642Y305656D01*
X472042D01*
X470842Y303256D01*
X580709Y214535D02*
X578709Y218535D01*
X582709D01*
X580709Y214535D01*
Y215335D02*
X579509Y217735D01*
X581909D01*
X580709Y215335D01*
X437008Y277528D02*
X435008Y281528D01*
X439008D01*
X437008Y277528D01*
Y278328D02*
X435808Y280728D01*
X438208D01*
X437008Y278328D01*
X411433Y265717D02*
X409433Y269717D01*
X413433D01*
X411433Y265717D01*
Y266516D02*
X410233Y268917D01*
X412633D01*
X411433Y266516D01*
X405512Y255874D02*
X403512Y259874D01*
X407512D01*
X405512Y255874D01*
Y256674D02*
X404312Y259074D01*
X406712D01*
X405512Y256674D01*
X397638Y263748D02*
X395638Y267748D01*
X399638D01*
X397638Y263748D01*
Y264548D02*
X396438Y266948D01*
X398838D01*
X397638Y264548D01*
X411417Y312961D02*
X409417Y316961D01*
X413417D01*
X411417Y312961D01*
Y313761D02*
X410217Y316161D01*
X412617D01*
X411417Y313761D01*
X433071Y283433D02*
X431071Y287433D01*
X435071D01*
X433071Y283433D01*
Y284233D02*
X431871Y286633D01*
X434271D01*
X433071Y284233D01*
X724409Y259811D02*
X722409Y263811D01*
X726409D01*
X724409Y259811D01*
Y260611D02*
X723209Y263011D01*
X725609D01*
X724409Y260611D01*
X421260Y304913D02*
X419260Y308913D01*
X423260D01*
X421260Y304913D01*
Y305713D02*
X420060Y308113D01*
X422460D01*
X421260Y305713D01*
X411417Y304913D02*
X409417Y308913D01*
X413417D01*
X411417Y304913D01*
Y305713D02*
X410217Y308113D01*
X412617D01*
X411417Y305713D01*
X417323Y312961D02*
X415323Y316961D01*
X419323D01*
X417323Y312961D01*
Y313761D02*
X416123Y316161D01*
X418523D01*
X417323Y313761D01*
X421266Y325468D02*
X419266Y329468D01*
X423266D01*
X421266Y325468D01*
Y326268D02*
X420066Y328668D01*
X422466D01*
X421266Y326268D01*
X419548Y320763D02*
X417548Y324763D01*
X421548D01*
X419548Y320763D01*
Y321564D02*
X418348Y323963D01*
X420748D01*
X419548Y321564D01*
X433258Y295937D02*
X431258Y299937D01*
X435258D01*
X433258Y295937D01*
Y296737D02*
X432058Y299137D01*
X434458D01*
X433258Y296737D01*
X726623Y250998D02*
X724623Y254998D01*
X728623D01*
X726623Y250998D01*
Y251798D02*
X725423Y254198D01*
X727823D01*
X726623Y251798D01*
X613692Y273462D02*
X611692Y277462D01*
X615692D01*
X613692Y273462D01*
Y274262D02*
X612492Y276662D01*
X614892D01*
X613692Y274262D01*
X605889Y274822D02*
X603889Y278822D01*
X607889D01*
X605889Y274822D01*
Y275622D02*
X604689Y278022D01*
X607089D01*
X605889Y275622D01*
X731622Y208341D02*
X729622Y212341D01*
X733622D01*
X731622Y208341D01*
Y209141D02*
X730422Y211541D01*
X732822D01*
X731622Y209141D01*
X425338Y304913D02*
X423338Y308913D01*
X427338D01*
X425338Y304913D01*
Y305713D02*
X424138Y308113D01*
X426538D01*
X425338Y305713D01*
X436990Y269666D02*
X434990Y273666D01*
X438990D01*
X436990Y269666D01*
Y270466D02*
X435790Y272866D01*
X438190D01*
X436990Y270466D01*
X437008Y273590D02*
X435008Y277590D01*
X439008D01*
X437008Y273590D01*
Y274391D02*
X435808Y276790D01*
X438208D01*
X437008Y274391D01*
X439347Y295665D02*
X437347Y299665D01*
X441347D01*
X439347Y295665D01*
Y296465D02*
X438147Y298865D01*
X440547D01*
X439347Y296465D01*
X445528Y302177D02*
X443528Y306177D01*
X447528D01*
X445528Y302177D01*
Y302977D02*
X444328Y305377D01*
X446728D01*
X445528Y302977D01*
X438450Y301773D02*
X436450Y305773D01*
X440450D01*
X438450Y301773D01*
Y302573D02*
X437250Y304973D01*
X439650D01*
X438450Y302573D01*
X450271Y301466D02*
X448271Y305466D01*
X452271D01*
X450271Y301466D01*
Y302266D02*
X449071Y304666D01*
X451471D01*
X450271Y302266D01*
X453015Y304730D02*
X451015Y308730D01*
X455015D01*
X453015Y304730D01*
Y305530D02*
X451815Y307930D01*
X454215D01*
X453015Y305530D01*
X465753Y302701D02*
X463753Y306701D01*
X467753D01*
X465753Y302701D01*
Y303501D02*
X464553Y305901D01*
X466953D01*
X465753Y303501D01*
X462598Y312961D02*
X460598Y316961D01*
X464598D01*
X462598Y312961D01*
Y313761D02*
X461398Y316161D01*
X463798D01*
X462598Y313761D01*
X474334Y323756D02*
X472334Y327756D01*
X476334D01*
X474334Y323756D01*
Y324556D02*
X473134Y326956D01*
X475534D01*
X474334Y324556D01*
X736649Y160226D02*
X734649Y164226D01*
X738649D01*
X736649Y160226D01*
Y161026D02*
X735449Y163426D01*
X737849D01*
X736649Y161026D01*
X521654Y287370D02*
X519654Y291370D01*
X523654D01*
X521654Y287370D01*
Y288170D02*
X520454Y290570D01*
X522854D01*
X521654Y288170D01*
X488189Y226346D02*
X486189Y230346D01*
X490189D01*
X488189Y226346D01*
Y227147D02*
X486989Y229546D01*
X489389D01*
X488189Y227147D01*
X492338Y223350D02*
X490338Y227350D01*
X494338D01*
X492338Y223350D01*
Y224150D02*
X491138Y226550D01*
X493538D01*
X492338Y224150D01*
X450803Y218472D02*
X448803Y222472D01*
X452803D01*
X450803Y218472D01*
Y219272D02*
X449603Y221672D01*
X452003D01*
X450803Y219272D01*
X540436Y286899D02*
X538436Y290899D01*
X542436D01*
X540436Y286899D01*
Y287700D02*
X539236Y290100D01*
X541636D01*
X540436Y287700D01*
X467898Y218472D02*
X465898Y222472D01*
X469898D01*
X467898Y218472D01*
Y219272D02*
X466698Y221672D01*
X469098D01*
X467898Y219272D01*
X476785Y263129D02*
X474785Y267129D01*
X478785D01*
X476785Y263129D01*
Y263929D02*
X475585Y266329D01*
X477985D01*
X476785Y263929D01*
X473149Y261057D02*
X471149Y265057D01*
X475149D01*
X473149Y261057D01*
Y261857D02*
X471949Y264257D01*
X474349D01*
X473149Y261857D01*
X493248Y207805D02*
X491248Y211805D01*
X495248D01*
X493248Y207805D01*
Y208605D02*
X492048Y211005D01*
X494448D01*
X493248Y208605D01*
X503937Y206661D02*
X501937Y210661D01*
X505937D01*
X503937Y206661D01*
Y207461D02*
X502737Y209861D01*
X505137D01*
X503937Y207461D01*
X480315Y265717D02*
X478315Y269717D01*
X482315D01*
X480315Y265717D01*
Y266516D02*
X479115Y268917D01*
X481515D01*
X480315Y266516D01*
X476359Y274836D02*
X474359Y278836D01*
X478359D01*
X476359Y274836D01*
Y275636D02*
X475159Y278036D01*
X477559D01*
X476359Y275636D01*
X84646Y228315D02*
X82646Y232315D01*
X86646D01*
X84646Y228315D01*
Y229115D02*
X83446Y231515D01*
X85846D01*
X84646Y229115D01*
X114787Y229309D02*
X112787Y233309D01*
X116787D01*
X114787Y229309D01*
Y230109D02*
X113587Y232509D01*
X115987D01*
X114787Y230109D01*
X109449Y229523D02*
X107449Y233523D01*
X111449D01*
X109449Y229523D01*
Y230323D02*
X108249Y232723D01*
X110649D01*
X109449Y230323D01*
X173622Y228017D02*
X171622Y232017D01*
X175622D01*
X173622Y228017D01*
Y228817D02*
X172422Y231217D01*
X174822D01*
X173622Y228817D01*
X220970Y228090D02*
X218970Y232090D01*
X222970D01*
X220970Y228090D01*
Y228890D02*
X219770Y231290D01*
X222170D01*
X220970Y228890D01*
X268029Y228213D02*
X266030Y232213D01*
X270029D01*
X268029Y228213D01*
Y229013D02*
X266829Y231413D01*
X269230D01*
X268029Y229013D01*
X315127Y227742D02*
X313127Y231742D01*
X317127D01*
X315127Y227742D01*
Y228542D02*
X313927Y230942D01*
X316327D01*
X315127Y228542D01*
X440945Y249969D02*
X438945Y253969D01*
X442945D01*
X440945Y249969D01*
Y250768D02*
X439745Y253169D01*
X442145D01*
X440945Y250768D01*
X437008Y265717D02*
X435008Y269717D01*
X439008D01*
X437008Y265717D01*
Y266516D02*
X435808Y268917D01*
X438208D01*
X437008Y266516D01*
X141732Y194850D02*
X139732Y198850D01*
X143732D01*
X141732Y194850D01*
Y195650D02*
X140532Y198050D01*
X142932D01*
X141732Y195650D01*
X145669Y188945D02*
X143669Y192945D01*
X147669D01*
X145669Y188945D01*
Y189745D02*
X144469Y192145D01*
X146869D01*
X145669Y189745D01*
X84646Y194850D02*
X82646Y198850D01*
X86646D01*
X84646Y194850D01*
Y195650D02*
X83446Y198050D01*
X85846D01*
X84646Y195650D01*
X112205Y120047D02*
X110205Y124047D01*
X114205D01*
X112205Y120047D01*
Y120847D02*
X111005Y123247D01*
X113405D01*
X112205Y120847D01*
X405512Y145638D02*
X403512Y149638D01*
X407512D01*
X405512Y145638D01*
Y146438D02*
X404312Y148838D01*
X406712D01*
X405512Y146438D01*
X346457Y185008D02*
X344457Y189008D01*
X348457D01*
X346457Y185008D01*
Y185808D02*
X345257Y188208D01*
X347657D01*
X346457Y185808D01*
X326772Y151543D02*
X324772Y155543D01*
X328772D01*
X326772Y151543D01*
Y152343D02*
X325572Y154743D01*
X327972D01*
X326772Y152343D01*
D224*
X470110Y336221D02*
G03*
X470110Y336221I-2000J0D01*
G01*
X493732D02*
G03*
X493732Y336221I-2000J0D01*
G01*
X616173Y161811D02*
G03*
X616173Y161811I-2000J0D01*
G01*
X683102D02*
G03*
X683102Y161811I-2000J0D01*
G01*
D225*
X469310Y336221D02*
G03*
X469310Y336221I-1200J0D01*
G01*
X492932D02*
G03*
X492932Y336221I-1200J0D01*
G01*
M02*
