G04*
G04 #@! TF.GenerationSoftware,Altium Limited,Altium Designer,25.5.2 (35)*
G04*
G04 Layer_Color=16711935*
%FSLAX25Y25*%
%MOIN*%
G70*
G04*
G04 #@! TF.SameCoordinates,74914265-353A-42BA-94C5-A8DABEA31AB8*
G04*
G04*
G04 #@! TF.FilePolarity,Positive*
G04*
G01*
G75*
%ADD15C,0.00394*%
%ADD17C,0.01000*%
%ADD220C,0.00000*%
%ADD221C,0.00591*%
D15*
X160162Y260248D02*
X162458D01*
X162917Y260707D01*
Y261626D01*
X162458Y262085D01*
X160162D01*
X162917Y263003D02*
Y263921D01*
Y263462D01*
X160162D01*
X160622Y263003D01*
X160162Y265299D02*
Y267136D01*
X160622D01*
X162458Y265299D01*
X162917D01*
D17*
X700153Y297904D02*
G03*
X699995Y268585I-40829J-14439D01*
G01*
X39370Y39370D02*
X748032D01*
X39370Y354331D02*
X748032D01*
Y39370D02*
Y354331D01*
X39370Y39370D02*
Y354331D01*
X146696Y310704D02*
Y339704D01*
X124696Y310704D02*
Y339704D01*
Y310704D02*
X146696D01*
X124696Y339704D02*
X146696D01*
X608268Y240158D02*
Y342520D01*
X710630Y240158D02*
Y342520D01*
X608268D02*
X710630D01*
X608268Y240158D02*
X710630D01*
X699995Y268585D02*
X700475Y269065D01*
X709724D01*
Y283265D01*
Y283465D02*
Y297665D01*
X700153Y297904D02*
X700393Y297665D01*
X709724D01*
X716339Y313807D02*
X716339Y272807D01*
X740354D01*
Y313807D01*
X716339D02*
X740354D01*
X724902Y223721D02*
X739665D01*
X724902Y248721D02*
X739665D01*
Y223721D02*
Y248721D01*
X724902Y223721D02*
Y248721D01*
Y137106D02*
Y162106D01*
X739665Y137106D02*
Y162106D01*
X724902D02*
X739665D01*
X724902Y137106D02*
X739665D01*
X724902Y180413D02*
Y205413D01*
X739665Y180413D02*
Y205413D01*
X724902D02*
X739665D01*
X724902Y180413D02*
X739665D01*
X117047Y77992D02*
X137047D01*
X117047Y47992D02*
X137047D01*
Y77992D01*
X117047Y47992D02*
Y77992D01*
D220*
X466378Y336221D02*
G03*
X467618Y334980I1240J0D01*
G01*
Y337461D02*
G03*
X466378Y336221I0J-1240D01*
G01*
X469842D02*
G03*
X468602Y337461I-1240J0D01*
G01*
Y334980D02*
G03*
X469842Y336221I0J1240D01*
G01*
X467618Y334980D02*
X468602D01*
X467618Y337461D02*
X468602D01*
D221*
X237041Y307461D02*
X241305D01*
X242158Y308313D01*
Y310019D01*
X241305Y310872D01*
X237041D01*
X242158Y312577D02*
Y314283D01*
Y313430D01*
X237041D01*
X237894Y312577D01*
X242158Y316841D02*
Y318546D01*
Y317693D01*
X237041D01*
X237894Y316841D01*
M02*
