G04*
G04 #@! TF.GenerationSoftware,Altium Limited,Altium Designer,25.5.2 (35)*
G04*
G04 Layer_Color=32896*
%FSLAX25Y25*%
%MOIN*%
G70*
G04*
G04 #@! TF.SameCoordinates,74914265-353A-42BA-94C5-A8DABEA31AB8*
G04*
G04*
G04 #@! TF.FilePolarity,Positive*
G04*
G01*
G75*
%ADD15C,0.00394*%
%ADD223C,0.00197*%
D15*
X291772Y39370D02*
Y83465D01*
X205787D02*
X291772D01*
X205787Y39370D02*
Y83465D01*
X205787Y39370D02*
X291772D01*
X307402D02*
X363386D01*
X307402D02*
Y83465D01*
X363386D01*
Y39370D02*
Y83465D01*
X520118Y39370D02*
Y83465D01*
X434134D02*
X520118D01*
X434134Y39370D02*
Y83465D01*
X434134Y39370D02*
X520118D01*
X590984D02*
Y83465D01*
X535000D02*
X590984D01*
X535000Y39370D02*
Y83465D01*
Y39370D02*
X590984D01*
X650039D02*
Y83465D01*
X594055D02*
X650039D01*
X594055Y39370D02*
Y83465D01*
Y39370D02*
X650039D01*
X709094D02*
Y83465D01*
X653110D02*
X709094D01*
X653110Y39370D02*
Y83465D01*
Y39370D02*
X709094D01*
X46811D02*
X102795D01*
X46811D02*
Y83465D01*
X102795D01*
Y39370D02*
Y83465D01*
X39370Y305906D02*
X83465D01*
Y346890D01*
X39370D02*
X83465D01*
X39370Y305906D02*
Y346890D01*
D223*
X261221Y269193D02*
Y325295D01*
X313583D01*
Y269193D02*
Y325295D01*
X261221Y269193D02*
X313583D01*
M02*
