M48
;Layer_Color=9474304
;FILE_FORMAT=2:5
INCH,TZ
;TYPE=PLATED
T01F00S00C0.01181
T03F00S00C0.03071
T04F00S00C0.03200
T05F00S00C0.03543
T06F00S00C0.03937
T07F00S00C0.05079
T08F00S00C0.05197
T09F00S00C0.05512
%
T01
X53150Y47244
X64961
X76772
X88583
X100394
X94488Y59055
X82677
X70866
X59055
X47244
Y82677
Y129921
X62992Y137795
X70866
X76772
X72954Y142968
X66929Y141732
X84608Y106457
X86614Y98425
X112205Y122047
X130654Y148371
X129921Y82677
X141732
X149606Y82677
X141732Y59055
X157480Y82677
X171260
X181102
X183071Y94488
X171260
X183071Y47244
X253937
X265748
X277559
X289370
X301181
X295275Y59055
X307086
X283465
X271654
X259842
X289370Y70866
X318898Y59055
X330709
X342520
X354331
X366142
X377953
X383858Y47244
X372047
X360236
X348425
X336614
X324803
X312992
X324803Y141732
X326772Y153543
X370000Y150000
X375000Y140000
X385000
X390000Y150000
X405512Y147638
X411417Y139764
X427165Y153543
X425000Y100000
X435000
X430000Y90000
X435000Y80000
X425000
X415000
X405000
X400000Y90000
X405000Y100000
X415000
X384081Y98866
X380000Y130000
X370000
X365000Y140000
X420000Y70000
X430000
X435000Y60000
X425000
X430000Y50000
X420000
X454724Y47244
X466535
X460630Y59055
X448819
X472441
X484252
X496063
X507874
X519685
X531496
X525590Y70866
Y47244
X513779
X501968
X490157
X478346
X537401
X549212
X561023
X572834
X584646
X596456
X608267
X620079
X590551Y59055
X578740
X566929
X590551Y129921
X584646Y141732
X578740Y153543
X570866Y149606
X546217Y149742
X643701Y141732
X655512
X649606Y129921
X637795
X702756Y141732
X726378Y94488
X738189
X732283Y82677
X720472
X702756Y47244
X690945
X679134
X667323
X655512
X643701
X631890
X649606Y59055
X643701Y165354
X655512
X653543Y185039
X643701Y188976
X675197Y181102
X683071Y179134
X702756Y165354
X728346Y163386
X736649Y162226
X740158Y173228
Y200787
X731622Y210341
X714567Y224409
X708661Y236220
X724529Y245330
X726623Y252998
X724409Y261811
X696850Y259842
X702756Y271654
X679134
X667323
X655512
X643701
Y248031
X655512
X667323
X679134
X690945
X685039Y283465
X673228
X661417
X631890Y248031
X655512Y224409
X667323
X708661Y307086
X726378Y295275
X614173Y307086
Y283465
X613692Y275462
X605889Y276822
X601342Y291136
X592520Y295276
X576772Y291339
X566929
Y283465
X555118Y279528
X547244Y277559
X542043Y278429
X530712Y278565
X518543Y282677
X512385Y282932
X509842Y287402
X521654Y289370
X524343Y293073
X515212Y304006
X496063Y307086
X496063Y295276
X488091Y293275
X488189Y285433
X497275Y283642
X496967Y275429
X496063Y265748
Y255906
X496901Y250600
X498032Y244094
X492338Y225350
X488189Y228346
X484252Y212598
X493248Y209805
X498032Y202756
X503937Y208661
X478346Y202756
X523622Y194882
X561023Y200787
X580709Y216535
X578740Y236220
X566929
X555118
X549212Y248031
X561023
X572835Y253937
X602362Y259842
X543307Y259842
X531496Y240158
X507874Y259842
X480315Y267717
X476785Y265129
X473149Y263057
X473500Y268269
X476359Y276836
X476016Y280197
X473577Y282512
X474409Y289370
X470836Y297248
X470842Y304456
X481867Y275061
X540436Y288899
X549044Y288479
X541166Y311656
X566929Y307086
X594488Y185039
X611066Y182008
X618110Y181102
X460630Y188976
X458661Y202756
X450803Y220472
X454875Y230862
X459584Y230531
X464567Y240158
X467898Y220472
X431045Y227994
X429262Y257865
X440945Y251969
X437008Y267717
X436990Y271666
X437008Y275590
Y279528
X433071Y285433
X433258Y297937
X439347Y297665
X438450Y303773
X445528Y304177
X450271Y303466
X453015Y306730
X460604Y303552
X465753Y304701
X460686Y297300
X454724Y297244
X442913Y293307
X450787Y285433
Y273622
X456693Y279528
X462598Y273622
Y285433
X465574Y262651
X411433Y267717
X416185Y275656
X413298Y289798
X399606Y293307
Y303150
Y309055
X391732
Y303150
X411417Y306913
X421260
X425338
X405512Y257874
X397638Y265748
X362205
Y271654
X356299Y269685
Y275590
X350394Y277559
Y271654
Y265748
X356299Y263779
X364380Y244350
X330709Y246063
X312992Y248031
X315127Y229742
X324803Y271654
X336614
X330709Y283465
X318898
X312992Y295275
X383858Y226378
X385827Y192913
X390000Y170000
X380000
X370000
X375000Y160000
X385000
X395000
X403830Y179599
X429055Y190317
X346457Y187008
X341195Y174746
X340765Y164614
X324803Y163386
X326772Y157480
X365000Y160000
X287479Y180693
X271654Y177165
X250000Y181102
Y196850
Y230315
X268029Y230213
X265748Y248031
X277559
X289370
X301181
X297244Y228346
Y196850
X253937Y248031
X242126
X230315
X218504
X206693
X194882
X183071
X171260
X177165Y261811
X183071Y271654
X194882
X165354Y278559
X173622Y230017
X202756Y230315
X220970Y230090
X200787Y196850
X212598Y183071
X230315Y165354
X194882
X175197Y181102
X224409Y307086
X236220
X248031Y299213
X265748Y295275
X277559
X289370
X301181
X143581Y296009
X143612Y287313
X129921Y283465
X118110
X106299
X94488
X82677
X88583Y295275
X100394
X112205
Y271654
X124016
X135827
X147638
X153543Y251969
X149123Y236833
X147638Y228346
X155512Y232283
X129556Y237493
X122047Y228346
X114787Y231309
X109449Y231523
X94488Y230315
X84646
X74803Y240158
X76984Y246497
X70866Y246063
X62992
X74803Y251969
X70866Y255906
X76772Y271654
X88583
X100394
X106299Y259842
X118110
X129921
X112205Y248031
X100394
X88583
X94488Y259842
X82677Y307086
X70866
X47244
Y236220
Y200787
Y177165
X53150Y165354
X70157Y157324
X84646Y196850
X94488Y198819
X122354Y201573
X127953Y198819
X127280Y189575
X133858Y188976
X145669Y190945
X144426Y183952
X141732Y196850
X149349Y200094
X155512Y196850
X141732Y320866
Y326772
X129921
Y320866
X53150Y318898
X59055Y330709
X47244
X53150Y342520
X159449
X171260
X183071
X194882
X206693
X218504
X230315Y344488
Y336614
X240158
Y344488
X250000
Y336614
Y326772
Y318898
X240158
Y326772
X230315
Y318898
X332677Y342520
X370079Y346457
X375984
X381890
X379921Y340551
X381890Y334646
X375984
X370079
X372047Y340551
X391732Y314961
X399606
X411417
X417323
X419548Y322763
X421266Y327468
X462598Y314961
X483815Y316056
X474334Y325756
X531496Y330709
X543307
X555118
X549212Y318898
X537401
X608267Y342520
X631890
Y318898
X643701
X655512
X679134
X690945
X702756
X714567
X736221Y314961
X685039Y330709
X690945Y342520
T03
X66929Y184409
Y204409
Y224410
Y234409
T04
X627924Y283465
X704724
T05
X207480Y96457
Y106299
Y116142
X220472
Y106299
Y96457
X231693
Y106299
Y116142
X244685
Y106299
Y96457
X254724
Y106299
Y116142
X267717
Y106299
Y96457
X278937
Y106299
Y116142
X291929
Y106299
Y96457
X316929
Y106299
Y116142
X329921
Y106299
Y96457
X341339
Y106299
Y116142
X354331
Y106299
Y96457
T06
X122047Y52992
Y62992
X132047
Y72992
X122047
X132047Y52992
X155169Y53031
X165169
X175169
X427402Y338500
X437402
X447402
X644449Y336811
X654449
X664449
X674449
T07
X681102Y161811
X614173
T08
X590551Y105905
Y153937
X637795
X657480
X704724
Y105905
X657480
X637795
T09
X59803Y74803
X74803
X89803
X218779Y74803
X233780
X248780
X263779
X278780
X320394
X335394
X350394
X447126Y74803
X462126
X477126
X492126
X507126
X547992
X562992
X577992
X607047
X622047
X637047
X666102
X681102
X696102
X74803Y318898
Y333898
M30
